<svg id="_0" data-name="0" xmlns="http://www.w3.org/2000/svg" viewBox="0 0 161.5 114.39"><defs><style>.cls-1{fill:none;stroke:#000;stroke-linecap:round;stroke-linejoin:round;stroke-width:0.71px;}</style></defs><g id="LWPOLYLINE"><path class="cls-1" d="M176.9,42V99.54a1,1,0,0,1-1,1H132.51a1,1,0,0,0-1,1v5.57a1,1,0,0,1-1,1H101.94A71.34,71.34,0,0,0,51.49,129l-6.74,6.74a1,1,0,0,1-1.41,0L16.4,108.81a1,1,0,0,1,0-1.42l6.73-6.73A111.51,111.51,0,0,1,60.22,76.11a1,1,0,0,0,.63-.92V28.59a1,1,0,0,1,.74-1A157,157,0,0,1,176.37,41.11,1,1,0,0,1,176.9,42Z" transform="translate(-15.75 -22)"/></g><g id="LWPOLYLINE-2" data-name="LWPOLYLINE"><rect class="cls-1" x="67.43" y="49.52" width="14" height="14" rx="1"/></g><g id="LWPOLYLINE-3" data-name="LWPOLYLINE"><rect class="cls-1" x="73.75" y="93.38" width="14" height="14" rx="1" transform="matrix(0.97, -0.26, 0.26, 0.97, -38.98, 2.32)"/></g><g id="LWPOLYLINE-4" data-name="LWPOLYLINE"><rect class="cls-1" x="86.48" y="4.92" width="14" height="14" rx="1"/></g><g id="LWPOLYLINE-5" data-name="LWPOLYLINE"><rect class="cls-1" x="48.38" y="52.02" width="14" height="14" rx="1"/></g><g id="LWPOLYLINE-6" data-name="LWPOLYLINE"><rect class="cls-1" x="79.19" y="68.59" width="14" height="14" rx="1"/></g><g id="LWPOLYLINE-7" data-name="LWPOLYLINE"><rect class="cls-1" x="48.38" y="32.97" width="14" height="14" rx="1"/></g><g id="LWPOLYLINE-8" data-name="LWPOLYLINE"><path class="cls-1" d="M66.84,102.67a1,1,0,0,1-1.37-.36l-6.35-11a1,1,0,0,1,.37-1.37L61,89.07a1,1,0,0,0,.36-1.37l-3.59-6.21a1,1,0,0,0-1.36-.37L42.78,89a1,1,0,0,0-.37,1.36l.3.53a1,1,0,0,1-.26,1.29,1,1,0,0,0-.26,1.3l1,1.73a1,1,0,0,0,1.25.42,1,1,0,0,1,1.26.43l8.95,15.5a1,1,0,0,1-.26,1.3,1,1,0,0,0-.26,1.3l1,1.74a1,1,0,0,0,1.25.42,1,1,0,0,1,1.25.43l.3.5a1,1,0,0,0,1.36.37l13.64-7.87a1,1,0,0,0,.37-1.37l-3.59-6.21a1,1,0,0,0-1.36-.37Z" transform="translate(-15.75 -22)"/></g><g id="LWPOLYLINE-9" data-name="LWPOLYLINE"><path class="cls-1" d="M173.37,96V84a1,1,0,0,0-1-1h-1a1,1,0,0,1-1-.88,1,1,0,0,0-1-.87h-6a1,1,0,0,0-1,.87,1,1,0,0,1-1,.88h-1a1,1,0,0,0-1,1V96a1,1,0,0,0,1,1h1a1,1,0,0,1,1,.87,1,1,0,0,0,1,.88h6a1,1,0,0,0,1-.88,1,1,0,0,1,1-.87h1A1,1,0,0,0,173.37,96Z" transform="translate(-15.75 -22)"/></g><g id="LWPOLYLINE-10" data-name="LWPOLYLINE"><rect class="cls-1" x="67.43" y="30.47" width="14" height="14" rx="1"/></g><g id="LWPOLYLINE-11" data-name="LWPOLYLINE"><rect class="cls-1" x="48.38" y="13.92" width="14" height="14" rx="1"/></g><g id="LWPOLYLINE-12" data-name="LWPOLYLINE"><rect class="cls-1" x="86.48" y="23.97" width="14" height="14" rx="1"/></g><g id="LWPOLYLINE-13" data-name="LWPOLYLINE"><rect class="cls-1" x="67.43" y="11.42" width="14" height="14" rx="1"/></g><g id="LWPOLYLINE-14" data-name="LWPOLYLINE"><path class="cls-1" d="M21.8,109.22a1,1,0,0,1,.08,1.32,1,1,0,0,0,.08,1.32l1.43,1.43a1,1,0,0,0,1.32.08,1,1,0,0,1,1.32.08L38.68,126.1a1,1,0,0,1,.08,1.32,1,1,0,0,0,.08,1.32l1.43,1.43a1,1,0,0,0,1.32.08,1,1,0,0,1,1.32.09l.43.42a1,1,0,0,0,1.41,0l11.14-11.14a1,1,0,0,0,0-1.41l-5.08-5.07a1,1,0,0,0-1.41,0l-1.24,1.23a1,1,0,0,1-1.41,0l-9-9a1,1,0,0,1,0-1.41L39,102.74a1,1,0,0,0,0-1.41l-5.07-5.08a1,1,0,0,0-1.41,0L21.38,107.39a1,1,0,0,0,0,1.42Z" transform="translate(-15.75 -22)"/></g><g id="LWPOLYLINE-15" data-name="LWPOLYLINE"><rect class="cls-1" x="105.53" y="29.97" width="14" height="14" rx="1"/></g><g id="LWPOLYLINE-16" data-name="LWPOLYLINE"><rect class="cls-1" x="124.58" y="61.02" width="14" height="14" rx="1"/></g><g id="LWPOLYLINE-17" data-name="LWPOLYLINE"><rect class="cls-1" x="105.53" y="10.92" width="14" height="14" rx="1"/></g><g id="LWPOLYLINE-18" data-name="LWPOLYLINE"><rect class="cls-1" x="105.53" y="49.02" width="14" height="14" rx="1"/></g><g id="LWPOLYLINE-19" data-name="LWPOLYLINE"><rect class="cls-1" x="143.63" y="41.97" width="14" height="14" rx="1"/></g><g id="LWPOLYLINE-20" data-name="LWPOLYLINE"><path class="cls-1" d="M163.36,60.67h6a1,1,0,0,0,1-.88,1,1,0,0,1,1-.87h1a1,1,0,0,0,1-1v-12a1,1,0,0,0-1-1h-1a1,1,0,0,1-1-.88,1,1,0,0,0-1-.87h-6a1,1,0,0,0-1,.87,1,1,0,0,1-1,.88h-1a1,1,0,0,0-1,1v12a1,1,0,0,0,1,1h1a1,1,0,0,1,1,.87A1,1,0,0,0,163.36,60.67Z" transform="translate(-15.75 -22)"/></g><g id="LWPOLYLINE-21" data-name="LWPOLYLINE"><rect class="cls-1" x="124.58" y="22.92" width="14" height="14" rx="1"/></g><g id="LWPOLYLINE-22" data-name="LWPOLYLINE"><rect class="cls-1" x="124.58" y="41.97" width="14" height="14" rx="1"/></g><g id="LWPOLYLINE-23" data-name="LWPOLYLINE"><path class="cls-1" d="M114,91.59a1,1,0,0,1,1-1h1a1,1,0,0,0,1-.88,1,1,0,0,1,1-.87h6a1,1,0,0,1,1,.87,1,1,0,0,0,1,.88h1a1,1,0,0,1,1,1v12a1,1,0,0,1-1,1h-1a1,1,0,0,0-1,.87,1,1,0,0,1-1,.88h-6a1,1,0,0,1-1-.88,1,1,0,0,0-1-.87h-1a1,1,0,0,1-1-1Z" transform="translate(-15.75 -22)"/></g><g id="LWPOLYLINE-24" data-name="LWPOLYLINE"><rect class="cls-1" x="86.48" y="43.02" width="14" height="14" rx="1"/></g><g id="CIRCLE"><path class="cls-1" d="M82.1,29.89a1.45,1.45,0,1,1-1.45-1.45,1.45,1.45,0,0,1,1.45,1.45Z" transform="translate(-15.75 -22)"/></g><g id="CIRCLE-2" data-name="CIRCLE"><path class="cls-1" d="M141.77,40.17a1.45,1.45,0,1,1-1.45-1.45,1.45,1.45,0,0,1,1.45,1.45Z" transform="translate(-15.75 -22)"/></g><g id="CIRCLE-3" data-name="CIRCLE"><path class="cls-1" d="M158.3,42.39a1.45,1.45,0,1,1-1.45-1.45,1.45,1.45,0,0,1,1.45,1.45Z" transform="translate(-15.75 -22)"/></g><g id="CIRCLE-4" data-name="CIRCLE"><path class="cls-1" d="M158.3,80.49A1.45,1.45,0,1,1,156.85,79a1.45,1.45,0,0,1,1.45,1.45Z" transform="translate(-15.75 -22)"/></g><g id="CIRCLE-5" data-name="CIRCLE"><path class="cls-1" d="M135.61,89.77a1.45,1.45,0,1,1-1.45-1.45,1.45,1.45,0,0,1,1.45,1.45Z" transform="translate(-15.75 -22)"/></g><g id="CIRCLE-6" data-name="CIRCLE"><path class="cls-1" d="M91.4,88.39A1.45,1.45,0,1,1,90,86.94a1.45,1.45,0,0,1,1.45,1.45Z" transform="translate(-15.75 -22)"/></g><g id="CIRCLE-7" data-name="CIRCLE"><path class="cls-1" d="M47.47,106.59A1.45,1.45,0,1,1,46,105.14a1.45,1.45,0,0,1,1.45,1.45Z" transform="translate(-15.75 -22)"/></g></svg>