0
SECTION
2
HEADER
9
$INSUNITS
70
4
9
$ACADVER
1
AC1014
9
$HANDSEED
5
FFFF
0
ENDSEC
0
SECTION
2
TABLES
0
TABLE
2
VPORT
5
8
100
AcDbSymbolTable
0
ENDTAB
0
TABLE
2
LTYPE
5
5
100
AcDbSymbolTable
0
LTYPE
5
14
100
AcDbSymbolTableRecord
100
AcDbLinetypeTableRecord
2
BYBLOCK
70
0
0
LTYPE
5
15
100
AcDbSymbolTableRecord
100
AcDbLinetypeTableRecord
2
BYLAYER
70
0
0
ENDTAB
0
TABLE
2
LAYER
5
2
100
AcDbSymbolTable
70
2
0
LAYER
5
50
100
AcDbSymbolTableRecord
100
AcDbLayerTableRecord
2
0
70
0
6
CONTINUOUS
0
ENDTAB
0
TABLE
2
STYLE
5
3
100
AcDbSymbolTable
70
1
0
STYLE
5
11
100
AcDbSymbolTableRecord
100
AcDbTextStyleTableRecord
2
STANDARD
70
0
0
ENDTAB
0
TABLE
2
VIEW
5
6
100
AcDbSymbolTable
70
0
0
ENDTAB
0
TABLE
2
UCS
5
7
100
AcDbSymbolTable
70
0
0
ENDTAB
0
TABLE
2
APPID
5
9
100
AcDbSymbolTable
70
2
0
APPID
5
12
100
AcDbSymbolTableRecord
100
AcDbRegAppTableRecord
2
ACAD
70
0
0
ENDTAB
0
TABLE
2
DIMSTYLE
5
A
100
AcDbSymbolTable
70
1
0
ENDTAB
0
TABLE
2
BLOCK_RECORD
5
1
100
AcDbSymbolTable
70
1
0
BLOCK_RECORD
5
1F
100
AcDbSymbolTableRecord
100
AcDbBlockTableRecord
2
*MODEL_SPACE
0
BLOCK_RECORD
5
1B
100
AcDbSymbolTableRecord
100
AcDbBlockTableRecord
2
*PAPER_SPACE
0
ENDTAB
0
ENDSEC
0
SECTION
2
BLOCKS
0
BLOCK
5
20
100
AcDbEntity
100
AcDbBlockBegin
2
*MODEL_SPACE
0
ENDBLK
5
21
100
AcDbEntity
100
AcDbBlockEnd
0
BLOCK
5
1C
100
AcDbEntity
100
AcDbBlockBegin
2
*PAPER_SPACE
0
ENDBLK
5
1D
100
AcDbEntity
100
AcDbBlockEnd
0
ENDSEC
0
SECTION
2
ENTITIES
0
CIRCLE
5
100
100
AcDbEntity
8
0
100
AcDbCircle
10
-111.96821431508693
20
57.25283651430972
30
0
40
1.6000000000000003
210
0
220
-0
230
1
0
CIRCLE
5
101
100
AcDbEntity
8
0
100
AcDbCircle
10
-123.22500000000002
20
31.572118032064797
30
0
40
1.6000000000000003
210
0
220
-0
230
1
0
LWPOLYLINE
5
102
100
AcDbEntity
8
0
100
AcDbPolyline
90
12
70
1
43
0.0
10
-109.22499999999998
20
55.850492485377714
42
-0.29597983141445799
10
-109.81747848365691
20
54.937296879980124
42
0.017388600609651025
10
-119.69499554357046
20
50.110824590475652
42
0.27716475387383432
10
-120.22500000000002
20
49.22815580263736
10
-120.22500000000002
20
29.572118032064793
42
-0.41421356237309631
10
-121.22500000000002
20
28.572118032064793
10
-125.22500000000001
20
28.572118032064779
42
-0.41421356237309631
10
-126.22500000000002
20
29.572118032064797
10
-126.22500000000008
20
51.314066405454646
42
-0.27363282930052923
10
-124.41040976365792
20
54.381539947079183
42
-0.023403459918490899
10
-110.62252748605874
20
61.13766072083191
42
-0.53970424987386123
10
-109.22499999999999
20
60.220070453976469
0
CIRCLE
5
103
100
AcDbEntity
8
0
100
AcDbCircle
10
33.264438946741961
20
50.799057522432847
30
0
40
1.6000000000000003
210
0
220
-0
230
1
0
CIRCLE
5
104
100
AcDbEntity
8
0
100
AcDbCircle
10
-123.22499999999964
20
-4.2261046507014388
30
0
40
1.6000000000000003
210
0
220
-0
230
1
0
CIRCLE
5
105
100
AcDbEntity
8
0
100
AcDbCircle
10
-103.27994644738452
20
-51.159802107118473
30
0
40
1.6000000000000003
210
0
220
-0
230
1
0
CIRCLE
5
106
100
AcDbEntity
8
0
100
AcDbCircle
10
-136.35980210711904
20
-18.079946447384994
30
0
40
1.6000000000000003
210
0
220
-0
230
1
0
CIRCLE
5
107
100
AcDbEntity
8
0
100
AcDbCircle
10
-83.567215439701172
20
67.070106416105432
30
0
40
1.6000000000000003
210
0
220
-0
230
1
0
CIRCLE
5
108
100
AcDbEntity
8
0
100
AcDbCircle
10
32.915990257669733
20
-13.865990257669791
30
0
40
1.6000000000000003
210
0
220
-0
230
1
0
LWPOLYLINE
5
109
100
AcDbEntity
8
0
100
AcDbPolyline
90
23
70
1
43
0.0
10
-86.475000000000009
20
68.658184848849572
42
-0.34321389948162834
10
-85.720785651813884
20
69.627509053314924
42
-0.19199184356317836
10
34.784856172339921
20
53.745776832084509
42
-0.27148769664201206
10
36.574999999999996
20
50.691862643717229
10
36.575000000000003
20
-14.025000000000059
42
-0.4142135623730952
10
33.074999999999996
20
-17.525000000000059
10
-5.310891332880904
20
-17.525000000000055
42
0.41421356237309515
10
-8.8108913328809066
20
-21.025000000000059
10
-8.8108913328809031
20
-21.594827819785507
42
-0.41421356237309453
10
-12.310891332880907
20
-25.094827819785511
10
-45.385891332880952
20
-25.094827819785515
42
0.19891236737965884
10
-90.887900107090758
20
-43.942376969282869
10
-100.80507271323151
20
-53.859549575424268
42
-0.41421356237309037
10
-105.75482018153735
20
-53.85954957542431
10
-139.0595495754244
20
-20.554820181537909
42
-0.41421356237309126
10
-139.05954957542446
20
-15.605072713232053
10
-129.14237696928322
20
-5.687900107090595
42
-0.02086227680072418
10
-121.87071642505785
20
1.0010082958988162
42
-0.63841700195445517
10
-120.22500000000001
20
0.23743099240524757
10
-120.22499999999999
20
-4.6346627839014687
42
0.64349477258744514
10
-118.56835794617162
20
-5.3888651527282931
42
-0.083373196303120206
10
-87.100706766266967
20
13.903948228315329
42
0.3058230674695307
10
-86.475000000000009
20
14.83125862682364
0
LWPOLYLINE
5
110
100
AcDbEntity
8
0
100
AcDbPolyline
90
38
70
1
43
0.0
10
-104.89073287895479
20
0.82102311064277023
10
-103.97198287895493
20
-0.77029856881085412
42
-0.41421356237310913
10
-104.24650193179326
20
-1.7948176216491851
10
-104.98262352501013
20
-2.2198176216492342
42
0.41421356237311524
10
-105.25714257784843
20
-3.2443366744876077
10
-104.00714257784826
20
-5.4094001839486916
42
0.41421356237308266
10
-102.98262352500993
20
-5.6839192367869815
10
-102.2465019317932
20
-5.2589192367869986
42
-0.41421356237310941
10
-101.22198287895488
20
-5.5334382896253143
10
-92.034482878954776
20
-21.446655084164313
42
-0.4142135623730937
10
-92.309001931793091
20
-22.471174137002642
10
-93.045123525010041
20
-22.896174137002753
42
0.41421356237308127
10
-93.319642577848384
20
-23.920693189841067
10
-92.069642577848327
20
-26.085756699302291
42
0.4142135623730942
10
-91.045123525010013
20
-26.360275752140623
10
-90.30900193179319
20
-25.935275752140605
42
-0.41421356237307871
10
-89.284482878954861
20
-26.20979480497892
10
-88.365732878954674
20
-27.80111648443313
42
0.41421356237309287
10
-87.341213826116345
20
-28.075635537271445
10
-77.555126763352206
20
-22.425635537271383
42
0.26794919243116366
10
-77.180126763352206
20
-21.776116484432947
42
-0.26794919243115617
10
-76.805126763352206
20
-21.126597431594504
10
-74.162916256890071
20
-19.601116484432911
42
0.4142135623730866
10
-73.888397204051742
20
-18.5765974315946
10
-77.725897204051648
20
-11.929852457548956
42
0.41421356237310292
10
-78.750416256889991
20
-11.655333404710625
10
-81.218588657675667
20
-13.080333404710673
42
-0.41421356237309465
10
-82.243107710514039
20
-12.80581435187238
10
-88.843107710513976
20
-1.3742790219180638
42
-0.41421356237309959
10
-88.568588657675647
20
-0.34975996907973483
10
-86.100416256889801
20
1.07524003092043
42
0.41421356237308243
10
-85.825897204051472
20
2.099759083758741
10
-89.663397204051392
20
8.7465040578043904
42
0.41421356237310203
10
-90.687916256889736
20
9.0210231106427194
10
-93.330126763352027
20
7.495542163481014
42
-0.26794919243119342
10
-94.080126763352197
20
7.4955421634810957
42
0.26794919243119181
10
-94.830126763352368
20
7.495542163481181
10
-104.61621382611648
20
1.8455421634810949
42
0.41421356237309048
0
LWPOLYLINE
5
111
100
AcDbEntity
8
0
100
AcDbPolyline
90
24
70
1
43
0.0
10
-19.335891332880934
20
-1.1698278197855605
10
-21.585891332880959
20
-1.1698278197855592
42
-0.41421356237309365
10
-22.335891332880959
20
-0.41982781978556089
10
-22.335891332880959
20
0.43017218021443865
42
0.41421356237309509
10
-23.085891332880962
20
1.1801721802144405
10
-29.585891332880962
20
1.18017218021444
42
0.41421356237309503
10
-30.335891332880962
20
0.43017218021443976
10
-30.335891332880962
20
-0.41982781978556066
42
-0.41421356237309359
10
-31.085891332880962
20
-1.1698278197855605
10
-33.335891332880941
20
-1.1698278197855607
42
0.4142135623730947
10
-34.085891332880948
20
-1.9198278197855601
10
-34.085891332880941
20
-13.219827819785564
42
0.41421356237309503
10
-33.335891332880941
20
-13.969827819785563
10
-31.085891332880962
20
-13.969827819785564
42
-0.41421356237309337
10
-30.335891332880962
20
-14.719827819785563
10
-30.335891332880962
20
-15.569827819785552
42
0.41421356237309503
10
-29.585891332880962
20
-16.319827819785552
10
-23.085891332880966
20
-16.319827819785552
42
0.41421356237309503
10
-22.335891332880955
20
-15.569827819785552
10
-22.335891332880962
20
-14.719827819785563
42
-0.41421356237309337
10
-21.585891332880959
20
-13.969827819785561
10
-19.335891332880934
20
-13.969827819785563
42
0.41421356237309503
10
-18.585891332880937
20
-13.219827819785564
10
-18.585891332880934
20
-1.9198278197855601
42
0.41421356237309503
0
LWPOLYLINE
5
112
100
AcDbEntity
8
0
100
AcDbPolyline
90
8
70
1
43
0.0
10
-64.900000000000006
20
36.20000000000001
10
-64.900000000000006
20
24.900000000000013
42
0.41421356237309503
10
-64.150000000000006
20
24.150000000000009
10
-50.150000000000006
20
24.150000000000009
42
0.41421356237309503
10
-49.399999999999991
20
24.900000000000013
10
-49.400000000000006
20
36.20000000000001
42
0.41421356237309503
10
-50.150000000000006
20
36.95000000000001
10
-64.150000000000006
20
36.95000000000001
42
0.41421356237309503
0
LWPOLYLINE
5
113
100
AcDbEntity
8
0
100
AcDbPolyline
90
8
70
1
43
0.0
10
-26.799999999999766
20
17.649999999999839
10
-26.799999999999766
20
6.349999999999838
42
0.41421356237309503
10
-26.049999999999759
20
5.5999999999998362
10
-12.049999999999756
20
5.5999999999998371
42
0.41421356237309503
10
-11.299999999999759
20
6.349999999999838
10
-11.299999999999757
20
17.649999999999835
42
0.41421356237309503
10
-12.049999999999756
20
18.399999999999839
10
-26.049999999999759
20
18.399999999999839
42
0.41421356237309503
0
LWPOLYLINE
5
114
100
AcDbEntity
8
0
100
AcDbPolyline
90
8
70
1
43
0.0
10
11.299999999999999
20
24.699990000000007
10
11.299999999999999
20
13.399990000000006
42
0.4142135623730942
10
12.049999999999997
20
12.649990000000004
10
26.050000000000001
20
12.649990000000004
42
0.41421356237309503
10
26.799999999999997
20
13.399990000000004
10
26.800000000000001
20
24.699990000000007
42
0.41421356237309681
10
26.049999999999997
20
25.449990000000007
10
12.049999999999994
20
25.449990000000007
42
0.4142135623730942
0
LWPOLYLINE
5
115
100
AcDbEntity
8
0
100
AcDbPolyline
90
8
70
1
43
0.0
10
-45.850000000000009
20
61.750000000000007
10
-45.850000000000009
20
50.450000000000003
42
0.41421356237309503
10
-45.100000000000009
20
49.699999999999996
10
-31.100000000000012
20
49.699999999999996
42
0.41421356237309503
10
-30.350000000000016
20
50.450000000000003
10
-30.350000000000009
20
61.750000000000007
42
0.41421356237309503
10
-31.100000000000012
20
62.500000000000007
10
-45.100000000000009
20
62.500000000000007
42
0.41421356237309503
0
LWPOLYLINE
5
116
100
AcDbEntity
8
0
100
AcDbPolyline
90
8
70
1
43
0.0
10
-64.900000000000006
20
55.250000000000014
10
-64.900000000000006
20
43.950000000000017
42
0.41421356237309503
10
-64.150000000000006
20
43.20000000000001
10
-50.150000000000006
20
43.20000000000001
42
0.41421356237309503
10
-49.399999999999991
20
43.950000000000017
10
-49.400000000000006
20
55.250000000000014
42
0.41421356237309503
10
-50.150000000000006
20
56.000000000000014
10
-64.150000000000006
20
56.000000000000014
42
0.41421356237309503
0
LWPOLYLINE
5
117
100
AcDbEntity
8
0
100
AcDbPolyline
90
24
70
1
43
0.0
10
11.299999999999999
20
43.749990000000011
10
11.299999999999999
20
32.449990000000007
42
0.4142135623730942
10
12.049999999999997
20
31.699990000000007
10
14.300000000000011
20
31.69999000000001
42
-0.41421356237309337
10
15.050000000000011
20
30.949990000000007
10
15.05000000000001
20
30.099990000000012
42
0.41421356237309503
10
15.80000000000001
20
29.349990000000009
10
22.300000000000004
20
29.349990000000009
42
0.41421356237309337
10
23.049999999999997
20
30.099990000000009
10
23.050000000000001
20
30.949990000000007
42
-0.41421356237308815
10
23.800000000000004
20
31.699990000000007
10
26.050000000000001
20
31.699990000000007
42
0.41421356237309503
10
26.799999999999997
20
32.449990000000007
10
26.800000000000001
20
43.749990000000011
42
0.41421356237309681
10
26.049999999999997
20
44.499990000000011
10
23.799999999999997
20
44.499990000000011
42
-0.41421356237308815
10
23.049999999999997
20
45.249990000000011
10
23.050000000000001
20
46.099990000000005
42
0.41421356237309681
10
22.299999999999997
20
46.849990000000005
10
15.800000000000002
20
46.849990000000005
42
0.4142135623730942
10
15.050000000000008
20
46.099990000000005
10
15.050000000000006
20
45.249990000000011
42
-0.41421356237308982
10
14.299999999999999
20
44.499990000000011
10
12.049999999999994
20
44.499990000000011
42
0.4142135623730942
0
LWPOLYLINE
5
118
100
AcDbEntity
8
0
100
AcDbPolyline
90
24
70
1
43
0.0
10
11.299999999999999
20
5.6499900000000025
10
11.299999999999999
20
-5.6500099999999982
42
0.4142135623730942
10
12.049999999999997
20
-6.4000099999999991
10
14.300000000000011
20
-6.4000100000000018
42
-0.41421356237309548
10
15.050000000000008
20
-7.15001
10
15.05000000000001
20
-8.0000099999999961
42
0.41421356237309503
10
15.80000000000001
20
-8.7500099999999961
10
22.300000000000004
20
-8.7500099999999943
42
0.41421356237309681
10
23.050000000000015
20
-8.0000099999999961
10
23.050000000000011
20
-7.15001
42
-0.41421356237309115
10
23.800000000000011
20
-6.4000099999999982
10
26.050000000000001
20
-6.4000099999999991
42
0.41421356237309503
10
26.799999999999997
20
-5.6500099999999982
10
26.800000000000001
20
5.6499900000000025
42
0.41421356237309681
10
26.049999999999997
20
6.3999900000000043
10
23.800000000000008
20
6.3999900000000007
42
-0.41421356237308682
10
23.050000000000011
20
7.1499900000000043
10
23.050000000000011
20
7.999989999999995
42
0.41421356237309337
10
22.300000000000011
20
8.7499899999999933
10
15.800000000000008
20
8.7499899999999933
42
0.4142135623730942
10
15.050000000000008
20
7.999989999999995
10
15.05000000000001
20
7.1499900000000043
42
-0.4142135623730942
10
14.300000000000008
20
6.3999900000000043
10
12.049999999999994
20
6.3999900000000025
42
0.4142135623730942
0
LWPOLYLINE
5
119
100
AcDbEntity
8
0
100
AcDbPolyline
90
8
70
1
43
0.0
10
-45.850000000000009
20
23.650000000000002
10
-45.850000000000009
20
12.349999999999994
42
0.41421356237309503
10
-45.100000000000009
20
11.599999999999993
10
-31.100000000000012
20
11.599999999999994
42
0.41421356237309503
10
-30.350000000000016
20
12.349999999999994
10
-30.350000000000009
20
23.650000000000002
42
0.41421356237309503
10
-31.100000000000012
20
24.400000000000006
10
-45.100000000000009
20
24.400000000000006
42
0.41421356237309503
0
LWPOLYLINE
5
120
100
AcDbEntity
8
0
100
AcDbPolyline
90
8
70
1
43
0.0
10
-83.950000000000017
20
14.650000000000006
10
-83.950000000000017
20
3.3499999999999996
42
0.41421356237309503
10
-83.200000000000017
20
2.6000000000000001
10
-69.200000000000017
20
2.6000000000000005
42
0.41421356237309548
10
-68.450000000000003
20
3.3500000000000019
10
-68.450000000000017
20
14.650000000000006
42
0.41421356237309503
10
-69.200000000000017
20
15.400000000000006
10
-83.200000000000017
20
15.400000000000006
42
0.41421356237309503
0
LWPOLYLINE
5
121
100
AcDbEntity
8
0
100
AcDbPolyline
90
38
70
1
43
0.0
10
-118.09315335124452
20
-8.4626140612490666
10
-126.22556149688842
20
-16.595022206893127
42
0.41421356237309381
10
-126.2255614968884
20
-17.655682378672942
10
-124.92625278645815
20
-18.95499108910321
42
-0.41421356237308099
10
-124.92625278645811
20
-20.015651260883001
10
-125.52729355046678
20
-20.616692024891709
42
0.41421356237310858
10
-125.52729355046674
20
-21.67735219667156
10
-123.75952659750016
20
-23.445119149637886
42
0.41421356237308521
10
-122.69886642572035
20
-23.44511914963784
10
-122.09782566171184
20
-22.844078385629306
42
-0.41421356237309748
10
-121.03716548993202
20
-22.844078385629278
10
-108.0440783856294
20
-35.837165489931742
42
-0.414213562373073
10
-108.04407838562938
20
-36.897825661711543
10
-108.64511914963808
20
-37.498866425720273
42
0.41421356237308521
10
-108.64511914963808
20
-38.559526597500074
10
-106.87735219667168
20
-40.327293550466557
42
0.41421356237310486
10
-105.81669202489184
20
-40.327293550466557
10
-105.21565126088335
20
-39.726252786458041
42
-0.41421356237309503
10
-104.15499108910353
20
-39.726252786458019
10
-102.85568237867284
20
-41.025561496888685
42
0.41421356237309015
10
-101.79502220689302
20
-41.025561496888685
10
-93.662614061248902
20
-32.893153351244464
42
0.26794919243110088
10
-93.468499777422025
20
-32.168708981527722
42
-0.26794919243111454
10
-93.274385493595133
20
-31.444264611810965
10
-91.25913116721344
20
-29.429010285429229
42
0.41421356237309015
10
-91.25913116721344
20
-28.368350113649406
10
-96.686175712820159
20
-22.941305568042594
42
0.41421356237310608
10
-97.746835884600003
20
-22.941305568042608
10
-99.762090210981768
20
-24.956559894424466
42
-0.41421356237309748
10
-100.8227503827616
20
-24.956559894424458
10
-110.15655989442428
20
-15.622750382761975
42
-0.41421356237308399
10
-110.15655989442429
20
-14.562090210982161
10
-108.14130556804231
20
-12.54683588460014
42
0.41421356237307544
10
-108.1413055680423
20
-11.486175712820357
10
-113.56835011364873
20
-6.0591311672132511
42
0.41421356237311252
10
-114.62901028542859
20
-6.0591311672132235
10
-116.64426461181066
20
-8.0743854935953312
42
-0.2679491924311807
10
-117.36870898152759
20
-8.2684997774222033
42
0.26794919243117299
0
LWPOLYLINE
5
122
100
AcDbEntity
8
0
100
AcDbPolyline
90
8
70
1
43
0.0
10
-53.135891332880938
20
-1.9198278197855601
10
-53.135891332880938
20
-13.219827819785564
42
0.41421356237309503
10
-52.385891332880938
20
-13.969827819785561
10
-38.385891332880945
20
-13.969827819785563
42
0.41421356237309503
10
-37.635891332880945
20
-13.219827819785564
10
-37.635891332880938
20
-1.9198278197855601
42
0.41421356237309503
10
-38.385891332880945
20
-1.1698278197855605
10
-52.385891332880938
20
-1.1698278197855607
42
0.4142135623730947
0
LWPOLYLINE
5
123
100
AcDbEntity
8
0
100
AcDbPolyline
90
8
70
1
43
0.0
10
-64.900000000000006
20
17.150000000000013
10
-64.900000000000006
20
5.8500000000000076
42
0.41421356237309503
10
-64.150000000000006
20
5.1000000000000068
10
-50.150000000000006
20
5.1000000000000068
42
0.41421356237309503
10
-49.399999999999991
20
5.8500000000000068
10
-49.400000000000006
20
17.150000000000006
42
0.41421356237309503
10
-50.150000000000006
20
17.900000000000009
10
-64.150000000000006
20
17.900000000000009
42
0.4142135623730942
0
LWPOLYLINE
5
124
100
AcDbEntity
8
0
100
AcDbPolyline
90
8
70
1
43
0.0
10
-26.799999999999766
20
36.699999999999839
10
-26.799999999999766
20
25.399999999999842
42
0.41421356237309503
10
-26.049999999999759
20
24.649999999999839
10
-12.049999999999756
20
24.649999999999839
42
0.41421356237309503
10
-11.299999999999759
20
25.399999999999842
10
-11.299999999999757
20
36.699999999999839
42
0.41421356237309503
10
-12.049999999999756
20
37.449999999999839
10
-26.049999999999759
20
37.449999999999839
42
0.41421356237309503
0
LWPOLYLINE
5
125
100
AcDbEntity
8
0
100
AcDbPolyline
90
8
70
1
43
0.0
10
-7.7500000000000036
20
24.700000000000003
10
-7.7500000000000036
20
13.400000000000002
42
0.41421356237309503
10
-7.0000000000000018
20
12.650000000000002
10
7.0000000000000018
20
12.650000000000002
42
0.4142135623730942
10
7.7500000000000036
20
13.4
10
7.75
20
24.700000000000003
42
0.4142135623730942
10
7.0000000000000018
20
25.450000000000003
10
-7.0000000000000018
20
25.450000000000003
42
0.41421356237309503
0
LWPOLYLINE
5
126
100
AcDbEntity
8
0
100
AcDbPolyline
90
8
70
1
43
0.0
10
-26.799999999999766
20
55.749999999999844
10
-26.799999999999766
20
44.449999999999847
42
0.41421356237309503
10
-26.049999999999759
20
43.699999999999839
10
-12.049999999999756
20
43.699999999999839
42
0.41421356237309503
10
-11.299999999999759
20
44.449999999999847
10
-11.299999999999757
20
55.749999999999844
42
0.41421356237309503
10
-12.049999999999756
20
56.499999999999844
10
-26.049999999999759
20
56.499999999999844
42
0.41421356237309503
0
LWPOLYLINE
5
127
100
AcDbEntity
8
0
100
AcDbPolyline
90
8
70
1
43
0.0
10
-83.950000000000017
20
52.75
10
-83.950000000000017
20
41.450000000000017
42
0.41421356237309503
10
-83.200000000000017
20
40.70000000000001
10
-69.200000000000017
20
40.70000000000001
42
0.41421356237309503
10
-68.450000000000003
20
41.450000000000017
10
-68.450000000000017
20
52.75
42
0.41421356237309503
10
-69.200000000000017
20
53.500000000000007
10
-83.200000000000017
20
53.500000000000007
42
0.41421356237309503
0
LWPOLYLINE
5
128
100
AcDbEntity
8
0
100
AcDbPolyline
90
8
70
1
43
0.0
10
-7.7500000000000036
20
43.75
10
-7.7500000000000036
20
32.450000000000003
42
0.41421356237309503
10
-7.0000000000000018
20
31.70000000000001
10
7.0000000000000018
20
31.700000000000003
42
0.4142135623730942
10
7.7500000000000036
20
32.450000000000003
10
7.7499999999999991
20
43.75
42
0.4142135623730942
10
7.0000000000000018
20
44.5
10
-7.0000000000000018
20
44.5
42
0.41421356237309503
0
LWPOLYLINE
5
129
100
AcDbEntity
8
0
100
AcDbPolyline
90
8
70
1
43
0.0
10
-7.7500000000000036
20
5.6500000000000021
10
-7.7500000000000036
20
-5.6500000000000021
42
0.41421356237309503
10
-7.0000000000000018
20
-6.4000000000000012
10
7.0000000000000018
20
-6.4000000000000012
42
0.4142135623730942
10
7.7500000000000036
20
-5.6500000000000021
10
7.7499999999999991
20
5.6500000000000021
42
0.4142135623730942
10
7.0000000000000018
20
6.4000000000000012
10
-7.0000000000000018
20
6.4000000000000012
42
0.41421356237309503
0
LWPOLYLINE
5
130
100
AcDbEntity
8
0
100
AcDbPolyline
90
8
70
1
43
0.0
10
-45.850000000000009
20
42.700000000000003
10
-45.850000000000009
20
31.399999999999999
42
0.41421356237309503
10
-45.100000000000009
20
30.649999999999995
10
-31.100000000000012
20
30.649999999999995
42
0.41421356237309503
10
-30.350000000000016
20
31.399999999999999
10
-30.350000000000009
20
42.700000000000003
42
0.41421356237309503
10
-31.100000000000012
20
43.450000000000003
10
-45.100000000000009
20
43.450000000000003
42
0.41421356237309503
0
LWPOLYLINE
5
131
100
AcDbEntity
8
0
100
AcDbPolyline
90
8
70
1
43
0.0
10
-83.950000000000017
20
33.700000000000003
10
-83.950000000000017
20
22.400000000000002
42
0.41421356237309503
10
-83.200000000000017
20
21.650000000000006
10
-69.200000000000017
20
21.650000000000006
42
0.41421356237309503
10
-68.450000000000003
20
22.400000000000006
10
-68.450000000000017
20
33.700000000000003
42
0.41421356237309503
10
-69.200000000000017
20
34.450000000000003
10
-83.200000000000017
20
34.450000000000003
42
0.41421356237309503
0
LWPOLYLINE
5
132
100
AcDbEntity
8
0
100
AcDbPolyline
90
8
70
1
43
0.0
10
-75.524838991455312
20
-6.9080024099949222
10
-72.600183781796858
20
-17.822964247061396
42
0.41421356237309609
10
-71.681625128253174
20
-18.353294332951318
10
-58.158663560206207
20
-14.729827701516063
42
0.41421356237309415
10
-57.628333474316292
20
-13.81126904797237
10
-60.552988683974746
20
-2.8963072109058925
42
0.41421356237309609
10
-61.471547337518437
20
-2.3659771250159793
10
-74.994508905565397
20
-5.9894437564512328
42
0.41421356237309381
0
ENDSEC
0
SECTION
2
OBJECTS
0
DICTIONARY
5
C
100
AcDbDictionary
3
ACAD_GROUP
350
D
3
ACAD_MLINESTYLE
350
17
0
DICTIONARY
5
D
100
AcDbDictionary
0
DICTIONARY
5
1A
330
C
100
AcDbDictionary
0
DICTIONARY
5
17
100
AcDbDictionary
0
ENDSEC
0
EOF
