0
SECTION
2
HEADER
9
$INSUNITS
70
4
9
$ACADVER
1
AC1014
9
$HANDSEED
5
FFFF
0
ENDSEC
0
SECTION
2
TABLES
0
TABLE
2
VPORT
5
8
100
AcDbSymbolTable
0
ENDTAB
0
TABLE
2
LTYPE
5
5
100
AcDbSymbolTable
0
LTYPE
5
14
100
AcDbSymbolTableRecord
100
AcDbLinetypeTableRecord
2
BYBLOCK
70
0
0
LTYPE
5
15
100
AcDbSymbolTableRecord
100
AcDbLinetypeTableRecord
2
BYLAYER
70
0
0
ENDTAB
0
TABLE
2
LAYER
5
2
100
AcDbSymbolTable
70
2
0
LAYER
5
50
100
AcDbSymbolTableRecord
100
AcDbLayerTableRecord
2
0
70
0
6
CONTINUOUS
0
ENDTAB
0
TABLE
2
STYLE
5
3
100
AcDbSymbolTable
70
1
0
STYLE
5
11
100
AcDbSymbolTableRecord
100
AcDbTextStyleTableRecord
2
STANDARD
70
0
0
ENDTAB
0
TABLE
2
VIEW
5
6
100
AcDbSymbolTable
70
0
0
ENDTAB
0
TABLE
2
UCS
5
7
100
AcDbSymbolTable
70
0
0
ENDTAB
0
TABLE
2
APPID
5
9
100
AcDbSymbolTable
70
2
0
APPID
5
12
100
AcDbSymbolTableRecord
100
AcDbRegAppTableRecord
2
ACAD
70
0
0
ENDTAB
0
TABLE
2
DIMSTYLE
5
A
100
AcDbSymbolTable
70
1
0
ENDTAB
0
TABLE
2
BLOCK_RECORD
5
1
100
AcDbSymbolTable
70
1
0
BLOCK_RECORD
5
1F
100
AcDbSymbolTableRecord
100
AcDbBlockTableRecord
2
*MODEL_SPACE
0
BLOCK_RECORD
5
1B
100
AcDbSymbolTableRecord
100
AcDbBlockTableRecord
2
*PAPER_SPACE
0
ENDTAB
0
ENDSEC
0
SECTION
2
BLOCKS
0
BLOCK
5
20
100
AcDbEntity
100
AcDbBlockBegin
2
*MODEL_SPACE
0
ENDBLK
5
21
100
AcDbEntity
100
AcDbBlockEnd
0
BLOCK
5
1C
100
AcDbEntity
100
AcDbBlockBegin
2
*PAPER_SPACE
0
ENDBLK
5
1D
100
AcDbEntity
100
AcDbBlockEnd
0
ENDSEC
0
SECTION
2
ENTITIES
0
LWPOLYLINE
5
100
100
AcDbEntity
8
0
100
AcDbPolyline
90
12
70
1
43
0.0
10
10.691666666666688
20
10.829362986874859
42
-0.21342176528338438
10
10.400000000000034
20
11.481549480312289
10
10.400000000000034
20
26.199990000000007
42
0.99999999999999989
10
8.6499999999999986
20
26.199990000000007
10
8.6499999999999986
20
11.481549480312317
42
-0.21342176528338902
10
8.3583333333333325
20
10.829362986874877
42
0.44721359549995787
10
8.3583333333333325
20
8.2206170131251248
42
-0.21342176528338624
10
8.6499999999999986
20
7.5684305196876887
10
8.6500000000000004
20
-3.0750000000000002
42
0.99999999999999989
10
10.40000000000002
20
-3.0750000000000011
10
10.400000000000029
20
7.5684305196877126
42
-0.21342176528338369
10
10.691666666666688
20
8.2206170131251408
42
0.44721359549994805
0
LWPOLYLINE
5
101
100
AcDbEntity
8
0
100
AcDbPolyline
90
12
70
1
43
0.0
10
10.691666666666686
20
48.929362986874864
42
-0.21342176528338194
10
10.400000000000029
20
49.581549480312283
10
10.400000000000011
20
50.907095892590476
42
0.99999999999999989
10
8.6499999999999986
20
50.907095892590476
10
8.6499999999999986
20
49.581549480312304
42
-0.21342176528338264
10
8.3583333333333325
20
48.929362986874871
42
0.44721359549995393
10
8.3583333333333361
20
46.32061701312513
42
-0.21342176528338391
10
8.6499999999999986
20
45.668430519687689
10
8.6499999999999986
20
30.949990000000007
42
0.99999999999999989
10
10.400000000000034
20
30.949990000000007
10
10.400000000000038
20
45.668430519687718
42
-0.21342176528338752
10
10.691666666666691
20
46.320617013125151
42
0.44721359549994943
0
LWPOLYLINE
5
102
100
AcDbEntity
8
0
100
AcDbPolyline
90
37
70
1
43
0.0
10
8.0727372417255623
20
58.286663053095964
42
-0.31581026388319589
10
8.6500000000000075
20
57.46387660760135
10
8.6500000000000057
20
55.657095892590434
42
0.99999999999999989
10
10.400000000000006
20
55.657095892590426
10
10.399999999999975
20
56.149780718243385
42
-0.52759989943048702
10
11.592339628365544
20
56.965207330679412
42
-0.030622052873702163
10
29.048786418358652
20
48.909387228865782
42
-0.27600759101215033
10
29.575000000000081
20
48.02874744451637
10
29.575000000000003
20
-9.5250000000000803
42
-0.4142135623730937
10
28.574999999999999
20
-10.52500000000008
10
11.275000000000015
20
-10.525000000000059
42
-0.41421356237309354
10
10.400000000000018
20
-9.650000000000059
10
10.400000000000018
20
-7.8249999999999993
42
0.99999999999999989
10
8.6499999999999915
20
-7.8249999999999984
10
8.6499999999999861
20
-9.6500000000000536
42
-0.41421356237309653
10
7.7749999999999826
20
-10.525000000000052
10
-14.810891332880905
20
-10.525000000000002
42
0.4142135623730957
10
-15.810891332880905
20
-11.525000000000002
10
-15.810891332880912
20
-17.09482781978555
42
-0.4142135623730957
10
-16.810891332880907
20
-18.09482781978555
10
-45.385891332880931
20
-18.094827819785493
42
0.19891236737965889
10
-95.837647575396602
20
-38.99262950097706
10
-102.57283966619798
20
-45.727821591779019
42
-0.4142135623730932
10
-103.9870532285711
20
-45.72782159177904
10
-130.92782159177921
20
-18.787053228571363
42
-0.41421356237308171
10
-130.92782159177921
20
-17.372839666198267
10
-124.19262950097766
20
-10.637647575396727
42
-0.014297939721314042
10
-119.55946506994817
20
-6.2621465306556985
42
0.21381841459160789
10
-119.22500000000002
20
-5.5157798266282221
10
-119.22500000000005
20
48.62639336585373
42
-0.27819946292852105
10
-118.69160038555404
20
49.510861612994859
42
-0.016410360796693668
10
-109.41989838027084
20
54.019664419161714
42
-0.10533895797903745
10
-109.01231358553952
20
54.106497054926749
10
-87.475000000000023
20
54.106497054926749
42
0.41421356237309503
10
-86.475000000000009
20
55.106497054926749
10
-86.475000000000065
20
61.426218290421879
42
-0.34003495951204371
10
-85.731807007978063
20
62.392680995679264
42
-0.15290575548862728
0
ENDSEC
0
SECTION
2
OBJECTS
0
DICTIONARY
5
C
100
AcDbDictionary
3
ACAD_GROUP
350
D
3
ACAD_MLINESTYLE
350
17
0
DICTIONARY
5
D
100
AcDbDictionary
0
DICTIONARY
5
1A
330
C
100
AcDbDictionary
0
DICTIONARY
5
17
100
AcDbDictionary
0
ENDSEC
0
EOF
