0
SECTION
2
HEADER
9
$INSUNITS
70
4
9
$ACADVER
1
AC1014
9
$HANDSEED
5
FFFF
0
ENDSEC
0
SECTION
2
TABLES
0
TABLE
2
VPORT
5
8
100
AcDbSymbolTable
0
ENDTAB
0
TABLE
2
LTYPE
5
5
100
AcDbSymbolTable
0
LTYPE
5
14
100
AcDbSymbolTableRecord
100
AcDbLinetypeTableRecord
2
BYBLOCK
70
0
0
LTYPE
5
15
100
AcDbSymbolTableRecord
100
AcDbLinetypeTableRecord
2
BYLAYER
70
0
0
ENDTAB
0
TABLE
2
LAYER
5
2
100
AcDbSymbolTable
70
2
0
LAYER
5
50
100
AcDbSymbolTableRecord
100
AcDbLayerTableRecord
2
0
70
0
6
CONTINUOUS
0
ENDTAB
0
TABLE
2
STYLE
5
3
100
AcDbSymbolTable
70
1
0
STYLE
5
11
100
AcDbSymbolTableRecord
100
AcDbTextStyleTableRecord
2
STANDARD
70
0
0
ENDTAB
0
TABLE
2
VIEW
5
6
100
AcDbSymbolTable
70
0
0
ENDTAB
0
TABLE
2
UCS
5
7
100
AcDbSymbolTable
70
0
0
ENDTAB
0
TABLE
2
APPID
5
9
100
AcDbSymbolTable
70
2
0
APPID
5
12
100
AcDbSymbolTableRecord
100
AcDbRegAppTableRecord
2
ACAD
70
0
0
ENDTAB
0
TABLE
2
DIMSTYLE
5
A
100
AcDbSymbolTable
70
1
0
ENDTAB
0
TABLE
2
BLOCK_RECORD
5
1
100
AcDbSymbolTable
70
1
0
BLOCK_RECORD
5
1F
100
AcDbSymbolTableRecord
100
AcDbBlockTableRecord
2
*MODEL_SPACE
0
BLOCK_RECORD
5
1B
100
AcDbSymbolTableRecord
100
AcDbBlockTableRecord
2
*PAPER_SPACE
0
ENDTAB
0
ENDSEC
0
SECTION
2
BLOCKS
0
BLOCK
5
20
100
AcDbEntity
100
AcDbBlockBegin
2
*MODEL_SPACE
0
ENDBLK
5
21
100
AcDbEntity
100
AcDbBlockEnd
0
BLOCK
5
1C
100
AcDbEntity
100
AcDbBlockBegin
2
*PAPER_SPACE
0
ENDBLK
5
1D
100
AcDbEntity
100
AcDbBlockEnd
0
ENDSEC
0
SECTION
2
ENTITIES
0
CIRCLE
5
100
100
AcDbEntity
8
0
100
AcDbCircle
10
-111.96821431508693
20
57.25283651430972
30
0
40
1.6000000000000003
210
0
220
-0
230
1
0
CIRCLE
5
101
100
AcDbEntity
8
0
100
AcDbCircle
10
-123.22500000000002
20
31.572118032064797
30
0
40
1.6000000000000003
210
0
220
-0
230
1
0
LWPOLYLINE
5
102
100
AcDbEntity
8
0
100
AcDbPolyline
90
12
70
1
43
0.0
10
-109.22499999999998
20
55.850492485377714
42
-0.29597983141445799
10
-109.81747848365691
20
54.937296879980124
42
0.017388600609651025
10
-119.69499554357046
20
50.110824590475652
42
0.27716475387383432
10
-120.22500000000002
20
49.22815580263736
10
-120.22500000000002
20
29.572118032064793
42
-0.41421356237309631
10
-121.22500000000002
20
28.572118032064793
10
-125.22500000000001
20
28.572118032064779
42
-0.41421356237309631
10
-126.22500000000002
20
29.572118032064797
10
-126.22500000000008
20
51.314066405454646
42
-0.27363282930052923
10
-124.41040976365792
20
54.381539947079183
42
-0.023403459918490899
10
-110.62252748605874
20
61.13766072083191
42
-0.53970424987386123
10
-109.22499999999999
20
60.220070453976469
0
CIRCLE
5
103
100
AcDbEntity
8
0
100
AcDbCircle
10
33.264438946741961
20
50.799057522432847
30
0
40
1.6000000000000003
210
0
220
-0
230
1
0
CIRCLE
5
104
100
AcDbEntity
8
0
100
AcDbCircle
10
-123.22499999999964
20
-4.2261046507014388
30
0
40
1.6000000000000003
210
0
220
-0
230
1
0
CIRCLE
5
105
100
AcDbEntity
8
0
100
AcDbCircle
10
-103.27994644738452
20
-51.159802107118473
30
0
40
1.6000000000000003
210
0
220
-0
230
1
0
CIRCLE
5
106
100
AcDbEntity
8
0
100
AcDbCircle
10
-136.35980210711904
20
-18.079946447384994
30
0
40
1.6000000000000003
210
0
220
-0
230
1
0
CIRCLE
5
107
100
AcDbEntity
8
0
100
AcDbCircle
10
-83.567215439701172
20
67.070106416105432
30
0
40
1.6000000000000003
210
0
220
-0
230
1
0
CIRCLE
5
108
100
AcDbEntity
8
0
100
AcDbCircle
10
32.915990257669733
20
-13.865990257669791
30
0
40
1.6000000000000003
210
0
220
-0
230
1
0
LWPOLYLINE
5
109
100
AcDbEntity
8
0
100
AcDbPolyline
90
28
70
1
43
0.0
10
-122.54531342111962
20
-23.35118478082336
42
-0.37796447300923164
10
-121.22503422756127
20
-23.434027107305266
10
-108.634027107305
20
-36.025034227562244
42
-0.37796447300914776
10
-108.55118478082302
20
-37.345313421120402
42
0.37796447300917208
10
-108.46834245434101
20
-38.665592614678594
10
-107.04303684963504
20
-40.090898219384563
42
0.37796447300922908
10
-105.72275765607669
20
-40.173740545866437
42
-0.3779644730092358
10
-104.40247846251835
20
-40.256582872348289
10
-103.98705322857113
20
-40.672008106295472
42
0.41421356237308771
10
-102.57283966619806
20
-40.672008106295443
10
-91.506618540628679
20
-29.605786980725878
42
0.41421356237309415
10
-91.506618540628679
20
-28.191573418352789
10
-96.580109695642165
20
-23.118082263339321
42
0.41421356237309875
10
-97.994323258015271
20
-23.118082263339321
10
-99.231760125091881
20
-24.355519130415949
42
-0.41421356237309964
10
-100.64597368746497
20
-24.355519130415985
10
-109.55551913041596
20
-15.445973687465493
42
-0.41421356237312629
10
-109.5555191304159
20
-14.031760125092303
10
-108.31808226333892
20
-12.794323258015574
42
0.41421356237309875
10
-108.31808226333879
20
-11.380109695642481
10
-113.39157341835181
20
-6.3066185406284969
42
0.4142135623730932
10
-114.8057869807249
20
-6.306618540628353
10
-125.87200810629595
20
-17.372839666197095
42
0.41421356237311807
10
-125.87200810629604
20
-18.787053228570244
10
-125.45658287234765
20
-19.202478462518645
42
-0.37796447300925495
10
-125.37374054586586
20
-20.522757656077069
42
0.37796447300926506
10
-125.29089821938402
20
-21.843036849635507
10
-123.86559261467796
20
-23.268342454341493
42
0.37796447300922442
0
LWPOLYLINE
5
110
100
AcDbEntity
8
0
100
AcDbPolyline
90
8
70
1
43
0.0
10
12.1
20
44.049990000000008
10
12.099999999999998
20
32.149990000000017
42
0.4142135623730957
10
13.100000000000001
20
31.149990000000017
10
24.999999999999996
20
31.149990000000013
42
0.41421356237309503
10
25.999999999999996
20
32.149990000000017
10
25.999999999999996
20
44.049990000000008
42
0.41421356237309503
10
24.999999999999996
20
45.049990000000008
10
13.100000000000005
20
45.049990000000008
42
0.41421356237309503
0
LWPOLYLINE
5
111
100
AcDbEntity
8
0
100
AcDbPolyline
90
8
70
1
43
0.0
10
-25.999999999999801
20
17.949999999999715
10
-25.999999999999801
20
6.0499999999997112
42
0.41421356237309503
10
-24.999999999999794
20
5.0499999999997112
10
-13.099999999999795
20
5.0499999999997147
42
0.41421356237309537
10
-12.099999999999795
20
6.0499999999997156
10
-12.099999999999797
20
17.949999999999715
42
0.41421356237309503
10
-13.099999999999799
20
18.949999999999715
10
-24.999999999999794
20
18.949999999999715
42
0.41421356237309503
0
LWPOLYLINE
5
112
100
AcDbEntity
8
0
100
AcDbPolyline
90
8
70
1
43
0.0
10
-45.049999999999997
20
23.950000000000003
10
-45.049999999999997
20
12.050000000000004
42
0.41421356237309503
10
-44.050000000000004
20
11.050000000000004
10
-32.149999999999999
20
11.050000000000004
42
0.41421356237309503
10
-31.150000000000002
20
12.050000000000004
10
-31.149999999999999
20
23.950000000000003
42
0.41421356237309503
10
-32.149999999999999
20
24.950000000000006
10
-44.050000000000011
20
24.950000000000006
42
0.41421356237309503
0
LWPOLYLINE
5
113
100
AcDbEntity
8
0
100
AcDbPolyline
90
8
70
1
43
0.0
10
-64.100000000000023
20
17.449999999999996
10
-64.100000000000023
20
5.5499999999999972
42
0.41421356237309537
10
-63.10000000000003
20
4.5499999999999954
10
-51.20000000000001
20
4.5499999999999954
42
0.41421356237309503
10
-50.200000000000017
20
5.5499999999999954
10
-50.200000000000003
20
17.449999999999996
42
0.41421356237309503
10
-51.200000000000003
20
18.449999999999996
10
-63.100000000000023
20
18.449999999999996
42
0.41421356237309503
0
LWPOLYLINE
5
114
100
AcDbEntity
8
0
100
AcDbPolyline
90
8
70
1
43
0.0
10
-83.150000000000006
20
14.949999999999974
10
-83.150000000000006
20
3.050000000000026
42
0.41421356237309503
10
-82.15000000000002
20
2.0500000000000269
10
-70.250000000000028
20
2.0500000000000265
42
0.41421356237309492
10
-69.250000000000028
20
3.050000000000026
10
-69.250000000000028
20
14.949999999999974
42
0.41421356237309503
10
-70.250000000000028
20
15.949999999999974
10
-82.15000000000002
20
15.949999999999974
42
0.41421356237309503
0
LWPOLYLINE
5
115
100
AcDbEntity
8
0
100
AcDbPolyline
90
8
70
1
43
0.0
10
-83.150000000000006
20
33.999999999999979
10
-83.150000000000006
20
22.10000000000003
42
0.41421356237309503
10
-82.15000000000002
20
21.10000000000003
10
-70.250000000000028
20
21.10000000000003
42
0.41421356237309503
10
-69.250000000000028
20
22.10000000000003
10
-69.250000000000028
20
33.999999999999979
42
0.41421356237309503
10
-70.250000000000028
20
34.999999999999972
10
-82.15000000000002
20
34.999999999999979
42
0.41421356237309503
0
LWPOLYLINE
5
116
100
AcDbEntity
8
0
100
AcDbPolyline
90
8
70
1
43
0.0
10
-63.10000000000003
20
23.599999999999998
10
-51.20000000000001
20
23.599999999999998
42
0.41421356237309503
10
-50.200000000000017
20
24.600000000000001
10
-50.200000000000003
20
36.5
42
0.4142135623730937
10
-51.200000000000003
20
37.5
10
-63.100000000000023
20
37.5
42
0.41421356237309503
10
-64.100000000000023
20
36.5
10
-64.100000000000023
20
24.600000000000001
42
0.41421356237309503
0
LWPOLYLINE
5
117
100
AcDbEntity
8
0
100
AcDbPolyline
90
8
70
1
43
0.0
10
-31.150000000000002
20
31.100000000000009
10
-31.150000000000002
20
43.000000000000014
42
0.41421356237309503
10
-32.149999999999999
20
44.000000000000014
10
-44.050000000000011
20
44.000000000000014
42
0.41421356237309503
10
-45.050000000000011
20
43.000000000000014
10
-45.049999999999997
20
31.100000000000001
42
0.41421356237309503
10
-44.050000000000004
20
30.100000000000009
10
-32.149999999999999
20
30.100000000000009
42
0.41421356237309503
0
LWPOLYLINE
5
118
100
AcDbEntity
8
0
100
AcDbPolyline
90
8
70
1
43
0.0
10
-24.999999999999794
20
24.09999999999971
10
-13.099999999999795
20
24.099999999999714
42
0.41421356237309503
10
-12.099999999999795
20
25.099999999999714
10
-12.099999999999797
20
36.999999999999716
42
0.41421356237309503
10
-13.099999999999799
20
37.999999999999716
10
-24.999999999999794
20
37.999999999999716
42
0.41421356237309503
10
-25.999999999999801
20
36.999999999999716
10
-25.999999999999797
20
25.09999999999971
42
0.41421356237309503
0
LWPOLYLINE
5
119
100
AcDbEntity
8
0
100
AcDbPolyline
90
8
70
1
43
0.0
10
-6.9500000000000028
20
5.9500000000000011
10
-6.9500000000000028
20
-5.9499999999999984
42
0.41421356237309598
10
-5.9499999999999975
20
-6.9500000000000011
10
5.9499999999999975
20
-6.9500000000000011
42
0.41421356237309598
10
6.9500000000000028
20
-5.9499999999999993
10
6.9499999999999993
20
5.9499999999999993
42
0.4142135623730957
10
5.9499999999999975
20
6.9500000000000011
10
-5.9499999999999993
20
6.9500000000000011
42
0.41421356237309503
0
LWPOLYLINE
5
120
100
AcDbEntity
8
0
100
AcDbPolyline
90
8
70
1
43
0.0
10
12.099999999999998
20
24.999990000000004
10
12.099999999999993
20
13.099990000000012
42
0.4142135623730957
10
13.100000000000001
20
12.099990000000007
10
24.999999999999996
20
12.099990000000009
42
0.41421356237309503
10
25.999999999999996
20
13.099990000000011
10
25.999999999999996
20
24.999990000000004
42
0.41421356237309503
10
24.999999999999996
20
25.999990000000004
10
13.100000000000005
20
25.999990000000004
42
0.41421356237309503
0
LWPOLYLINE
5
121
100
AcDbEntity
8
0
100
AcDbPolyline
90
8
70
1
43
0.0
10
5.9499999999999975
20
45.050000000000011
10
-5.9499999999999993
20
45.050000000000011
42
0.41421356237309503
10
-6.9500000000000028
20
44.050000000000011
10
-6.9499999999999993
20
32.149999999999999
42
0.4142135623730957
10
-5.9499999999999975
20
31.150000000000002
10
5.9499999999999975
20
31.150000000000002
42
0.4142135623730957
10
6.9500000000000028
20
32.150000000000006
10
6.9499999999999993
20
44.050000000000011
42
0.4142135623730957
0
LWPOLYLINE
5
122
100
AcDbEntity
8
0
100
AcDbPolyline
90
8
70
1
43
0.0
10
-19.385891332880909
20
-13.519827819785597
10
-19.385891332880909
20
-1.6198278197854785
42
0.41421356237309648
10
-20.385891332880917
20
-0.61982781978547785
10
-32.285891332880936
20
-0.61982781978551449
42
0.41421356237309465
10
-33.285891332880929
20
-1.6198278197855176
10
-33.285891332880915
20
-13.519827819785588
42
0.41421356237309437
10
-32.285891332880908
20
-14.51982781978559
10
-20.385891332880913
20
-14.519827819785597
42
0.41421356237309503
0
LWPOLYLINE
5
123
100
AcDbEntity
8
0
100
AcDbPolyline
90
8
70
1
43
0.0
10
-52.335891332880934
20
-1.6198278197855176
10
-52.335891332880912
20
-13.519827819785588
42
0.41421356237309437
10
-51.335891332880912
20
-14.519827819785585
10
-39.435891332880921
20
-14.519827819785597
42
0.41421356237309503
10
-38.435891332880914
20
-13.519827819785597
10
-38.435891332880914
20
-1.6198278197854785
42
0.41421356237309648
10
-39.435891332880921
20
-0.61982781978547774
10
-51.335891332880941
20
-0.61982781978551427
42
0.41421356237309592
0
LWPOLYLINE
5
124
100
AcDbEntity
8
0
100
AcDbPolyline
90
8
70
1
43
0.0
10
-58.323428421816708
20
-14.30810203194115
10
-61.403375058536874
20
-2.8135846991012259
42
0.41421356237309281
10
-62.628119929928459
20
-2.1064779179146931
10
-74.122637262768109
20
-5.1864245546347014
42
0.41421356237309165
10
-74.829744043954648
20
-6.4111694260262801
10
-71.749797407234752
20
-17.905686758866096
42
0.41421356237309614
10
-70.525052535843173
20
-18.612793540052657
10
-59.030535203003247
20
-15.532846903332754
42
0.41421356237310125
0
LWPOLYLINE
5
125
100
AcDbEntity
8
0
100
AcDbPolyline
90
8
70
1
43
0.0
10
-83.150000000000006
20
53.049999999999983
10
-83.150000000000006
20
41.15000000000002
42
0.41421356237309503
10
-82.15000000000002
20
40.150000000000034
10
-70.250000000000028
20
40.150000000000034
42
0.41421356237309503
10
-69.250000000000028
20
41.150000000000027
10
-69.250000000000028
20
53.049999999999983
42
0.41421356237309503
10
-70.250000000000028
20
54.049999999999976
10
-82.15000000000002
20
54.049999999999976
42
0.41421356237309503
0
LWPOLYLINE
5
126
100
AcDbEntity
8
0
100
AcDbPolyline
90
8
70
1
43
0.0
10
-63.10000000000003
20
42.649999999999999
10
-51.20000000000001
20
42.649999999999999
42
0.41421356237309503
10
-50.200000000000017
20
43.649999999999991
10
-50.200000000000003
20
55.550000000000004
42
0.41421356237309503
10
-51.200000000000003
20
56.550000000000004
10
-63.100000000000023
20
56.550000000000004
42
0.41421356237309503
10
-64.100000000000023
20
55.550000000000004
10
-64.100000000000023
20
43.649999999999991
42
0.41421356237309503
0
LWPOLYLINE
5
127
100
AcDbEntity
8
0
100
AcDbPolyline
90
8
70
1
43
0.0
10
-31.150000000000002
20
50.150000000000006
10
-31.150000000000002
20
62.050000000000018
42
0.41421356237309503
10
-32.149999999999999
20
63.050000000000011
10
-44.050000000000011
20
63.050000000000011
42
0.41421356237309503
10
-45.050000000000011
20
62.050000000000018
10
-45.049999999999997
20
50.150000000000006
42
0.41421356237309503
10
-44.050000000000004
20
49.150000000000006
10
-32.149999999999999
20
49.150000000000006
42
0.41421356237309503
0
LWPOLYLINE
5
128
100
AcDbEntity
8
0
100
AcDbPolyline
90
8
70
1
43
0.0
10
-24.999999999999794
20
43.149999999999707
10
-13.099999999999795
20
43.149999999999707
42
0.41421356237309503
10
-12.099999999999795
20
44.149999999999707
10
-12.099999999999797
20
56.04999999999972
42
0.41421356237309503
10
-13.099999999999799
20
57.049999999999713
10
-24.999999999999794
20
57.049999999999713
42
0.41421356237309503
10
-25.999999999999801
20
56.04999999999972
10
-25.999999999999797
20
44.149999999999707
42
0.41421356237309503
0
LWPOLYLINE
5
129
100
AcDbEntity
8
0
100
AcDbPolyline
90
8
70
1
43
0.0
10
5.9499999999999975
20
26.000000000000007
10
-5.9499999999999993
20
26.000000000000007
42
0.41421356237309503
10
-6.9500000000000028
20
25.000000000000004
10
-6.9499999999999993
20
13.100000000000005
42
0.4142135623730957
10
-5.9499999999999975
20
12.1
10
5.9499999999999975
20
12.100000000000001
42
0.4142135623730957
10
6.9500000000000028
20
13.100000000000003
10
6.9499999999999993
20
25.000000000000004
42
0.4142135623730957
0
LWPOLYLINE
5
130
100
AcDbEntity
8
0
100
AcDbPolyline
90
8
70
1
43
0.0
10
12.1
20
5.9499900000000014
10
12.099999999999994
20
-5.9500099999999954
42
0.41421356237309537
10
13.100000000000001
20
-6.9500099999999936
10
24.999999999999996
20
-6.9500099999999936
42
0.41421356237309537
10
25.999999999999996
20
-5.9500099999999918
10
25.999999999999996
20
5.9499900000000032
42
0.41421356237309503
10
24.999999999999996
20
6.9499900000000014
10
13.100000000000005
20
6.9499900000000014
42
0.41421356237309503
0
LWPOLYLINE
5
131
100
AcDbEntity
8
0
100
AcDbPolyline
90
23
70
1
43
0.0
10
-86.475000000000009
20
68.658184848849572
42
-0.34321389948162834
10
-85.720785651813884
20
69.627509053314924
42
-0.19199184356317836
10
34.784856172339921
20
53.745776832084509
42
-0.27148769664201206
10
36.574999999999996
20
50.691862643717229
10
36.575000000000003
20
-14.025000000000059
42
-0.4142135623730952
10
33.074999999999996
20
-17.525000000000059
10
-5.310891332880904
20
-17.525000000000055
42
0.41421356237309515
10
-8.8108913328809066
20
-21.025000000000059
10
-8.8108913328809031
20
-21.594827819785507
42
-0.41421356237309453
10
-12.310891332880907
20
-25.094827819785511
10
-45.385891332880952
20
-25.094827819785515
42
0.19891236737965884
10
-90.887900107090758
20
-43.942376969282869
10
-100.80507271323154
20
-53.859549575424268
42
-0.41421356237309037
10
-105.75482018153735
20
-53.85954957542431
10
-139.0595495754244
20
-20.554820181537909
42
-0.41421356237309126
10
-139.05954957542446
20
-15.605072713232053
10
-129.14237696928322
20
-5.687900107090595
42
-0.02086227680072418
10
-121.87071642505785
20
1.0010082958988162
42
-0.63841700195445517
10
-120.22500000000001
20
0.23743099240524757
10
-120.22499999999999
20
-4.6346627839014687
42
0.64349477258744514
10
-118.5683579461716
20
-5.3888651527282931
42
-0.083373196303120206
10
-87.100706766266967
20
13.903948228315329
42
0.3058230674695307
10
-86.475000000000009
20
14.83125862682364
0
LWPOLYLINE
5
132
100
AcDbEntity
8
0
100
AcDbPolyline
90
28
70
1
43
0.0
10
-80.550768334648183
20
-12.637032134521451
42
-0.41421356237309093
10
-81.916793738432631
20
-12.271006730737026
10
-88.2167937384325
20
-1.3590866430534443
42
-0.4142135623730846
10
-87.850768334648066
20
0.0069387607309778776
10
-86.335223878025133
20
0.88193876073109512
42
0.41421356237307577
10
-85.96919847424067
20
2.2479641645154813
10
-89.556698474240349
20
8.4616964366691008
42
0.41421356237308016
10
-90.922723878024726
20
8.8277218404536413
10
-104.47602144725224
20
1.0027218404550089
42
0.41421356237312168
10
-104.84204685103677
20
-0.36330356332945679
10
-104.54829685103589
20
-0.87209348805440057
42
-0.37796447300926539
10
-104.80999070852278
20
-2.1688264308586795
42
0.37796447300928099
10
-105.07168456600965
20
-3.465559373663015
10
-104.06384130765878
20
-5.211195103192364
42
0.37796447300922054
10
-102.80999070852278
20
-5.6329280459965485
42
-0.37796447300925301
10
-101.55614010938675
20
-6.0546609888007863
10
-92.652953592685861
20
-21.475432384989883
42
-0.37796447300917219
10
-92.914647450172495
20
-22.772165327793971
42
0.37796447300917779
10
-93.176341307659115
20
-24.068898270598087
10
-92.176341307659044
20
-25.800949078167047
42
0.37796447300922487
10
-90.922490708523057
20
-26.222682020971266
42
-0.37796447300923319
10
-89.668640109387056
20
-26.644414963775471
10
-89.367046851036278
20
-27.166789810459253
42
0.41421356237309553
10
-88.001021447251844
20
-27.532815214243691
10
-74.447723878025357
20
-19.707815214243702
42
0.4142135623730932
10
-74.081698474240923
20
-18.341789810459272
10
-77.669198474240886
20
-12.128057538305846
42
0.4142135623730997
10
-79.035223878025334
20
-11.762032134521405
0
ENDSEC
0
SECTION
2
OBJECTS
0
DICTIONARY
5
C
100
AcDbDictionary
3
ACAD_GROUP
350
D
3
ACAD_MLINESTYLE
350
17
0
DICTIONARY
5
D
100
AcDbDictionary
0
DICTIONARY
5
1A
330
C
100
AcDbDictionary
0
DICTIONARY
5
17
100
AcDbDictionary
0
ENDSEC
0
EOF
