0
SECTION
2
HEADER
9
$INSUNITS
70
4
9
$ACADVER
1
AC1014
9
$HANDSEED
5
FFFF
0
ENDSEC
0
SECTION
2
TABLES
0
TABLE
2
VPORT
5
8
100
AcDbSymbolTable
0
ENDTAB
0
TABLE
2
LTYPE
5
5
100
AcDbSymbolTable
0
LTYPE
5
14
100
AcDbSymbolTableRecord
100
AcDbLinetypeTableRecord
2
BYBLOCK
70
0
0
LTYPE
5
15
100
AcDbSymbolTableRecord
100
AcDbLinetypeTableRecord
2
BYLAYER
70
0
0
ENDTAB
0
TABLE
2
LAYER
5
2
100
AcDbSymbolTable
70
2
0
LAYER
5
50
100
AcDbSymbolTableRecord
100
AcDbLayerTableRecord
2
0
70
0
6
CONTINUOUS
0
ENDTAB
0
TABLE
2
STYLE
5
3
100
AcDbSymbolTable
70
1
0
STYLE
5
11
100
AcDbSymbolTableRecord
100
AcDbTextStyleTableRecord
2
STANDARD
70
0
0
ENDTAB
0
TABLE
2
VIEW
5
6
100
AcDbSymbolTable
70
0
0
ENDTAB
0
TABLE
2
UCS
5
7
100
AcDbSymbolTable
70
0
0
ENDTAB
0
TABLE
2
APPID
5
9
100
AcDbSymbolTable
70
2
0
APPID
5
12
100
AcDbSymbolTableRecord
100
AcDbRegAppTableRecord
2
ACAD
70
0
0
ENDTAB
0
TABLE
2
DIMSTYLE
5
A
100
AcDbSymbolTable
70
1
0
ENDTAB
0
TABLE
2
BLOCK_RECORD
5
1
100
AcDbSymbolTable
70
1
0
BLOCK_RECORD
5
1F
100
AcDbSymbolTableRecord
100
AcDbBlockTableRecord
2
*MODEL_SPACE
0
BLOCK_RECORD
5
1B
100
AcDbSymbolTableRecord
100
AcDbBlockTableRecord
2
*PAPER_SPACE
0
ENDTAB
0
ENDSEC
0
SECTION
2
BLOCKS
0
BLOCK
5
20
100
AcDbEntity
100
AcDbBlockBegin
2
*MODEL_SPACE
0
ENDBLK
5
21
100
AcDbEntity
100
AcDbBlockEnd
0
BLOCK
5
1C
100
AcDbEntity
100
AcDbBlockBegin
2
*PAPER_SPACE
0
ENDBLK
5
1D
100
AcDbEntity
100
AcDbBlockEnd
0
ENDSEC
0
SECTION
2
ENTITIES
0
CIRCLE
5
100
100
AcDbEntity
8
0
100
AcDbCircle
10
-111.96821431508693
20
57.25283651430972
30
0
40
1.6000000000000003
210
0
220
-0
230
1
0
CIRCLE
5
101
100
AcDbEntity
8
0
100
AcDbCircle
10
-123.22500000000002
20
31.572118032064797
30
0
40
1.6000000000000003
210
0
220
-0
230
1
0
LWPOLYLINE
5
102
100
AcDbEntity
8
0
100
AcDbPolyline
90
12
70
1
43
0.0
10
-109.22499999999998
20
55.850492485377714
42
-0.29597983141445799
10
-109.81747848365691
20
54.937296879980124
42
0.017388600609651025
10
-119.69499554357046
20
50.110824590475652
42
0.27716475387383432
10
-120.22500000000002
20
49.22815580263736
10
-120.22500000000002
20
29.572118032064793
42
-0.41421356237309631
10
-121.22500000000002
20
28.572118032064793
10
-125.22500000000001
20
28.572118032064779
42
-0.41421356237309631
10
-126.22500000000002
20
29.572118032064797
10
-126.22500000000008
20
51.314066405454646
42
-0.27363282930052923
10
-124.41040976365792
20
54.381539947079183
42
-0.023403459918490899
10
-110.62252748605874
20
61.13766072083191
42
-0.53970424987386123
10
-109.22499999999999
20
60.220070453976469
0
CIRCLE
5
103
100
AcDbEntity
8
0
100
AcDbCircle
10
33.264438946741961
20
50.799057522432847
30
0
40
1.6000000000000003
210
0
220
-0
230
1
0
CIRCLE
5
104
100
AcDbEntity
8
0
100
AcDbCircle
10
-123.22499999999964
20
-4.2261046507014388
30
0
40
1.6000000000000003
210
0
220
-0
230
1
0
CIRCLE
5
105
100
AcDbEntity
8
0
100
AcDbCircle
10
-103.27994644738452
20
-51.159802107118473
30
0
40
1.6000000000000003
210
0
220
-0
230
1
0
CIRCLE
5
106
100
AcDbEntity
8
0
100
AcDbCircle
10
-136.35980210711904
20
-18.079946447384994
30
0
40
1.6000000000000003
210
0
220
-0
230
1
0
CIRCLE
5
107
100
AcDbEntity
8
0
100
AcDbCircle
10
-83.567215439701172
20
67.070106416105432
30
0
40
1.6000000000000003
210
0
220
-0
230
1
0
CIRCLE
5
108
100
AcDbEntity
8
0
100
AcDbCircle
10
32.915990257669733
20
-13.865990257669791
30
0
40
1.6000000000000003
210
0
220
-0
230
1
0
LWPOLYLINE
5
109
100
AcDbEntity
8
0
100
AcDbPolyline
90
23
70
1
43
0.0
10
-86.475000000000009
20
68.658184848849572
42
-0.34321389948162834
10
-85.720785651813884
20
69.627509053314924
42
-0.19199184356317836
10
34.784856172339921
20
53.745776832084509
42
-0.27148769664201206
10
36.574999999999996
20
50.691862643717229
10
36.575000000000003
20
-14.025000000000059
42
-0.4142135623730952
10
33.074999999999996
20
-17.525000000000059
10
-5.310891332880904
20
-17.525000000000055
42
0.41421356237309515
10
-8.8108913328809066
20
-21.025000000000059
10
-8.8108913328809031
20
-21.594827819785507
42
-0.41421356237309453
10
-12.310891332880907
20
-25.094827819785511
10
-45.385891332880952
20
-25.094827819785515
42
0.19891236737965884
10
-90.887900107090758
20
-43.942376969282869
10
-100.80507271323151
20
-53.859549575424268
42
-0.41421356237309037
10
-105.75482018153735
20
-53.85954957542431
10
-139.0595495754244
20
-20.554820181537909
42
-0.41421356237309126
10
-139.05954957542446
20
-15.605072713232053
10
-129.14237696928322
20
-5.687900107090595
42
-0.02086227680072418
10
-121.87071642505785
20
1.0010082958988162
42
-0.63841700195445517
10
-120.22500000000001
20
0.23743099240524757
10
-120.22499999999999
20
-4.6346627839014687
42
0.64349477258744514
10
-118.56835794617162
20
-5.3888651527282931
42
-0.083373196303120206
10
-87.100706766266967
20
13.903948228315329
42
0.3058230674695307
10
-86.475000000000009
20
14.83125862682364
0
LWPOLYLINE
5
110
100
AcDbEntity
8
0
100
AcDbPolyline
90
38
70
1
43
0.0
10
-104.82243160876556
20
0.80272184045355965
10
-103.90368160876535
20
-0.78859983900065822
42
-0.41421356237311052
10
-104.17820066160368
20
-1.813118891838994
10
-104.91432225482055
20
-2.2381188918390444
42
0.41421356237310725
10
-105.18884130765885
20
-3.2626379446773948
10
-103.93884130765872
20
-5.4277014541385435
42
0.41421356237308732
10
-102.91432225482041
20
-5.7022205069768406
10
-102.1782006616036
20
-5.2772205069768274
42
-0.41421356237310547
10
-101.15368160876527
20
-5.5517395598151502
10
-92.016181608765493
20
-21.378353813975185
42
-0.41421356237309781
10
-92.290700661603807
20
-22.402872866813503
10
-93.026822254820786
20
-22.827872866813628
42
0.41421356237309548
10
-93.301341307659129
20
-23.852391919651964
10
-92.051341307659044
20
-26.017455429113163
42
0.41421356237309204
10
-91.026822254820715
20
-26.291974481951481
10
-90.290700661603893
20
-25.866974481951456
42
-0.41421356237309026
10
-89.266181608765606
20
-26.141493534789795
10
-88.34743160876549
20
-27.732815214243875
42
0.4142135623730912
10
-87.322912555927161
20
-28.0073342670822
10
-77.449389927864885
20
-22.306853319920506
42
0.26794919243114501
10
-77.0743899278649
20
-21.65733426708211
42
-0.26794919243113285
10
-76.6993899278649
20
-21.00781521424372
10
-74.231217527079252
20
-19.582815214243709
42
0.41421356237308998
10
-73.956698474240923
20
-18.558296161405387
10
-77.794198474240886
20
-11.91155118735974
42
0.41421356237309997
10
-78.818717527079215
20
-11.637032134521398
10
-81.286889927864962
20
-13.06203213452147
42
-0.41421356237310275
10
-82.311408980703305
20
-12.787513081683151
10
-88.861408980703175
20
-1.4425802921073716
42
-0.41421356237310236
10
-88.58688992786486
20
-0.41806123926903971
10
-86.118717527079014
20
1.0069387607311042
42
0.41421356237307227
10
-85.844198474240699
20
2.0314578135693848
10
-89.68169847424025
20
8.6782027876151204
42
0.41421356237312013
10
-90.706217527078635
20
8.9527218404535009
10
-93.348428033541126
20
7.4272408932916871
42
-0.26794919243121973
10
-94.098428033541353
20
7.4272408932918381
42
0.26794919243122028
10
-94.84842803354158
20
7.4272408932919651
10
-104.54791255592724
20
1.8272408932918793
42
0.41421356237308832
0
LWPOLYLINE
5
111
100
AcDbEntity
8
0
100
AcDbPolyline
90
8
70
1
43
0.0
10
-19.385891332880941
20
-1.2198278197855617
10
-33.285891332880936
20
-1.2198278197855617
42
0.41421356237309481
10
-34.035891332880936
20
-1.9698278197855612
10
-34.035891332880936
20
-13.169827819785564
42
0.41421356237309503
10
-33.285891332880936
20
-13.919827819785562
10
-19.385891332880938
20
-13.919827819785562
42
0.41421356237309503
10
-18.635891332880941
20
-13.169827819785564
10
-18.635891332880941
20
-1.9698278197855612
42
0.41421356237309503
0
LWPOLYLINE
5
112
100
AcDbEntity
8
0
100
AcDbPolyline
90
8
70
1
43
0.0
10
-64.850000000000009
20
36.150000000000006
10
-64.850000000000009
20
24.950000000000003
42
0.41421356237309503
10
-64.099999999999994
20
24.199999999999999
10
-50.200000000000003
20
24.199999999999999
42
0.41421356237309503
10
-49.450000000000003
20
24.950000000000003
10
-49.450000000000003
20
36.150000000000006
42
0.41421356237309503
10
-50.200000000000003
20
36.900000000000006
10
-64.099999999999994
20
36.900000000000006
42
0.41421356237309503
0
LWPOLYLINE
5
113
100
AcDbEntity
8
0
100
AcDbPolyline
90
8
70
1
43
0.0
10
-26.749999999999758
20
17.599999999999842
10
-26.749999999999758
20
6.3999999999998352
42
0.41421356237309503
10
-25.999999999999758
20
5.6499999999998352
10
-12.09999999999976
20
5.6499999999998352
42
0.41421356237309503
10
-11.349999999999758
20
6.3999999999998352
10
-11.349999999999758
20
17.599999999999842
42
0.41421356237309503
10
-12.099999999999758
20
18.349999999999838
10
-25.999999999999758
20
18.349999999999838
42
0.41421356237309503
0
LWPOLYLINE
5
114
100
AcDbEntity
8
0
100
AcDbPolyline
90
8
70
1
43
0.0
10
11.349999999999998
20
24.649990000000006
10
11.349999999999998
20
13.449990000000005
42
0.4142135623730942
10
12.099999999999991
20
12.699990000000007
10
25.999999999999996
20
12.699990000000007
42
0.41421356237309337
10
26.749999999999989
20
13.449990000000007
10
26.749999999999989
20
24.649990000000006
42
0.41421356237309681
10
25.999999999999986
20
25.39999000000001
10
12.099999999999993
20
25.39999000000001
42
0.4142135623730942
0
LWPOLYLINE
5
115
100
AcDbEntity
8
0
100
AcDbPolyline
90
8
70
1
43
0.0
10
-45.799999999999997
20
61.70000000000001
10
-45.799999999999997
20
50.500000000000007
42
0.41421356237309503
10
-45.049999999999997
20
49.750000000000007
10
-31.150000000000002
20
49.750000000000007
42
0.41421356237309503
10
-30.400000000000006
20
50.500000000000007
10
-30.400000000000006
20
61.70000000000001
42
0.41421356237309503
10
-31.150000000000002
20
62.45000000000001
10
-45.049999999999997
20
62.45000000000001
42
0.41421356237309503
0
LWPOLYLINE
5
116
100
AcDbEntity
8
0
100
AcDbPolyline
90
8
70
1
43
0.0
10
-64.850000000000009
20
55.200000000000003
10
-64.850000000000009
20
44
42
0.41421356237309503
10
-64.099999999999994
20
43.25
10
-50.200000000000003
20
43.25
42
0.41421356237309503
10
-49.450000000000003
20
44
10
-49.450000000000003
20
55.200000000000003
42
0.41421356237309503
10
-50.200000000000003
20
55.950000000000003
10
-64.099999999999994
20
55.950000000000003
42
0.41421356237309503
0
LWPOLYLINE
5
117
100
AcDbEntity
8
0
100
AcDbPolyline
90
8
70
1
43
0.0
10
11.349999999999998
20
43.699990000000007
10
11.349999999999998
20
32.499990000000011
42
0.4142135623730942
10
12.099999999999991
20
31.749990000000004
10
25.999999999999996
20
31.749990000000004
42
0.41421356237309337
10
26.749999999999989
20
32.499990000000011
10
26.749999999999989
20
43.699990000000007
42
0.41421356237309681
10
25.999999999999986
20
44.449990000000014
10
12.099999999999993
20
44.449990000000014
42
0.4142135623730942
0
LWPOLYLINE
5
118
100
AcDbEntity
8
0
100
AcDbPolyline
90
8
70
1
43
0.0
10
11.349999999999998
20
5.5999900000000054
10
11.349999999999998
20
-5.6000099999999957
42
0.4142135623730942
10
12.099999999999991
20
-6.3500099999999948
10
25.999999999999996
20
-6.3500099999999948
42
0.41421356237309337
10
26.749999999999989
20
-5.6000099999999957
10
26.749999999999989
20
5.5999900000000054
42
0.41421356237309681
10
25.999999999999986
20
6.3499900000000054
10
12.099999999999993
20
6.3499900000000054
42
0.4142135623730942
0
LWPOLYLINE
5
119
100
AcDbEntity
8
0
100
AcDbPolyline
90
8
70
1
43
0.0
10
-45.799999999999997
20
23.600000000000001
10
-45.799999999999997
20
12.400000000000002
42
0.41421356237309503
10
-45.049999999999997
20
11.65
10
-31.150000000000002
20
11.65
42
0.41421356237309503
10
-30.400000000000006
20
12.400000000000002
10
-30.400000000000006
20
23.600000000000001
42
0.41421356237309503
10
-31.150000000000002
20
24.350000000000005
10
-45.049999999999997
20
24.350000000000005
42
0.41421356237309503
0
LWPOLYLINE
5
120
100
AcDbEntity
8
0
100
AcDbPolyline
90
8
70
1
43
0.0
10
-83.90000000000002
20
14.600000000000005
10
-83.90000000000002
20
3.4000000000000008
42
0.41421356237309503
10
-83.150000000000034
20
2.6500000000000012
10
-69.250000000000028
20
2.6500000000000012
42
0.41421356237309481
10
-68.500000000000014
20
3.4000000000000008
10
-68.500000000000014
20
14.600000000000005
42
0.41421356237309503
10
-69.250000000000014
20
15.350000000000001
10
-83.150000000000034
20
15.350000000000001
42
0.41421356237309503
0
LWPOLYLINE
5
121
100
AcDbEntity
8
0
100
AcDbPolyline
90
38
70
1
43
0.0
10
-118.23525486948057
20
-8.6754262576037515
10
-126.1548508187698
20
-16.59502220689313
42
0.41421356237309503
10
-126.15485081876977
20
-17.65568237867295
10
-124.85554210833922
20
-18.954991089103494
42
-0.41421356237308826
10
-124.85554210833919
20
-20.015651260883324
10
-125.45658287234779
20
-20.616692024891936
42
0.41421356237309748
10
-125.45658287234778
20
-21.677352196671762
10
-123.68881591938128
20
-23.445119149638156
42
0.41421356237309137
10
-122.62815574760147
20
-23.445119149638153
10
-122.02711498359287
20
-22.844078385629576
42
-0.41421356237307788
10
-120.96645481181309
20
-22.844078385629587
10
-108.04407838562901
20
-35.766454811813503
42
-0.41421356237306928
10
-108.04407838562898
20
-36.827114983593304
10
-108.64511914963772
20
-37.428155747602069
42
0.41421356237309015
10
-108.64511914963772
20
-38.488815919381885
10
-106.87735219667127
20
-40.256582872348339
42
0.41421356237309265
10
-105.81669202489145
20
-40.256582872348332
10
-105.21565126088294
20
-39.655542108339802
42
-0.41421356237311224
10
-104.15499108910312
20
-39.655542108339787
10
-102.85568237867281
20
-40.954850818770055
42
0.41421356237309265
10
-101.79502220689299
20
-40.954850818770048
10
-93.875426257603692
20
-33.035254869480653
42
0.26794919243110471
10
-93.681311973776786
20
-32.310810499763896
42
-0.2679491924310855
10
-93.487197689949895
20
-31.586366130047161
10
-91.329841845332027
20
-29.42901028542925
42
0.41421356237309015
10
-91.329841845332027
20
-28.368350113649431
10
-96.756886390938789
20
-22.941305568042697
42
0.41421356237310486
10
-97.817546562718647
20
-22.941305568042679
10
-99.832800889100383
20
-24.956559894424473
42
-0.41421356237310486
10
-100.89346106088021
20
-24.956559894424487
10
-110.15655989442411
20
-15.693461060880791
42
-0.4142135623730791
10
-110.15655989442411
20
-14.632800889100954
10
-108.14130556804216
20
-12.61754656271895
42
0.41421356237306561
10
-108.14130556804213
20
-11.556886390939184
10
-113.56835011364836
20
-6.1298418453318959
42
0.41421356237312629
10
-114.62901028542825
20
-6.1298418453318444
10
-116.78636613004643
20
-8.2871976899500908
42
-0.26794919243122578
10
-117.51081049976351
20
-8.4813119737769167
42
0.26794919243122339
0
LWPOLYLINE
5
122
100
AcDbEntity
8
0
100
AcDbPolyline
90
8
70
1
43
0.0
10
-53.085891332880934
20
-1.9698278197855612
10
-53.085891332880934
20
-13.169827819785564
42
0.41421356237309503
10
-52.335891332880934
20
-13.919827819785562
10
-38.435891332880942
20
-13.919827819785562
42
0.41421356237309503
10
-37.685891332880942
20
-13.169827819785564
10
-37.685891332880942
20
-1.9698278197855612
42
0.41421356237309503
10
-38.435891332880942
20
-1.2198278197855617
10
-52.335891332880934
20
-1.2198278197855617
42
0.41421356237309481
0
LWPOLYLINE
5
123
100
AcDbEntity
8
0
100
AcDbPolyline
90
8
70
1
43
0.0
10
-64.850000000000009
20
17.100000000000001
10
-64.850000000000009
20
5.8999999999999977
42
0.41421356237309503
10
-64.099999999999994
20
5.1499999999999968
10
-50.200000000000003
20
5.1499999999999968
42
0.41421356237309503
10
-49.450000000000003
20
5.8999999999999968
10
-49.450000000000003
20
17.100000000000001
42
0.41421356237309503
10
-50.200000000000003
20
17.850000000000001
10
-64.099999999999994
20
17.850000000000001
42
0.41421356237309503
0
LWPOLYLINE
5
124
100
AcDbEntity
8
0
100
AcDbPolyline
90
8
70
1
43
0.0
10
-26.749999999999758
20
36.649999999999842
10
-26.749999999999758
20
25.449999999999839
42
0.41421356237309503
10
-25.999999999999758
20
24.699999999999839
10
-12.09999999999976
20
24.699999999999839
42
0.41421356237309503
10
-11.349999999999758
20
25.449999999999839
10
-11.349999999999758
20
36.649999999999842
42
0.41421356237309503
10
-12.099999999999758
20
37.399999999999842
10
-25.999999999999758
20
37.399999999999842
42
0.41421356237309503
0
LWPOLYLINE
5
125
100
AcDbEntity
8
0
100
AcDbPolyline
90
8
70
1
43
0.0
10
-7.6999999999999957
20
24.649999999999999
10
-7.6999999999999957
20
13.450000000000003
42
0.4142135623730942
10
-6.9500000000000028
20
12.700000000000005
10
6.9500000000000028
20
12.700000000000005
42
0.4142135623730942
10
7.6999999999999957
20
13.450000000000003
10
7.6999999999999957
20
24.649999999999999
42
0.4142135623730942
10
6.9500000000000028
20
25.399999999999999
10
-6.9500000000000011
20
25.399999999999999
42
0.41421356237309503
0
LWPOLYLINE
5
126
100
AcDbEntity
8
0
100
AcDbPolyline
90
8
70
1
43
0.0
10
-26.749999999999758
20
55.699999999999847
10
-26.749999999999758
20
44.499999999999844
42
0.41421356237309503
10
-25.999999999999758
20
43.749999999999844
10
-12.09999999999976
20
43.749999999999844
42
0.41421356237309503
10
-11.349999999999758
20
44.499999999999844
10
-11.349999999999758
20
55.699999999999847
42
0.41421356237309503
10
-12.099999999999758
20
56.449999999999847
10
-25.999999999999758
20
56.449999999999847
42
0.41421356237309503
0
LWPOLYLINE
5
127
100
AcDbEntity
8
0
100
AcDbPolyline
90
8
70
1
43
0.0
10
-83.90000000000002
20
52.700000000000003
10
-83.90000000000002
20
41.5
42
0.41421356237309503
10
-83.150000000000034
20
40.750000000000014
10
-69.250000000000028
20
40.750000000000014
42
0.41421356237309503
10
-68.500000000000014
20
41.500000000000014
10
-68.500000000000014
20
52.700000000000017
42
0.41421356237309503
10
-69.250000000000014
20
53.450000000000003
10
-83.150000000000034
20
53.450000000000003
42
0.41421356237309503
0
LWPOLYLINE
5
128
100
AcDbEntity
8
0
100
AcDbPolyline
90
8
70
1
43
0.0
10
-7.6999999999999957
20
43.700000000000003
10
-7.6999999999999957
20
32.500000000000007
42
0.4142135623730942
10
-6.9500000000000028
20
31.750000000000007
10
6.9500000000000028
20
31.750000000000007
42
0.4142135623730942
10
7.6999999999999957
20
32.500000000000007
10
7.6999999999999957
20
43.700000000000003
42
0.4142135623730942
10
6.9500000000000028
20
44.450000000000003
10
-6.9500000000000011
20
44.450000000000003
42
0.41421356237309503
0
LWPOLYLINE
5
129
100
AcDbEntity
8
0
100
AcDbPolyline
90
8
70
1
43
0.0
10
-7.6999999999999957
20
5.6000000000000014
10
-7.6999999999999957
20
-5.5999999999999996
42
0.41421356237309465
10
-6.9500000000000028
20
-6.3499999999999996
10
6.9500000000000028
20
-6.3499999999999996
42
0.4142135623730942
10
7.6999999999999957
20
-5.6000000000000005
10
7.6999999999999957
20
5.6000000000000005
42
0.4142135623730942
10
6.9500000000000028
20
6.3499999999999996
10
-6.9500000000000011
20
6.3499999999999996
42
0.41421356237309465
0
LWPOLYLINE
5
130
100
AcDbEntity
8
0
100
AcDbPolyline
90
8
70
1
43
0.0
10
-45.799999999999997
20
42.650000000000006
10
-45.799999999999997
20
31.450000000000003
42
0.41421356237309503
10
-45.049999999999997
20
30.700000000000003
10
-31.150000000000002
20
30.700000000000003
42
0.41421356237309503
10
-30.400000000000006
20
31.450000000000003
10
-30.400000000000006
20
42.650000000000006
42
0.41421356237309503
10
-31.150000000000002
20
43.400000000000006
10
-45.049999999999997
20
43.400000000000006
42
0.41421356237309503
0
LWPOLYLINE
5
131
100
AcDbEntity
8
0
100
AcDbPolyline
90
8
70
1
43
0.0
10
-83.90000000000002
20
33.650000000000006
10
-83.90000000000002
20
22.450000000000003
42
0.41421356237309503
10
-83.150000000000034
20
21.700000000000003
10
-69.250000000000028
20
21.700000000000003
42
0.41421356237309503
10
-68.500000000000014
20
22.450000000000006
10
-68.500000000000014
20
33.650000000000006
42
0.41421356237309503
10
-69.250000000000014
20
34.400000000000006
10
-83.150000000000034
20
34.400000000000006
42
0.41421356237309503
0
LWPOLYLINE
5
132
100
AcDbEntity
8
0
100
AcDbPolyline
90
8
70
1
43
0.0
10
-75.463601747885733
20
-6.943357749054262
10
-72.564828442737536
20
-17.761727003491835
42
0.41421356237309503
10
-71.646269789193838
20
-18.292057089381743
10
-58.219900803775779
20
-14.694472362456741
42
0.41421356237309498
10
-57.689570717885857
20
-13.775913708913045
10
-60.588344023034054
20
-2.9575444544754772
42
0.41421356237309725
10
-61.506902676577759
20
-2.4272143685855667
10
-74.933271661995818
20
-6.0247990955105726
42
0.41421356237309415
0
ENDSEC
0
SECTION
2
OBJECTS
0
DICTIONARY
5
C
100
AcDbDictionary
3
ACAD_GROUP
350
D
3
ACAD_MLINESTYLE
350
17
0
DICTIONARY
5
D
100
AcDbDictionary
0
DICTIONARY
5
1A
330
C
100
AcDbDictionary
0
DICTIONARY
5
17
100
AcDbDictionary
0
ENDSEC
0
EOF
