0
SECTION
2
HEADER
9
$INSUNITS
70
4
9
$ACADVER
1
AC1014
9
$HANDSEED
5
FFFF
0
ENDSEC
0
SECTION
2
TABLES
0
TABLE
2
VPORT
5
8
100
AcDbSymbolTable
0
ENDTAB
0
TABLE
2
LTYPE
5
5
100
AcDbSymbolTable
0
LTYPE
5
14
100
AcDbSymbolTableRecord
100
AcDbLinetypeTableRecord
2
BYBLOCK
70
0
0
LTYPE
5
15
100
AcDbSymbolTableRecord
100
AcDbLinetypeTableRecord
2
BYLAYER
70
0
0
ENDTAB
0
TABLE
2
LAYER
5
2
100
AcDbSymbolTable
70
2
0
LAYER
5
50
100
AcDbSymbolTableRecord
100
AcDbLayerTableRecord
2
0
70
0
6
CONTINUOUS
0
ENDTAB
0
TABLE
2
STYLE
5
3
100
AcDbSymbolTable
70
1
0
STYLE
5
11
100
AcDbSymbolTableRecord
100
AcDbTextStyleTableRecord
2
STANDARD
70
0
0
ENDTAB
0
TABLE
2
VIEW
5
6
100
AcDbSymbolTable
70
0
0
ENDTAB
0
TABLE
2
UCS
5
7
100
AcDbSymbolTable
70
0
0
ENDTAB
0
TABLE
2
APPID
5
9
100
AcDbSymbolTable
70
2
0
APPID
5
12
100
AcDbSymbolTableRecord
100
AcDbRegAppTableRecord
2
ACAD
70
0
0
ENDTAB
0
TABLE
2
DIMSTYLE
5
A
100
AcDbSymbolTable
70
1
0
ENDTAB
0
TABLE
2
BLOCK_RECORD
5
1
100
AcDbSymbolTable
70
1
0
BLOCK_RECORD
5
1F
100
AcDbSymbolTableRecord
100
AcDbBlockTableRecord
2
*MODEL_SPACE
0
BLOCK_RECORD
5
1B
100
AcDbSymbolTableRecord
100
AcDbBlockTableRecord
2
*PAPER_SPACE
0
ENDTAB
0
ENDSEC
0
SECTION
2
BLOCKS
0
BLOCK
5
20
100
AcDbEntity
100
AcDbBlockBegin
2
*MODEL_SPACE
0
ENDBLK
5
21
100
AcDbEntity
100
AcDbBlockEnd
0
BLOCK
5
1C
100
AcDbEntity
100
AcDbBlockBegin
2
*PAPER_SPACE
0
ENDBLK
5
1D
100
AcDbEntity
100
AcDbBlockEnd
0
ENDSEC
0
SECTION
2
ENTITIES
0
LWPOLYLINE
5
100
100
AcDbEntity
8
0
100
AcDbPolyline
90
12
70
1
43
0.0
10
-120.22500000000002
20
49.22815580263736
10
-120.22500000000002
20
29.572118032064793
42
-0.41421356237309631
10
-121.22500000000002
20
28.572118032064793
10
-125.22500000000001
20
28.572118032064779
42
-0.41421356237309631
10
-126.22500000000002
20
29.572118032064797
10
-126.22500000000008
20
51.314066405454646
42
-0.27363282930052923
10
-124.41040976365782
20
54.38153994707919
42
-0.023403459918490233
10
-110.62252748605874
20
61.13766072083191
42
-0.53970424987386123
10
-109.22499999999999
20
60.220070453976469
10
-109.22499999999998
20
55.850492485377714
42
-0.29597983141447215
10
-109.81747848365697
20
54.937296879980138
42
0.01738860060964903
10
-119.69499554357046
20
50.110824590475652
42
0.27716475387383432
0
LWPOLYLINE
5
101
100
AcDbEntity
8
0
100
AcDbPolyline
90
23
70
1
43
0.0
10
-86.475000000000009
20
14.83125862682364
10
-86.475000000000009
20
68.658184848849572
42
-0.34321389948162834
10
-85.720785651813884
20
69.627509053314924
42
-0.19199184356317836
10
34.784856172339921
20
53.745776832084509
42
-0.27148769664201206
10
36.574999999999996
20
50.691862643717229
10
36.575000000000003
20
-14.025000000000059
42
-0.4142135623730952
10
33.074999999999996
20
-17.525000000000059
10
-5.310891332880904
20
-17.525000000000055
42
0.41421356237309515
10
-8.8108913328809066
20
-21.025000000000059
10
-8.8108913328809031
20
-21.594827819785507
42
-0.41421356237309453
10
-12.310891332880907
20
-25.094827819785511
10
-45.385891332880952
20
-25.094827819785515
42
0.19891236737965884
10
-90.887900107090758
20
-43.942376969282869
10
-100.80507271323151
20
-53.859549575424268
42
-0.41421356237309037
10
-105.75482018153735
20
-53.85954957542431
10
-139.0595495754244
20
-20.554820181537909
42
-0.41421356237309126
10
-139.05954957542446
20
-15.605072713232053
10
-129.14237696928322
20
-5.687900107090595
42
-0.02086227680072418
10
-121.87071642505785
20
1.001008295898816
42
-0.63841700195448459
10
-120.22500000000001
20
0.2374309924051643
10
-120.22499999999999
20
-4.6346627839014687
42
0.64349477258744514
10
-118.56835794617162
20
-5.3888651527282931
42
-0.083373196303120206
10
-87.100706766266967
20
13.903948228315329
42
0.3058230674695307
0
LWPOLYLINE
5
102
100
AcDbEntity
8
0
100
AcDbPolyline
90
24
70
1
43
0.0
10
23.350000000000009
20
45.049990000000044
42
-0.41421356237309076
10
23.050000000000011
20
45.349990000000048
10
23.050000000000011
20
46.499990000000039
42
0.41421356237309503
10
22.750000000000014
20
46.799990000000037
10
15.350000000000009
20
46.799990000000037
42
0.41421356237309287
10
15.05000000000001
20
46.499990000000039
10
15.050000000000011
20
45.349990000000062
42
-0.41421356237308204
10
14.750000000000014
20
45.049990000000044
10
12.400000000000002
20
45.049990000000044
42
0.41421356237309503
10
12.100000000000001
20
44.749990000000039
10
12.100000000000016
20
31.449989999999993
42
0.41421356237309503
10
12.400000000000016
20
31.149989999999995
10
14.750000000000014
20
31.149990000000003
42
-0.41421356237309503
10
15.050000000000017
20
30.849989999999998
10
15.050000000000017
20
29.699989999999996
42
0.41421356237309287
10
15.350000000000016
20
29.399989999999995
10
22.750000000000007
20
29.399989999999995
42
0.41421356237309936
10
23.050000000000015
20
29.699989999999993
10
23.050000000000004
20
30.849989999999991
42
-0.41421356237311674
10
23.350000000000012
20
31.149989999999992
10
25.700000000000024
20
31.149989999999988
42
0.41421356237309076
10
26.000000000000018
20
31.449989999999985
10
26.000000000000014
20
44.749990000000039
42
0.41421356237309503
10
25.700000000000017
20
45.049990000000044
0
LWPOLYLINE
5
103
100
AcDbEntity
8
0
100
AcDbPolyline
90
24
70
1
43
0.0
10
14.750000000000014
20
-6.950010000000014
42
-0.41421356237309614
10
15.050000000000017
20
-7.2500100000000138
10
15.050000000000017
20
-8.400010000000016
42
0.41421356237309287
10
15.350000000000016
20
-8.7000100000000167
10
22.750000000000018
20
-8.7000100000000167
42
0.41421356237309503
10
23.050000000000015
20
-8.400010000000016
10
23.050000000000015
20
-7.25001000000002
42
-0.41421356237310153
10
23.350000000000016
20
-6.9500100000000185
10
25.700000000000021
20
-6.9500100000000211
42
0.41421356237309614
10
26.000000000000018
20
-6.6500100000000195
10
26.000000000000014
20
6.64999000000003
42
0.41421356237309503
10
25.700000000000017
20
6.9499900000000299
10
23.350000000000009
20
6.949990000000037
42
-0.41421356237309503
10
23.050000000000015
20
7.2499900000000306
10
23.050000000000015
20
8.3999900000000309
42
0.41421356237309614
10
22.750000000000018
20
8.6999900000000316
10
15.350000000000019
20
8.6999900000000316
42
0.41421356237309503
10
15.050000000000017
20
8.3999900000000309
10
15.050000000000015
20
7.2499900000000297
42
-0.41421356237309936
10
14.750000000000014
20
6.949990000000029
10
12.400000000000002
20
6.949990000000029
42
0.41421356237309503
10
12.100000000000001
20
6.6499900000000292
10
12.100000000000016
20
-6.6500100000000115
42
0.41421356237309503
10
12.400000000000016
20
-6.9500100000000122
0
LWPOLYLINE
5
104
100
AcDbEntity
8
0
100
AcDbPolyline
90
24
70
1
43
0.0
10
-30.635891332880966
20
-14.519827819785538
42
-0.41421356237309503
10
-30.335891332880966
20
-14.819827819785536
10
-30.335891332880966
20
-15.969827819785507
42
0.41421356237309725
10
-30.035891332880968
20
-16.269827819785512
10
-22.635891332880966
20
-16.269827819785508
42
0.41421356237309503
10
-22.335891332880973
20
-15.969827819785509
10
-22.335891332880969
20
-14.819827819785548
42
-0.41421356237311024
10
-22.035891332880972
20
-14.519827819785542
10
-19.685891332880967
20
-14.519827819785547
42
0.41421356237309287
10
-19.385891332880963
20
-14.219827819785547
10
-19.385891332880959
20
-0.91982781978541428
42
0.41421356237309725
10
-19.685891332880963
20
-0.61982781978541446
10
-22.035891332880972
20
-0.61982781978542778
42
-0.41421356237309598
10
-22.335891332880973
20
-0.31982781978542429
10
-22.335891332880969
20
0.83017218021453898
42
0.41421356237309503
10
-22.635891332880966
20
1.1301721802145392
10
-30.035891332880968
20
1.1301721802145395
42
0.41421356237309492
10
-30.335891332880962
20
0.83017218021453953
10
-30.335891332880966
20
-0.31982781978545971
42
-0.41421356237309609
10
-30.635891332880966
20
-0.61982781978545987
10
-32.98589133288101
20
-0.61982781978546986
42
0.41421356237309559
10
-33.285891332881008
20
-0.91982781978547035
10
-33.285891332880972
20
-14.219827819785532
42
0.41421356237309503
10
-32.985891332880975
20
-14.519827819785531
0
LWPOLYLINE
5
105
100
AcDbEntity
8
0
100
AcDbPolyline
90
32
70
1
43
0.0
10
-81.156986117297393
20
-12.987032134521383
42
-0.41421356237306678
10
-81.566793738432722
20
-12.877224513386043
10
-88.566793738432239
20
-0.75286886040441914
42
-0.41421356237301066
10
-88.456986117297006
20
-0.34306123926912668
10
-85.729006095376477
20
1.231938760731818
42
0.4142135623730851
10
-85.619198474241287
20
1.6417463818671818
10
-89.906698474243882
20
9.0679142193173377
42
0.41421356237308554
10
-90.316506095379253
20
9.1777218404525378
10
-105.08223922989855
20
0.65272184045017756
42
0.41421356237299062
10
-105.19204685103381
20
0.24291421931490809
10
-104.19829685103402
20
-1.4783112707065058
42
-0.41421356237299767
10
-104.30810447216926
20
-1.8881188918417657
10
-105.3040336865227
20
-2.4631188918430507
42
0.41421356237308826
10
-105.4138413076579
20
-2.8729265129784287
10
-103.71384130765688
20
-5.8174128858449405
42
0.41421356237312312
10
-103.30403368652148
20
-5.9272205069801238
10
-102.3081044721697
20
-5.3522205069797337
42
-0.41421356237326257
10
-101.89829685103426
20
-5.4620281281150218
10
-92.310796851037438
20
-22.068065245678213
42
-0.4142135623730816
10
-92.420604472172769
20
-22.477872866813541
10
-93.416533686524048
20
-23.052872866813065
42
0.41421356237306706
10
-93.526341307659408
20
-23.462680487948383
10
-91.826341307659504
20
-26.40716686081565
42
0.4142135623731128
10
-91.416533686524161
20
-26.516974481950982
10
-90.420604472172073
20
-25.941974481950961
42
-0.41421356237308649
10
-90.010796851036687
20
-26.051782103086296
10
-89.017046851036952
20
-27.773007593107486
42
0.41421356237309348
10
-88.607239229901623
20
-27.882815214242829
10
-73.841506095376388
20
-19.357815214243779
42
0.41421356237308865
10
-73.731698474241043
20
-18.948007593108461
10
-78.019198474240568
20
-11.521839755656586
42
0.41421356237310503
10
-78.429006095375897
20
-11.41203213452123
0
LWPOLYLINE
5
106
100
AcDbEntity
8
0
100
AcDbPolyline
90
8
70
1
43
0.0
10
-25.999999999999908
20
18.649999999999924
10
-25.999999999999908
20
5.3499999999999082
42
0.41421356237309503
10
-25.699999999999914
20
5.0499999999999083
10
-12.399999999999917
20
5.0499999999999101
42
0.41421356237309503
10
-12.09999999999992
20
5.3499999999999108
10
-12.099999999999916
20
18.64999999999992
42
0.41421356237309503
10
-12.399999999999915
20
18.949999999999925
10
-25.699999999999914
20
18.949999999999925
42
0.41421356237309503
0
LWPOLYLINE
5
107
100
AcDbEntity
8
0
100
AcDbPolyline
90
8
70
1
43
0.0
10
-45.050000000000011
20
24.650000000000006
10
-45.049999999999997
20
11.350000000000001
42
0.41421356237309503
10
-44.75
20
11.050000000000004
10
-31.449999999999989
20
11.050000000000001
42
0.41421356237309503
10
-31.149999999999999
20
11.35
10
-31.150000000000002
20
24.650000000000006
42
0.41421356237309503
10
-31.449999999999999
20
24.950000000000006
10
-44.750000000000007
20
24.950000000000006
42
0.41421356237309503
0
LWPOLYLINE
5
108
100
AcDbEntity
8
0
100
AcDbPolyline
90
8
70
1
43
0.0
10
-64.099999999999966
20
18.149999999999991
10
-64.09999999999998
20
4.8499999999999943
42
0.41421356237309503
10
-63.799999999999969
20
4.5499999999999936
10
-50.499999999999979
20
4.5499999999999936
42
0.41421356237309559
10
-50.199999999999974
20
4.8499999999999943
10
-50.199999999999967
20
18.149999999999995
42
0.41421356237309503
10
-50.499999999999972
20
18.449999999999996
10
-63.799999999999962
20
18.449999999999992
42
0.41421356237309503
0
LWPOLYLINE
5
109
100
AcDbEntity
8
0
100
AcDbPolyline
90
8
70
1
43
0.0
10
-83.150000000000034
20
15.649999999999988
10
-83.150000000000048
20
2.3500000000000321
42
0.41421356237309503
10
-82.850000000000051
20
2.0500000000000318
10
-69.550000000000011
20
2.0500000000000309
42
0.41421356237309398
10
-69.250000000000028
20
2.3500000000000298
10
-69.250000000000028
20
15.649999999999986
42
0.41421356237309503
10
-69.550000000000026
20
15.949999999999989
10
-82.850000000000037
20
15.949999999999989
42
0.41421356237309503
0
LWPOLYLINE
5
110
100
AcDbEntity
8
0
100
AcDbPolyline
90
8
70
1
43
0.0
10
-83.150000000000034
20
34.699999999999996
10
-83.150000000000048
20
21.400000000000034
42
0.41421356237309503
10
-82.850000000000051
20
21.100000000000033
10
-69.550000000000011
20
21.100000000000033
42
0.41421356237309503
10
-69.250000000000028
20
21.400000000000034
10
-69.250000000000028
20
34.699999999999996
42
0.41421356237309503
10
-69.550000000000026
20
34.999999999999993
10
-82.850000000000037
20
34.999999999999993
42
0.41421356237309503
0
LWPOLYLINE
5
111
100
AcDbEntity
8
0
100
AcDbPolyline
90
8
70
1
43
0.0
10
-63.799999999999969
20
23.599999999999994
10
-50.499999999999979
20
23.599999999999994
42
0.41421356237309503
10
-50.199999999999974
20
23.899999999999991
10
-50.199999999999967
20
37.199999999999996
42
0.41421356237309503
10
-50.499999999999972
20
37.499999999999993
10
-63.799999999999962
20
37.499999999999993
42
0.41421356237309503
10
-64.099999999999966
20
37.199999999999996
10
-64.09999999999998
20
23.899999999999991
42
0.41421356237309503
0
LWPOLYLINE
5
112
100
AcDbEntity
8
0
100
AcDbPolyline
90
8
70
1
43
0.0
10
-31.150000000000002
20
30.399999999999999
10
-31.150000000000006
20
43.70000000000001
42
0.41421356237309503
10
-31.449999999999999
20
44.000000000000014
10
-44.750000000000007
20
44.000000000000014
42
0.41421356237309503
10
-45.050000000000011
20
43.70000000000001
10
-45.049999999999997
20
30.399999999999999
42
0.41421356237309503
10
-44.75
20
30.100000000000001
10
-31.449999999999989
20
30.100000000000001
42
0.41421356237309503
0
LWPOLYLINE
5
113
100
AcDbEntity
8
0
100
AcDbPolyline
90
8
70
1
43
0.0
10
-25.699999999999914
20
24.099999999999909
10
-12.399999999999917
20
24.099999999999909
42
0.41421356237309503
10
-12.099999999999918
20
24.399999999999906
10
-12.099999999999916
20
37.699999999999932
42
0.41421356237309503
10
-12.399999999999915
20
37.999999999999929
10
-25.699999999999914
20
37.999999999999929
42
0.41421356237309503
10
-25.999999999999908
20
37.699999999999932
10
-25.999999999999911
20
24.399999999999906
42
0.41421356237309503
0
LWPOLYLINE
5
114
100
AcDbEntity
8
0
100
AcDbPolyline
90
8
70
1
43
0.0
10
-6.9500000000000384
20
6.6500000000000394
10
-6.9500000000000375
20
-6.6499999999999613
42
0.41421356237309614
10
-6.6500000000000359
20
-6.9499999999999602
10
6.6499999999999648
20
-6.949999999999962
42
0.41421356237309287
10
6.9499999999999718
20
-6.6499999999999639
10
6.9500000000001112
20
6.6500000000000368
42
0.41421356237309825
10
6.6500000000001114
20
6.9500000000000401
10
-6.6500000000000403
20
6.9500000000000401
42
0.41421356237309503
0
LWPOLYLINE
5
115
100
AcDbEntity
8
0
100
AcDbPolyline
90
8
70
1
43
0.0
10
12.1
20
25.699990000000032
10
12.100000000000016
20
12.399989999999992
42
0.41421356237309503
10
12.400000000000016
20
12.099989999999991
10
25.700000000000017
20
12.099989999999982
42
0.41421356237309936
10
26.000000000000014
20
12.399989999999983
10
26.000000000000014
20
25.699990000000035
42
0.41421356237309076
10
25.700000000000021
20
25.999990000000036
10
12.4
20
25.999990000000032
42
0.41421356237309287
0
LWPOLYLINE
5
116
100
AcDbEntity
8
0
100
AcDbPolyline
90
8
70
1
43
0.0
10
6.6500000000001114
20
45.05000000000004
10
-6.6500000000000403
20
45.05000000000004
42
0.41421356237309398
10
-6.9500000000000393
20
44.750000000000043
10
-6.9500000000000384
20
31.450000000000038
42
0.41421356237309725
10
-6.6500000000000359
20
31.150000000000048
10
6.6499999999999648
20
31.150000000000041
42
0.41421356237309076
10
6.9499999999999709
20
31.450000000000035
10
6.9500000000001112
20
44.750000000000043
42
0.41421356237309503
0
LWPOLYLINE
5
117
100
AcDbEntity
8
0
100
AcDbPolyline
90
8
70
1
43
0.0
10
-52.335891332881019
20
-0.91982781978547035
10
-52.335891332880983
20
-14.219827819785532
42
0.41421356237309503
10
-52.035891332880979
20
-14.519827819785531
10
-38.735891332880968
20
-14.519827819785547
42
0.41421356237309503
10
-38.435891332880971
20
-14.219827819785547
10
-38.435891332880963
20
-0.91982781978541428
42
0.41421356237309503
10
-38.735891332880961
20
-0.61982781978541446
10
-52.035891332881015
20
-0.61982781978546986
42
0.41421356237309559
0
LWPOLYLINE
5
118
100
AcDbEntity
8
0
100
AcDbPolyline
90
8
70
1
43
0.0
10
-58.142255090245094
20
-14.984250110343424
10
-61.58454839010858
20
-2.137436620699066
42
0.41421356237309725
10
-61.951971851526054
20
-1.9253045863431018
10
-74.798785341170401
20
-5.3675978862064841
42
0.41421356237308526
10
-75.010917375526375
20
-5.7350213476239542
10
-71.568624075663209
20
-18.581834837268211
42
0.41421356237309881
10
-71.201200614245735
20
-18.793966871624182
10
-58.354387124601047
20
-15.3516735717609
42
0.41421356237310258
0
LWPOLYLINE
5
119
100
AcDbEntity
8
0
100
AcDbPolyline
90
8
70
1
43
0.0
10
-83.150000000000034
20
53.749999999999993
10
-83.150000000000048
20
40.450000000000031
42
0.41421356237309503
10
-82.850000000000051
20
40.150000000000034
10
-69.550000000000011
20
40.150000000000034
42
0.41421356237309503
10
-69.250000000000028
20
40.450000000000031
10
-69.250000000000028
20
53.749999999999993
42
0.41421356237309503
10
-69.550000000000026
20
54.049999999999997
10
-82.850000000000037
20
54.049999999999997
42
0.41421356237309503
0
LWPOLYLINE
5
120
100
AcDbEntity
8
0
100
AcDbPolyline
90
8
70
1
43
0.0
10
-63.799999999999969
20
42.649999999999999
10
-50.499999999999979
20
42.649999999999999
42
0.41421356237309503
10
-50.199999999999974
20
42.950000000000003
10
-50.199999999999967
20
56.25
42
0.41421356237309503
10
-50.499999999999972
20
56.550000000000004
10
-63.799999999999962
20
56.550000000000004
42
0.41421356237309503
10
-64.099999999999966
20
56.25
10
-64.09999999999998
20
42.950000000000003
42
0.41421356237309503
0
LWPOLYLINE
5
121
100
AcDbEntity
8
0
100
AcDbPolyline
90
8
70
1
43
0.0
10
-31.149999999999999
20
49.45000000000001
10
-31.150000000000006
20
62.75
42
0.41421356237309503
10
-31.449999999999999
20
63.050000000000011
10
-44.750000000000007
20
63.050000000000011
42
0.41421356237309503
10
-45.050000000000011
20
62.750000000000014
10
-45.049999999999997
20
49.450000000000017
42
0.41421356237309503
10
-44.75
20
49.150000000000006
10
-31.449999999999989
20
49.150000000000006
42
0.41421356237309503
0
LWPOLYLINE
5
122
100
AcDbEntity
8
0
100
AcDbPolyline
90
8
70
1
43
0.0
10
-25.699999999999914
20
43.149999999999906
10
-12.399999999999917
20
43.149999999999913
42
0.41421356237309503
10
-12.099999999999921
20
43.449999999999918
10
-12.099999999999916
20
56.749999999999929
42
0.41421356237309503
10
-12.399999999999915
20
57.049999999999926
10
-25.699999999999914
20
57.049999999999926
42
0.41421356237309503
10
-25.999999999999908
20
56.749999999999929
10
-25.999999999999911
20
43.449999999999903
42
0.41421356237309503
0
LWPOLYLINE
5
123
100
AcDbEntity
8
0
100
AcDbPolyline
90
8
70
1
43
0.0
10
6.6500000000001114
20
26.000000000000046
10
-6.6500000000000403
20
26.000000000000046
42
0.41421356237309398
10
-6.9500000000000393
20
25.700000000000045
10
-6.9500000000000384
20
12.400000000000041
42
0.41421356237309725
10
-6.6500000000000359
20
12.100000000000044
10
6.6499999999999648
20
12.100000000000042
42
0.41421356237309287
10
6.9499999999999682
20
12.400000000000039
10
6.9500000000001112
20
25.700000000000042
42
0.41421356237309936
0
LWPOLYLINE
5
124
100
AcDbEntity
8
0
100
AcDbPolyline
90
32
70
1
43
0.0
10
-122.13318100076862
20
-22.950144402809833
42
-0.414213562373141
10
-121.70891693205661
20
-22.950144402809801
10
-108.15014440281115
20
-36.508916932056678
42
-0.41421356237316559
10
-108.15014440281124
20
-36.933181000768712
10
-108.96331720117476
20
-37.746353799131541
42
0.41421356237314411
10
-108.9633172011749
20
-38.170617867843511
10
-106.55915414514129
20
-40.574780923878457
42
0.4142135623731012
10
-106.13489007642937
20
-40.574780923878571
10
-105.32171727806454
20
-39.761608125514158
42
-0.41421356237304602
10
-104.89745320935263
20
-39.761608125514208
10
-103.49207848174129
20
-41.166982853125553
42
0.41421356237308893
10
-103.06781441302934
20
-41.166982853125582
10
-91.011643793798385
20
-29.110812233895249
42
0.41421356237306134
10
-91.01164379379837
20
-28.686548165183346
10
-97.075084442472416
20
-22.623107516508227
42
0.41421356237306439
10
-97.499348511184323
20
-22.623107516508163
10
-99.726734871923114
20
-24.850493877245935
42
-0.41421356237302148
10
-100.15099894063499
20
-24.850493877245885
10
-110.05049387724604
20
-14.950998940634783
42
-0.41421356237298773
10
-110.05049387724611
20
-14.526734871922917
10
-107.82310751650888
20
-12.299348511184437
42
0.41421356237308893
10
-107.82310751650898
20
-11.875084442472513
10
-113.88654816518526
20
-5.8116437937993703
42
0.41421356237309503
10
-114.3108122338972
20
-5.8116437937994725
10
-126.36698285312281
20
-17.867814413031315
42
0.41421356237300766
10
-126.36698285312276
20
-18.292078481743175
10
-124.9616081255148
20
-19.697453209351316
42
-0.41421356237293866
10
-124.96160812551472
20
-20.121717278063155
10
-125.77478092388029
20
-20.934890076429301
42
0.4142135623731073
10
-125.77478092388013
20
-21.359154145141236
10
-123.37061786784489
20
-23.763317201174694
42
0.41421356237303369
10
-122.94635379913301
20
-23.763317201174566
0
CIRCLE
5
125
100
AcDbEntity
8
0
100
AcDbCircle
10
-111.96821431508693
20
57.25283651430972
30
0
40
1.6000000000000003
210
0
220
-0
230
1
0
CIRCLE
5
126
100
AcDbEntity
8
0
100
AcDbCircle
10
-123.22500000000002
20
31.572118032064797
30
0
40
1.6000000000000003
210
0
220
-0
230
1
0
CIRCLE
5
127
100
AcDbEntity
8
0
100
AcDbCircle
10
32.915990257669733
20
-13.865990257669791
30
0
40
1.6000000000000003
210
0
220
-0
230
1
0
CIRCLE
5
128
100
AcDbEntity
8
0
100
AcDbCircle
10
-83.567215439701172
20
67.070106416105432
30
0
40
1.6000000000000003
210
0
220
-0
230
1
0
CIRCLE
5
129
100
AcDbEntity
8
0
100
AcDbCircle
10
-136.35980210711904
20
-18.079946447384994
30
0
40
1.6000000000000003
210
0
220
-0
230
1
0
CIRCLE
5
130
100
AcDbEntity
8
0
100
AcDbCircle
10
-103.27994644738452
20
-51.159802107118473
30
0
40
1.6000000000000003
210
0
220
-0
230
1
0
CIRCLE
5
131
100
AcDbEntity
8
0
100
AcDbCircle
10
-123.22499999999964
20
-4.2261046507014388
30
0
40
1.6000000000000003
210
0
220
-0
230
1
0
CIRCLE
5
132
100
AcDbEntity
8
0
100
AcDbCircle
10
33.264438946741961
20
50.799057522432847
30
0
40
1.6000000000000003
210
0
220
-0
230
1
0
CIRCLE
5
133
100
AcDbEntity
8
0
100
AcDbCircle
10
-28.574999999999999
20
29.349999999999376
30
0
40
2.2000000000000002
210
0
220
-0
230
1
0
CIRCLE
5
134
100
AcDbEntity
8
0
100
AcDbCircle
10
-47.624999999999346
20
10.299999999999693
30
0
40
2.2000000000000002
210
0
220
-0
230
1
0
CIRCLE
5
135
100
AcDbEntity
8
0
100
AcDbCircle
10
-66.675000000000011
20
29.350000000000001
30
0
40
2.2000000000000002
210
0
220
-0
230
1
0
CIRCLE
5
136
100
AcDbEntity
8
0
100
AcDbCircle
10
-47.625000000000639
20
48.399999999999693
30
0
40
2.2000000000000002
210
0
220
-0
230
1
0
ENDSEC
0
SECTION
2
OBJECTS
0
DICTIONARY
5
C
100
AcDbDictionary
3
ACAD_GROUP
350
D
3
ACAD_MLINESTYLE
350
17
0
DICTIONARY
5
D
100
AcDbDictionary
0
DICTIONARY
5
1A
330
C
100
AcDbDictionary
0
DICTIONARY
5
17
100
AcDbDictionary
0
ENDSEC
0
EOF
