0
SECTION
2
HEADER
9
$INSUNITS
70
4
9
$ACADVER
1
AC1014
9
$HANDSEED
5
FFFF
0
ENDSEC
0
SECTION
2
TABLES
0
TABLE
2
VPORT
5
8
100
AcDbSymbolTable
0
ENDTAB
0
TABLE
2
LTYPE
5
5
100
AcDbSymbolTable
0
LTYPE
5
14
100
AcDbSymbolTableRecord
100
AcDbLinetypeTableRecord
2
BYBLOCK
70
0
0
LTYPE
5
15
100
AcDbSymbolTableRecord
100
AcDbLinetypeTableRecord
2
BYLAYER
70
0
0
ENDTAB
0
TABLE
2
LAYER
5
2
100
AcDbSymbolTable
70
2
0
LAYER
5
50
100
AcDbSymbolTableRecord
100
AcDbLayerTableRecord
2
0
70
0
6
CONTINUOUS
0
ENDTAB
0
TABLE
2
STYLE
5
3
100
AcDbSymbolTable
70
1
0
STYLE
5
11
100
AcDbSymbolTableRecord
100
AcDbTextStyleTableRecord
2
STANDARD
70
0
0
ENDTAB
0
TABLE
2
VIEW
5
6
100
AcDbSymbolTable
70
0
0
ENDTAB
0
TABLE
2
UCS
5
7
100
AcDbSymbolTable
70
0
0
ENDTAB
0
TABLE
2
APPID
5
9
100
AcDbSymbolTable
70
2
0
APPID
5
12
100
AcDbSymbolTableRecord
100
AcDbRegAppTableRecord
2
ACAD
70
0
0
ENDTAB
0
TABLE
2
DIMSTYLE
5
A
100
AcDbSymbolTable
70
1
0
ENDTAB
0
TABLE
2
BLOCK_RECORD
5
1
100
AcDbSymbolTable
70
1
0
BLOCK_RECORD
5
1F
100
AcDbSymbolTableRecord
100
AcDbBlockTableRecord
2
*MODEL_SPACE
0
BLOCK_RECORD
5
1B
100
AcDbSymbolTableRecord
100
AcDbBlockTableRecord
2
*PAPER_SPACE
0
ENDTAB
0
ENDSEC
0
SECTION
2
BLOCKS
0
BLOCK
5
20
100
AcDbEntity
100
AcDbBlockBegin
2
*MODEL_SPACE
0
ENDBLK
5
21
100
AcDbEntity
100
AcDbBlockEnd
0
BLOCK
5
1C
100
AcDbEntity
100
AcDbBlockBegin
2
*PAPER_SPACE
0
ENDBLK
5
1D
100
AcDbEntity
100
AcDbBlockEnd
0
ENDSEC
0
SECTION
2
ENTITIES
0
CIRCLE
5
100
100
AcDbEntity
8
0
100
AcDbCircle
10
9.5250000000000021
20
9.5249900000000007
30
0
40
1.2
210
0
220
-0
230
1
0
CIRCLE
5
101
100
AcDbEntity
8
0
100
AcDbCircle
10
-6.9499999999999993
20
49.800000000000004
30
0
40
1.2
210
0
220
-0
230
1
0
CIRCLE
5
102
100
AcDbEntity
8
0
100
AcDbCircle
10
-57.376142737482439
20
1.6306156756178232
30
0
40
1.2
210
0
220
-0
230
1
0
CIRCLE
5
103
100
AcDbEntity
8
0
100
AcDbCircle
10
-101.30725435658294
20
-16.566246567140126
30
0
40
1.2
210
0
220
-0
230
1
0
CIRCLE
5
104
100
AcDbEntity
8
0
100
AcDbCircle
10
-66.675000000000068
20
60.125
30
0
40
1.2
210
0
220
-0
230
1
0
CIRCLE
5
105
100
AcDbEntity
8
0
100
AcDbCircle
10
-13.161769345940471
20
0.29999999999971494
30
0
40
1.2
210
0
220
-0
230
1
0
CIRCLE
5
106
100
AcDbEntity
8
0
100
AcDbCircle
10
9.5250000000000021
20
47.624989999999997
30
0
40
1.2
210
0
220
-0
230
1
0
LWPOLYLINE
5
107
100
AcDbEntity
8
0
100
AcDbPolyline
90
28
70
1
43
0.0
10
-92.652953592685861
20
-21.475432384989883
42
-0.37796447300917141
10
-92.914647450172495
20
-22.772165327793967
42
0.37796447300917962
10
-93.176341307659115
20
-24.068898270598091
10
-92.168498049308283
20
-25.814534000127484
42
0.37796447300922897
10
-90.914647450172268
20
-26.236266942931692
42
-0.37796447300922598
10
-89.660796851036281
20
-26.657999885735908
10
-89.367046851036278
20
-27.166789810459253
42
0.41421356237309553
10
-88.001021447251844
20
-27.532815214243691
10
-74.447723878025357
20
-19.707815214243702
42
0.41421356237309265
10
-74.081698474240923
20
-18.341789810459275
10
-77.669198474240886
20
-12.12805753830585
42
0.41421356237310086
10
-79.035223878025334
20
-11.762032134521405
10
-80.550768334648183
20
-12.637032134521453
42
-0.41421356237309093
10
-81.916793738432631
20
-12.271006730737032
10
-88.216793738432472
20
-1.3590866430534487
42
-0.41421356237310147
10
-87.850768334648066
20
0.0069387607309767674
10
-86.335223878025133
20
0.88193876073109512
42
0.4142135623730766
10
-85.96919847424067
20
2.2479641645154844
10
-89.556698474240349
20
8.4616964366691043
42
0.41421356237307899
10
-90.922723878024726
20
8.8277218404536448
10
-104.47602144725224
20
1.0027218404550098
42
0.41421356237312185
10
-104.84204685103677
20
-0.36330356332945679
10
-104.54045359268513
20
-0.88567841001479719
42
-0.37796447300924829
10
-104.80214745017204
20
-2.1824113528190736
42
0.37796447300927438
10
-105.06384130765892
20
-3.4791442956234073
10
-104.06384130765878
20
-5.211195103192364
42
0.37796447300921582
10
-102.80999070852278
20
-5.6329280459965547
42
-0.3779644730092569
10
-101.55614010938675
20
-6.0546609888007863
0
LWPOLYLINE
5
108
100
AcDbEntity
8
0
100
AcDbPolyline
90
19
70
1
43
0.0
10
28.574999999999999
20
-10.52500000000008
10
-14.810891332880905
20
-10.525000000000002
42
0.41421356237309503
10
-15.810891332880907
20
-11.525000000000002
10
-15.810891332880912
20
-17.09482781978555
42
-0.4142135623730957
10
-16.810891332880907
20
-18.09482781978555
10
-45.385891332880917
20
-18.094827819785493
42
0.19891236737965898
10
-95.837647575396616
20
-38.992629500977046
10
-102.57283966619798
20
-45.727821591779019
42
-0.41421356237309503
10
-103.9870532285711
20
-45.72782159177904
10
-130.92782159177921
20
-18.787053228571363
42
-0.41421356237308127
10
-130.92782159177921
20
-17.372839666198267
10
-124.19262950097762
20
-10.637647575396709
42
-0.10078004911468698
10
-87.100706766266825
20
13.903948228315205
42
0.3058230674695307
10
-86.474999999999909
20
14.831258626823516
10
-86.47500000000008
20
61.426218290421879
42
-0.34003495951207025
10
-85.731807007977892
20
62.392680995679306
42
-0.190584065301176
10
29.048786418358652
20
48.909387228865775
42
-0.27600759101215044
10
29.575000000000074
20
48.02874744451637
10
29.575000000000003
20
-9.5250000000000803
42
-0.4142135623730937
0
LWPOLYLINE
5
109
100
AcDbEntity
8
0
100
AcDbPolyline
90
8
70
1
43
0.0
10
-45.050000000000011
20
23.950000000000003
10
-45.050000000000011
20
12.050000000000004
42
0.41421356237309503
10
-44.050000000000004
20
11.050000000000004
10
-32.149999999999999
20
11.050000000000004
42
0.41421356237309503
10
-31.150000000000002
20
12.050000000000004
10
-31.149999999999999
20
23.950000000000003
42
0.41421356237309503
10
-32.149999999999999
20
24.950000000000006
10
-44.050000000000011
20
24.950000000000006
42
0.41421356237309503
0
LWPOLYLINE
5
110
100
AcDbEntity
8
0
100
AcDbPolyline
90
8
70
1
43
0.0
10
-31.150000000000002
20
50.150000000000006
10
-31.150000000000002
20
62.050000000000018
42
0.41421356237309503
10
-32.149999999999999
20
63.050000000000011
10
-44.050000000000011
20
63.050000000000011
42
0.41421356237309503
10
-45.050000000000011
20
62.050000000000018
10
-45.049999999999997
20
50.150000000000006
42
0.41421356237309503
10
-44.050000000000004
20
49.150000000000006
10
-32.149999999999999
20
49.150000000000006
42
0.41421356237309503
0
LWPOLYLINE
5
111
100
AcDbEntity
8
0
100
AcDbPolyline
90
8
70
1
43
0.0
10
-83.150000000000006
20
14.949999999999974
10
-83.150000000000006
20
3.050000000000026
42
0.41421356237309503
10
-82.15000000000002
20
2.0500000000000269
10
-70.250000000000028
20
2.0500000000000265
42
0.41421356237309492
10
-69.250000000000028
20
3.050000000000026
10
-69.250000000000028
20
14.949999999999974
42
0.41421356237309503
10
-70.250000000000028
20
15.949999999999974
10
-82.15000000000002
20
15.949999999999974
42
0.41421356237309503
0
LWPOLYLINE
5
112
100
AcDbEntity
8
0
100
AcDbPolyline
90
8
70
1
43
0.0
10
-52.335891332880934
20
-1.6198278197855176
10
-52.335891332880912
20
-13.519827819785588
42
0.41421356237309437
10
-51.335891332880912
20
-14.519827819785585
10
-39.435891332880921
20
-14.519827819785597
42
0.41421356237309503
10
-38.435891332880914
20
-13.519827819785597
10
-38.435891332880914
20
-1.6198278197854785
42
0.41421356237309648
10
-39.435891332880921
20
-0.61982781978547741
10
-51.335891332880941
20
-0.61982781978551427
42
0.41421356237309592
0
LWPOLYLINE
5
113
100
AcDbEntity
8
0
100
AcDbPolyline
90
8
70
1
43
0.0
10
-24.999999999999794
20
43.149999999999707
10
-13.099999999999795
20
43.149999999999707
42
0.41421356237309503
10
-12.099999999999795
20
44.149999999999707
10
-12.099999999999797
20
56.04999999999972
42
0.41421356237309503
10
-13.099999999999799
20
57.049999999999713
10
-24.999999999999794
20
57.049999999999713
42
0.41421356237309503
10
-25.999999999999801
20
56.04999999999972
10
-25.999999999999797
20
44.149999999999707
42
0.41421356237309503
0
LWPOLYLINE
5
114
100
AcDbEntity
8
0
100
AcDbPolyline
90
8
70
1
43
0.0
10
5.9499999999999975
20
26.000000000000007
10
-5.9499999999999993
20
26.000000000000007
42
0.41421356237309503
10
-6.9500000000000028
20
25.000000000000004
10
-6.9499999999999993
20
13.100000000000005
42
0.4142135623730957
10
-5.9499999999999975
20
12.1
10
5.9499999999999975
20
12.100000000000001
42
0.4142135623730957
10
6.9500000000000028
20
13.100000000000003
10
6.9499999999999993
20
25.000000000000004
42
0.4142135623730957
0
LWPOLYLINE
5
115
100
AcDbEntity
8
0
100
AcDbPolyline
90
8
70
1
43
0.0
10
-6.9500000000000028
20
5.9500000000000011
10
-6.9500000000000028
20
-5.9499999999999984
42
0.41421356237309598
10
-5.9499999999999975
20
-6.9500000000000011
10
5.9499999999999975
20
-6.9500000000000011
42
0.41421356237309598
10
6.9500000000000028
20
-5.9499999999999993
10
6.9499999999999993
20
5.9499999999999993
42
0.4142135623730957
10
5.9499999999999975
20
6.9500000000000011
10
-5.9499999999999993
20
6.9500000000000011
42
0.41421356237309503
0
LWPOLYLINE
5
116
100
AcDbEntity
8
0
100
AcDbPolyline
90
8
70
1
43
0.0
10
5.9499999999999975
20
45.050000000000011
10
-5.9499999999999993
20
45.050000000000011
42
0.41421356237309503
10
-6.9500000000000028
20
44.050000000000011
10
-6.9499999999999993
20
32.149999999999999
42
0.4142135623730957
10
-5.9499999999999975
20
31.150000000000002
10
5.9499999999999975
20
31.150000000000002
42
0.4142135623730957
10
6.9500000000000028
20
32.150000000000006
10
6.9499999999999993
20
44.050000000000011
42
0.4142135623730957
0
LWPOLYLINE
5
117
100
AcDbEntity
8
0
100
AcDbPolyline
90
8
70
1
43
0.0
10
-19.385891332880909
20
-13.519827819785597
10
-19.385891332880909
20
-1.6198278197854785
42
0.41421356237309648
10
-20.385891332880917
20
-0.61982781978547707
10
-32.285891332880936
20
-0.61982781978551449
42
0.41421356237309465
10
-33.285891332880929
20
-1.6198278197855176
10
-33.285891332880915
20
-13.519827819785588
42
0.41421356237309437
10
-32.285891332880908
20
-14.51982781978559
10
-20.385891332880913
20
-14.519827819785597
42
0.41421356237309503
0
LWPOLYLINE
5
118
100
AcDbEntity
8
0
100
AcDbPolyline
90
8
70
1
43
0.0
10
-63.10000000000003
20
42.649999999999999
10
-51.20000000000001
20
42.649999999999999
42
0.41421356237309503
10
-50.200000000000017
20
43.649999999999991
10
-50.200000000000003
20
55.550000000000004
42
0.41421356237309503
10
-51.200000000000003
20
56.550000000000004
10
-63.100000000000023
20
56.550000000000004
42
0.41421356237309503
10
-64.100000000000023
20
55.550000000000004
10
-64.100000000000023
20
43.649999999999991
42
0.41421356237309503
0
LWPOLYLINE
5
119
100
AcDbEntity
8
0
100
AcDbPolyline
90
8
70
1
43
0.0
10
-63.10000000000003
20
23.599999999999998
10
-51.20000000000001
20
23.599999999999998
42
0.41421356237309503
10
-50.200000000000003
20
24.600000000000001
10
-50.200000000000003
20
36.5
42
0.41421356237309503
10
-51.200000000000003
20
37.5
10
-63.100000000000023
20
37.5
42
0.41421356237309503
10
-64.100000000000023
20
36.5
10
-64.100000000000023
20
24.600000000000001
42
0.41421356237309503
0
LWPOLYLINE
5
120
100
AcDbEntity
8
0
100
AcDbPolyline
90
8
70
1
43
0.0
10
-31.150000000000002
20
31.100000000000009
10
-31.150000000000002
20
43.000000000000014
42
0.41421356237309503
10
-32.149999999999999
20
44.000000000000014
10
-44.050000000000011
20
44.000000000000014
42
0.41421356237309503
10
-45.050000000000011
20
43.000000000000014
10
-45.049999999999997
20
31.100000000000001
42
0.41421356237309503
10
-44.050000000000004
20
30.100000000000009
10
-32.149999999999999
20
30.100000000000009
42
0.41421356237309503
0
LWPOLYLINE
5
121
100
AcDbEntity
8
0
100
AcDbPolyline
90
8
70
1
43
0.0
10
-83.150000000000006
20
33.999999999999979
10
-83.150000000000006
20
22.10000000000003
42
0.41421356237309503
10
-82.15000000000002
20
21.10000000000003
10
-70.250000000000028
20
21.10000000000003
42
0.41421356237309503
10
-69.250000000000028
20
22.10000000000003
10
-69.250000000000028
20
33.999999999999979
42
0.41421356237309503
10
-70.250000000000028
20
34.999999999999986
10
-82.15000000000002
20
34.999999999999979
42
0.41421356237309503
0
LWPOLYLINE
5
122
100
AcDbEntity
8
0
100
AcDbPolyline
90
8
70
1
43
0.0
10
-58.323428421816701
20
-14.30810203194115
10
-61.403375058536867
20
-2.8135846991012237
42
0.41421356237309287
10
-62.628119929928459
20
-2.1064779179146935
10
-74.122637262768109
20
-5.1864245546347014
42
0.41421356237309165
10
-74.829744043954648
20
-6.4111694260262801
10
-71.749797407234752
20
-17.905686758866093
42
0.41421356237309681
10
-70.525052535843173
20
-18.612793540052657
10
-59.030535203003247
20
-15.532846903332754
42
0.41421356237310053
0
LWPOLYLINE
5
123
100
AcDbEntity
8
0
100
AcDbPolyline
90
8
70
1
43
0.0
10
-24.999999999999794
20
24.09999999999971
10
-13.099999999999795
20
24.099999999999714
42
0.41421356237309503
10
-12.099999999999795
20
25.099999999999714
10
-12.099999999999797
20
36.999999999999716
42
0.41421356237309503
10
-13.099999999999799
20
37.999999999999723
10
-24.999999999999794
20
37.999999999999716
42
0.41421356237309503
10
-25.999999999999801
20
36.999999999999716
10
-25.999999999999797
20
25.09999999999971
42
0.41421356237309503
0
LWPOLYLINE
5
124
100
AcDbEntity
8
0
100
AcDbPolyline
90
8
70
1
43
0.0
10
12.099999999999998
20
24.999990000000004
10
12.099999999999993
20
13.099990000000012
42
0.4142135623730957
10
13.100000000000001
20
12.099990000000007
10
24.999999999999996
20
12.099990000000009
42
0.41421356237309503
10
25.999999999999996
20
13.099990000000011
10
25.999999999999996
20
24.999990000000004
42
0.41421356237309503
10
24.999999999999996
20
25.999990000000004
10
13.100000000000005
20
25.999990000000004
42
0.41421356237309503
0
LWPOLYLINE
5
125
100
AcDbEntity
8
0
100
AcDbPolyline
90
8
70
1
43
0.0
10
12.1
20
5.9499900000000014
10
12.099999999999994
20
-5.9500099999999954
42
0.41421356237309537
10
13.100000000000001
20
-6.9500099999999936
10
24.999999999999996
20
-6.9500099999999936
42
0.41421356237309537
10
25.999999999999996
20
-5.9500099999999918
10
25.999999999999996
20
5.9499900000000032
42
0.41421356237309503
10
24.999999999999996
20
6.9499900000000014
10
13.100000000000005
20
6.9499900000000014
42
0.41421356237309503
0
LWPOLYLINE
5
126
100
AcDbEntity
8
0
100
AcDbPolyline
90
8
70
1
43
0.0
10
12.1
20
44.049990000000008
10
12.099999999999998
20
32.149990000000017
42
0.4142135623730957
10
13.100000000000001
20
31.14999000000001
10
24.999999999999996
20
31.149990000000013
42
0.41421356237309503
10
25.999999999999996
20
32.149990000000017
10
25.999999999999996
20
44.049990000000008
42
0.41421356237309503
10
24.999999999999996
20
45.049990000000008
10
13.100000000000005
20
45.049990000000008
42
0.41421356237309503
0
LWPOLYLINE
5
127
100
AcDbEntity
8
0
100
AcDbPolyline
90
8
70
1
43
0.0
10
-25.999999999999801
20
17.949999999999715
10
-25.999999999999801
20
6.0499999999997112
42
0.41421356237309503
10
-24.999999999999794
20
5.0499999999997112
10
-13.099999999999795
20
5.0499999999997147
42
0.41421356237309537
10
-12.099999999999795
20
6.0499999999997156
10
-12.099999999999797
20
17.949999999999715
42
0.41421356237309503
10
-13.099999999999799
20
18.949999999999715
10
-24.999999999999794
20
18.949999999999715
42
0.41421356237309503
0
LWPOLYLINE
5
128
100
AcDbEntity
8
0
100
AcDbPolyline
90
8
70
1
43
0.0
10
-83.150000000000006
20
53.049999999999983
10
-83.150000000000006
20
41.15000000000002
42
0.41421356237309503
10
-82.15000000000002
20
40.150000000000034
10
-70.250000000000028
20
40.150000000000034
42
0.41421356237309503
10
-69.250000000000028
20
41.150000000000027
10
-69.250000000000028
20
53.049999999999983
42
0.41421356237309503
10
-70.250000000000028
20
54.049999999999976
10
-82.15000000000002
20
54.049999999999976
42
0.41421356237309503
0
LWPOLYLINE
5
129
100
AcDbEntity
8
0
100
AcDbPolyline
90
8
70
1
43
0.0
10
-64.100000000000023
20
17.449999999999996
10
-64.100000000000023
20
5.5499999999999972
42
0.41421356237309537
10
-63.10000000000003
20
4.5499999999999954
10
-51.20000000000001
20
4.5499999999999954
42
0.41421356237309503
10
-50.200000000000017
20
5.5499999999999954
10
-50.200000000000003
20
17.449999999999996
42
0.41421356237309503
10
-51.200000000000003
20
18.449999999999996
10
-63.100000000000023
20
18.449999999999996
42
0.41421356237309503
0
LWPOLYLINE
5
130
100
AcDbEntity
8
0
100
AcDbPolyline
90
28
70
1
43
0.0
10
-109.55551913041596
20
-15.445973687465495
42
-0.41421356237311535
10
-109.55551913041592
20
-14.031760125092305
10
-108.31808226333892
20
-12.794323258015574
42
0.4142135623730992
10
-108.31808226333879
20
-11.38010969564248
10
-113.39157341835181
20
-6.3066185406284969
42
0.41421356237309687
10
-114.80578698072492
20
-6.306618540628353
10
-125.87200810629595
20
-17.372839666197098
42
0.41421356237311713
10
-125.87200810629604
20
-18.787053228570244
10
-125.45658287234765
20
-19.202478462518645
42
-0.37796447300925495
10
-125.37374054586586
20
-20.522757656077069
42
0.37796447300926683
10
-125.29089821938402
20
-21.843036849635517
10
-123.86559261467796
20
-23.268342454341489
42
0.3779644730092252
10
-122.54531342111962
20
-23.351184780823377
42
-0.37796447300923069
10
-121.22503422756128
20
-23.43402710730528
10
-108.64511914963792
20
-36.013942185229311
42
-0.37796447300914982
10
-108.56227682315593
20
-37.334221378787483
42
0.37796447300917491
10
-108.47943449667392
20
-38.65450057234569
10
-107.05412889196788
20
-40.079806177051715
42
0.37796447300923075
10
-105.73384969840953
20
-40.162648503533589
42
-0.37796447300922914
10
-104.41357050485118
20
-40.245490830015441
10
-103.98705322857113
20
-40.672008106295472
42
0.41421356237309137
10
-102.57283966619804
20
-40.672008106295443
10
-91.506618540628679
20
-29.605786980725878
42
0.4142135623730932
10
-91.506618540628679
20
-28.191573418352792
10
-96.580109695642165
20
-23.118082263339321
42
0.41421356237309875
10
-97.994323258015271
20
-23.118082263339321
10
-99.231760125091881
20
-24.355519130415981
42
-0.41421356237309687
10
-100.64597368746497
20
-24.355519130415995
0
ENDSEC
0
SECTION
2
OBJECTS
0
DICTIONARY
5
C
100
AcDbDictionary
3
ACAD_GROUP
350
D
3
ACAD_MLINESTYLE
350
17
0
DICTIONARY
5
D
100
AcDbDictionary
0
DICTIONARY
5
1A
330
C
100
AcDbDictionary
0
DICTIONARY
5
17
100
AcDbDictionary
0
ENDSEC
0
EOF
