0
SECTION
2
HEADER
9
$INSUNITS
70
4
9
$ACADVER
1
AC1014
9
$HANDSEED
5
FFFF
0
ENDSEC
0
SECTION
2
TABLES
0
TABLE
2
VPORT
5
8
100
AcDbSymbolTable
0
ENDTAB
0
TABLE
2
LTYPE
5
5
100
AcDbSymbolTable
0
LTYPE
5
14
100
AcDbSymbolTableRecord
100
AcDbLinetypeTableRecord
2
BYBLOCK
70
0
0
LTYPE
5
15
100
AcDbSymbolTableRecord
100
AcDbLinetypeTableRecord
2
BYLAYER
70
0
0
ENDTAB
0
TABLE
2
LAYER
5
2
100
AcDbSymbolTable
70
2
0
LAYER
5
50
100
AcDbSymbolTableRecord
100
AcDbLayerTableRecord
2
0
70
0
6
CONTINUOUS
0
ENDTAB
0
TABLE
2
STYLE
5
3
100
AcDbSymbolTable
70
1
0
STYLE
5
11
100
AcDbSymbolTableRecord
100
AcDbTextStyleTableRecord
2
STANDARD
70
0
0
ENDTAB
0
TABLE
2
VIEW
5
6
100
AcDbSymbolTable
70
0
0
ENDTAB
0
TABLE
2
UCS
5
7
100
AcDbSymbolTable
70
0
0
ENDTAB
0
TABLE
2
APPID
5
9
100
AcDbSymbolTable
70
2
0
APPID
5
12
100
AcDbSymbolTableRecord
100
AcDbRegAppTableRecord
2
ACAD
70
0
0
ENDTAB
0
TABLE
2
DIMSTYLE
5
A
100
AcDbSymbolTable
70
1
0
ENDTAB
0
TABLE
2
BLOCK_RECORD
5
1
100
AcDbSymbolTable
70
1
0
BLOCK_RECORD
5
1F
100
AcDbSymbolTableRecord
100
AcDbBlockTableRecord
2
*MODEL_SPACE
0
BLOCK_RECORD
5
1B
100
AcDbSymbolTableRecord
100
AcDbBlockTableRecord
2
*PAPER_SPACE
0
ENDTAB
0
ENDSEC
0
SECTION
2
BLOCKS
0
BLOCK
5
20
100
AcDbEntity
100
AcDbBlockBegin
2
*MODEL_SPACE
0
ENDBLK
5
21
100
AcDbEntity
100
AcDbBlockEnd
0
BLOCK
5
1C
100
AcDbEntity
100
AcDbBlockBegin
2
*PAPER_SPACE
0
ENDBLK
5
1D
100
AcDbEntity
100
AcDbBlockEnd
0
ENDSEC
0
SECTION
2
ENTITIES
0
CIRCLE
5
100
100
AcDbEntity
8
0
100
AcDbCircle
10
-7.0000000000000355
20
49.850000000000037
30
0
40
1.2
210
0
220
-0
230
1
0
CIRCLE
5
101
100
AcDbEntity
8
0
100
AcDbCircle
10
-57.376142737482439
20
1.6306156756178232
30
0
40
1.2
210
0
220
-0
230
1
0
CIRCLE
5
102
100
AcDbEntity
8
0
100
AcDbCircle
10
-101.30725435658294
20
-16.566246567140126
30
0
40
1.2
210
0
220
-0
230
1
0
CIRCLE
5
103
100
AcDbEntity
8
0
100
AcDbCircle
10
-66.675000000000068
20
60.125
30
0
40
1.2
210
0
220
-0
230
1
0
CIRCLE
5
104
100
AcDbEntity
8
0
100
AcDbCircle
10
-13.16365655498219
20
0.24999999999991415
30
0
40
1.2
210
0
220
-0
230
1
0
LINE
5
105
100
AcDbEntity
8
0
100
AcDbLine
10
-14.810891332880905
20
-10.525000000000002
30
0
11
8.5250000000047024
21
-10.525000000000054
31
0
0
ARC
5
106
100
AcDbEntity
8
0
100
AcDbCircle
10
-45.387035344642726
20
-89.447432736639314
30
0
40
157.10923061296211
210
0
220
-0
230
1
100
AcDbArc
50
69.79694989022137
51
70.106591980303506
0
ARC
5
107
100
AcDbEntity
8
0
100
AcDbCircle
10
-85.474999999999994
20
61.426218290421858
30
0
40
1.0000000000001086
210
0
220
0
230
1
100
AcDbArc
50
104.88069977551093
51
180
0
LINE
5
108
100
AcDbEntity
8
0
100
AcDbLine
10
-86.47500000000008
20
61.426218290421858
30
0
11
-86.474999999999909
21
14.831258626823534
31
0
0
ARC
5
109
100
AcDbEntity
8
0
100
AcDbCircle
10
-45.387035344642726
20
-89.447432736639314
30
0
40
111.45195525801415
210
0
220
0
230
1
100
AcDbArc
50
111.97950543963698
51
134.99847650087082
0
LINE
5
110
100
AcDbEntity
8
0
100
AcDbLine
10
-124.19262950097706
20
-10.637647575396141
30
0
11
-130.92782159177918
21
-17.372839666198278
31
0
0
ARC
5
111
100
AcDbEntity
8
0
100
AcDbCircle
10
-130.22071481059265
20
-18.079946447384813
30
0
40
0.99999999999997757
210
0
220
0
230
1
100
AcDbArc
50
134.9999999999996
51
225.00000000000173
0
LINE
5
112
100
AcDbEntity
8
0
100
AcDbLine
10
-130.92782159177915
20
-18.787053228571352
30
0
11
-103.9870532285711
21
-45.727821591779033
31
0
0
ARC
5
113
100
AcDbEntity
8
0
100
AcDbCircle
10
-103.27994644738455
20
-45.020714810592473
30
0
40
1.0000000000000042
210
0
220
0
230
1
100
AcDbArc
50
225.00000000000028
51
315.00000000000318
0
LINE
5
114
100
AcDbEntity
8
0
100
AcDbLine
10
-102.57283966619795
20
-45.727821591778991
30
0
11
-95.837647575398648
21
-38.992629500979078
31
0
0
ARC
5
115
100
AcDbEntity
8
0
100
AcDbCircle
10
-45.387035344642726
20
-89.447432736639314
30
0
40
71.35260492602491
210
0
220
-0
230
1
100
AcDbArc
50
89.999081364363064
51
134.99762027744808
0
LINE
5
116
100
AcDbEntity
8
0
100
AcDbLine
10
-45.38589133288081
20
-18.094827819785493
30
0
11
-16.810891332880907
21
-18.09482781978555
31
0
0
ARC
5
117
100
AcDbEntity
8
0
100
AcDbCircle
10
-16.810891332880907
20
-17.09482781978555
30
0
40
0.99999999999999645
210
-0
220
0
230
1
100
AcDbArc
50
270
51
360
0
LINE
5
118
100
AcDbEntity
8
0
100
AcDbLine
10
-15.810891332880912
20
-17.094827819785554
30
0
11
-15.810891332880907
21
-11.525
31
0
0
ARC
5
119
100
AcDbEntity
8
0
100
AcDbCircle
10
-14.810891332880908
20
-11.525
30
0
40
0.99999999999999867
210
0
220
-0
230
1
100
AcDbArc
50
89.999999999999801
51
180
0
ARC
5
120
100
AcDbEntity
8
0
100
AcDbCircle
10
-87.474999999999909
20
14.831258626823534
30
0
40
0.99999999999999878
210
-0
220
0
230
1
100
AcDbArc
50
-68.019362893248626
51
0
0
ARC
5
121
100
AcDbEntity
8
0
100
AcDbCircle
10
-45.387035344642726
20
-89.447432736639314
30
0
40
157.10923061296208
210
0
220
-0
230
1
100
AcDbArc
50
70.106591980303477
51
104.87999679531995
0
LWPOLYLINE
5
122
100
AcDbEntity
8
0
100
AcDbPolyline
90
20
70
1
43
0.0
10
-22.328048074530255
20
-15.444827819785619
42
-0.37796447300921837
10
-23.320204816179473
20
-16.319827819785587
10
-29.351577849582604
20
-16.319827819785587
42
-0.37796447300921965
10
-30.343734591231822
20
-15.444827819785614
42
0.37796447300921665
10
-31.33589133288104
20
-14.569827819785644
10
-32.335891332881033
20
-14.569827819785639
42
-0.41421356237309437
10
-33.335891332881033
20
-13.56982781978564
10
-33.335891332881062
20
-1.5698278197855653
42
-0.41421356237309437
10
-32.335891332881069
20
-0.56982781978556307
10
-31.335891332881033
20
-0.5698278197855593
42
0.37796447300922281
10
-30.343734591231815
20
0.30517218021443276
42
-0.3779644730092247
10
-29.351577849582597
20
1.1801721802144243
10
-23.320204816179473
20
1.1801721802144236
42
-0.37796447300921893
10
-22.328048074530255
20
0.30517218021445291
42
0.37796447300922198
10
-21.335891332881033
20
-0.56982781978551533
10
-20.33589133288103
20
-0.56982781978551311
42
-0.41421356237309659
10
-19.335891332881022
20
-1.5698278197855142
10
-19.335891332881022
20
-13.569827819785651
42
-0.41421356237309503
10
-20.335891332881026
20
-14.569827819785653
10
-21.33589133288104
20
-14.569827819785647
42
0.37796447300921709
0
LWPOLYLINE
5
123
100
AcDbEntity
8
0
100
AcDbPolyline
90
28
70
1
43
0.0
10
-109.55551913041566
20
-15.375263009346657
42
-0.4142135623730086
10
-109.55551913041586
20
-13.961049446973755
10
-108.31808226333935
20
-12.723612579896635
42
0.41421356237308771
10
-108.31808226333969
20
-11.30939901752356
10
-113.39157341835434
20
-6.2359078625111311
42
0.41421356237309115
10
-114.80578698072742
20
-6.2359078625114517
10
-125.94271878441151
20
-17.372839666200434
42
0.41421356237302331
10
-125.94271878441143
20
-18.787053228573377
10
-125.52729355046408
20
-19.202478462520741
42
-0.37796447300939251
10
-125.44445122398264
20
-20.522757656079548
42
0.37796447300950176
10
-125.3616088975009
20
-21.843036849638633
10
-123.93630329279448
20
-23.268342454344083
42
0.37796447300917235
10
-122.61602409923626
20
-23.351184780825669
42
-0.37796447300928543
10
-121.29574490567775
20
-23.434027107307486
10
-108.64511914964157
20
-36.084652863344921
42
-0.37796447300902175
10
-108.56227682315931
20
-37.404932056902695
42
0.37796447300896313
10
-108.47943449667717
20
-38.725211250460333
10
-107.0541288919714
20
-40.150516855166799
42
0.37796447300927133
10
-105.73384969841297
20
-40.233359181648908
42
-0.37796447300919517
10
-104.4135705048547
20
-40.31620150813086
10
-103.98705322857181
20
-40.742718784413739
42
0.41421356237308771
10
-102.57283966619873
20
-40.742718784413739
10
-91.435907862510362
20
-29.605786980725863
42
0.41421356237307572
10
-91.435907862510263
20
-28.19157341835281
10
-96.509399017523322
20
-23.118082263338877
42
0.41421356237306656
10
-97.923612579896343
20
-23.118082263338678
10
-99.161049446973834
20
-24.355519130415686
42
-0.41421356237304169
10
-100.5752630093468
20
-24.355519130415534
0
LWPOLYLINE
5
124
100
AcDbEntity
8
0
100
AcDbPolyline
90
8
70
1
43
0.0
10
-45.100000000000016
20
23.999999999999989
10
-45.100000000000016
20
11.999999999999993
42
0.41421356237309503
10
-44.100000000000009
20
10.999999999999993
10
-32.100000000000001
20
10.999999999999993
42
0.41421356237309503
10
-31.099999999999998
20
11.999999999999993
10
-31.100000000000001
20
23.999999999999989
42
0.41421356237309503
10
-32.100000000000001
20
24.999999999999993
10
-44.100000000000023
20
24.999999999999993
42
0.41421356237309503
0
LWPOLYLINE
5
125
100
AcDbEntity
8
0
100
AcDbPolyline
90
8
70
1
43
0.0
10
-31.099999999999998
20
50.099999999999994
10
-31.099999999999998
20
62.100000000000009
42
0.41421356237309503
10
-32.100000000000001
20
63.099999999999994
10
-44.100000000000023
20
63.099999999999994
42
0.41421356237309503
10
-45.100000000000016
20
62.100000000000001
10
-45.100000000000009
20
50.099999999999994
42
0.41421356237309503
10
-44.100000000000009
20
49.100000000000001
10
-32.100000000000001
20
49.100000000000001
42
0.41421356237309503
0
LWPOLYLINE
5
126
100
AcDbEntity
8
0
100
AcDbPolyline
90
8
70
1
43
0.0
10
-83.200000000000003
20
15.000000000000021
10
-83.200000000000003
20
2.9999999999999938
42
0.41421356237309503
10
-82.200000000000003
20
1.9999999999999951
10
-70.199999999999989
20
1.9999999999999953
42
0.4142135623730952
10
-69.200000000000017
20
2.999999999999996
10
-69.200000000000003
20
15.000000000000021
42
0.41421356237309503
10
-70.200000000000003
20
16.000000000000021
10
-82.200000000000003
20
16.000000000000021
42
0.41421356237309503
0
LWPOLYLINE
5
127
100
AcDbEntity
8
0
100
AcDbPolyline
90
8
70
1
43
0.0
10
-52.385891332881059
20
-1.5698278197855653
10
-52.38589133288103
20
-13.56982781978564
42
0.41421356237309437
10
-51.385891332881037
20
-14.569827819785637
10
-39.38589133288103
20
-14.569827819785653
42
0.41421356237309503
10
-38.38589133288103
20
-13.569827819785651
10
-38.385891332881023
20
-1.5698278197855144
42
0.41421356237309653
10
-39.38589133288103
20
-0.56982781978551544
10
-51.385891332881066
20
-0.56982781978556307
42
0.4142135623730957
0
LWPOLYLINE
5
128
100
AcDbEntity
8
0
100
AcDbPolyline
90
8
70
1
43
0.0
10
-25.049999999999919
20
43.099999999999909
10
-13.049999999999923
20
43.099999999999909
42
0.41421356237309503
10
-12.049999999999921
20
44.099999999999902
10
-12.049999999999921
20
56.099999999999916
42
0.41421356237309503
10
-13.049999999999923
20
57.099999999999909
10
-25.049999999999919
20
57.099999999999909
42
0.41421356237309503
10
-26.049999999999915
20
56.099999999999916
10
-26.049999999999919
20
44.099999999999902
42
0.41421356237309503
0
LWPOLYLINE
5
129
100
AcDbEntity
8
0
100
AcDbPolyline
90
8
70
1
43
0.0
10
6.0000000000000941
20
26.050000000000036
10
-6.0000000000000338
20
26.050000000000036
42
0.41421356237309503
10
-7.0000000000000373
20
25.050000000000033
10
-7.0000000000000355
20
13.050000000000036
42
0.4142135623730947
10
-6.0000000000000364
20
12.050000000000036
10
5.9999999999999742
20
12.050000000000036
42
0.41421356237309309
10
6.9999999999999769
20
13.050000000000029
10
7.0000000000000924
20
25.050000000000026
42
0.41421356237309731
0
LWPOLYLINE
5
130
100
AcDbEntity
8
0
100
AcDbPolyline
90
8
70
1
43
0.0
10
-7.0000000000000373
20
6.0000000000000355
10
-7.0000000000000373
20
-5.9999999999999662
42
0.41421356237309503
10
-6.0000000000000364
20
-6.9999999999999662
10
5.9999999999999742
20
-6.9999999999999662
42
0.41421356237309276
10
6.9999999999999787
20
-5.9999999999999769
10
7.0000000000000924
20
6.0000000000000249
42
0.41421356237309764
10
6.0000000000000941
20
7.0000000000000355
10
-6.0000000000000338
20
7.0000000000000355
42
0.41421356237309503
0
LWPOLYLINE
5
131
100
AcDbEntity
8
0
100
AcDbPolyline
90
8
70
1
43
0.0
10
6.0000000000000941
20
45.100000000000044
10
-6.0000000000000338
20
45.100000000000044
42
0.41421356237309503
10
-7.0000000000000373
20
44.100000000000044
10
-7.0000000000000355
20
32.100000000000037
42
0.4142135623730947
10
-6.0000000000000364
20
31.100000000000037
10
5.9999999999999742
20
31.100000000000037
42
0.41421356237309309
10
6.9999999999999769
20
32.10000000000003
10
7.0000000000000924
20
44.100000000000037
42
0.41421356237309731
0
LWPOLYLINE
5
132
100
AcDbEntity
8
0
100
AcDbPolyline
90
8
70
1
43
0.0
10
-63.15000000000002
20
42.600000000000009
10
-51.150000000000006
20
42.600000000000009
42
0.41421356237309503
10
-50.150000000000006
20
43.600000000000001
10
-50.149999999999999
20
55.600000000000016
42
0.41421356237309503
10
-51.149999999999991
20
56.600000000000009
10
-63.150000000000013
20
56.600000000000009
42
0.41421356237309503
10
-64.150000000000006
20
55.600000000000016
10
-64.15000000000002
20
43.600000000000001
42
0.41421356237309503
0
LWPOLYLINE
5
133
100
AcDbEntity
8
0
100
AcDbPolyline
90
8
70
1
43
0.0
10
-63.15000000000002
20
23.550000000000004
10
-51.150000000000006
20
23.550000000000004
42
0.41421356237309503
10
-50.149999999999999
20
24.550000000000004
10
-50.149999999999999
20
36.550000000000011
42
0.41421356237309503
10
-51.149999999999991
20
37.550000000000011
10
-63.150000000000013
20
37.550000000000011
42
0.41421356237309503
10
-64.150000000000006
20
36.550000000000004
10
-64.15000000000002
20
24.550000000000001
42
0.41421356237309503
0
LWPOLYLINE
5
134
100
AcDbEntity
8
0
100
AcDbPolyline
90
8
70
1
43
0.0
10
-31.099999999999998
20
31.049999999999997
10
-31.099999999999998
20
43.049999999999997
42
0.41421356237309503
10
-32.100000000000001
20
44.049999999999997
10
-44.100000000000023
20
44.049999999999997
42
0.41421356237309503
10
-45.100000000000016
20
43.049999999999997
10
-45.100000000000009
20
31.049999999999997
42
0.41421356237309503
10
-44.100000000000009
20
30.04999999999999
10
-32.100000000000001
20
30.049999999999994
42
0.41421356237309503
0
LWPOLYLINE
5
135
100
AcDbEntity
8
0
100
AcDbPolyline
90
8
70
1
43
0.0
10
-83.200000000000003
20
34.050000000000018
10
-83.200000000000003
20
22.049999999999997
42
0.41421356237309503
10
-82.200000000000003
20
21.049999999999997
10
-70.199999999999989
20
21.049999999999997
42
0.41421356237309503
10
-69.200000000000017
20
22.049999999999997
10
-69.200000000000003
20
34.050000000000018
42
0.41421356237309503
10
-70.200000000000003
20
35.050000000000026
10
-82.200000000000003
20
35.050000000000018
42
0.41421356237309503
0
LWPOLYLINE
5
136
100
AcDbEntity
8
0
100
AcDbPolyline
90
8
70
1
43
0.0
10
-58.262191178247313
20
-14.343457371000476
10
-61.368019719477545
20
-2.7523474555318952
42
0.41421356237309281
10
-62.592764590869123
20
-2.045240674345346
10
-74.183874506337716
20
-5.151069215575478
42
0.41421356237309204
10
-74.890981287524269
20
-6.3758140869670532
10
-71.785152746294301
20
-17.966924002435537
42
0.41421356237309315
10
-70.560407874902737
20
-18.674030783622104
10
-58.969297959433874
20
-15.568202242392077
42
0.41421356237310408
0
LWPOLYLINE
5
137
100
AcDbEntity
8
0
100
AcDbPolyline
90
8
70
1
43
0.0
10
-25.049999999999919
20
24.049999999999912
10
-13.049999999999923
20
24.049999999999919
42
0.41421356237309503
10
-12.049999999999921
20
25.049999999999919
10
-12.049999999999921
20
37.049999999999912
42
0.41421356237309503
10
-13.049999999999923
20
38.049999999999912
10
-25.049999999999919
20
38.049999999999912
42
0.41421356237309503
10
-26.049999999999915
20
37.049999999999912
10
-26.049999999999919
20
25.049999999999915
42
0.41421356237309503
0
LWPOLYLINE
5
138
100
AcDbEntity
8
0
100
AcDbPolyline
90
8
70
1
43
0.0
10
-26.049999999999915
20
17.999999999999908
10
-26.049999999999915
20
5.9999999999999094
42
0.41421356237309503
10
-25.049999999999919
20
4.9999999999999121
10
-13.049999999999923
20
4.9999999999999147
42
0.41421356237309503
10
-12.049999999999921
20
5.9999999999999147
10
-12.049999999999921
20
17.999999999999904
42
0.4142135623730957
10
-13.049999999999923
20
18.999999999999908
10
-25.049999999999919
20
18.999999999999908
42
0.41421356237309503
0
LWPOLYLINE
5
139
100
AcDbEntity
8
0
100
AcDbPolyline
90
8
70
1
43
0.0
10
-83.200000000000003
20
53.10000000000003
10
-83.200000000000003
20
41.100000000000001
42
0.41421356237309503
10
-82.200000000000003
20
40.100000000000009
10
-70.199999999999989
20
40.100000000000009
42
0.41421356237309503
10
-69.200000000000017
20
41.100000000000001
10
-69.200000000000003
20
53.10000000000003
42
0.41421356237309503
10
-70.200000000000003
20
54.10000000000003
10
-82.200000000000003
20
54.10000000000003
42
0.41421356237309503
0
LWPOLYLINE
5
140
100
AcDbEntity
8
0
100
AcDbPolyline
90
8
70
1
43
0.0
10
-64.150000000000006
20
17.500000000000004
10
-64.15000000000002
20
5.5000000000000036
42
0.41421356237309537
10
-63.15000000000002
20
4.5000000000000018
10
-51.150000000000006
20
4.5000000000000027
42
0.41421356237309503
10
-50.150000000000006
20
5.5000000000000027
10
-50.149999999999999
20
17.500000000000004
42
0.41421356237309503
10
-51.149999999999991
20
18.500000000000007
10
-63.150000000000013
20
18.500000000000007
42
0.41421356237309503
0
LWPOLYLINE
5
141
100
AcDbEntity
8
0
100
AcDbPolyline
90
28
70
1
43
0.0
10
-92.671254862875685
20
-21.543733655178869
42
-0.37796447300909997
10
-92.932948720362205
20
-22.840466597982815
42
0.37796447300910169
10
-93.194642577848697
20
-24.137199540786767
10
-92.186799319497936
20
-25.882835270316185
42
0.37796447300923214
10
-90.932948720361964
20
-26.304568213120429
42
-0.37796447300923569
10
-89.679098121225962
20
-26.726301155924684
10
-89.385348121226059
20
-27.235091080647837
42
0.41421356237308565
10
-88.019322717441653
20
-27.601116484432325
10
-74.379422607836332
20
-19.726116484432993
42
0.41421356237309326
10
-74.013397204051813
20
-18.360091080648576
10
-77.600897204051464
20
-12.146358808494991
42
0.41421356237310292
10
-78.966922607835912
20
-11.780333404710479
10
-80.482467064459058
20
-12.655333404710662
42
-0.41421356237309076
10
-81.848492468243506
20
-12.289308000926189
10
-88.198492468243174
20
-1.2907853728641026
42
-0.41421356237298351
10
-87.832467064458996
20
0.075240030920177281
10
-86.316922607836233
20
0.95024003092080978
42
0.41421356237309093
10
-85.950897204052211
20
2.3162654347053548
10
-89.538397204054135
20
8.5299977068577277
42
0.41421356237307699
10
-90.904422607838626
20
8.896023110641778
10
-104.54432271743917
20
1.0210231106399206
42
0.41421356237301132
10
-104.91034812122342
20
-0.3450022931443486
10
-104.6087548628727
20
-0.86737713982812947
42
-0.37796447300940494
10
-104.87044872036
20
-2.1641100826326993
42
0.37796447300950392
10
-105.13214257784711
20
-3.4608430254375988
10
-104.13214257784648
20
-5.1928938330061722
42
0.37796447300917169
10
-102.87829197871054
20
-5.6146267758100388
42
-0.37796447300927666
10
-101.62444137957439
20
-6.0363597186142641
0
LINE
5
142
100
AcDbEntity
8
0
100
AcDbLine
10
9.5250000000047059
20
-9.5249999999999524
30
0
11
9.5249999999981156
21
57.057121211588544
31
0
0
ARC
5
143
100
AcDbEntity
8
0
100
AcDbCircle
10
8.5249999999981156
20
57.057121211588452
30
0
40
1.0000000000000009
210
0
220
-0
230
1
100
AcDbArc
50
0
51
69.796949890219295
0
ARC
5
144
100
AcDbEntity
8
0
100
AcDbCircle
10
8.5250000000047041
20
-9.5250000000000536
30
0
40
0.99999999999999978
210
0
220
0
230
1
100
AcDbArc
50
-90.000000000000099
51
0
0
CIRCLE
5
145
100
AcDbEntity
8
0
100
AcDbCircle
10
-66.675000000000011
20
27.525000000000006
30
0
40
2.2000000000000002
210
0
220
-0
230
1
0
CIRCLE
5
146
100
AcDbEntity
8
0
100
AcDbCircle
10
-47.625
20
8.4750000000000014
30
0
40
2.2000000000000002
210
0
220
-0
230
1
0
CIRCLE
5
147
100
AcDbEntity
8
0
100
AcDbCircle
10
-47.625
20
46.575000000000003
30
0
40
2.2000000000000002
210
0
220
-0
230
1
0
CIRCLE
5
148
100
AcDbEntity
8
0
100
AcDbCircle
10
-28.574999999999999
20
27.525000000000006
30
0
40
2.2000000000000002
210
0
220
-0
230
1
0
ENDSEC
0
SECTION
2
OBJECTS
0
DICTIONARY
5
C
100
AcDbDictionary
3
ACAD_GROUP
350
D
3
ACAD_MLINESTYLE
350
17
0
DICTIONARY
5
D
100
AcDbDictionary
0
DICTIONARY
5
1A
330
C
100
AcDbDictionary
0
DICTIONARY
5
17
100
AcDbDictionary
0
ENDSEC
0
EOF
