0
SECTION
2
HEADER
9
$INSUNITS
70
4
9
$ACADVER
1
AC1014
9
$HANDSEED
5
FFFF
0
ENDSEC
0
SECTION
2
TABLES
0
TABLE
2
VPORT
5
8
100
AcDbSymbolTable
0
ENDTAB
0
TABLE
2
LTYPE
5
5
100
AcDbSymbolTable
0
LTYPE
5
14
100
AcDbSymbolTableRecord
100
AcDbLinetypeTableRecord
2
BYBLOCK
70
0
0
LTYPE
5
15
100
AcDbSymbolTableRecord
100
AcDbLinetypeTableRecord
2
BYLAYER
70
0
0
ENDTAB
0
TABLE
2
LAYER
5
2
100
AcDbSymbolTable
70
2
0
LAYER
5
50
100
AcDbSymbolTableRecord
100
AcDbLayerTableRecord
2
0
70
0
6
CONTINUOUS
0
ENDTAB
0
TABLE
2
STYLE
5
3
100
AcDbSymbolTable
70
1
0
STYLE
5
11
100
AcDbSymbolTableRecord
100
AcDbTextStyleTableRecord
2
STANDARD
70
0
0
ENDTAB
0
TABLE
2
VIEW
5
6
100
AcDbSymbolTable
70
0
0
ENDTAB
0
TABLE
2
UCS
5
7
100
AcDbSymbolTable
70
0
0
ENDTAB
0
TABLE
2
APPID
5
9
100
AcDbSymbolTable
70
2
0
APPID
5
12
100
AcDbSymbolTableRecord
100
AcDbRegAppTableRecord
2
ACAD
70
0
0
ENDTAB
0
TABLE
2
DIMSTYLE
5
A
100
AcDbSymbolTable
70
1
0
ENDTAB
0
TABLE
2
BLOCK_RECORD
5
1
100
AcDbSymbolTable
70
1
0
BLOCK_RECORD
5
1F
100
AcDbSymbolTableRecord
100
AcDbBlockTableRecord
2
*MODEL_SPACE
0
BLOCK_RECORD
5
1B
100
AcDbSymbolTableRecord
100
AcDbBlockTableRecord
2
*PAPER_SPACE
0
ENDTAB
0
ENDSEC
0
SECTION
2
BLOCKS
0
BLOCK
5
20
100
AcDbEntity
100
AcDbBlockBegin
2
*MODEL_SPACE
0
ENDBLK
5
21
100
AcDbEntity
100
AcDbBlockEnd
0
BLOCK
5
1C
100
AcDbEntity
100
AcDbBlockBegin
2
*PAPER_SPACE
0
ENDBLK
5
1D
100
AcDbEntity
100
AcDbBlockEnd
0
ENDSEC
0
SECTION
2
ENTITIES
0
CIRCLE
5
100
100
AcDbEntity
8
0
100
AcDbCircle
10
-7.0000000000000426
20
49.850000000000051
30
0
40
1.2
210
0
220
-0
230
1
0
CIRCLE
5
101
100
AcDbEntity
8
0
100
AcDbCircle
10
-57.376142737482439
20
1.6306156756178232
30
0
40
1.2
210
0
220
-0
230
1
0
CIRCLE
5
102
100
AcDbEntity
8
0
100
AcDbCircle
10
-101.30725435658294
20
-16.566246567140126
30
0
40
1.2
210
0
220
-0
230
1
0
CIRCLE
5
103
100
AcDbEntity
8
0
100
AcDbCircle
10
-66.675000000000068
20
60.125
30
0
40
1.2
210
0
220
-0
230
1
0
CIRCLE
5
104
100
AcDbEntity
8
0
100
AcDbCircle
10
-13.163656554984298
20
0.24999999999972128
30
0
40
1.2
210
0
220
-0
230
1
0
LINE
5
105
100
AcDbEntity
8
0
100
AcDbLine
10
-14.810891332880905
20
-10.525000000000002
30
0
11
8.5250000000047024
21
-10.525000000000054
31
0
0
ARC
5
106
100
AcDbEntity
8
0
100
AcDbCircle
10
-45.387032852809952
20
-89.447426100108089
30
0
40
157.10924110114189
210
0
220
-0
230
1
100
AcDbArc
50
69.796952281247016
51
70.106594509153737
0
ARC
5
107
100
AcDbEntity
8
0
100
AcDbCircle
10
-85.474999999999696
20
61.426236476939764
30
0
40
1.0000000000082589
210
0
220
0
230
1
100
AcDbArc
50
104.88046438412971
51
180
0
LINE
5
108
100
AcDbEntity
8
0
100
AcDbLine
10
-86.474999999999596
20
61.426236476939771
30
0
11
-86.474999999999909
21
14.831258626823534
31
0
0
ARC
5
109
100
AcDbEntity
8
0
100
AcDbCircle
10
-45.387032852809952
20
-89.447426100108089
30
0
40
111.4519500364713
210
0
220
0
230
1
100
AcDbArc
50
111.97950790447321
51
134.9984798191411
0
LINE
5
110
100
AcDbEntity
8
0
100
AcDbLine
10
-124.19262950097706
20
-10.637647575396141
30
0
11
-130.92782159177918
21
-17.372839666198278
31
0
0
ARC
5
111
100
AcDbEntity
8
0
100
AcDbCircle
10
-130.22071481059265
20
-18.079946447384813
30
0
40
0.99999999999997757
210
0
220
0
230
1
100
AcDbArc
50
134.9999999999996
51
225.00000000000173
0
LINE
5
112
100
AcDbEntity
8
0
100
AcDbLine
10
-130.92782159177915
20
-18.787053228571352
30
0
11
-103.9870532285711
21
-45.727821591779033
31
0
0
ARC
5
113
100
AcDbEntity
8
0
100
AcDbCircle
10
-103.27994644738455
20
-45.020714810592473
30
0
40
1.0000000000000042
210
0
220
0
230
1
100
AcDbArc
50
225.00000000000028
51
315.00000000000318
0
LINE
5
114
100
AcDbEntity
8
0
100
AcDbLine
10
-102.57283966619795
20
-45.727821591778991
30
0
11
-95.837647575398648
21
-38.992629500979078
31
0
0
ARC
5
115
100
AcDbEntity
8
0
100
AcDbCircle
10
-45.387032852809952
20
-89.447426100108089
30
0
40
71.35259828945378
210
0
220
-0
230
1
100
AcDbArc
50
89.999083365206872
51
134.99762546058801
0
LINE
5
116
100
AcDbEntity
8
0
100
AcDbLine
10
-45.38589133288081
20
-18.094827819785493
30
0
11
-16.810891332880907
21
-18.09482781978555
31
0
0
ARC
5
117
100
AcDbEntity
8
0
100
AcDbCircle
10
-16.810891332880907
20
-17.09482781978555
30
0
40
0.99999999999999645
210
-0
220
0
230
1
100
AcDbArc
50
270
51
360
0
LINE
5
118
100
AcDbEntity
8
0
100
AcDbLine
10
-15.810891332880912
20
-17.094827819785554
30
0
11
-15.810891332880907
21
-11.525
31
0
0
ARC
5
119
100
AcDbEntity
8
0
100
AcDbCircle
10
-14.810891332880908
20
-11.525
30
0
40
0.99999999999999867
210
0
220
-0
230
1
100
AcDbArc
50
89.999999999999801
51
180
0
ARC
5
120
100
AcDbEntity
8
0
100
AcDbCircle
10
-87.474999999999909
20
14.831258626823534
30
0
40
0.99999999999999878
210
-0
220
0
230
1
100
AcDbArc
50
-68.019362893248626
51
0
0
ARC
5
121
100
AcDbEntity
8
0
100
AcDbCircle
10
-45.387032852809952
20
-89.447426100108089
30
0
40
157.10924110114189
210
0
220
-0
230
1
100
AcDbArc
50
70.106594509153965
51
104.87999509365696
0
LWPOLYLINE
5
122
100
AcDbEntity
8
0
100
AcDbPolyline
90
20
70
1
43
0.0
10
-22.328048074534163
20
-15.444827819785614
42
-0.37796447300919855
10
-23.32020481618337
20
-16.319827819785516
10
-29.35157784958654
20
-16.319827819785516
42
-0.37796447300919733
10
-30.343734591235748
20
-15.444827819785619
42
0.37796447300919733
10
-31.335891332884955
20
-14.569827819785724
10
-32.335891332884884
20
-14.569827819785722
42
-0.41421356237308721
10
-33.335891332884884
20
-13.569827819785747
10
-33.335891332885211
20
-1.5698278197854612
42
-0.41421356237310331
10
-32.335891332885211
20
-0.56982781978543318
10
-31.335891332884959
20
-0.5698278197854334
42
0.37796447300919533
10
-30.343734591235755
20
0.30517218021444942
42
-0.3779644730091935
10
-29.351577849586548
20
1.1801721802143326
10
-23.32020481618337
20
1.1801721802143335
42
-0.37796447300919572
10
-22.328048074534163
20
0.30517218021444215
42
0.37796447300919306
10
-21.335891332884955
20
-0.5698278197854485
10
-20.335891332885055
20
-0.56982781978544916
42
-0.41421356237309515
10
-19.335891332885055
20
-1.5698278197854498
10
-19.335891332885055
20
-13.569827819785713
42
-0.41421356237309503
10
-20.335891332885055
20
-14.569827819785715
10
-21.335891332884955
20
-14.569827819785717
42
0.37796447300919556
0
LWPOLYLINE
5
123
100
AcDbEntity
8
0
100
AcDbPolyline
90
28
70
1
43
0.0
10
-109.55551913042014
20
-15.375263009347751
42
-0.41421356237298557
10
-109.55551913042038
20
-13.961049446974904
10
-108.31808226334363
20
-12.723612579897303
42
0.41421356237307899
10
-108.3180822633441
20
-11.309399017524253
10
-113.39157341835916
20
-6.2359078625121009
42
0.41421356237309293
10
-114.80578698073224
20
-6.2359078625125068
10
-125.94271878441531
20
-17.372839666201742
42
0.41421356237299944
10
-125.94271878441515
20
-18.787053228574603
10
-125.52729355046779
20
-19.202478462522016
42
-0.37796447300940722
10
-125.44445122398639
20
-20.522757656080888
42
0.3779644730095682
10
-125.36160889750462
20
-21.843036849640143
10
-123.93630329279809
20
-23.268342454345373
42
0.37796447300912062
10
-122.61602409924001
20
-23.351184780826891
42
-0.3779644730092786
10
-121.29574490568153
20
-23.434027107308772
10
-108.64511914964665
20
-36.084652863345156
42
-0.37796447300901631
10
-108.56227682316438
20
-37.404932056902908
42
0.37796447300893932
10
-108.47943449668229
20
-38.725211250460475
10
-107.05412889197655
20
-40.150516855167105
42
0.37796447300930575
10
-105.73384969841803
20
-40.233359181649213
42
-0.37796447300922481
10
-104.41357050485971
20
-40.316201508131115
10
-103.98705322857614
20
-40.742718784414656
42
0.41421356237308221
10
-102.57283966620308
20
-40.742718784414684
10
-91.435907862514426
20
-29.605786980726975
42
0.41421356237308676
10
-91.435907862514341
20
-28.191573418353904
10
-96.509399017527556
20
-23.118082263339804
42
0.41421356237305085
10
-97.923612579900535
20
-23.118082263339566
10
-99.161049446978268
20
-24.355519130416681
42
-0.41421356237300583
10
-100.57526300935118
20
-24.3555191304165
0
LWPOLYLINE
5
124
100
AcDbEntity
8
0
100
AcDbPolyline
90
8
70
1
43
0.0
10
-45.10000000000025
20
24.000000000000256
10
-45.10000000000025
20
12.000000000000233
42
0.41421356237309503
10
-44.100000000000243
20
11.000000000000227
10
-32.100000000000229
20
11.000000000000231
42
0.41421356237309503
10
-31.100000000000229
20
12.000000000000233
10
-31.100000000000236
20
24.000000000000252
42
0.41421356237309503
10
-32.100000000000236
20
25.000000000000252
10
-44.100000000000243
20
25.000000000000256
42
0.41421356237309503
0
LWPOLYLINE
5
125
100
AcDbEntity
8
0
100
AcDbPolyline
90
8
70
1
43
0.0
10
-31.100000000000229
20
50.100000000000236
10
-31.100000000000229
20
62.100000000000257
42
0.41421356237309503
10
-32.100000000000236
20
63.100000000000243
10
-44.100000000000243
20
63.100000000000264
42
0.41421356237309503
10
-45.10000000000025
20
62.100000000000264
10
-45.100000000000236
20
50.100000000000236
42
0.41421356237309503
10
-44.100000000000243
20
49.100000000000243
10
-32.100000000000229
20
49.100000000000243
42
0.41421356237309503
0
LWPOLYLINE
5
126
100
AcDbEntity
8
0
100
AcDbPolyline
90
8
70
1
43
0.0
10
-83.200000000000273
20
15.000000000000227
10
-83.200000000000244
20
3.0000000000004623
42
0.41421356237309503
10
-82.200000000000259
20
2.000000000000461
10
-70.200000000000244
20
2.000000000000461
42
0.4142135623730947
10
-69.200000000000244
20
3.0000000000004601
10
-69.200000000000244
20
15.000000000000231
42
0.41421356237309503
10
-70.200000000000244
20
16.000000000000231
10
-82.200000000000273
20
16.000000000000227
42
0.4142135623730957
0
LWPOLYLINE
5
127
100
AcDbEntity
8
0
100
AcDbPolyline
90
8
70
1
43
0.0
10
-52.385891332885208
20
-1.5698278197854609
10
-52.385891332884889
20
-13.569827819785747
42
0.41421356237308721
10
-51.385891332884896
20
-14.569827819785722
10
-39.385891332885052
20
-14.569827819785715
42
0.41421356237309503
10
-38.385891332885059
20
-13.569827819785713
10
-38.385891332885066
20
-1.5698278197854501
42
0.41421356237309503
10
-39.385891332885066
20
-0.56982781978544994
10
-51.385891332885222
20
-0.56982781978543284
42
0.41421356237310331
0
LWPOLYLINE
5
128
100
AcDbEntity
8
0
100
AcDbPolyline
90
8
70
1
43
0.0
10
-25.049999999999962
20
43.099999999999881
10
-13.049999999999962
20
43.099999999999874
42
0.41421356237309503
10
-12.049999999999965
20
44.099999999999866
10
-12.049999999999967
20
56.100000000000094
42
0.41421356237309503
10
-13.049999999999969
20
57.100000000000087
10
-25.049999999999955
20
57.100000000000094
42
0.41421356237309503
10
-26.049999999999955
20
56.100000000000101
10
-26.049999999999965
20
44.099999999999881
42
0.41421356237309503
0
LWPOLYLINE
5
129
100
AcDbEntity
8
0
100
AcDbPolyline
90
8
70
1
43
0.0
10
6.0000000000001164
20
26.050000000000043
10
-6.0000000000000426
20
26.050000000000043
42
0.41421356237309503
10
-7.0000000000000462
20
25.050000000000043
10
-7.0000000000000417
20
13.050000000000047
42
0.41421356237309537
10
-6.0000000000000409
20
12.050000000000045
10
5.9999999999999698
20
12.050000000000045
42
0.41421356237309148
10
6.999999999999968
20
13.050000000000034
10
7.0000000000001155
20
25.050000000000029
42
0.41421356237309859
0
LWPOLYLINE
5
130
100
AcDbEntity
8
0
100
AcDbPolyline
90
8
70
1
43
0.0
10
-7.0000000000000462
20
6.0000000000000453
10
-7.0000000000000453
20
-5.9999999999999565
42
0.41421356237309537
10
-6.0000000000000409
20
-6.9999999999999574
10
5.9999999999999698
20
-6.9999999999999565
42
0.41421356237309115
10
6.999999999999968
20
-5.9999999999999689
10
7.0000000000001155
20
6.0000000000000329
42
0.41421356237309825
10
6.0000000000001164
20
7.0000000000000462
10
-6.0000000000000426
20
7.0000000000000453
42
0.41421356237309503
0
LWPOLYLINE
5
131
100
AcDbEntity
8
0
100
AcDbPolyline
90
8
70
1
43
0.0
10
6.0000000000001164
20
45.100000000000051
10
-6.0000000000000426
20
45.100000000000051
42
0.41421356237309503
10
-7.0000000000000471
20
44.100000000000051
10
-7.0000000000000417
20
32.100000000000051
42
0.41421356237309537
10
-6.0000000000000409
20
31.100000000000058
10
5.9999999999999698
20
31.100000000000051
42
0.41421356237309082
10
6.9999999999999671
20
32.100000000000037
10
7.0000000000001155
20
44.100000000000044
42
0.41421356237309731
0
LWPOLYLINE
5
132
100
AcDbEntity
8
0
100
AcDbPolyline
90
8
70
1
43
0.0
10
-63.150000000000254
20
42.6000000000002
10
-51.150000000000226
20
42.600000000000222
42
0.41421356237309503
10
-50.150000000000233
20
43.600000000000215
10
-50.150000000000261
20
55.600000000000264
42
0.41421356237309503
10
-51.150000000000261
20
56.600000000000257
10
-63.150000000000233
20
56.600000000000222
42
0.41421356237309503
10
-64.150000000000233
20
55.600000000000229
10
-64.150000000000247
20
43.6000000000002
42
0.41421356237309503
0
LWPOLYLINE
5
133
100
AcDbEntity
8
0
100
AcDbPolyline
90
8
70
1
43
0.0
10
-63.150000000000254
20
23.5500000000002
10
-51.150000000000226
20
23.550000000000217
42
0.41421356237309631
10
-50.150000000000233
20
24.550000000000225
10
-50.150000000000261
20
36.550000000000267
42
0.4142135623730937
10
-51.150000000000261
20
37.550000000000267
10
-63.150000000000233
20
37.550000000000232
42
0.41421356237309503
10
-64.150000000000219
20
36.550000000000232
10
-64.150000000000247
20
24.550000000000196
42
0.41421356237309503
0
LWPOLYLINE
5
134
100
AcDbEntity
8
0
100
AcDbPolyline
90
8
70
1
43
0.0
10
-31.100000000000229
20
31.050000000000235
10
-31.100000000000229
20
43.050000000000253
42
0.41421356237309503
10
-32.100000000000236
20
44.050000000000253
10
-44.100000000000243
20
44.05000000000026
42
0.41421356237309503
10
-45.10000000000025
20
43.050000000000267
10
-45.100000000000236
20
31.050000000000235
42
0.41421356237309503
10
-44.100000000000243
20
30.050000000000232
10
-32.100000000000229
20
30.050000000000235
42
0.41421356237309503
0
LWPOLYLINE
5
135
100
AcDbEntity
8
0
100
AcDbPolyline
90
8
70
1
43
0.0
10
-83.200000000000273
20
34.050000000000232
10
-83.200000000000244
20
22.050000000000463
42
0.41421356237309503
10
-82.200000000000259
20
21.050000000000463
10
-70.200000000000244
20
21.050000000000463
42
0.41421356237309503
10
-69.200000000000244
20
22.050000000000463
10
-69.200000000000244
20
34.050000000000232
42
0.41421356237309503
10
-70.200000000000244
20
35.050000000000232
10
-82.200000000000273
20
35.050000000000232
42
0.41421356237309503
0
LWPOLYLINE
5
136
100
AcDbEntity
8
0
100
AcDbPolyline
90
8
70
1
43
0.0
10
-58.262191178252365
20
-14.34345737099977
10
-61.368019719481943
20
-2.7523474555321847
42
0.41421356237310192
10
-62.592764590873529
20
-2.0452406743456075
10
-74.183874506341056
20
-5.151069215575415
42
0.4142135623730564
10
-74.890981287527651
20
-6.3758140869668729
10
-71.785152746299346
20
-17.96692400243472
42
0.41421356237313062
10
-70.560407874907739
20
-18.674030783621397
10
-58.969297959438933
20
-15.56820224239133
42
0.41421356237308937
0
LWPOLYLINE
5
137
100
AcDbEntity
8
0
100
AcDbPolyline
90
8
70
1
43
0.0
10
-25.049999999999962
20
24.049999999999873
10
-13.049999999999962
20
24.049999999999876
42
0.41421356237309503
10
-12.049999999999965
20
25.04999999999988
10
-12.049999999999967
20
37.05000000000009
42
0.41421356237309503
10
-13.049999999999969
20
38.050000000000097
10
-25.049999999999955
20
38.05000000000009
42
0.41421356237309503
10
-26.049999999999951
20
37.05000000000009
10
-26.049999999999965
20
25.049999999999876
42
0.41421356237309503
0
LWPOLYLINE
5
138
100
AcDbEntity
8
0
100
AcDbPolyline
90
8
70
1
43
0.0
10
-26.049999999999955
20
18.000000000000085
10
-26.049999999999962
20
5.9999999999998774
42
0.41421356237309537
10
-25.049999999999962
20
4.9999999999998757
10
-13.049999999999962
20
4.9999999999998774
42
0.4142135623730947
10
-12.049999999999965
20
5.9999999999998765
10
-12.049999999999967
20
18.000000000000085
42
0.41421356237309503
10
-13.049999999999969
20
19.000000000000089
10
-25.049999999999955
20
19.000000000000089
42
0.41421356237309503
0
LWPOLYLINE
5
139
100
AcDbEntity
8
0
100
AcDbPolyline
90
8
70
1
43
0.0
10
-83.200000000000273
20
53.100000000000236
10
-83.200000000000273
20
41.100000000000477
42
0.41421356237309503
10
-82.200000000000259
20
40.10000000000047
10
-70.200000000000244
20
40.10000000000047
42
0.41421356237309503
10
-69.200000000000244
20
41.100000000000463
10
-69.200000000000244
20
53.100000000000236
42
0.41421356237309503
10
-70.200000000000244
20
54.100000000000236
10
-82.200000000000273
20
54.100000000000236
42
0.41421356237309503
0
LWPOLYLINE
5
140
100
AcDbEntity
8
0
100
AcDbPolyline
90
8
70
1
43
0.0
10
-64.150000000000233
20
17.50000000000022
10
-64.150000000000233
20
5.500000000000199
42
0.41421356237309537
10
-63.150000000000254
20
4.5000000000001963
10
-51.150000000000226
20
4.5000000000002149
42
0.41421356237309537
10
-50.150000000000226
20
5.5000000000002158
10
-50.150000000000261
20
17.500000000000256
42
0.41421356237309437
10
-51.150000000000261
20
18.500000000000259
10
-63.150000000000233
20
18.50000000000022
42
0.41421356237309437
0
LWPOLYLINE
5
141
100
AcDbEntity
8
0
100
AcDbPolyline
90
28
70
1
43
0.0
10
-92.671254862882876
20
-21.543733655182301
42
-0.3779644730083076
10
-92.932948720368188
20
-22.840466597984378
42
0.37796447300851371
10
-93.194642577853131
20
-24.137199540787062
10
-92.186799319502597
20
-25.882835270316381
42
0.37796447300938651
10
-90.932948720366142
20
-26.304568213120525
42
-0.37796447300936437
10
-89.679098121229714
20
-26.726301155924613
10
-89.385348121229498
20
-27.235091080648406
42
0.41421356237310486
10
-88.019322717445036
20
-27.601116484432868
10
-74.379422607839928
20
-19.726116484432765
42
0.41421356237307133
10
-74.013397204055465
20
-18.360091080648402
10
-77.600897204054959
20
-12.146358808494679
42
0.41421356237313589
10
-78.966922607839493
20
-11.780333404710204
10
-80.482467064462668
20
-12.655333404710557
42
-0.41421356237311219
10
-81.848492468247144
20
-12.289308000926145
10
-88.198492468239365
20
-1.2907853728772467
42
-0.41421356237323148
10
-87.832467064454534
20
0.075240030907419708
10
-86.31692260782475
20
0.95024003091054254
42
0.41421356237311896
10
-85.950897204039734
20
2.3162654346948819
10
-89.538397204037409
20
8.5299977068497554
42
0.41421356237308299
10
-90.904422607821672
20
8.8960231106347454
10
-104.54432271742697
20
1.0210231106422996
42
0.41421356237297724
10
-104.91034812121219
20
-0.34500229314164188
10
-104.60875486286186
20
-0.86737713982565978
42
-0.37796447300942854
10
-104.87044872035031
20
-2.1641100826301192
42
0.3779644730095712
10
-105.13214257783855
20
-3.4608430254349676
10
-104.13214257783919
20
-5.192893833004236
42
0.37796447300918157
10
-102.87829197870349
20
-5.614626775809004
42
-0.37796447300930391
10
-101.62444137956756
20
-6.0363597186141371
0
LINE
5
142
100
AcDbEntity
8
0
100
AcDbLine
10
9.5250000000047059
20
-9.5249999999999524
30
0
11
9.5250000000829385
21
57.05713994082825
31
0
0
ARC
5
143
100
AcDbEntity
8
0
100
AcDbCircle
10
8.5250000000829473
20
57.057139940828165
30
0
40
0.9999999999999909
210
0
220
-0
230
1
100
AcDbArc
50
0
51
69.796952281247357
0
ARC
5
144
100
AcDbEntity
8
0
100
AcDbCircle
10
8.5250000000047041
20
-9.5250000000000536
30
0
40
0.99999999999999978
210
0
220
0
230
1
100
AcDbArc
50
-90.000000000000099
51
0
0
CIRCLE
5
145
100
AcDbEntity
8
0
100
AcDbCircle
10
-66.675000000000011
20
29.300000000000232
30
0
40
2.2000000000000002
210
0
220
-0
230
1
0
CIRCLE
5
146
100
AcDbEntity
8
0
100
AcDbCircle
10
-47.625000000000014
20
10.250000000000226
30
0
40
2.2000000000000002
210
0
220
-0
230
1
0
CIRCLE
5
147
100
AcDbEntity
8
0
100
AcDbCircle
10
-47.625000000000014
20
48.350000000000236
30
0
40
2.2000000000000002
210
0
220
-0
230
1
0
CIRCLE
5
148
100
AcDbEntity
8
0
100
AcDbCircle
10
-28.574999999999989
20
29.300000000000232
30
0
40
2.2000000000000002
210
0
220
-0
230
1
0
ENDSEC
0
SECTION
2
OBJECTS
0
DICTIONARY
5
C
100
AcDbDictionary
3
ACAD_GROUP
350
D
3
ACAD_MLINESTYLE
350
17
0
DICTIONARY
5
D
100
AcDbDictionary
0
DICTIONARY
5
1A
330
C
100
AcDbDictionary
0
DICTIONARY
5
17
100
AcDbDictionary
0
ENDSEC
0
EOF
