0
SECTION
2
HEADER
9
$INSUNITS
70
4
9
$ACADVER
1
AC1014
9
$HANDSEED
5
FFFF
0
ENDSEC
0
SECTION
2
TABLES
0
TABLE
2
VPORT
5
8
100
AcDbSymbolTable
0
ENDTAB
0
TABLE
2
LTYPE
5
5
100
AcDbSymbolTable
0
LTYPE
5
14
100
AcDbSymbolTableRecord
100
AcDbLinetypeTableRecord
2
BYBLOCK
70
0
0
LTYPE
5
15
100
AcDbSymbolTableRecord
100
AcDbLinetypeTableRecord
2
BYLAYER
70
0
0
ENDTAB
0
TABLE
2
LAYER
5
2
100
AcDbSymbolTable
70
2
0
LAYER
5
50
100
AcDbSymbolTableRecord
100
AcDbLayerTableRecord
2
0
70
0
6
CONTINUOUS
0
ENDTAB
0
TABLE
2
STYLE
5
3
100
AcDbSymbolTable
70
1
0
STYLE
5
11
100
AcDbSymbolTableRecord
100
AcDbTextStyleTableRecord
2
STANDARD
70
0
0
ENDTAB
0
TABLE
2
VIEW
5
6
100
AcDbSymbolTable
70
0
0
ENDTAB
0
TABLE
2
UCS
5
7
100
AcDbSymbolTable
70
0
0
ENDTAB
0
TABLE
2
APPID
5
9
100
AcDbSymbolTable
70
2
0
APPID
5
12
100
AcDbSymbolTableRecord
100
AcDbRegAppTableRecord
2
ACAD
70
0
0
ENDTAB
0
TABLE
2
DIMSTYLE
5
A
100
AcDbSymbolTable
70
1
0
ENDTAB
0
TABLE
2
BLOCK_RECORD
5
1
100
AcDbSymbolTable
70
1
0
BLOCK_RECORD
5
1F
100
AcDbSymbolTableRecord
100
AcDbBlockTableRecord
2
*MODEL_SPACE
0
BLOCK_RECORD
5
1B
100
AcDbSymbolTableRecord
100
AcDbBlockTableRecord
2
*PAPER_SPACE
0
ENDTAB
0
ENDSEC
0
SECTION
2
BLOCKS
0
BLOCK
5
20
100
AcDbEntity
100
AcDbBlockBegin
2
*MODEL_SPACE
0
ENDBLK
5
21
100
AcDbEntity
100
AcDbBlockEnd
0
BLOCK
5
1C
100
AcDbEntity
100
AcDbBlockBegin
2
*PAPER_SPACE
0
ENDBLK
5
1D
100
AcDbEntity
100
AcDbBlockEnd
0
ENDSEC
0
SECTION
2
ENTITIES
0
LWPOLYLINE
5
100
100
AcDbEntity
8
0
100
AcDbPolyline
90
27
70
1
43
0.0
10
8.0727371917630464
20
58.286663071175653
42
0.15290575581396545
10
-85.73180725240934
20
62.392680930729369
42
0.34003488897301765
10
-86.475000000000094
20
61.426218290421858
10
-86.475000000000051
20
55.106497054926749
42
-0.41421356237308982
10
-87.475000000000023
20
54.106497054926741
10
-109.01231358553943
20
54.106497054926741
42
0.10533915846112239
10
-109.41989910452889
20
54.019664095894733
42
0.016410359534264247
10
-118.69160038555391
20
49.510861612994574
42
0.27819946292840009
10
-119.22500000000005
20
48.626393365853744
10
-119.22500000000011
20
-5.5157798266282221
42
-0.21381841459157402
10
-119.55946506994823
20
-6.2621465306557411
42
0.014297939721309157
10
-124.19262950097703
20
-10.637647575396079
10
-130.92782159177921
20
-17.372839666198274
42
0.41421356237308721
10
-130.92782159177921
20
-18.787053228571367
10
-103.9870532285711
20
-45.727821591779033
42
0.41421356237312629
10
-102.57283966619795
20
-45.727821591778977
10
-95.837647575398677
20
-38.992629500979085
42
-0.19891236737966989
10
-45.38589133288081
20
-18.094827819785493
10
-16.810891332880914
20
-18.09482781978555
42
0.41421356237309825
10
-15.810891332880912
20
-17.094827819785554
10
-15.810891332880905
20
-11.525
42
-0.4142135623730937
10
-14.810891332880907
20
-10.525000000000002
10
28.574999999999999
20
-10.525000000000084
42
0.41421356237308915
10
29.57500000000001
20
-9.5250000000000767
10
29.575000000000074
20
48.028747444516391
42
0.27600759101213901
10
29.048786418358663
20
48.909387228865803
42
0.030622052826736586
10
11.592339655843615
20
56.965207319985744
42
0.005982518359947721
0
CIRCLE
5
101
100
AcDbEntity
8
0
100
AcDbCircle
10
-101.30725435658294
20
-16.566246567140123
30
0
40
1.2
210
0
220
0
230
1
0
CIRCLE
5
102
100
AcDbEntity
8
0
100
AcDbCircle
10
9.5250000000000021
20
47.624989999999997
30
0
40
1.2
210
0
220
0
230
1
0
CIRCLE
5
103
100
AcDbEntity
8
0
100
AcDbCircle
10
-57.376142737482432
20
1.6306156756178234
30
0
40
1.2
210
0
220
0
230
1
0
CIRCLE
5
104
100
AcDbEntity
8
0
100
AcDbCircle
10
-66.675000000000068
20
60.125
30
0
40
1.2
210
0
220
0
230
1
0
CIRCLE
5
105
100
AcDbEntity
8
0
100
AcDbCircle
10
9.5250000000000021
20
9.5249900000000007
30
0
40
1.2
210
0
220
0
230
1
0
CIRCLE
5
106
100
AcDbEntity
8
0
100
AcDbCircle
10
-6.9500000000000384
20
49.80000000000004
30
0
40
1.2
210
0
220
0
230
1
0
CIRCLE
5
107
100
AcDbEntity
8
0
100
AcDbCircle
10
-13.161769345940513
20
0.29999999999991173
30
0
40
1.2
210
0
220
0
230
1
0
ENDSEC
0
SECTION
2
OBJECTS
0
DICTIONARY
5
C
100
AcDbDictionary
3
ACAD_GROUP
350
D
3
ACAD_MLINESTYLE
350
17
0
DICTIONARY
5
D
100
AcDbDictionary
0
DICTIONARY
5
1A
330
C
100
AcDbDictionary
0
DICTIONARY
5
17
100
AcDbDictionary
0
ENDSEC
0
EOF
