0
SECTION
2
HEADER
9
$INSUNITS
70
4
9
$ACADVER
1
AC1014
9
$HANDSEED
5
FFFF
0
ENDSEC
0
SECTION
2
TABLES
0
TABLE
2
VPORT
5
8
100
AcDbSymbolTable
0
ENDTAB
0
TABLE
2
LTYPE
5
5
100
AcDbSymbolTable
0
LTYPE
5
14
100
AcDbSymbolTableRecord
100
AcDbLinetypeTableRecord
2
BYBLOCK
70
0
0
LTYPE
5
15
100
AcDbSymbolTableRecord
100
AcDbLinetypeTableRecord
2
BYLAYER
70
0
0
ENDTAB
0
TABLE
2
LAYER
5
2
100
AcDbSymbolTable
70
2
0
LAYER
5
50
100
AcDbSymbolTableRecord
100
AcDbLayerTableRecord
2
0
70
0
6
CONTINUOUS
0
ENDTAB
0
TABLE
2
STYLE
5
3
100
AcDbSymbolTable
70
1
0
STYLE
5
11
100
AcDbSymbolTableRecord
100
AcDbTextStyleTableRecord
2
STANDARD
70
0
0
ENDTAB
0
TABLE
2
VIEW
5
6
100
AcDbSymbolTable
70
0
0
ENDTAB
0
TABLE
2
UCS
5
7
100
AcDbSymbolTable
70
0
0
ENDTAB
0
TABLE
2
APPID
5
9
100
AcDbSymbolTable
70
2
0
APPID
5
12
100
AcDbSymbolTableRecord
100
AcDbRegAppTableRecord
2
ACAD
70
0
0
ENDTAB
0
TABLE
2
DIMSTYLE
5
A
100
AcDbSymbolTable
70
1
0
ENDTAB
0
TABLE
2
BLOCK_RECORD
5
1
100
AcDbSymbolTable
70
1
0
BLOCK_RECORD
5
1F
100
AcDbSymbolTableRecord
100
AcDbBlockTableRecord
2
*MODEL_SPACE
0
BLOCK_RECORD
5
1B
100
AcDbSymbolTableRecord
100
AcDbBlockTableRecord
2
*PAPER_SPACE
0
ENDTAB
0
ENDSEC
0
SECTION
2
BLOCKS
0
BLOCK
5
20
100
AcDbEntity
100
AcDbBlockBegin
2
*MODEL_SPACE
0
ENDBLK
5
21
100
AcDbEntity
100
AcDbBlockEnd
0
BLOCK
5
1C
100
AcDbEntity
100
AcDbBlockBegin
2
*PAPER_SPACE
0
ENDBLK
5
1D
100
AcDbEntity
100
AcDbBlockEnd
0
ENDSEC
0
SECTION
2
ENTITIES
0
CIRCLE
5
100
100
AcDbEntity
8
0
100
AcDbCircle
10
-6.9500000000000401
20
49.800000000000047
30
0
40
1.2
210
0
220
-0
230
1
0
CIRCLE
5
101
100
AcDbEntity
8
0
100
AcDbCircle
10
-57.376142737482439
20
1.6306156756178232
30
0
40
1.2
210
0
220
-0
230
1
0
CIRCLE
5
102
100
AcDbEntity
8
0
100
AcDbCircle
10
-101.30725435658294
20
-16.566246567140126
30
0
40
1.2
210
0
220
-0
230
1
0
CIRCLE
5
103
100
AcDbEntity
8
0
100
AcDbCircle
10
-66.675000000000068
20
60.125
30
0
40
1.2
210
0
220
-0
230
1
0
CIRCLE
5
104
100
AcDbEntity
8
0
100
AcDbCircle
10
-13.161769345940366
20
0.29999999999973925
30
0
40
1.2
210
0
220
-0
230
1
0
ARC
5
105
100
AcDbEntity
8
0
100
AcDbCircle
10
-109.01231358553945
20
53.106497054926564
30
0
40
1.0000000000001918
210
0
220
-0
230
1
100
AcDbArc
50
90
51
114.05325085771638
0
ARC
5
106
100
AcDbEntity
8
0
100
AcDbCircle
10
-45.387035344642726
20
-89.447432736639314
30
0
40
157.10829231726706
210
0
220
0
230
1
100
AcDbArc
50
114.05237181104447
51
117.81295801585691
0
ARC
5
107
100
AcDbEntity
8
0
100
AcDbCircle
10
-118.22500000000004
20
48.626393365853737
30
0
40
1.0000000000000056
210
0
220
0
230
1
100
AcDbArc
50
117.81384551481875
51
180
0
LINE
5
108
100
AcDbEntity
8
0
100
AcDbLine
10
-119.22500000000002
20
48.626393365853744
30
0
11
-119.22500000000007
21
-5.5157798266282221
31
0
0
ARC
5
109
100
AcDbEntity
8
0
100
AcDbCircle
10
-120.22500000000014
20
-5.5157798266281759
30
0
40
1.0000000000000751
210
0
220
0
230
1
100
AcDbArc
50
311.72337686197972
51
360
0
ARC
5
110
100
AcDbEntity
8
0
100
AcDbCircle
10
-45.387035344642726
20
-89.447432736639314
30
0
40
111.45107075540722
210
0
220
0
230
1
100
AcDbArc
50
131.72189539465748
51
134.99847650087082
0
LINE
5
111
100
AcDbEntity
8
0
100
AcDbLine
10
-124.19262950097711
20
-10.637647575396159
30
0
11
-130.92782159177918
21
-17.372839666198274
31
0
0
ARC
5
112
100
AcDbEntity
8
0
100
AcDbCircle
10
-130.22071481059265
20
-18.079946447384813
30
0
40
0.9999999999999809
210
0
220
0
230
1
100
AcDbArc
50
134.99999999999943
51
225.00000000000173
0
LINE
5
113
100
AcDbEntity
8
0
100
AcDbLine
10
-130.92782159177915
20
-18.787053228571352
30
0
11
-103.9870532285711
21
-45.727821591779033
31
0
0
ARC
5
114
100
AcDbEntity
8
0
100
AcDbCircle
10
-103.27994644738455
20
-45.020714810592473
30
0
40
1.0000000000000042
210
0
220
0
230
1
100
AcDbArc
50
225.00000000000028
51
315.00000000000318
0
LINE
5
115
100
AcDbEntity
8
0
100
AcDbLine
10
-102.57283966619795
20
-45.727821591778991
30
0
11
-95.837647575398648
21
-38.992629500979078
31
0
0
ARC
5
116
100
AcDbEntity
8
0
100
AcDbCircle
10
-45.387035344642726
20
-89.447432736639314
30
0
40
71.35260492602491
210
0
220
-0
230
1
100
AcDbArc
50
89.999081364363064
51
134.99762027744808
0
LINE
5
117
100
AcDbEntity
8
0
100
AcDbLine
10
-45.38589133288081
20
-18.094827819785493
30
0
11
-16.810891332880917
21
-18.09482781978555
31
0
0
ARC
5
118
100
AcDbEntity
8
0
100
AcDbCircle
10
-16.810891332880907
20
-17.09482781978555
30
0
40
0.99999999999999645
210
0
220
0
230
1
100
AcDbArc
50
269.99999999999937
51
360
0
LINE
5
119
100
AcDbEntity
8
0
100
AcDbLine
10
-15.810891332880912
20
-17.094827819785554
30
0
11
-15.810891332880903
21
-11.524999999999999
31
0
0
ARC
5
120
100
AcDbEntity
8
0
100
AcDbCircle
10
-14.810891332880908
20
-11.525
30
0
40
0.99999999999999867
210
0
220
-0
230
1
100
AcDbArc
50
89.999999999999801
51
180
0
LINE
5
121
100
AcDbEntity
8
0
100
AcDbLine
10
-14.810891332880905
20
-10.525000000000002
30
0
11
8.5250000000046988
21
-10.525000000000054
31
0
0
ARC
5
122
100
AcDbEntity
8
0
100
AcDbCircle
10
-45.387035344642726
20
-89.447432736639314
30
0
40
157.10923061296211
210
0
220
-0
230
1
100
AcDbArc
50
69.79694989022137
51
70.106591980303506
0
ARC
5
123
100
AcDbEntity
8
0
100
AcDbCircle
10
-85.474999999999994
20
61.426218290421858
30
0
40
1.0000000000001086
210
0
220
0
230
1
100
AcDbArc
50
104.88069977551093
51
180
0
LINE
5
124
100
AcDbEntity
8
0
100
AcDbLine
10
-86.47500000000008
20
61.426218290421858
30
0
11
-86.475000000000023
21
55.106497054926749
31
0
0
ARC
5
125
100
AcDbEntity
8
0
100
AcDbCircle
10
-87.475000000000037
20
55.106497054926763
30
0
40
1.0000000000000142
210
0
220
0
230
1
100
AcDbArc
50
270.0000000000008
51
360
0
LINE
5
126
100
AcDbEntity
8
0
100
AcDbLine
10
-87.475000000000023
20
54.106497054926749
30
0
11
-109.01231358553945
21
54.106497054926749
31
0
0
ARC
5
127
100
AcDbEntity
8
0
100
AcDbCircle
10
-45.387035344642726
20
-89.447432736639314
30
0
40
157.10923061296208
210
0
220
-0
230
1
100
AcDbArc
50
70.106591980303477
51
104.87999679531995
0
LINE
5
128
100
AcDbEntity
8
0
100
AcDbLine
10
9.5250000000047059
20
-9.5249999999999524
30
0
11
9.5249999999981156
21
57.057121211588544
31
0
0
ARC
5
129
100
AcDbEntity
8
0
100
AcDbCircle
10
8.5249999999981156
20
57.057121211588452
30
0
40
1.0000000000000009
210
0
220
-0
230
1
100
AcDbArc
50
0
51
69.796949890219295
0
ARC
5
130
100
AcDbEntity
8
0
100
AcDbCircle
10
8.5250000000047041
20
-9.5250000000000536
30
0
40
0.99999999999999978
210
0
220
0
230
1
100
AcDbArc
50
-90.000000000000313
51
0
0
CIRCLE
5
131
100
AcDbEntity
8
0
100
AcDbCircle
10
-47.625
20
27.525000000000006
30
0
40
21.050000000000001
210
0
220
0
230
1
0
ENDSEC
0
SECTION
2
OBJECTS
0
DICTIONARY
5
C
100
AcDbDictionary
3
ACAD_GROUP
350
D
3
ACAD_MLINESTYLE
350
17
0
DICTIONARY
5
D
100
AcDbDictionary
0
DICTIONARY
5
1A
330
C
100
AcDbDictionary
0
DICTIONARY
5
17
100
AcDbDictionary
0
ENDSEC
0
EOF
