0
SECTION
2
HEADER
9
$INSUNITS
70
4
9
$ACADVER
1
AC1014
9
$HANDSEED
5
FFFF
0
ENDSEC
0
SECTION
2
TABLES
0
TABLE
2
VPORT
5
8
100
AcDbSymbolTable
0
ENDTAB
0
TABLE
2
LTYPE
5
5
100
AcDbSymbolTable
0
LTYPE
5
14
100
AcDbSymbolTableRecord
100
AcDbLinetypeTableRecord
2
BYBLOCK
70
0
0
LTYPE
5
15
100
AcDbSymbolTableRecord
100
AcDbLinetypeTableRecord
2
BYLAYER
70
0
0
ENDTAB
0
TABLE
2
LAYER
5
2
100
AcDbSymbolTable
70
2
0
LAYER
5
50
100
AcDbSymbolTableRecord
100
AcDbLayerTableRecord
2
0
70
0
6
CONTINUOUS
0
ENDTAB
0
TABLE
2
STYLE
5
3
100
AcDbSymbolTable
70
1
0
STYLE
5
11
100
AcDbSymbolTableRecord
100
AcDbTextStyleTableRecord
2
STANDARD
70
0
0
ENDTAB
0
TABLE
2
VIEW
5
6
100
AcDbSymbolTable
70
0
0
ENDTAB
0
TABLE
2
UCS
5
7
100
AcDbSymbolTable
70
0
0
ENDTAB
0
TABLE
2
APPID
5
9
100
AcDbSymbolTable
70
2
0
APPID
5
12
100
AcDbSymbolTableRecord
100
AcDbRegAppTableRecord
2
ACAD
70
0
0
ENDTAB
0
TABLE
2
DIMSTYLE
5
A
100
AcDbSymbolTable
70
1
0
ENDTAB
0
TABLE
2
BLOCK_RECORD
5
1
100
AcDbSymbolTable
70
1
0
BLOCK_RECORD
5
1F
100
AcDbSymbolTableRecord
100
AcDbBlockTableRecord
2
*MODEL_SPACE
0
BLOCK_RECORD
5
1B
100
AcDbSymbolTableRecord
100
AcDbBlockTableRecord
2
*PAPER_SPACE
0
ENDTAB
0
ENDSEC
0
SECTION
2
BLOCKS
0
BLOCK
5
20
100
AcDbEntity
100
AcDbBlockBegin
2
*MODEL_SPACE
0
ENDBLK
5
21
100
AcDbEntity
100
AcDbBlockEnd
0
BLOCK
5
1C
100
AcDbEntity
100
AcDbBlockBegin
2
*PAPER_SPACE
0
ENDBLK
5
1D
100
AcDbEntity
100
AcDbBlockEnd
0
ENDSEC
0
SECTION
2
ENTITIES
0
CIRCLE
5
100
100
AcDbEntity
8
0
100
AcDbCircle
10
9.5250000000000021
20
9.5249900000000007
30
0
40
1.2
210
0
220
-0
230
1
0
CIRCLE
5
101
100
AcDbEntity
8
0
100
AcDbCircle
10
-7.0000000000000355
20
49.850000000000037
30
0
40
1.2
210
0
220
-0
230
1
0
CIRCLE
5
102
100
AcDbEntity
8
0
100
AcDbCircle
10
-57.376142737482439
20
1.6306156756178232
30
0
40
1.2
210
0
220
-0
230
1
0
CIRCLE
5
103
100
AcDbEntity
8
0
100
AcDbCircle
10
-101.30725435658294
20
-16.566246567140126
30
0
40
1.2
210
0
220
-0
230
1
0
CIRCLE
5
104
100
AcDbEntity
8
0
100
AcDbCircle
10
-66.675000000000068
20
60.125
30
0
40
1.2
210
0
220
-0
230
1
0
CIRCLE
5
105
100
AcDbEntity
8
0
100
AcDbCircle
10
-13.16365655498219
20
0.24999999999991415
30
0
40
1.2
210
0
220
-0
230
1
0
CIRCLE
5
106
100
AcDbEntity
8
0
100
AcDbCircle
10
9.5250000000000021
20
47.624989999999997
30
0
40
1.2
210
0
220
-0
230
1
0
LWPOLYLINE
5
107
100
AcDbEntity
8
0
100
AcDbPolyline
90
21
70
1
43
0.0
10
28.574999999999999
20
-10.52500000000008
10
-14.810891332880905
20
-10.525000000000002
42
0.41421356237309631
10
-15.810891332880907
20
-11.525
10
-15.810891332880912
20
-17.094827819785554
42
-0.41421356237309437
10
-16.810891332880907
20
-18.09482781978555
10
-45.38589133288081
20
-18.094827819785493
42
0.19891236737966977
10
-95.837647575398648
20
-38.992629500979078
10
-102.57283966619795
20
-45.727821591778984
42
-0.4142135623731098
10
-103.9870532285711
20
-45.727821591779033
10
-130.92782159177915
20
-18.787053228571359
42
-0.41421356237310236
10
-130.92782159177918
20
-17.372839666198278
10
-124.19262950097706
20
-10.637647575396112
42
-0.10078004911468508
10
-87.100706766266853
20
13.903948228315222
42
0.3058230674695307
10
-86.474999999999909
20
14.831258626823534
10
-86.475000000000094
20
61.426218290421858
42
-0.34003488897302003
10
-85.73180725240934
20
62.392680930729369
42
-0.15290575581396557
10
8.0727371917630144
20
58.286663071175653
42
-0.0059825183599534941
10
11.592339655845032
20
56.965207319985183
42
-0.03062205282673592
10
29.048786418358674
20
48.909387228865754
42
-0.2760075910121414
10
29.575000000000067
20
48.028747444516384
10
29.575000000000003
20
-9.5250000000000785
42
-0.4142135623730947
0
LWPOLYLINE
5
108
100
AcDbEntity
8
0
100
AcDbPolyline
90
24
70
1
43
0.0
10
14.750000000000005
20
31.099990000000002
42
-0.41421356237311024
10
15.050000000000008
20
30.799990000000008
10
15.050000000000008
20
29.649990000000017
42
0.41421356237309725
10
15.35000000000001
20
29.349990000000012
10
22.749999999999993
20
29.349990000000012
42
0.41421356237309936
10
23.049999999999997
20
29.64999000000001
10
23.050000000000001
20
30.799990000000008
42
-0.41421356237311674
10
23.350000000000001
20
31.099990000000002
10
25.75
20
31.099990000000005
42
0.41421356237309936
10
26.050000000000004
20
31.399990000000003
10
26.050000000000004
20
44.799990000000022
42
0.41421356237309503
10
25.750000000000007
20
45.09999000000002
10
23.349999999999991
20
45.09999000000002
42
-0.41421356237307771
10
23.049999999999994
20
45.399990000000024
10
23.049999999999997
20
46.549990000000022
42
0.41421356237309503
10
22.75
20
46.84999000000002
10
15.350000000000001
20
46.84999000000002
42
0.41421356237309503
10
15.050000000000001
20
46.549990000000022
10
15.049999999999997
20
45.399990000000024
42
-0.41421356237311024
10
14.749999999999996
20
45.09999000000002
10
12.349999999999994
20
45.09999000000002
42
0.41421356237309503
10
12.049999999999992
20
44.799990000000022
10
12.050000000000002
20
31.399990000000003
42
0.41421356237309503
10
12.350000000000003
20
31.099990000000002
0
LWPOLYLINE
5
109
100
AcDbEntity
8
0
100
AcDbPolyline
90
24
70
1
43
0.0
10
14.75
20
-7.0000100000000014
42
-0.41421356237309936
10
15.050000000000001
20
-7.3000100000000012
10
15.050000000000001
20
-8.4500099999999954
42
0.41421356237309614
10
15.350000000000001
20
-8.7500099999999961
10
22.750000000000007
20
-8.7500099999999961
42
0.41421356237309076
10
23.050000000000001
20
-8.4500099999999954
10
23.049999999999997
20
-7.3000100000000003
42
-0.41421356237309503
10
23.350000000000001
20
-7.0000099999999987
10
25.75
20
-7.0000099999999996
42
0.41421356237310047
10
26.050000000000004
20
-6.7000099999999989
10
26.050000000000004
20
6.6999900000000139
42
0.41421356237309503
10
25.750000000000007
20
6.9999900000000137
10
23.350000000000001
20
6.9999900000000164
42
-0.41421356237309503
10
23.050000000000001
20
7.2999900000000135
10
23.050000000000001
20
8.4499900000000157
42
0.41421356237309503
10
22.750000000000004
20
8.7499900000000164
10
15.350000000000003
20
8.7499900000000164
42
0.41421356237309725
10
15.050000000000001
20
8.4499900000000157
10
15.049999999999999
20
7.2999900000000135
42
-0.41421356237309614
10
14.749999999999996
20
6.9999900000000137
10
12.349999999999994
20
6.9999900000000137
42
0.41421356237309503
10
12.049999999999994
20
6.6999900000000139
10
12.050000000000002
20
-6.7000100000000007
42
0.41421356237309398
10
12.350000000000003
20
-7.0000099999999987
0
LWPOLYLINE
5
110
100
AcDbEntity
8
0
100
AcDbPolyline
90
24
70
1
43
0.0
10
-22.335891332881033
20
-16.01982781978559
42
-0.41421356237309503
10
-22.635891332881037
20
-16.319827819785587
10
-30.035891332881036
20
-16.319827819785587
42
-0.41421356237309503
10
-30.335891332881033
20
-16.01982781978559
10
-30.335891332881037
20
-14.869827819785639
42
0.41421356237310153
10
-30.635891332881037
20
-14.569827819785644
10
-33.035891332881036
20
-14.569827819785637
42
-0.41421356237309503
10
-33.335891332881033
20
-14.26982781978564
10
-33.335891332881062
20
-0.86982781978556467
42
-0.41421356237309415
10
-33.035891332881064
20
-0.56982781978556574
10
-30.63589133288103
20
-0.56982781978555641
42
0.41421356237308943
10
-30.335891332881033
20
-0.26982781978555637
10
-30.33589133288103
20
0.88017218021442467
42
-0.41421356237309465
10
-30.035891332881029
20
1.1801721802144243
10
-22.635891332881034
20
1.1801721802144227
42
-0.41421356237309503
10
-22.335891332881033
20
0.88017218021442467
10
-22.335891332881033
20
-0.26982781978552078
42
0.41421356237308948
10
-22.035891332881036
20
-0.56982781978552211
10
-19.635891332881027
20
-0.56982781978551056
42
-0.41421356237309737
10
-19.335891332881022
20
-0.86982781978551138
10
-19.33589133288103
20
-14.269827819785652
42
-0.41421356237309503
10
-19.63589133288103
20
-14.569827819785653
10
-22.035891332881043
20
-14.569827819785651
42
0.41421356237311024
10
-22.335891332881033
20
-14.869827819785652
0
LWPOLYLINE
5
111
100
AcDbEntity
8
0
100
AcDbPolyline
90
32
70
1
43
0.0
10
-110.05049387724611
20
-14.880288262516201
42
-0.4142135623729663
10
-110.05049387724617
20
-14.456024193804328
10
-107.8231075165089
20
-12.228637833065928
42
0.41421356237307355
10
-107.823107516509
20
-11.804373764354024
10
-113.88654816518503
20
-5.7409331156806607
42
0.41421356237308665
10
-114.31081223389695
20
-5.7409331156807575
10
-126.43769353124188
20
-17.867814413030995
42
0.41421356237303064
10
-126.43769353124186
20
-18.292078481742891
10
-125.03231880363371
20
-19.697453209351149
42
-0.4142135623729693
10
-125.03231880363364
20
-20.121717278063009
10
-125.84549160199907
20
-20.934890076428971
42
0.4142135623731073
10
-125.84549160199896
20
-21.359154145140906
10
-123.4413285459638
20
-23.763317201174434
42
0.41421356237305212
10
-123.01706447725189
20
-23.763317201174338
10
-122.20389167888753
20
-22.950144402809663
42
-0.414213562373141
10
-121.77962761017555
20
-22.950144402809634
10
-108.15014440281087
20
-36.579627610175656
42
-0.41421356237319928
10
-108.15014440281095
20
-37.003891678887655
10
-108.96331720117452
20
-37.817064477250682
42
0.41421356237311341
10
-108.96331720117465
20
-38.241328545962631
10
-106.55915414514092
20
-40.64549160199752
42
0.41421356237311341
10
-106.13489007642897
20
-40.645491601997612
10
-105.3217172780642
20
-39.832318803633193
42
-0.41421356237302148
10
-104.89745320935231
20
-39.832318803633243
10
-103.49207848174125
20
-41.23769353124429
42
0.41421356237309503
10
-103.06781441302931
20
-41.237693531244304
10
-90.940933115679798
20
-29.110812233895317
42
0.41421356237307355
10
-90.940933115679769
20
-28.686548165183396
10
-97.004373764353801
20
-22.623107516508306
42
0.41421356237307355
10
-97.428637833065721
20
-22.623107516508242
10
-99.656024193804427
20
-24.850493877246073
42
-0.41421356237301843
10
-100.08028826251631
20
-24.850493877246024
0
LWPOLYLINE
5
112
100
AcDbEntity
8
0
100
AcDbPolyline
90
8
70
1
43
0.0
10
-45.100000000000016
20
24.699999999999992
10
-45.100000000000016
20
11.29999999999999
42
0.41421356237309503
10
-44.800000000000004
20
10.999999999999993
10
-31.399999999999999
20
10.999999999999993
42
0.41421356237309503
10
-31.099999999999998
20
11.299999999999992
10
-31.100000000000001
20
24.699999999999992
42
0.41421356237309503
10
-31.400000000000002
20
24.999999999999993
10
-44.800000000000011
20
24.999999999999993
42
0.41421356237309503
0
LWPOLYLINE
5
113
100
AcDbEntity
8
0
100
AcDbPolyline
90
8
70
1
43
0.0
10
-31.099999999999998
20
49.400000000000006
10
-31.099999999999998
20
62.799999999999997
42
0.41421356237309503
10
-31.400000000000002
20
63.099999999999994
10
-44.800000000000011
20
63.099999999999994
42
0.41421356237309503
10
-45.100000000000016
20
62.799999999999997
10
-45.100000000000009
20
49.400000000000006
42
0.41421356237309503
10
-44.800000000000004
20
49.100000000000001
10
-31.399999999999999
20
49.100000000000001
42
0.41421356237309503
0
LWPOLYLINE
5
114
100
AcDbEntity
8
0
100
AcDbPolyline
90
8
70
1
43
0.0
10
-83.200000000000003
20
15.700000000000022
10
-83.200000000000003
20
2.2999999999999954
42
0.41421356237309503
10
-82.900000000000006
20
1.9999999999999951
10
-69.500000000000014
20
1.9999999999999953
42
0.41421356237309503
10
-69.200000000000017
20
2.2999999999999954
10
-69.200000000000003
20
15.700000000000022
42
0.41421356237309503
10
-69.500000000000014
20
16.000000000000021
10
-82.900000000000006
20
16.000000000000021
42
0.41421356237309503
0
LWPOLYLINE
5
115
100
AcDbEntity
8
0
100
AcDbPolyline
90
8
70
1
43
0.0
10
-52.385891332881059
20
-0.86982781978556467
10
-52.38589133288103
20
-14.26982781978564
42
0.41421356237309503
10
-52.085891332881033
20
-14.569827819785637
10
-38.685891332881027
20
-14.569827819785653
42
0.41421356237309503
10
-38.38589133288103
20
-14.269827819785652
10
-38.385891332881023
20
-0.86982781978551094
42
0.41421356237309515
10
-38.685891332881027
20
-0.56982781978551267
10
-52.085891332881062
20
-0.56982781978556563
42
0.41421356237309415
0
LWPOLYLINE
5
116
100
AcDbEntity
8
0
100
AcDbPolyline
90
8
70
1
43
0.0
10
-25.749999999999922
20
43.099999999999909
10
-12.34999999999992
20
43.099999999999909
42
0.41421356237309503
10
-12.049999999999921
20
43.399999999999906
10
-12.049999999999921
20
56.799999999999912
42
0.41421356237309503
10
-12.349999999999921
20
57.099999999999909
10
-25.749999999999922
20
57.099999999999909
42
0.41421356237309503
10
-26.049999999999915
20
56.799999999999912
10
-26.049999999999919
20
43.399999999999906
42
0.41421356237309503
0
LWPOLYLINE
5
117
100
AcDbEntity
8
0
100
AcDbPolyline
90
8
70
1
43
0.0
10
6.700000000000097
20
26.050000000000036
10
-6.7000000000000348
20
26.050000000000036
42
0.41421356237309503
10
-7.0000000000000373
20
25.750000000000036
10
-7.0000000000000355
20
12.350000000000033
42
0.41421356237309503
10
-6.7000000000000348
20
12.050000000000036
10
6.6999999999999682
20
12.050000000000036
42
0.41421356237309287
10
6.9999999999999707
20
12.350000000000033
10
7.0000000000000995
20
25.750000000000032
42
0.41421356237310153
0
LWPOLYLINE
5
118
100
AcDbEntity
8
0
100
AcDbPolyline
90
8
70
1
43
0.0
10
-7.0000000000000373
20
6.7000000000000339
10
-7.0000000000000373
20
-6.6999999999999647
42
0.41421356237309614
10
-6.7000000000000348
20
-6.9999999999999662
10
6.6999999999999682
20
-6.9999999999999662
42
0.41421356237309176
10
6.9999999999999707
20
-6.6999999999999691
10
7.0000000000000995
20
6.7000000000000313
42
0.41421356237310047
10
6.700000000000097
20
7.0000000000000355
10
-6.7000000000000348
20
7.0000000000000355
42
0.41421356237309614
0
LWPOLYLINE
5
119
100
AcDbEntity
8
0
100
AcDbPolyline
90
8
70
1
43
0.0
10
6.700000000000097
20
45.100000000000044
10
-6.7000000000000348
20
45.100000000000044
42
0.41421356237309503
10
-7.0000000000000373
20
44.80000000000004
10
-7.0000000000000355
20
31.400000000000034
42
0.41421356237309503
10
-6.7000000000000348
20
31.100000000000037
10
6.6999999999999682
20
31.100000000000037
42
0.41421356237309076
10
6.9999999999999707
20
31.400000000000034
10
7.0000000000000995
20
44.80000000000004
42
0.41421356237309725
0
LWPOLYLINE
5
120
100
AcDbEntity
8
0
100
AcDbPolyline
90
8
70
1
43
0.0
10
-63.850000000000016
20
42.600000000000009
10
-50.45000000000001
20
42.600000000000009
42
0.41421356237309503
10
-50.150000000000006
20
42.900000000000006
10
-50.149999999999999
20
56.300000000000011
42
0.41421356237309503
10
-50.450000000000003
20
56.600000000000009
10
-63.850000000000009
20
56.600000000000009
42
0.41421356237309503
10
-64.150000000000006
20
56.300000000000011
10
-64.15000000000002
20
42.900000000000006
42
0.41421356237309503
0
LWPOLYLINE
5
121
100
AcDbEntity
8
0
100
AcDbPolyline
90
8
70
1
43
0.0
10
-63.850000000000016
20
23.550000000000004
10
-50.45000000000001
20
23.550000000000004
42
0.41421356237309503
10
-50.150000000000006
20
23.850000000000001
10
-50.149999999999999
20
37.250000000000014
42
0.41421356237309503
10
-50.450000000000003
20
37.550000000000011
10
-63.850000000000009
20
37.550000000000011
42
0.41421356237309503
10
-64.150000000000006
20
37.250000000000007
10
-64.15000000000002
20
23.849999999999998
42
0.41421356237309503
0
LWPOLYLINE
5
122
100
AcDbEntity
8
0
100
AcDbPolyline
90
8
70
1
43
0.0
10
-31.099999999999998
20
30.349999999999994
10
-31.099999999999998
20
43.749999999999993
42
0.41421356237309503
10
-31.400000000000002
20
44.049999999999997
10
-44.800000000000011
20
44.049999999999997
42
0.41421356237309503
10
-45.100000000000016
20
43.749999999999993
10
-45.100000000000009
20
30.349999999999994
42
0.41421356237309503
10
-44.800000000000004
20
30.04999999999999
10
-31.399999999999999
20
30.049999999999994
42
0.41421356237309503
0
LWPOLYLINE
5
123
100
AcDbEntity
8
0
100
AcDbPolyline
90
8
70
1
43
0.0
10
-83.200000000000003
20
34.750000000000021
10
-83.200000000000003
20
21.349999999999994
42
0.41421356237309503
10
-82.900000000000006
20
21.049999999999997
10
-69.500000000000014
20
21.049999999999997
42
0.41421356237309503
10
-69.200000000000017
20
21.349999999999994
10
-69.200000000000003
20
34.750000000000021
42
0.41421356237309503
10
-69.500000000000014
20
35.050000000000026
10
-82.900000000000006
20
35.050000000000018
42
0.41421356237309503
0
LWPOLYLINE
5
124
100
AcDbEntity
8
0
100
AcDbPolyline
90
8
70
1
43
0.0
10
-58.081017846675536
20
-15.019605449402844
10
-61.549193051049315
20
-2.0761993771295542
42
0.41421356237309653
10
-61.916616512466774
20
-1.8640673427735854
10
-74.860022584740051
20
-5.3322425471472386
42
0.41421356237308854
10
-75.072154619096011
20
-5.6996660085647104
10
-71.603979414722545
20
-18.643072080837882
42
0.4142135623730962
10
-71.236555953305071
20
-18.855204115193853
10
-58.293149881031496
20
-15.38702891082032
42
0.41421356237310258
0
LWPOLYLINE
5
125
100
AcDbEntity
8
0
100
AcDbPolyline
90
8
70
1
43
0.0
10
-25.749999999999922
20
24.049999999999912
10
-12.34999999999992
20
24.049999999999919
42
0.41421356237309503
10
-12.049999999999921
20
24.349999999999916
10
-12.049999999999921
20
37.749999999999915
42
0.41421356237309503
10
-12.349999999999921
20
38.049999999999912
10
-25.749999999999922
20
38.049999999999912
42
0.41421356237309503
10
-26.049999999999915
20
37.749999999999915
10
-26.049999999999919
20
24.349999999999913
42
0.41421356237309503
0
LWPOLYLINE
5
126
100
AcDbEntity
8
0
100
AcDbPolyline
90
8
70
1
43
0.0
10
12.04999999999999
20
25.749990000000018
10
12.050000000000001
20
12.349990000000005
42
0.41421356237309503
10
12.350000000000003
20
12.049990000000005
10
25.75
20
12.049990000000005
42
0.41421356237309936
10
26.050000000000004
20
12.349990000000004
10
26.050000000000004
20
25.749990000000018
42
0.41421356237309503
10
25.750000000000007
20
26.049990000000015
10
12.349999999999994
20
26.049990000000015
42
0.41421356237309503
0
LWPOLYLINE
5
127
100
AcDbEntity
8
0
100
AcDbPolyline
90
8
70
1
43
0.0
10
-26.049999999999915
20
18.699999999999907
10
-26.049999999999915
20
5.2999999999999119
42
0.41421356237309503
10
-25.749999999999922
20
4.9999999999999112
10
-12.34999999999992
20
4.999999999999913
42
0.41421356237309503
10
-12.049999999999921
20
5.2999999999999137
10
-12.049999999999921
20
18.699999999999907
42
0.41421356237309503
10
-12.349999999999921
20
18.999999999999908
10
-25.749999999999922
20
18.999999999999908
42
0.41421356237309503
0
LWPOLYLINE
5
128
100
AcDbEntity
8
0
100
AcDbPolyline
90
8
70
1
43
0.0
10
-83.200000000000003
20
53.800000000000026
10
-83.200000000000003
20
40.400000000000006
42
0.41421356237309503
10
-82.900000000000006
20
40.100000000000009
10
-69.500000000000014
20
40.100000000000009
42
0.41421356237309503
10
-69.200000000000017
20
40.400000000000006
10
-69.200000000000003
20
53.800000000000026
42
0.41421356237309503
10
-69.500000000000014
20
54.10000000000003
10
-82.900000000000006
20
54.10000000000003
42
0.41421356237309503
0
LWPOLYLINE
5
129
100
AcDbEntity
8
0
100
AcDbPolyline
90
8
70
1
43
0.0
10
-64.150000000000006
20
18.200000000000006
10
-64.15000000000002
20
4.8000000000000034
42
0.41421356237309503
10
-63.850000000000016
20
4.5000000000000018
10
-50.45000000000001
20
4.5000000000000018
42
0.41421356237309503
10
-50.150000000000006
20
4.8000000000000025
10
-50.149999999999999
20
18.200000000000003
42
0.41421356237309503
10
-50.450000000000003
20
18.500000000000007
10
-63.850000000000009
20
18.500000000000007
42
0.41421356237309287
0
LWPOLYLINE
5
130
100
AcDbEntity
8
0
100
AcDbPolyline
90
32
70
1
43
0.0
10
-92.329098121226565
20
-22.136366515867447
42
-0.4142135623730504
10
-92.438905742361897
20
-22.546174137002765
10
-93.434834956713303
20
-23.121174137002335
42
0.41421356237309503
10
-93.544642577848663
20
-23.53098175813766
10
-91.844642577848731
20
-26.475468131004888
42
0.41421356237311063
10
-91.434834956713388
20
-26.585275752140227
10
-90.438905742361285
20
-26.010275752140259
42
-0.41421356237309925
10
-90.029098121225957
20
-26.120083373275573
10
-89.035348121226093
20
-27.841308863296934
42
0.41421356237308105
10
-88.625540500090779
20
-27.951116484432287
10
-73.773204825187207
20
-19.376116484433016
42
0.41421356237309293
10
-73.663397204051861
20
-18.966308863297698
10
-77.950897204051444
20
-11.540141025845841
42
0.41421356237309692
10
-78.360704825186772
20
-11.430333404710488
10
-81.088684847108169
20
-13.005333404710635
42
-0.41421356237309165
10
-81.498492468243526
20
-12.89552578357528
10
-88.548492468243069
20
-0.68456759021518943
42
-0.41421356237302748
10
-88.438684847107808
20
-0.27475996907990519
10
-85.710704825187236
20
1.3002400309209889
42
0.41421356237309809
10
-85.600897204052032
20
1.7100476520563546
10
-89.8883972040543
20
9.1362154895067
42
0.41421356237307017
10
-90.298204825189643
20
9.2460231106419073
10
-105.15054050008801
20
0.67102311063987174
42
0.41421356237300927
10
-105.2603481212233
20
0.26121548950459372
10
-104.26659812122352
20
-1.4600100005167806
42
-0.4142135623729763
10
-104.37640574235877
20
-1.8698176216520457
10
-105.37233495671211
20
-2.4448176216532684
42
0.41421356237308665
10
-105.4821425778473
20
-2.8546252427886341
10
-103.78214257784626
20
-5.7991116156552014
42
0.41421356237312462
10
-103.37233495671086
20
-5.9089192367903856
10
-102.37640574235917
20
-5.3339192367900701
42
-0.41421356237326068
10
-101.96659812122371
20
-5.4437268579253573
0
CIRCLE
5
131
100
AcDbEntity
8
0
100
AcDbCircle
10
-47.624999999999346
20
10.249999999999686
30
0
40
2.2000000000000002
210
0
220
-0
230
1
0
CIRCLE
5
132
100
AcDbEntity
8
0
100
AcDbCircle
10
-47.625000000000639
20
48.349999999999689
30
0
40
2.2000000000000002
210
0
220
-0
230
1
0
CIRCLE
5
133
100
AcDbEntity
8
0
100
AcDbCircle
10
-28.574999999999999
20
29.299999999999365
30
0
40
2.2000000000000002
210
0
220
-0
230
1
0
CIRCLE
5
134
100
AcDbEntity
8
0
100
AcDbCircle
10
-66.675000000000011
20
29.299999999999994
30
0
40
2.2000000000000002
210
0
220
-0
230
1
0
ENDSEC
0
SECTION
2
OBJECTS
0
DICTIONARY
5
C
100
AcDbDictionary
3
ACAD_GROUP
350
D
3
ACAD_MLINESTYLE
350
17
0
DICTIONARY
5
D
100
AcDbDictionary
0
DICTIONARY
5
1A
330
C
100
AcDbDictionary
0
DICTIONARY
5
17
100
AcDbDictionary
0
ENDSEC
0
EOF
