0
SECTION
2
HEADER
9
$INSUNITS
70
4
9
$ACADVER
1
AC1014
9
$HANDSEED
5
FFFF
0
ENDSEC
0
SECTION
2
TABLES
0
TABLE
2
VPORT
5
8
100
AcDbSymbolTable
0
ENDTAB
0
TABLE
2
LTYPE
5
5
100
AcDbSymbolTable
0
LTYPE
5
14
100
AcDbSymbolTableRecord
100
AcDbLinetypeTableRecord
2
BYBLOCK
70
0
0
LTYPE
5
15
100
AcDbSymbolTableRecord
100
AcDbLinetypeTableRecord
2
BYLAYER
70
0
0
ENDTAB
0
TABLE
2
LAYER
5
2
100
AcDbSymbolTable
70
2
0
LAYER
5
50
100
AcDbSymbolTableRecord
100
AcDbLayerTableRecord
2
0
70
0
6
CONTINUOUS
0
ENDTAB
0
TABLE
2
STYLE
5
3
100
AcDbSymbolTable
70
1
0
STYLE
5
11
100
AcDbSymbolTableRecord
100
AcDbTextStyleTableRecord
2
STANDARD
70
0
0
ENDTAB
0
TABLE
2
VIEW
5
6
100
AcDbSymbolTable
70
0
0
ENDTAB
0
TABLE
2
UCS
5
7
100
AcDbSymbolTable
70
0
0
ENDTAB
0
TABLE
2
APPID
5
9
100
AcDbSymbolTable
70
2
0
APPID
5
12
100
AcDbSymbolTableRecord
100
AcDbRegAppTableRecord
2
ACAD
70
0
0
ENDTAB
0
TABLE
2
DIMSTYLE
5
A
100
AcDbSymbolTable
70
1
0
ENDTAB
0
TABLE
2
BLOCK_RECORD
5
1
100
AcDbSymbolTable
70
1
0
BLOCK_RECORD
5
1F
100
AcDbSymbolTableRecord
100
AcDbBlockTableRecord
2
*MODEL_SPACE
0
BLOCK_RECORD
5
1B
100
AcDbSymbolTableRecord
100
AcDbBlockTableRecord
2
*PAPER_SPACE
0
ENDTAB
0
ENDSEC
0
SECTION
2
BLOCKS
0
BLOCK
5
20
100
AcDbEntity
100
AcDbBlockBegin
2
*MODEL_SPACE
0
ENDBLK
5
21
100
AcDbEntity
100
AcDbBlockEnd
0
BLOCK
5
1C
100
AcDbEntity
100
AcDbBlockBegin
2
*PAPER_SPACE
0
ENDBLK
5
1D
100
AcDbEntity
100
AcDbBlockEnd
0
ENDSEC
0
SECTION
2
ENTITIES
0
CIRCLE
5
100
100
AcDbEntity
8
0
100
AcDbCircle
10
-6.9500000000000401
20
49.800000000000047
30
0
40
1.2
210
0
220
-0
230
1
0
CIRCLE
5
101
100
AcDbEntity
8
0
100
AcDbCircle
10
-57.376142737482439
20
1.6306156756178232
30
0
40
1.2
210
0
220
-0
230
1
0
CIRCLE
5
102
100
AcDbEntity
8
0
100
AcDbCircle
10
-101.30725435658294
20
-16.566246567140126
30
0
40
1.2
210
0
220
-0
230
1
0
CIRCLE
5
103
100
AcDbEntity
8
0
100
AcDbCircle
10
-66.675000000000068
20
60.125
30
0
40
1.2
210
0
220
-0
230
1
0
CIRCLE
5
104
100
AcDbEntity
8
0
100
AcDbCircle
10
-13.161769345940366
20
0.29999999999973925
30
0
40
1.2
210
0
220
-0
230
1
0
LINE
5
105
100
AcDbEntity
8
0
100
AcDbLine
10
-14.810891332880905
20
-10.525000000000002
30
0
11
8.5250000000047024
21
-10.525000000000054
31
0
0
ARC
5
106
100
AcDbEntity
8
0
100
AcDbCircle
10
-45.387035344642726
20
-89.447432736639314
30
0
40
157.10923061296211
210
0
220
-0
230
1
100
AcDbArc
50
69.79694989022137
51
70.106591980303506
0
ARC
5
107
100
AcDbEntity
8
0
100
AcDbCircle
10
-85.474999999999994
20
61.426218290421858
30
0
40
1.0000000000001086
210
0
220
0
230
1
100
AcDbArc
50
104.88069977551093
51
180
0
LINE
5
108
100
AcDbEntity
8
0
100
AcDbLine
10
-86.47500000000008
20
61.426218290421858
30
0
11
-86.474999999999909
21
14.831258626823534
31
0
0
ARC
5
109
100
AcDbEntity
8
0
100
AcDbCircle
10
-45.387035344642726
20
-89.447432736639314
30
0
40
111.45195525801415
210
0
220
0
230
1
100
AcDbArc
50
111.97950543963698
51
134.99847650087082
0
LINE
5
110
100
AcDbEntity
8
0
100
AcDbLine
10
-124.19262950097706
20
-10.637647575396141
30
0
11
-130.92782159177918
21
-17.372839666198278
31
0
0
ARC
5
111
100
AcDbEntity
8
0
100
AcDbCircle
10
-130.22071481059265
20
-18.079946447384813
30
0
40
0.99999999999997757
210
0
220
0
230
1
100
AcDbArc
50
134.9999999999996
51
225.00000000000173
0
LINE
5
112
100
AcDbEntity
8
0
100
AcDbLine
10
-130.92782159177915
20
-18.787053228571352
30
0
11
-103.9870532285711
21
-45.727821591779033
31
0
0
ARC
5
113
100
AcDbEntity
8
0
100
AcDbCircle
10
-103.27994644738455
20
-45.020714810592473
30
0
40
1.0000000000000042
210
0
220
0
230
1
100
AcDbArc
50
225.00000000000028
51
315.00000000000318
0
LINE
5
114
100
AcDbEntity
8
0
100
AcDbLine
10
-102.57283966619795
20
-45.727821591778991
30
0
11
-95.837647575398648
21
-38.992629500979078
31
0
0
ARC
5
115
100
AcDbEntity
8
0
100
AcDbCircle
10
-45.387035344642726
20
-89.447432736639314
30
0
40
71.35260492602491
210
0
220
-0
230
1
100
AcDbArc
50
89.999081364363064
51
134.99762027744808
0
LINE
5
116
100
AcDbEntity
8
0
100
AcDbLine
10
-45.38589133288081
20
-18.094827819785493
30
0
11
-16.810891332880907
21
-18.09482781978555
31
0
0
ARC
5
117
100
AcDbEntity
8
0
100
AcDbCircle
10
-16.810891332880907
20
-17.09482781978555
30
0
40
0.99999999999999645
210
-0
220
0
230
1
100
AcDbArc
50
270
51
360
0
LINE
5
118
100
AcDbEntity
8
0
100
AcDbLine
10
-15.810891332880912
20
-17.094827819785554
30
0
11
-15.810891332880907
21
-11.525
31
0
0
ARC
5
119
100
AcDbEntity
8
0
100
AcDbCircle
10
-14.810891332880908
20
-11.525
30
0
40
0.99999999999999867
210
0
220
-0
230
1
100
AcDbArc
50
89.999999999999801
51
180
0
ARC
5
120
100
AcDbEntity
8
0
100
AcDbCircle
10
-87.474999999999909
20
14.831258626823534
30
0
40
0.99999999999999878
210
-0
220
0
230
1
100
AcDbArc
50
-68.019362893248626
51
0
0
ARC
5
121
100
AcDbEntity
8
0
100
AcDbCircle
10
-45.387035344642726
20
-89.447432736639314
30
0
40
157.10923061296208
210
0
220
-0
230
1
100
AcDbArc
50
70.106591980303477
51
104.87999679531995
0
LWPOLYLINE
5
122
100
AcDbEntity
8
0
100
AcDbPolyline
90
20
70
1
43
0.0
10
-22.328048074530152
20
-15.394827819785563
42
-0.3779644730092292
10
-23.320204816179377
20
-16.269827819785572
10
-29.35157784958249
20
-16.269827819785572
42
-0.37796447300922859
10
-30.343734591231708
20
-15.394827819785565
42
0.37796447300922908
10
-31.335891332880934
20
-14.519827819785567
10
-32.285891332880929
20
-14.519827819785561
42
-0.41421356237309309
10
-33.285891332880929
20
-13.519827819785569
10
-33.285891332881008
20
-1.6198278197856419
42
-0.4142135623730957
10
-32.285891332881008
20
-0.61982781978563528
10
-31.335891332880927
20
-0.61982781978562862
42
0.37796447300924385
10
-30.343734591231701
20
0.25517218021442112
42
-0.37796447300924185
10
-29.351577849582476
20
1.1301721802144722
10
-23.32020481617938
20
1.130172180214474
42
-0.37796447300923364
10
-22.328048074530152
20
0.25517218021444993
42
0.37796447300923447
10
-21.335891332880927
20
-0.61982781978557311
10
-20.385891332880931
20
-0.61982781978556722
42
-0.41421356237309653
10
-19.385891332880924
20
-1.6198278197855687
10
-19.385891332880924
20
-13.519827819785554
42
-0.41421356237309503
10
-20.385891332880924
20
-14.519827819785556
10
-21.335891332880934
20
-14.519827819785558
42
0.37796447300922859
0
LWPOLYLINE
5
123
100
AcDbEntity
8
0
100
AcDbPolyline
90
28
70
1
43
0.0
10
-109.55551913041568
20
-15.445973687465251
42
-0.41421356237300033
10
-109.55551913041589
20
-14.031760125092367
10
-108.31808226333941
20
-12.794323258015165
42
0.4142135623730826
10
-108.31808226333979
20
-11.380109695642098
10
-113.39157341835467
20
-6.3066185406298203
42
0.41421356237309875
10
-114.80578698072776
20
-6.3066185406301933
10
-125.87200810629248
20
-17.372839666200797
42
0.41421356237300905
10
-125.87200810629234
20
-18.787053228573686
10
-125.45658287234514
20
-19.202478462520951
42
-0.37796447300942321
10
-125.37374054586374
20
-20.522757656079857
42
0.37796447300955355
10
-125.29089821938206
20
-21.843036849639077
10
-123.86559261467559
20
-23.26834245434441
42
0.3779644730091809
10
-122.54531342111734
20
-23.351184780825886
42
-0.37796447300929342
10
-121.22503422755882
20
-23.434027107307696
10
-108.64511914964183
20
-36.013942185225972
42
-0.37796447300901448
10
-108.56227682315954
20
-37.33422137878371
42
0.37796447300894731
10
-108.47943449667741
20
-38.654500572341291
10
-107.05412889197171
20
-40.0798061770478
42
0.37796447300927716
10
-105.73384969841327
20
-40.162648503529958
42
-0.37796447300918762
10
-104.41357050485504
20
-40.245490830011903
10
-103.9870532285718
20
-40.672008106295124
42
0.41421356237308588
10
-102.57283966619872
20
-40.672008106295138
10
-91.506618540628907
20
-29.605786980725917
42
0.4142135623730776
10
-91.506618540628821
20
-28.191573418352856
10
-96.580109695641951
20
-23.118082263338891
42
0.4142135623730574
10
-97.994323258014958
20
-23.118082263338664
10
-99.231760125092507
20
-24.355519130415665
42
-0.41421356237302331
10
-100.64597368746544
20
-24.355519130415509
0
LWPOLYLINE
5
124
100
AcDbEntity
8
0
100
AcDbPolyline
90
8
70
1
43
0.0
10
-45.04999999999999
20
23.950000000000053
10
-45.04999999999999
20
12.049999999999992
42
0.41421356237309503
10
-44.050000000000004
20
11.049999999999994
10
-32.149999999999991
20
11.049999999999995
42
0.41421356237309503
10
-31.149999999999988
20
12.049999999999997
10
-31.149999999999991
20
23.950000000000053
42
0.41421356237309503
10
-32.149999999999991
20
24.950000000000053
10
-44.050000000000004
20
24.950000000000053
42
0.41421356237309503
0
LWPOLYLINE
5
125
100
AcDbEntity
8
0
100
AcDbPolyline
90
8
70
1
43
0.0
10
-31.149999999999988
20
50.149999999999999
10
-31.149999999999988
20
62.050000000000061
42
0.41421356237309503
10
-32.149999999999991
20
63.050000000000061
10
-44.050000000000004
20
63.050000000000061
42
0.41421356237309503
10
-45.04999999999999
20
62.050000000000061
10
-45.049999999999997
20
50.149999999999999
42
0.41421356237309503
10
-44.050000000000004
20
49.149999999999999
10
-32.149999999999991
20
49.149999999999999
42
0.41421356237309503
0
LWPOLYLINE
5
126
100
AcDbEntity
8
0
100
AcDbPolyline
90
8
70
1
43
0.0
10
-83.150000000000034
20
14.94999999999996
10
-83.150000000000034
20
3.050000000000046
42
0.41421356237309503
10
-82.150000000000034
20
2.0500000000000456
10
-70.250000000000043
20
2.050000000000046
42
0.41421356237309503
10
-69.250000000000028
20
3.050000000000046
10
-69.250000000000028
20
14.949999999999964
42
0.41421356237309503
10
-70.250000000000028
20
15.949999999999962
10
-82.150000000000034
20
15.949999999999962
42
0.41421356237309503
0
LWPOLYLINE
5
127
100
AcDbEntity
8
0
100
AcDbPolyline
90
8
70
1
43
0.0
10
-52.335891332881019
20
-1.6198278197856419
10
-52.335891332880948
20
-13.519827819785569
42
0.41421356237309309
10
-51.335891332880941
20
-14.519827819785561
10
-39.435891332880921
20
-14.519827819785556
42
0.41421356237309437
10
-38.435891332880928
20
-13.519827819785558
10
-38.435891332880928
20
-1.6198278197855684
42
0.41421356237309648
10
-39.435891332880935
20
-0.61982781978556722
10
-51.335891332881033
20
-0.6198278197856355
42
0.41421356237309437
0
LWPOLYLINE
5
128
100
AcDbEntity
8
0
100
AcDbPolyline
90
8
70
1
43
0.0
10
-24.999999999999858
20
43.149999999999771
10
-13.099999999999859
20
43.149999999999778
42
0.41421356237309503
10
-12.099999999999858
20
44.149999999999778
10
-12.099999999999859
20
56.049999999999898
42
0.41421356237309503
10
-13.099999999999861
20
57.049999999999898
10
-24.999999999999854
20
57.049999999999898
42
0.41421356237309503
10
-25.999999999999854
20
56.049999999999898
10
-25.999999999999858
20
44.149999999999764
42
0.41421356237309503
0
LWPOLYLINE
5
129
100
AcDbEntity
8
0
100
AcDbPolyline
90
8
70
1
43
0.0
10
5.9500000000001041
20
26.000000000000046
10
-5.9500000000000419
20
26.000000000000046
42
0.41421356237309503
10
-6.9500000000000384
20
25.000000000000043
10
-6.9500000000000401
20
13.100000000000044
42
0.4142135623730947
10
-5.9500000000000419
20
12.100000000000044
10
5.9499999999999709
20
12.100000000000042
42
0.41421356237309209
10
6.9499999999999673
20
13.100000000000032
10
6.9500000000001023
20
25.000000000000036
42
0.41421356237309731
0
LWPOLYLINE
5
130
100
AcDbEntity
8
0
100
AcDbPolyline
90
8
70
1
43
0.0
10
-6.9500000000000384
20
5.950000000000041
10
-6.9500000000000384
20
-5.9499999999999611
42
0.41421356237309437
10
-5.9500000000000419
20
-6.9499999999999602
10
5.9499999999999709
20
-6.9499999999999602
42
0.41421356237309176
10
6.9499999999999691
20
-5.9499999999999726
10
6.9500000000001023
20
5.9500000000000313
42
0.41421356237309798
10
5.9500000000001041
20
6.9500000000000401
10
-5.9500000000000419
20
6.9500000000000401
42
0.41421356237309503
0
LWPOLYLINE
5
131
100
AcDbEntity
8
0
100
AcDbPolyline
90
8
70
1
43
0.0
10
5.9500000000001041
20
45.050000000000054
10
-5.9500000000000419
20
45.05000000000004
42
0.4142135623730947
10
-6.9500000000000384
20
44.050000000000047
10
-6.9500000000000401
20
32.150000000000048
42
0.4142135623730947
10
-5.9500000000000419
20
31.150000000000048
10
5.9499999999999709
20
31.150000000000041
42
0.41421356237309276
10
6.9499999999999691
20
32.150000000000034
10
6.9500000000001023
20
44.050000000000047
42
0.41421356237309731
0
LWPOLYLINE
5
132
100
AcDbEntity
8
0
100
AcDbPolyline
90
8
70
1
43
0.0
10
-63.099999999999994
20
42.649999999999999
10
-51.199999999999989
20
42.649999999999999
42
0.41421356237309503
10
-50.199999999999996
20
43.649999999999991
10
-50.199999999999989
20
55.550000000000004
42
0.41421356237309503
10
-51.199999999999982
20
56.550000000000004
10
-63.099999999999994
20
56.550000000000004
42
0.41421356237309503
10
-64.099999999999994
20
55.550000000000004
10
-64.099999999999994
20
43.649999999999991
42
0.41421356237309503
0
LWPOLYLINE
5
133
100
AcDbEntity
8
0
100
AcDbPolyline
90
8
70
1
43
0.0
10
-63.099999999999994
20
23.599999999999994
10
-51.199999999999989
20
23.599999999999994
42
0.41421356237309503
10
-50.199999999999989
20
24.599999999999994
10
-50.199999999999989
20
36.499999999999993
42
0.41421356237309503
10
-51.199999999999982
20
37.5
10
-63.099999999999994
20
37.499999999999993
42
0.41421356237309503
10
-64.099999999999994
20
36.499999999999993
10
-64.099999999999994
20
24.599999999999994
42
0.41421356237309503
0
LWPOLYLINE
5
134
100
AcDbEntity
8
0
100
AcDbPolyline
90
8
70
1
43
0.0
10
-31.149999999999988
20
31.099999999999998
10
-31.149999999999988
20
43.000000000000057
42
0.41421356237309503
10
-32.149999999999991
20
44.000000000000057
10
-44.050000000000004
20
44.000000000000057
42
0.41421356237309503
10
-45.04999999999999
20
43.000000000000057
10
-45.049999999999997
20
31.099999999999994
42
0.41421356237309503
10
-44.050000000000004
20
30.099999999999998
10
-32.149999999999991
20
30.099999999999998
42
0.41421356237309503
0
LWPOLYLINE
5
135
100
AcDbEntity
8
0
100
AcDbPolyline
90
8
70
1
43
0.0
10
-83.150000000000034
20
33.999999999999964
10
-83.150000000000034
20
22.100000000000044
42
0.41421356237309503
10
-82.150000000000034
20
21.100000000000048
10
-70.250000000000043
20
21.100000000000051
42
0.41421356237309503
10
-69.250000000000043
20
22.100000000000051
10
-69.250000000000028
20
33.999999999999964
42
0.41421356237309503
10
-70.250000000000028
20
34.999999999999964
10
-82.150000000000034
20
34.999999999999964
42
0.41421356237309503
0
LWPOLYLINE
5
136
100
AcDbEntity
8
0
100
AcDbPolyline
90
8
70
1
43
0.0
10
-58.323428421817063
20
-14.308102031940919
10
-61.40337505853681
20
-2.8135846991016544
42
0.41421356237309293
10
-62.628119929928388
20
-2.1064779179150972
10
-74.122637262767995
20
-5.1864245546348453
42
0.41421356237309231
10
-74.829744043954562
20
-6.4111694260264152
10
-71.749797407234979
20
-17.905686758865873
42
0.4142135623731022
10
-70.525052535843386
20
-18.612793540052447
10
-59.030535203003616
20
-15.532846903332505
42
0.41421356237309492
0
LWPOLYLINE
5
137
100
AcDbEntity
8
0
100
AcDbPolyline
90
8
70
1
43
0.0
10
-24.999999999999858
20
24.099999999999781
10
-13.099999999999859
20
24.099999999999785
42
0.41421356237309503
10
-12.099999999999859
20
25.099999999999785
10
-12.099999999999859
20
36.999999999999893
42
0.41421356237309503
10
-13.099999999999861
20
37.999999999999893
10
-24.999999999999854
20
37.999999999999893
42
0.41421356237309503
10
-25.999999999999854
20
36.999999999999893
10
-25.999999999999858
20
25.099999999999774
42
0.41421356237309503
0
LWPOLYLINE
5
138
100
AcDbEntity
8
0
100
AcDbPolyline
90
8
70
1
43
0.0
10
-25.999999999999854
20
17.949999999999889
10
-25.999999999999858
20
6.0499999999997813
42
0.41421356237309503
10
-24.999999999999858
20
5.0499999999997813
10
-13.099999999999859
20
5.049999999999784
42
0.4142135623730947
10
-12.099999999999858
20
6.0499999999997822
10
-12.099999999999859
20
17.949999999999889
42
0.41421356237309503
10
-13.099999999999861
20
18.949999999999889
10
-24.999999999999854
20
18.949999999999889
42
0.41421356237309503
0
LWPOLYLINE
5
139
100
AcDbEntity
8
0
100
AcDbPolyline
90
8
70
1
43
0.0
10
-83.150000000000034
20
53.049999999999969
10
-83.150000000000034
20
41.150000000000048
42
0.41421356237309503
10
-82.150000000000034
20
40.150000000000048
10
-70.250000000000043
20
40.150000000000048
42
0.41421356237309503
10
-69.250000000000028
20
41.150000000000048
10
-69.250000000000028
20
53.049999999999969
42
0.41421356237309503
10
-70.250000000000028
20
54.049999999999969
10
-82.150000000000034
20
54.049999999999969
42
0.41421356237309503
0
LWPOLYLINE
5
140
100
AcDbEntity
8
0
100
AcDbPolyline
90
8
70
1
43
0.0
10
-64.099999999999994
20
17.449999999999996
10
-64.099999999999994
20
5.5499999999999918
42
0.41421356237309503
10
-63.099999999999994
20
4.5499999999999918
10
-51.199999999999989
20
4.5499999999999927
42
0.41421356237309503
10
-50.199999999999996
20
5.5499999999999927
10
-50.199999999999989
20
17.449999999999992
42
0.41421356237309503
10
-51.199999999999982
20
18.449999999999992
10
-63.099999999999994
20
18.449999999999996
42
0.41421356237309437
0
LWPOLYLINE
5
141
100
AcDbEntity
8
0
100
AcDbPolyline
90
28
70
1
43
0.0
10
-92.652953592683673
20
-21.475432384987386
42
-0.37796447300961328
10
-92.914647450171643
20
-22.772165327792443
42
0.37796447300963765
10
-93.176341307659584
20
-24.068898270597533
10
-92.168498049308809
20
-25.814534000126919
42
0.37796447300921626
10
-90.914647450172851
20
-26.236266942931174
42
-0.37796447300922087
10
-89.660796851036864
20
-26.657999885735411
10
-89.367046851036847
20
-27.166789810458781
42
0.41421356237307988
10
-88.001021447252455
20
-27.532815214243243
10
-74.447723878025599
20
-19.707815214243794
42
0.41421356237309004
10
-74.08169847424108
20
-18.341789810459389
10
-77.669198474240744
20
-12.128057538305768
42
0.4142135623731007
10
-79.035223878025164
20
-11.762032134521263
10
-80.550768334648353
20
-12.637032134521458
42
-0.41421356237308704
10
-81.916793738432801
20
-12.271006730736982
10
-88.216793738431591
20
-1.3590866430548463
42
-0.41421356237298301
10
-87.850768334647427
20
0.0069387607293980302
10
-86.335223878021438
20
0.88193876073196342
42
0.41421356237308649
10
-85.969198474237473
20
2.2479641645165072
10
-89.556698474239539
20
8.4616964366686851
42
0.41421356237307833
10
-90.922723878024044
20
8.8277218404526998
10
-104.47602144724573
20
1.002721840450548
42
0.41421356237299906
10
-104.84204685102996
20
-0.36330356333371006
10
-104.54045359267923
20
-0.88567841001746794
42
-0.37796447300943031
10
-104.8021474501666
20
-2.1824113528220721
42
0.37796447300953906
10
-105.06384130765376
20
-3.4791442956270546
10
-104.06384130765309
20
-5.2111951031955792
42
0.3779644730091678
10
-102.80999070851713
20
-5.6329280459993916
42
-0.37796447300928149
10
-101.55614010938095
20
-6.0546609888036107
0
LINE
5
142
100
AcDbEntity
8
0
100
AcDbLine
10
9.5250000000047059
20
-9.5249999999999524
30
0
11
9.5249999999981156
21
57.057121211588544
31
0
0
ARC
5
143
100
AcDbEntity
8
0
100
AcDbCircle
10
8.5249999999981156
20
57.057121211588452
30
0
40
1.0000000000000009
210
0
220
-0
230
1
100
AcDbArc
50
0
51
69.796949890219295
0
ARC
5
144
100
AcDbEntity
8
0
100
AcDbCircle
10
8.5250000000047041
20
-9.5250000000000536
30
0
40
0.99999999999999978
210
0
220
0
230
1
100
AcDbArc
50
-90.000000000000099
51
0
0
CIRCLE
5
145
100
AcDbEntity
8
0
100
AcDbCircle
10
-66.675000000000011
20
27.525000000000006
30
0
40
2.2000000000000002
210
0
220
-0
230
1
0
CIRCLE
5
146
100
AcDbEntity
8
0
100
AcDbCircle
10
-47.625
20
8.4750000000000014
30
0
40
2.2000000000000002
210
0
220
-0
230
1
0
CIRCLE
5
147
100
AcDbEntity
8
0
100
AcDbCircle
10
-47.625
20
46.575000000000003
30
0
40
2.2000000000000002
210
0
220
-0
230
1
0
CIRCLE
5
148
100
AcDbEntity
8
0
100
AcDbCircle
10
-28.574999999999999
20
27.525000000000006
30
0
40
2.2000000000000002
210
0
220
-0
230
1
0
ENDSEC
0
SECTION
2
OBJECTS
0
DICTIONARY
5
C
100
AcDbDictionary
3
ACAD_GROUP
350
D
3
ACAD_MLINESTYLE
350
17
0
DICTIONARY
5
D
100
AcDbDictionary
0
DICTIONARY
5
1A
330
C
100
AcDbDictionary
0
DICTIONARY
5
17
100
AcDbDictionary
0
ENDSEC
0
EOF
