0
SECTION
2
HEADER
9
$INSUNITS
70
4
9
$ACADVER
1
AC1014
9
$HANDSEED
5
FFFF
0
ENDSEC
0
SECTION
2
TABLES
0
TABLE
2
VPORT
5
8
100
AcDbSymbolTable
0
ENDTAB
0
TABLE
2
LTYPE
5
5
100
AcDbSymbolTable
0
LTYPE
5
14
100
AcDbSymbolTableRecord
100
AcDbLinetypeTableRecord
2
BYBLOCK
70
0
0
LTYPE
5
15
100
AcDbSymbolTableRecord
100
AcDbLinetypeTableRecord
2
BYLAYER
70
0
0
ENDTAB
0
TABLE
2
LAYER
5
2
100
AcDbSymbolTable
70
2
0
LAYER
5
50
100
AcDbSymbolTableRecord
100
AcDbLayerTableRecord
2
0
70
0
6
CONTINUOUS
0
ENDTAB
0
TABLE
2
STYLE
5
3
100
AcDbSymbolTable
70
1
0
STYLE
5
11
100
AcDbSymbolTableRecord
100
AcDbTextStyleTableRecord
2
STANDARD
70
0
0
ENDTAB
0
TABLE
2
VIEW
5
6
100
AcDbSymbolTable
70
0
0
ENDTAB
0
TABLE
2
UCS
5
7
100
AcDbSymbolTable
70
0
0
ENDTAB
0
TABLE
2
APPID
5
9
100
AcDbSymbolTable
70
2
0
APPID
5
12
100
AcDbSymbolTableRecord
100
AcDbRegAppTableRecord
2
ACAD
70
0
0
ENDTAB
0
TABLE
2
DIMSTYLE
5
A
100
AcDbSymbolTable
70
1
0
ENDTAB
0
TABLE
2
BLOCK_RECORD
5
1
100
AcDbSymbolTable
70
1
0
BLOCK_RECORD
5
1F
100
AcDbSymbolTableRecord
100
AcDbBlockTableRecord
2
*MODEL_SPACE
0
BLOCK_RECORD
5
1B
100
AcDbSymbolTableRecord
100
AcDbBlockTableRecord
2
*PAPER_SPACE
0
ENDTAB
0
ENDSEC
0
SECTION
2
BLOCKS
0
BLOCK
5
20
100
AcDbEntity
100
AcDbBlockBegin
2
*MODEL_SPACE
0
ENDBLK
5
21
100
AcDbEntity
100
AcDbBlockEnd
0
BLOCK
5
1C
100
AcDbEntity
100
AcDbBlockBegin
2
*PAPER_SPACE
0
ENDBLK
5
1D
100
AcDbEntity
100
AcDbBlockEnd
0
ENDSEC
0
SECTION
2
ENTITIES
0
CIRCLE
5
100
100
AcDbEntity
8
0
100
AcDbCircle
10
-7.0000000000000426
20
49.850000000000051
30
0
40
1.2
210
0
220
-0
230
1
0
CIRCLE
5
101
100
AcDbEntity
8
0
100
AcDbCircle
10
-57.376142737482439
20
1.6306156756178232
30
0
40
1.2
210
0
220
-0
230
1
0
CIRCLE
5
102
100
AcDbEntity
8
0
100
AcDbCircle
10
-101.30725435658294
20
-16.566246567140126
30
0
40
1.2
210
0
220
-0
230
1
0
CIRCLE
5
103
100
AcDbEntity
8
0
100
AcDbCircle
10
-66.675000000000068
20
60.125
30
0
40
1.2
210
0
220
-0
230
1
0
CIRCLE
5
104
100
AcDbEntity
8
0
100
AcDbCircle
10
-13.163656554984298
20
0.24999999999972128
30
0
40
1.2
210
0
220
-0
230
1
0
ARC
5
105
100
AcDbEntity
8
0
100
AcDbCircle
10
-109.01231361162395
20
53.106516291224644
30
0
40
1.0000000000000231
210
0
220
-0
230
1
100
AcDbArc
50
90
51
114.05324002689206
0
ARC
5
106
100
AcDbEntity
8
0
100
AcDbCircle
10
-45.387032852809952
20
-89.447426100108089
30
0
40
157.10830484927175
210
0
220
0
230
1
100
AcDbArc
50
114.05237070784185
51
117.81295675927868
0
ARC
5
107
100
AcDbEntity
8
0
100
AcDbCircle
10
-118.22499999999937
20
48.626413238349322
30
0
40
1.0000000000003142
210
0
220
0
230
1
100
AcDbArc
50
117.81387566124381
51
180
0
LINE
5
108
100
AcDbEntity
8
0
100
AcDbLine
10
-119.22499999999965
20
48.626413238349322
30
0
11
-119.22500000000007
21
-5.5157798266282221
31
0
0
ARC
5
109
100
AcDbEntity
8
0
100
AcDbCircle
10
-120.22500000000014
20
-5.5157798266281759
30
0
40
1.0000000000000751
210
0
220
0
230
1
100
AcDbArc
50
311.72337686197972
51
360
0
ARC
5
110
100
AcDbEntity
8
0
100
AcDbCircle
10
-45.387032852809952
20
-89.447426100108089
30
0
40
111.45106746036093
210
0
220
0
230
1
100
AcDbArc
50
131.72189862137844
51
134.99847981914112
0
LINE
5
111
100
AcDbEntity
8
0
100
AcDbLine
10
-124.19262950097711
20
-10.637647575396159
30
0
11
-130.92782159177918
21
-17.372839666198274
31
0
0
ARC
5
112
100
AcDbEntity
8
0
100
AcDbCircle
10
-130.22071481059265
20
-18.079946447384813
30
0
40
0.9999999999999809
210
0
220
0
230
1
100
AcDbArc
50
134.99999999999943
51
225.00000000000173
0
LINE
5
113
100
AcDbEntity
8
0
100
AcDbLine
10
-130.92782159177915
20
-18.787053228571352
30
0
11
-103.9870532285711
21
-45.727821591779033
31
0
0
ARC
5
114
100
AcDbEntity
8
0
100
AcDbCircle
10
-103.27994644738455
20
-45.020714810592473
30
0
40
1.0000000000000042
210
0
220
0
230
1
100
AcDbArc
50
225.00000000000028
51
315.00000000000318
0
LINE
5
115
100
AcDbEntity
8
0
100
AcDbLine
10
-102.57283966619795
20
-45.727821591778991
30
0
11
-95.837647575398648
21
-38.992629500979078
31
0
0
ARC
5
116
100
AcDbEntity
8
0
100
AcDbCircle
10
-45.387032852809952
20
-89.447426100108089
30
0
40
71.35259828945378
210
0
220
-0
230
1
100
AcDbArc
50
89.999083365206872
51
134.99762546058801
0
LINE
5
117
100
AcDbEntity
8
0
100
AcDbLine
10
-45.38589133288081
20
-18.094827819785493
30
0
11
-16.810891332880917
21
-18.09482781978555
31
0
0
ARC
5
118
100
AcDbEntity
8
0
100
AcDbCircle
10
-16.810891332880907
20
-17.09482781978555
30
0
40
0.99999999999999645
210
0
220
0
230
1
100
AcDbArc
50
269.99999999999937
51
360
0
LINE
5
119
100
AcDbEntity
8
0
100
AcDbLine
10
-15.810891332880912
20
-17.094827819785554
30
0
11
-15.810891332880903
21
-11.524999999999999
31
0
0
ARC
5
120
100
AcDbEntity
8
0
100
AcDbCircle
10
-14.810891332880908
20
-11.525
30
0
40
0.99999999999999867
210
0
220
-0
230
1
100
AcDbArc
50
89.999999999999801
51
180
0
LINE
5
121
100
AcDbEntity
8
0
100
AcDbLine
10
-14.810891332880905
20
-10.525000000000002
30
0
11
8.5250000000046988
21
-10.525000000000054
31
0
0
ARC
5
122
100
AcDbEntity
8
0
100
AcDbCircle
10
-45.387032852809952
20
-89.447426100108089
30
0
40
157.10924110114189
210
0
220
-0
230
1
100
AcDbArc
50
69.796952281247016
51
70.106594509153737
0
ARC
5
123
100
AcDbEntity
8
0
100
AcDbCircle
10
-85.474999999999696
20
61.426236476939764
30
0
40
1.0000000000082589
210
0
220
0
230
1
100
AcDbArc
50
104.88046438412971
51
180
0
LINE
5
124
100
AcDbEntity
8
0
100
AcDbLine
10
-86.474999999999596
20
61.426236476939771
30
0
11
-86.474999999999653
21
55.106516289441807
31
0
0
ARC
5
125
100
AcDbEntity
8
0
100
AcDbCircle
10
-87.474999999999653
20
55.106516291224665
30
0
40
0.99999999999999645
210
0
220
0
230
1
100
AcDbArc
50
270
51
360
0
LINE
5
126
100
AcDbEntity
8
0
100
AcDbLine
10
-87.474999999999653
20
54.106516291224665
30
0
11
-109.01231361162395
21
54.106516291224665
31
0
0
ARC
5
127
100
AcDbEntity
8
0
100
AcDbCircle
10
-45.387032852809952
20
-89.447426100108089
30
0
40
157.10924110114189
210
0
220
-0
230
1
100
AcDbArc
50
70.106594509153965
51
104.87999509365696
0
LINE
5
128
100
AcDbEntity
8
0
100
AcDbLine
10
9.5250000000047059
20
-9.5249999999999524
30
0
11
9.5250000000829385
21
57.05713994082825
31
0
0
ARC
5
129
100
AcDbEntity
8
0
100
AcDbCircle
10
8.5250000000829473
20
57.057139940828165
30
0
40
0.9999999999999909
210
0
220
-0
230
1
100
AcDbArc
50
0
51
69.796952281247357
0
ARC
5
130
100
AcDbEntity
8
0
100
AcDbCircle
10
8.5250000000047041
20
-9.5250000000000536
30
0
40
0.99999999999999978
210
0
220
0
230
1
100
AcDbArc
50
-90.000000000000313
51
0
0
CIRCLE
5
131
100
AcDbEntity
8
0
100
AcDbCircle
10
-47.625
20
29.300000000000232
30
0
40
21.050000000000001
210
0
220
0
230
1
0
ENDSEC
0
SECTION
2
OBJECTS
0
DICTIONARY
5
C
100
AcDbDictionary
3
ACAD_GROUP
350
D
3
ACAD_MLINESTYLE
350
17
0
DICTIONARY
5
D
100
AcDbDictionary
0
DICTIONARY
5
1A
330
C
100
AcDbDictionary
0
DICTIONARY
5
17
100
AcDbDictionary
0
ENDSEC
0
EOF
