0
SECTION
2
HEADER
9
$INSUNITS
70
4
9
$ACADVER
1
AC1014
9
$HANDSEED
5
FFFF
0
ENDSEC
0
SECTION
2
TABLES
0
TABLE
2
VPORT
5
8
100
AcDbSymbolTable
0
ENDTAB
0
TABLE
2
LTYPE
5
5
100
AcDbSymbolTable
0
LTYPE
5
14
100
AcDbSymbolTableRecord
100
AcDbLinetypeTableRecord
2
BYBLOCK
70
0
0
LTYPE
5
15
100
AcDbSymbolTableRecord
100
AcDbLinetypeTableRecord
2
BYLAYER
70
0
0
ENDTAB
0
TABLE
2
LAYER
5
2
100
AcDbSymbolTable
70
2
0
LAYER
5
50
100
AcDbSymbolTableRecord
100
AcDbLayerTableRecord
2
0
70
0
6
CONTINUOUS
0
ENDTAB
0
TABLE
2
STYLE
5
3
100
AcDbSymbolTable
70
1
0
STYLE
5
11
100
AcDbSymbolTableRecord
100
AcDbTextStyleTableRecord
2
STANDARD
70
0
0
ENDTAB
0
TABLE
2
VIEW
5
6
100
AcDbSymbolTable
70
0
0
ENDTAB
0
TABLE
2
UCS
5
7
100
AcDbSymbolTable
70
0
0
ENDTAB
0
TABLE
2
APPID
5
9
100
AcDbSymbolTable
70
2
0
APPID
5
12
100
AcDbSymbolTableRecord
100
AcDbRegAppTableRecord
2
ACAD
70
0
0
ENDTAB
0
TABLE
2
DIMSTYLE
5
A
100
AcDbSymbolTable
70
1
0
ENDTAB
0
TABLE
2
BLOCK_RECORD
5
1
100
AcDbSymbolTable
70
1
0
BLOCK_RECORD
5
1F
100
AcDbSymbolTableRecord
100
AcDbBlockTableRecord
2
*MODEL_SPACE
0
BLOCK_RECORD
5
1B
100
AcDbSymbolTableRecord
100
AcDbBlockTableRecord
2
*PAPER_SPACE
0
ENDTAB
0
ENDSEC
0
SECTION
2
BLOCKS
0
BLOCK
5
20
100
AcDbEntity
100
AcDbBlockBegin
2
*MODEL_SPACE
0
ENDBLK
5
21
100
AcDbEntity
100
AcDbBlockEnd
0
BLOCK
5
1C
100
AcDbEntity
100
AcDbBlockBegin
2
*PAPER_SPACE
0
ENDBLK
5
1D
100
AcDbEntity
100
AcDbBlockEnd
0
ENDSEC
0
SECTION
2
ENTITIES
0
CIRCLE
5
100
100
AcDbEntity
8
0
100
AcDbCircle
10
9.5250000000000021
20
9.5249900000000007
30
0
40
1.2
210
0
220
-0
230
1
0
CIRCLE
5
101
100
AcDbEntity
8
0
100
AcDbCircle
10
-6.9500000000000082
20
49.800000000000004
30
0
40
1.2
210
0
220
-0
230
1
0
CIRCLE
5
102
100
AcDbEntity
8
0
100
AcDbCircle
10
-57.376142737482439
20
1.6306156756178232
30
0
40
1.2
210
0
220
-0
230
1
0
CIRCLE
5
103
100
AcDbEntity
8
0
100
AcDbCircle
10
-101.30725435658294
20
-16.566246567140126
30
0
40
1.2
210
0
220
-0
230
1
0
CIRCLE
5
104
100
AcDbEntity
8
0
100
AcDbCircle
10
-66.675000000000068
20
60.125
30
0
40
1.2
210
0
220
-0
230
1
0
CIRCLE
5
105
100
AcDbEntity
8
0
100
AcDbCircle
10
-13.161769345940526
20
0.29999999999990873
30
0
40
1.2
210
0
220
-0
230
1
0
CIRCLE
5
106
100
AcDbEntity
8
0
100
AcDbCircle
10
9.5250000000000021
20
47.624989999999997
30
0
40
1.2
210
0
220
-0
230
1
0
LWPOLYLINE
5
107
100
AcDbEntity
8
0
100
AcDbPolyline
90
19
70
1
43
0.0
10
28.574999999999999
20
-10.52500000000008
10
-14.810891332880905
20
-10.525000000000002
42
0.41421356237309503
10
-15.810891332880907
20
-11.525000000000002
10
-15.810891332880912
20
-17.09482781978555
42
-0.4142135623730957
10
-16.810891332880907
20
-18.09482781978555
10
-45.385891332880917
20
-18.094827819785493
42
0.19891236737965898
10
-95.837647575396616
20
-38.992629500977046
10
-102.57283966619798
20
-45.727821591779019
42
-0.41421356237309503
10
-103.9870532285711
20
-45.72782159177904
10
-130.92782159177921
20
-18.787053228571363
42
-0.41421356237308127
10
-130.92782159177921
20
-17.372839666198267
10
-124.19262950097762
20
-10.637647575396709
42
-0.10078004911468698
10
-87.100706766266825
20
13.903948228315205
42
0.3058230674695307
10
-86.474999999999909
20
14.831258626823516
10
-86.47500000000008
20
61.426218290421879
42
-0.34003495951207025
10
-85.73180700797792
20
62.392680995679314
42
-0.190584065301176
10
29.048786418358652
20
48.909387228865775
42
-0.27600759101215044
10
29.575000000000074
20
48.02874744451637
10
29.575000000000003
20
-9.5250000000000803
42
-0.4142135623730937
0
LWPOLYLINE
5
108
100
AcDbEntity
8
0
100
AcDbPolyline
90
24
70
1
43
0.0
10
23.799999999999997
20
44.449990000000014
42
-0.41421356237309337
10
23.050000000000001
20
45.199990000000014
10
23.050000000000001
20
46.049990000000001
42
0.41421356237309681
10
22.299999999999997
20
46.799990000000008
10
15.800000000000002
20
46.799990000000008
42
0.4142135623730942
10
15.050000000000008
20
46.049990000000001
10
15.050000000000001
20
45.199990000000014
42
-0.41421356237309503
10
14.299999999999999
20
44.449990000000014
10
12.099999999999993
20
44.449990000000014
42
0.41421356237309592
10
11.349999999999989
20
43.699990000000007
10
11.349999999999991
20
32.499990000000011
42
0.41421356237309503
10
12.099999999999991
20
31.749990000000004
10
14.300000000000011
20
31.749990000000015
42
-0.41421356237309337
10
15.050000000000015
20
30.999990000000004
10
15.05000000000001
20
30.149990000000024
42
0.41421356237309503
10
15.80000000000001
20
29.39999000000002
10
22.300000000000004
20
29.39999000000002
42
0.41421356237309337
10
23.049999999999997
20
30.149990000000024
10
23.050000000000001
20
30.999990000000004
42
-0.41421356237308815
10
23.800000000000004
20
31.749990000000004
10
25.999999999999993
20
31.749990000000004
42
0.41421356237309503
10
26.749999999999989
20
32.499990000000011
10
26.749999999999993
20
43.699990000000007
42
0.41421356237309681
10
25.999999999999986
20
44.449990000000014
0
LWPOLYLINE
5
109
100
AcDbEntity
8
0
100
AcDbPolyline
90
8
70
1
43
0.0
10
-75.463601747885733
20
-6.9433577490542557
10
-72.56482844273755
20
-17.761727003491824
42
0.41421356237309698
10
-71.646269789193852
20
-18.292057089381743
10
-58.219900803775779
20
-14.694472362456739
42
0.41421356237309248
10
-57.689570717885857
20
-13.77591370891305
10
-60.588344023034068
20
-2.9575444544754736
42
0.41421356237309681
10
-61.506902676577759
20
-2.4272143685855632
10
-74.933271661995818
20
-6.0247990955105655
42
0.41421356237309381
0
LWPOLYLINE
5
110
100
AcDbEntity
8
0
100
AcDbPolyline
90
8
70
1
43
0.0
10
-83.900000000000006
20
14.599999999999993
10
-83.900000000000006
20
3.3999999999999897
42
0.41421356237309503
10
-83.150000000000006
20
2.6499999999999901
10
-69.25
20
2.6499999999999897
42
0.41421356237309503
10
-68.5
20
3.3999999999999897
10
-68.5
20
14.599999999999993
42
0.41421356237309503
10
-69.25
20
15.349999999999993
10
-83.150000000000006
20
15.349999999999993
42
0.41421356237309503
0
LWPOLYLINE
5
111
100
AcDbEntity
8
0
100
AcDbPolyline
90
8
70
1
43
0.0
10
-64.850000000000009
20
55.200000000000003
10
-64.850000000000009
20
44
42
0.41421356237309503
10
-64.099999999999994
20
43.25
10
-50.200000000000003
20
43.25
42
0.41421356237309503
10
-49.450000000000003
20
44
10
-49.450000000000003
20
55.200000000000003
42
0.41421356237309503
10
-50.200000000000003
20
55.950000000000003
10
-64.099999999999994
20
55.950000000000003
42
0.41421356237309503
0
LWPOLYLINE
5
112
100
AcDbEntity
8
0
100
AcDbPolyline
90
8
70
1
43
0.0
10
-26.749999999999758
20
36.649999999999842
10
-26.749999999999758
20
25.449999999999839
42
0.41421356237309503
10
-25.999999999999758
20
24.699999999999839
10
-12.09999999999976
20
24.699999999999839
42
0.41421356237309503
10
-11.349999999999758
20
25.449999999999839
10
-11.349999999999758
20
36.649999999999842
42
0.41421356237309503
10
-12.099999999999758
20
37.399999999999842
10
-25.999999999999758
20
37.399999999999842
42
0.41421356237309503
0
LWPOLYLINE
5
113
100
AcDbEntity
8
0
100
AcDbPolyline
90
8
70
1
43
0.0
10
-7.6999999999999957
20
43.70000000000001
10
-7.6999999999999957
20
32.500000000000007
42
0.41421356237309503
10
-6.9499999999999984
20
31.750000000000007
10
6.9500000000000028
20
31.750000000000004
42
0.4142135623730942
10
7.7000000000000046
20
32.500000000000007
10
7.7000000000000002
20
43.70000000000001
42
0.41421356237309592
10
6.9499999999999984
20
44.45000000000001
10
-6.9499999999999984
20
44.45000000000001
42
0.41421356237309503
0
LWPOLYLINE
5
114
100
AcDbEntity
8
0
100
AcDbPolyline
90
8
70
1
43
0.0
10
-26.749999999999758
20
17.599999999999842
10
-26.749999999999758
20
6.399999999999836
42
0.41421356237309503
10
-25.999999999999758
20
5.6499999999998369
10
-12.09999999999976
20
5.6499999999998369
42
0.41421356237309503
10
-11.349999999999758
20
6.3999999999998369
10
-11.349999999999758
20
17.599999999999842
42
0.41421356237309503
10
-12.099999999999758
20
18.349999999999838
10
-25.999999999999758
20
18.349999999999842
42
0.41421356237309503
0
LWPOLYLINE
5
115
100
AcDbEntity
8
0
100
AcDbPolyline
90
8
70
1
43
0.0
10
-45.799999999999997
20
42.649999999999999
10
-45.799999999999997
20
31.449999999999996
42
0.41421356237309503
10
-45.049999999999997
20
30.699999999999996
10
-31.150000000000002
20
30.699999999999996
42
0.41421356237309503
10
-30.400000000000006
20
31.449999999999996
10
-30.399999999999999
20
42.649999999999999
42
0.41421356237309503
10
-31.150000000000002
20
43.399999999999999
10
-45.049999999999997
20
43.399999999999999
42
0.41421356237309503
0
LWPOLYLINE
5
116
100
AcDbEntity
8
0
100
AcDbPolyline
90
8
70
1
43
0.0
10
-83.900000000000006
20
33.649999999999991
10
-83.900000000000006
20
22.449999999999992
42
0.41421356237309503
10
-83.150000000000006
20
21.699999999999996
10
-69.25
20
21.699999999999996
42
0.41421356237309503
10
-68.5
20
22.449999999999996
10
-68.5
20
33.649999999999991
42
0.41421356237309503
10
-69.25
20
34.399999999999991
10
-83.150000000000006
20
34.399999999999991
42
0.41421356237309503
0
LWPOLYLINE
5
117
100
AcDbEntity
8
0
100
AcDbPolyline
90
8
70
1
43
0.0
10
-53.085891332880948
20
-1.9698278197855545
10
-53.085891332880948
20
-13.16982781978556
42
0.41421356237309503
10
-52.335891332880948
20
-13.919827819785562
10
-38.435891332880949
20
-13.91982781978556
42
0.41421356237309503
10
-37.685891332880956
20
-13.16982781978556
10
-37.685891332880949
20
-1.9698278197855568
42
0.41421356237309503
10
-38.435891332880956
20
-1.2198278197855554
10
-52.335891332880948
20
-1.2198278197855561
42
0.41421356237309437
0
LWPOLYLINE
5
118
100
AcDbEntity
8
0
100
AcDbPolyline
90
8
70
1
43
0.0
10
-64.850000000000009
20
17.100000000000005
10
-64.850000000000009
20
5.9000000000000004
42
0.41421356237309503
10
-64.099999999999994
20
5.1500000000000012
10
-50.200000000000003
20
5.1500000000000012
42
0.41421356237309503
10
-49.450000000000003
20
5.9000000000000004
10
-49.450000000000003
20
17.100000000000005
42
0.41421356237309503
10
-50.200000000000003
20
17.850000000000001
10
-64.099999999999994
20
17.850000000000005
42
0.41421356237309503
0
LWPOLYLINE
5
119
100
AcDbEntity
8
0
100
AcDbPolyline
90
8
70
1
43
0.0
10
-64.850000000000009
20
36.150000000000006
10
-64.850000000000009
20
24.950000000000003
42
0.41421356237309503
10
-64.099999999999994
20
24.200000000000003
10
-50.200000000000003
20
24.200000000000003
42
0.41421356237309503
10
-49.450000000000003
20
24.950000000000006
10
-49.450000000000003
20
36.150000000000006
42
0.41421356237309503
10
-50.200000000000003
20
36.900000000000006
10
-64.099999999999994
20
36.900000000000006
42
0.41421356237309503
0
LWPOLYLINE
5
120
100
AcDbEntity
8
0
100
AcDbPolyline
90
8
70
1
43
0.0
10
-26.749999999999758
20
55.699999999999847
10
-26.749999999999758
20
44.499999999999844
42
0.41421356237309503
10
-25.999999999999758
20
43.749999999999844
10
-12.09999999999976
20
43.749999999999844
42
0.41421356237309503
10
-11.349999999999758
20
44.499999999999844
10
-11.349999999999758
20
55.699999999999847
42
0.41421356237309503
10
-12.099999999999758
20
56.449999999999847
10
-25.999999999999758
20
56.449999999999847
42
0.41421356237309503
0
LWPOLYLINE
5
121
100
AcDbEntity
8
0
100
AcDbPolyline
90
8
70
1
43
0.0
10
-7.6999999999999957
20
24.650000000000002
10
-7.6999999999999957
20
13.450000000000003
42
0.41421356237309503
10
-6.9499999999999984
20
12.700000000000005
10
6.9500000000000028
20
12.700000000000003
42
0.4142135623730942
10
7.7000000000000046
20
13.450000000000003
10
7.7000000000000011
20
24.650000000000002
42
0.41421356237309592
10
6.9499999999999984
20
25.400000000000006
10
-6.9499999999999984
20
25.400000000000006
42
0.41421356237309503
0
LWPOLYLINE
5
122
100
AcDbEntity
8
0
100
AcDbPolyline
90
8
70
1
43
0.0
10
11.349999999999989
20
24.649990000000006
10
11.349999999999989
20
13.449990000000005
42
0.41421356237309503
10
12.099999999999991
20
12.699990000000003
10
25.999999999999993
20
12.699990000000003
42
0.41421356237309503
10
26.749999999999989
20
13.449990000000003
10
26.749999999999993
20
24.649990000000006
42
0.41421356237309681
10
25.999999999999986
20
25.39999000000001
10
12.099999999999993
20
25.39999000000001
42
0.41421356237309592
0
LWPOLYLINE
5
123
100
AcDbEntity
8
0
100
AcDbPolyline
90
8
70
1
43
0.0
10
-7.6999999999999957
20
5.6000000000000014
10
-7.6999999999999957
20
-5.6000000000000041
42
0.41421356237309465
10
-6.9499999999999984
20
-6.3500000000000023
10
6.9500000000000028
20
-6.3500000000000023
42
0.4142135623730942
10
7.7000000000000046
20
-5.6000000000000032
10
7.7000000000000002
20
5.6000000000000005
42
0.41421356237309592
10
6.9499999999999984
20
6.3499999999999996
10
-6.9499999999999984
20
6.3499999999999996
42
0.41421356237309465
0
LWPOLYLINE
5
124
100
AcDbEntity
8
0
100
AcDbPolyline
90
8
70
1
43
0.0
10
-45.799999999999997
20
61.700000000000003
10
-45.799999999999997
20
50.5
42
0.41421356237309503
10
-45.049999999999997
20
49.75
10
-31.150000000000002
20
49.75
42
0.41421356237309503
10
-30.400000000000006
20
50.5
10
-30.399999999999999
20
61.700000000000003
42
0.41421356237309503
10
-31.150000000000002
20
62.450000000000003
10
-45.049999999999997
20
62.450000000000003
42
0.41421356237309503
0
LWPOLYLINE
5
125
100
AcDbEntity
8
0
100
AcDbPolyline
90
8
70
1
43
0.0
10
-83.900000000000006
20
52.700000000000003
10
-83.900000000000006
20
41.5
42
0.41421356237309503
10
-83.150000000000006
20
40.749999999999993
10
-69.25
20
40.749999999999993
42
0.41421356237309503
10
-68.5
20
41.499999999999993
10
-68.5
20
52.699999999999996
42
0.41421356237309503
10
-69.25
20
53.450000000000003
10
-83.150000000000006
20
53.450000000000003
42
0.41421356237309503
0
LWPOLYLINE
5
126
100
AcDbEntity
8
0
100
AcDbPolyline
90
8
70
1
43
0.0
10
-45.799999999999997
20
23.599999999999994
10
-45.799999999999997
20
12.399999999999993
42
0.41421356237309503
10
-45.049999999999997
20
11.649999999999991
10
-31.150000000000002
20
11.649999999999993
42
0.41421356237309503
10
-30.400000000000006
20
12.399999999999993
10
-30.399999999999999
20
23.599999999999994
42
0.41421356237309503
10
-31.150000000000002
20
24.349999999999994
10
-45.049999999999997
20
24.349999999999994
42
0.41421356237309503
0
LWPOLYLINE
5
127
100
AcDbEntity
8
0
100
AcDbPolyline
90
38
70
1
43
0.0
10
-116.64426461181077
20
-8.145096171713945
42
-0.26794919243114651
10
-117.3687089815276
20
-8.3392104555408224
42
0.26794919243115167
10
-118.0931533512445
20
-8.5333247393676963
10
-126.1548508187698
20
-16.595022206893152
42
0.41421356237309265
10
-126.15485081876976
20
-17.655682378672942
10
-124.85554210833924
20
-18.954991089103491
42
-0.4142135623730871
10
-124.85554210833922
20
-20.015651260883285
10
-125.45658287234806
20
-20.616692024892171
42
0.41421356237311957
10
-125.45658287234801
20
-21.677352196672043
10
-123.68881591938136
20
-23.445119149638312
42
0.41421356237307422
10
-122.62815574760157
20
-23.445119149638252
10
-122.02711498359292
20
-22.844078385629576
42
-0.41421356237311713
10
-120.96645481181311
20
-22.844078385629558
10
-108.04407838562977
20
-35.7664548118127
42
-0.4142135623730791
10
-108.04407838562977
20
-36.827114983592537
10
-108.64511914963845
20
-37.428155747601238
42
0.4142135623730791
10
-108.64511914963848
20
-38.48881591938104
10
-106.87735219667212
20
-40.256582872347551
42
0.41421356237311469
10
-105.81669202489226
20
-40.256582872347565
10
-105.21565126088373
20
-39.655542108338999
42
-0.41421356237311097
10
-104.1549910891039
20
-39.655542108338985
10
-102.85568237867284
20
-40.954850818770048
42
0.41421356237309997
10
-101.79502220689301
20
-40.954850818770048
10
-93.875426257603735
20
-33.035254869480653
42
0.26794919243109289
10
-93.681311973776857
20
-32.310810499763939
42
-0.26794919243110693
10
-93.487197689949937
20
-31.5863661300472
10
-91.329841845332112
20
-29.429010285429289
42
0.41421356237308521
10
-91.329841845332112
20
-28.368350113649488
10
-96.756886390938789
20
-22.941305568042619
42
0.41421356237310486
10
-97.817546562718633
20
-22.941305568042619
10
-99.832800889100412
20
-24.95655989442449
42
-0.41421356237309503
10
-100.89346106088023
20
-24.956559894424508
10
-110.15655989442438
20
-15.69346106088055
42
-0.4142135623730846
10
-110.15655989442439
20
-14.632800889100732
10
-108.14130556804251
20
-12.617546562718822
42
0.4142135623730846
10
-108.14130556804251
20
-11.556886390939024
10
-113.56835011364915
20
-6.1298418453321109
42
0.41421356237310547
10
-114.62901028542899
20
-6.1298418453321135
0
LWPOLYLINE
5
128
100
AcDbEntity
8
0
100
AcDbPolyline
90
38
70
1
43
0.0
10
-87.322912555927132
20
-28.007334267082207
10
-77.449389927864871
20
-22.306853319920513
42
0.26794919243115656
10
-77.074389927864871
20
-21.657334267082096
42
-0.26794919243115023
10
-76.699389927864871
20
-21.007815214243671
10
-74.231217527079352
20
-19.58281521424372
42
0.41421356237308732
10
-73.956698474241023
20
-18.558296161405408
10
-77.794198474240886
20
-11.911551187359732
42
0.41421356237310325
10
-78.81871752707923
20
-11.637032134521396
10
-81.28688992786492
20
-13.062032134521477
42
-0.41421356237308582
10
-82.311408980703249
20
-12.787513081683141
10
-88.86140898070326
20
-1.442580292107132
42
-0.41421356237310308
10
-88.586889927864959
20
-0.41806123926879657
10
-86.118717527079212
20
1.0069387607313074
42
0.41421356237309209
10
-85.844198474240883
20
2.0314578135696468
10
-89.681698474241045
20
8.6782027876151524
42
0.41421356237309609
10
-90.706217527079374
20
8.9527218404534743
10
-93.174389927864851
20
7.5277218404535517
42
-0.26794919243113796
10
-93.924389927864922
20
7.5277218404535731
42
0.26794919243114984
10
-94.674389927864979
20
7.5277218404536068
10
-104.54791255592725
20
1.8272408932918784
42
0.41421356237308782
10
-104.82243160876557
20
0.80272184045356176
10
-103.9036816087655
20
-0.78859983900043096
42
-0.41421356237310125
10
-104.17820066160381
20
-1.8131188918387564
10
-104.91432225482085
20
-2.238118891838925
42
0.41421356237311902
10
-105.18884130765912
20
-3.2626379446773135
10
-103.93884130765882
20
-5.4277014541383659
42
0.4142135623730685
10
-102.91432225482052
20
-5.7022205069766141
10
-102.17820066160374
20
-5.2772205069766116
42
-0.41421356237310353
10
-101.15368160876541
20
-5.5517395598149317
10
-92.016181608765606
20
-21.37835381397505
42
-0.4142135623731053
10
-92.290700661603893
20
-22.40287286681335
10
-93.026822254820928
20
-22.827872866813507
42
0.41421356237308943
10
-93.301341307659271
20
-23.852391919651822
10
-92.051341307659257
20
-26.017455429113046
42
0.41421356237310125
10
-91.026822254820914
20
-26.291974481951396
10
-90.290700661603978
20
-25.866974481951317
42
-0.41421356237307655
10
-89.266181608765663
20
-26.141493534789642
10
-88.347431608765447
20
-27.732815214243878
42
0.41421356237309026
0
LWPOLYLINE
5
129
100
AcDbEntity
8
0
100
AcDbPolyline
90
24
70
1
43
0.0
10
-30.335891332881026
20
-0.46982781978555516
42
-0.41421356237309193
10
-31.085891332881026
20
-1.2198278197855561
10
-33.285891332880951
20
-1.2198278197855561
42
0.41421356237309437
10
-34.035891332880951
20
-1.9698278197855545
10
-34.035891332880951
20
-13.16982781978556
42
0.41421356237309503
10
-33.285891332880951
20
-13.919827819785562
10
-31.085891332881026
20
-13.919827819785556
42
-0.41421356237309337
10
-30.335891332881019
20
-14.66982781978556
10
-30.335891332881026
20
-15.519827819785576
42
0.41421356237309592
10
-29.585891332881022
20
-16.269827819785579
10
-23.085891332881026
20
-16.269827819785579
42
0.41421356237309503
10
-22.335891332881026
20
-15.519827819785579
10
-22.335891332881022
20
-14.66982781978556
42
-0.41421356237309337
10
-21.585891332881019
20
-13.919827819785562
10
-19.385891332880952
20
-13.91982781978556
42
0.41421356237309503
10
-18.635891332880949
20
-13.16982781978556
10
-18.635891332880949
20
-1.9698278197855568
42
0.41421356237309503
10
-19.385891332880949
20
-1.2198278197855554
10
-21.585891332881019
20
-1.2198278197855581
42
-0.41421356237309365
10
-22.335891332881026
20
-0.46982781978555543
10
-22.335891332881022
20
0.38017218021440857
42
0.41421356237309509
10
-23.085891332881022
20
1.13017218021441
10
-29.585891332881022
20
1.1301721802144093
42
0.41421356237309531
10
-30.335891332881019
20
0.38017218021440863
0
LWPOLYLINE
5
130
100
AcDbEntity
8
0
100
AcDbPolyline
90
24
70
1
43
0.0
10
15.050000000000004
20
7.0999900000000027
42
-0.41421356237309725
10
14.299999999999999
20
6.3499900000000036
10
12.099999999999993
20
6.3499900000000009
42
0.41421356237309592
10
11.349999999999989
20
5.5999900000000018
10
11.349999999999991
20
-5.6000099999999993
42
0.41421356237309503
10
12.099999999999991
20
-6.3500099999999993
10
14.300000000000001
20
-6.3500100000000028
42
-0.41421356237309548
10
15.049999999999999
20
-7.100010000000001
10
15.049999999999999
20
-7.9500099999999936
42
0.4142135623730942
10
15.799999999999997
20
-8.7000099999999936
10
22.300000000000001
20
-8.7000099999999936
42
0.41421356237309337
10
23.049999999999997
20
-7.9500099999999936
10
23.049999999999997
20
-7.100010000000001
42
-0.4142135623730942
10
23.800000000000004
20
-6.3500099999999993
10
25.999999999999993
20
-6.3500100000000002
42
0.41421356237309503
10
26.749999999999989
20
-5.6000099999999993
10
26.749999999999993
20
5.5999900000000018
42
0.41421356237309681
10
25.999999999999986
20
6.3499900000000009
10
23.799999999999997
20
6.3499900000000018
42
-0.41421356237309115
10
23.049999999999997
20
7.0999900000000027
10
23.049999999999997
20
7.9499899999999961
42
0.41421356237309503
10
22.299999999999997
20
8.6999899999999961
10
15.800000000000001
20
8.6999899999999961
42
0.41421356237309503
10
15.049999999999999
20
7.9499899999999961
0
ENDSEC
0
SECTION
2
OBJECTS
0
DICTIONARY
5
C
100
AcDbDictionary
3
ACAD_GROUP
350
D
3
ACAD_MLINESTYLE
350
17
0
DICTIONARY
5
D
100
AcDbDictionary
0
DICTIONARY
5
1A
330
C
100
AcDbDictionary
0
DICTIONARY
5
17
100
AcDbDictionary
0
ENDSEC
0
EOF
