0
SECTION
2
HEADER
9
$INSUNITS
70
4
9
$ACADVER
1
AC1014
9
$HANDSEED
5
FFFF
0
ENDSEC
0
SECTION
2
TABLES
0
TABLE
2
VPORT
5
8
100
AcDbSymbolTable
0
ENDTAB
0
TABLE
2
LTYPE
5
5
100
AcDbSymbolTable
0
LTYPE
5
14
100
AcDbSymbolTableRecord
100
AcDbLinetypeTableRecord
2
BYBLOCK
70
0
0
LTYPE
5
15
100
AcDbSymbolTableRecord
100
AcDbLinetypeTableRecord
2
BYLAYER
70
0
0
ENDTAB
0
TABLE
2
LAYER
5
2
100
AcDbSymbolTable
70
2
0
LAYER
5
50
100
AcDbSymbolTableRecord
100
AcDbLayerTableRecord
2
0
70
0
6
CONTINUOUS
0
ENDTAB
0
TABLE
2
STYLE
5
3
100
AcDbSymbolTable
70
1
0
STYLE
5
11
100
AcDbSymbolTableRecord
100
AcDbTextStyleTableRecord
2
STANDARD
70
0
0
ENDTAB
0
TABLE
2
VIEW
5
6
100
AcDbSymbolTable
70
0
0
ENDTAB
0
TABLE
2
UCS
5
7
100
AcDbSymbolTable
70
0
0
ENDTAB
0
TABLE
2
APPID
5
9
100
AcDbSymbolTable
70
2
0
APPID
5
12
100
AcDbSymbolTableRecord
100
AcDbRegAppTableRecord
2
ACAD
70
0
0
ENDTAB
0
TABLE
2
DIMSTYLE
5
A
100
AcDbSymbolTable
70
1
0
ENDTAB
0
TABLE
2
BLOCK_RECORD
5
1
100
AcDbSymbolTable
70
1
0
BLOCK_RECORD
5
1F
100
AcDbSymbolTableRecord
100
AcDbBlockTableRecord
2
*MODEL_SPACE
0
BLOCK_RECORD
5
1B
100
AcDbSymbolTableRecord
100
AcDbBlockTableRecord
2
*PAPER_SPACE
0
ENDTAB
0
ENDSEC
0
SECTION
2
BLOCKS
0
BLOCK
5
20
100
AcDbEntity
100
AcDbBlockBegin
2
*MODEL_SPACE
0
ENDBLK
5
21
100
AcDbEntity
100
AcDbBlockEnd
0
BLOCK
5
1C
100
AcDbEntity
100
AcDbBlockBegin
2
*PAPER_SPACE
0
ENDBLK
5
1D
100
AcDbEntity
100
AcDbBlockEnd
0
ENDSEC
0
SECTION
2
ENTITIES
0
LWPOLYLINE
5
100
100
AcDbEntity
8
0
100
AcDbPolyline
90
12
70
1
43
0.0
10
-109.22499999999998
20
60.220070453976469
42
0.53970424987386534
10
-110.62252748605813
20
61.137660720832216
42
0.023403459918489345
10
-124.41040976365791
20
54.38153994707919
42
0.27363282930053173
10
-126.22500000000009
20
51.314066405454646
10
-126.22500000000004
20
29.5721180320648
42
0.41421356237310542
10
-125.22500000000001
20
28.572118032064772
10
-121.22500000000002
20
28.5721180320648
42
0.41421356237309631
10
-120.22500000000002
20
29.5721180320648
10
-120.22500000000005
20
49.228155802637367
42
-0.27716475387382167
10
-119.69499554357044
20
50.110824590475644
42
-0.017388600609653374
10
-109.81747848365693
20
54.937296879980138
42
0.29597983141445894
10
-109.22499999999999
20
55.850492485377714
0
LWPOLYLINE
5
101
100
AcDbEntity
8
0
100
AcDbPolyline
90
38
70
1
43
0.0
10
-86.475000000000023
20
68.658184848849572
10
-86.475000000000023
20
64.528257990920963
42
0.49094399381989035
10
-85.223035179867594
20
63.560521596330766
42
-0.15588602990361508
10
10.880880105242523
20
58.310648457997758
42
-0.31123847562310658
10
11.524999999999249
20
57.376116836973708
10
11.524999999999466
20
-10.525000000000055
42
-0.41421356237309309
10
10.52499999999946
20
-11.525000000000059
10
-13.810891332880901
20
-11.525000000000059
42
0.41421356237309631
10
-14.810891332880907
20
-12.525000000000059
10
-14.810891332880907
20
-18.094827819785507
42
-0.4142135623730937
10
-15.810891332880907
20
-19.094827819785507
10
-45.385891332880973
20
-19.094827819785515
42
0.19891236737965892
10
-95.130540794210091
20
-39.69973628216362
10
-102.57283966619801
20
-47.142035154152104
42
-0.41421356237309687
10
-103.9870532285711
20
-47.142035154152104
10
-132.34203515415228
20
-18.787053228571445
42
-0.41421356237310009
10
-132.34203515415228
20
-17.37283966619836
10
-124.89973628216417
20
-9.9305407942101098
42
-0.013308506502943948
10
-120.55651693091556
20
-5.8125728704160373
42
0.21278416176180531
10
-120.22500000000005
20
-5.0688455101909344
10
-120.22500000000008
20
0.23743099240517657
42
0.63841700195443019
10
-121.87071642505806
20
1.0010082958986644
42
0.020862276800724847
10
-129.14237696928325
20
-5.6879001070906545
10
-139.05954957542446
20
-15.605072713232051
42
0.41421356237309154
10
-139.0595495754244
20
-20.554820181537906
10
-105.75482018153735
20
-53.85954957542431
42
0.41421356237308715
10
-100.80507271323151
20
-53.859549575424268
10
-90.887900107090758
20
-43.942376969282861
42
-0.19891236737965881
10
-45.385891332880952
20
-25.094827819785515
10
-12.310891332880907
20
-25.094827819785515
42
0.41421356237309281
10
-8.8108913328809031
20
-21.594827819785507
10
-8.8108913328809049
20
-21.025000000000059
42
-0.4142135623730957
10
-5.3108913328809049
20
-17.525000000000055
10
14.024999999999462
20
-17.525000000000055
42
0.41421356237309431
10
17.524999999999455
20
-14.02500000000007
10
17.524999999997274
20
59.768970132662041
42
0.30711245684821353
10
15.319709727660902
20
63.020696861819765
42
0.15811058634174185
10
-85.720785651813912
20
69.627509053314938
42
0.34321389948160935
0
CIRCLE
5
102
100
AcDbEntity
8
0
100
AcDbCircle
10
-136.35980210711904
20
-18.079946447384998
30
0
40
1.6000000000000003
210
0
220
0
230
1
0
CIRCLE
5
103
100
AcDbEntity
8
0
100
AcDbCircle
10
-111.96821431508693
20
57.25283651430972
30
0
40
1.6000000000000003
210
0
220
0
230
1
0
CIRCLE
5
104
100
AcDbEntity
8
0
100
AcDbCircle
10
-83.567215439701172
20
67.070106416105432
30
0
40
1.6000000000000003
210
0
220
0
230
1
0
CIRCLE
5
105
100
AcDbEntity
8
0
100
AcDbCircle
10
-103.27994644738452
20
-51.159802107118473
30
0
40
1.6000000000000003
210
0
220
0
230
1
0
CIRCLE
5
106
100
AcDbEntity
8
0
100
AcDbCircle
10
-123.22499999999964
20
-4.2261046507014388
30
0
40
1.6000000000000003
210
0
220
0
230
1
0
CIRCLE
5
107
100
AcDbEntity
8
0
100
AcDbCircle
10
-123.22500000000004
20
31.5721180320648
30
0
40
1.6000000000000003
210
0
220
0
230
1
0
CIRCLE
5
108
100
AcDbEntity
8
0
100
AcDbCircle
10
13.824999999999452
20
-13.865990257669791
30
0
40
1.6000000000000003
210
0
220
0
230
1
0
CIRCLE
5
109
100
AcDbEntity
8
0
100
AcDbCircle
10
14.224999999999463
20
60.020697187715662
30
0
40
1.6000000000000003
210
0
220
0
230
1
0
ENDSEC
0
SECTION
2
OBJECTS
0
DICTIONARY
5
C
100
AcDbDictionary
3
ACAD_GROUP
350
D
3
ACAD_MLINESTYLE
350
17
0
DICTIONARY
5
D
100
AcDbDictionary
0
DICTIONARY
5
1A
330
C
100
AcDbDictionary
0
DICTIONARY
5
17
100
AcDbDictionary
0
ENDSEC
0
EOF
