0
SECTION
2
HEADER
9
$INSUNITS
70
4
9
$ACADVER
1
AC1014
9
$HANDSEED
5
FFFF
0
ENDSEC
0
SECTION
2
TABLES
0
TABLE
2
VPORT
5
8
100
AcDbSymbolTable
0
ENDTAB
0
TABLE
2
LTYPE
5
5
100
AcDbSymbolTable
0
LTYPE
5
14
100
AcDbSymbolTableRecord
100
AcDbLinetypeTableRecord
2
BYBLOCK
70
0
0
LTYPE
5
15
100
AcDbSymbolTableRecord
100
AcDbLinetypeTableRecord
2
BYLAYER
70
0
0
ENDTAB
0
TABLE
2
LAYER
5
2
100
AcDbSymbolTable
70
2
0
LAYER
5
50
100
AcDbSymbolTableRecord
100
AcDbLayerTableRecord
2
0
70
0
6
CONTINUOUS
0
ENDTAB
0
TABLE
2
STYLE
5
3
100
AcDbSymbolTable
70
1
0
STYLE
5
11
100
AcDbSymbolTableRecord
100
AcDbTextStyleTableRecord
2
STANDARD
70
0
0
ENDTAB
0
TABLE
2
VIEW
5
6
100
AcDbSymbolTable
70
0
0
ENDTAB
0
TABLE
2
UCS
5
7
100
AcDbSymbolTable
70
0
0
ENDTAB
0
TABLE
2
APPID
5
9
100
AcDbSymbolTable
70
2
0
APPID
5
12
100
AcDbSymbolTableRecord
100
AcDbRegAppTableRecord
2
ACAD
70
0
0
ENDTAB
0
TABLE
2
DIMSTYLE
5
A
100
AcDbSymbolTable
70
1
0
ENDTAB
0
TABLE
2
BLOCK_RECORD
5
1
100
AcDbSymbolTable
70
1
0
BLOCK_RECORD
5
1F
100
AcDbSymbolTableRecord
100
AcDbBlockTableRecord
2
*MODEL_SPACE
0
BLOCK_RECORD
5
1B
100
AcDbSymbolTableRecord
100
AcDbBlockTableRecord
2
*PAPER_SPACE
0
ENDTAB
0
ENDSEC
0
SECTION
2
BLOCKS
0
BLOCK
5
20
100
AcDbEntity
100
AcDbBlockBegin
2
*MODEL_SPACE
0
ENDBLK
5
21
100
AcDbEntity
100
AcDbBlockEnd
0
BLOCK
5
1C
100
AcDbEntity
100
AcDbBlockBegin
2
*PAPER_SPACE
0
ENDBLK
5
1D
100
AcDbEntity
100
AcDbBlockEnd
0
ENDSEC
0
SECTION
2
ENTITIES
0
LWPOLYLINE
5
100
100
AcDbEntity
8
0
100
AcDbPolyline
90
23
70
1
43
0.0
10
-86.475000000000023
20
14.83125862682364
42
-0.30582306746950511
10
-87.100706766266924
20
13.903948228315354
42
0.083373196303120317
10
-118.56835794617163
20
-5.3888651527282967
42
-0.6434947725874518
10
-120.22500000000001
20
-4.6346627839014687
10
-120.22500000000005
20
0.23743099240516424
42
0.63841700195447837
10
-121.87071642505779
20
1.0010082958988875
42
0.020862276800723181
10
-129.14237696928322
20
-5.687900107090595
10
-139.05954957542446
20
-15.605072713232051
42
0.41421356237309154
10
-139.0595495754244
20
-20.554820181537906
10
-105.75482018153735
20
-53.85954957542431
42
0.41421356237308715
10
-100.80507271323151
20
-53.859549575424268
10
-90.887900107090758
20
-43.942376969282861
42
-0.19891236737965881
10
-45.385891332880952
20
-25.094827819785515
10
-12.310891332880907
20
-25.094827819785515
42
0.41421356237309281
10
-8.8108913328809031
20
-21.594827819785507
10
-8.8108913328809049
20
-21.025000000000059
42
-0.4142135623730957
10
-5.3108913328809049
20
-17.525000000000055
10
14.024999999999457
20
-17.525000000000063
42
0.41421356237309481
10
17.524999999999455
20
-14.025000000000061
10
17.524999999999466
20
59.768970132664236
42
0.30711245684764843
10
15.319709727661985
20
63.020696861818507
42
0.1581105863417484
10
-85.720785651813912
20
69.627509053314938
42
0.34321389948160935
10
-86.475000000000023
20
68.658184848849572
0
LWPOLYLINE
5
101
100
AcDbEntity
8
0
100
AcDbPolyline
90
12
70
1
43
0.0
10
-119.69499554357057
20
50.110824590475616
42
-0.0173886006096486
10
-109.81747848365694
20
54.937296879980153
42
0.29597983141447265
10
-109.22499999999999
20
55.850492485377714
10
-109.22499999999998
20
60.220070453976469
42
0.53970424987386756
10
-110.62252748605874
20
61.137660720831875
42
0.023403459918490899
10
-124.41040976365784
20
54.381539947079183
42
0.27363282930053129
10
-126.22500000000009
20
51.314066405454646
10
-126.22500000000004
20
29.5721180320648
42
0.41421356237310542
10
-125.22500000000001
20
28.572118032064772
10
-121.22500000000002
20
28.5721180320648
42
0.41421356237309631
10
-120.22500000000002
20
29.5721180320648
10
-120.22500000000002
20
49.228155802637367
42
-0.27716475387382478
0
CIRCLE
5
102
100
AcDbEntity
8
0
100
AcDbCircle
10
-28.574999999999999
20
29.34999999999938
30
0
40
2.2000000000000002
210
0
220
0
230
1
0
CIRCLE
5
103
100
AcDbEntity
8
0
100
AcDbCircle
10
-66.675000000000011
20
29.350000000000005
30
0
40
2.2000000000000002
210
0
220
0
230
1
0
CIRCLE
5
104
100
AcDbEntity
8
0
100
AcDbCircle
10
-123.22500000000004
20
31.5721180320648
30
0
40
1.6000000000000003
210
0
220
0
230
1
0
CIRCLE
5
105
100
AcDbEntity
8
0
100
AcDbCircle
10
-103.27994644738452
20
-51.159802107118473
30
0
40
1.6000000000000003
210
0
220
0
230
1
0
CIRCLE
5
106
100
AcDbEntity
8
0
100
AcDbCircle
10
-136.35980210711904
20
-18.079946447384998
30
0
40
1.6000000000000003
210
0
220
0
230
1
0
CIRCLE
5
107
100
AcDbEntity
8
0
100
AcDbCircle
10
-123.22499999999964
20
-4.2261046507014388
30
0
40
1.6000000000000003
210
0
220
0
230
1
0
CIRCLE
5
108
100
AcDbEntity
8
0
100
AcDbCircle
10
-47.624999999999353
20
10.299999999999693
30
0
40
2.2000000000000002
210
0
220
0
230
1
0
CIRCLE
5
109
100
AcDbEntity
8
0
100
AcDbCircle
10
-83.567215439701172
20
67.070106416105432
30
0
40
1.6000000000000003
210
0
220
0
230
1
0
CIRCLE
5
110
100
AcDbEntity
8
0
100
AcDbCircle
10
-47.625000000000639
20
48.399999999999686
30
0
40
2.2000000000000002
210
0
220
0
230
1
0
CIRCLE
5
111
100
AcDbEntity
8
0
100
AcDbCircle
10
-111.96821431508693
20
57.25283651430972
30
0
40
1.6000000000000003
210
0
220
0
230
1
0
CIRCLE
5
112
100
AcDbEntity
8
0
100
AcDbCircle
10
13.824999999999454
20
-13.865990257669791
30
0
40
1.6000000000000003
210
0
220
0
230
1
0
LWPOLYLINE
5
113
100
AcDbEntity
8
0
100
AcDbPolyline
90
8
70
1
43
0.0
10
-44.750000000000007
20
63.100000000000016
10
-31.449999999999999
20
63.100000000000023
42
-0.4142135623730876
10
-31.100000000000012
20
62.75
10
-31.100000000000001
20
49.45000000000001
42
-0.41421356237308021
10
-31.449999999999996
20
49.100000000000023
10
-44.750000000000007
20
49.100000000000023
42
-0.41421356237311735
10
-45.099999999999994
20
49.450000000000017
10
-45.100000000000016
20
62.750000000000021
42
-0.41421356237310991
0
LWPOLYLINE
5
114
100
AcDbEntity
8
0
100
AcDbPolyline
90
8
70
1
43
0.0
10
-12.399999999999913
20
43.099999999999909
10
-25.699999999999918
20
43.099999999999916
42
-0.4142135623730579
10
-26.049999999999905
20
43.44999999999991
10
-26.049999999999912
20
56.749999999999915
42
-0.41421356237309875
10
-25.699999999999914
20
57.099999999999937
10
-12.399999999999913
20
57.099999999999937
42
-0.41421356237310619
10
-12.049999999999915
20
56.749999999999936
10
-12.049999999999921
20
43.449999999999925
42
-0.41421356237310253
0
LWPOLYLINE
5
115
100
AcDbEntity
8
0
100
AcDbPolyline
90
8
70
1
43
0.0
10
6.6499999999999657
20
31.100000000000037
10
-6.650000000000035
20
31.100000000000058
42
-0.41421356237309781
10
-7.0000000000000382
20
31.450000000000038
10
-7.0000000000000382
20
44.750000000000043
42
-0.41421356237310714
10
-6.6500000000000403
20
45.100000000000044
10
6.6500000000001114
20
45.100000000000044
42
-0.41421356237310714
10
7.0000000000001119
20
44.750000000000043
10
6.9999999999999707
20
31.450000000000035
42
-0.41421356237308671
0
LWPOLYLINE
5
116
100
AcDbEntity
8
0
100
AcDbPolyline
90
8
70
1
43
0.0
10
-12.399999999999913
20
24.049999999999912
10
-25.699999999999914
20
24.049999999999912
42
-0.4142135623730876
10
-26.049999999999905
20
24.399999999999906
10
-26.049999999999912
20
37.699999999999932
42
-0.41421356237311363
10
-25.699999999999914
20
38.049999999999933
10
-12.399999999999913
20
38.049999999999933
42
-0.41421356237310064
10
-12.049999999999915
20
37.699999999999932
10
-12.049999999999923
20
24.399999999999913
42
-0.41421356237309692
0
LWPOLYLINE
5
117
100
AcDbEntity
8
0
100
AcDbPolyline
90
8
70
1
43
0.0
10
-31.449999999999996
20
30.050000000000004
10
-44.75
20
30.050000000000004
42
-0.41421356237307649
10
-45.099999999999994
20
30.399999999999999
10
-45.100000000000023
20
43.70000000000001
42
-0.41421356237311735
10
-44.750000000000007
20
44.050000000000018
10
-31.449999999999999
20
44.050000000000026
42
-0.4142135623730876
10
-31.100000000000012
20
43.70000000000001
10
-31.099999999999998
20
30.400000000000006
42
-0.41421356237311363
0
LWPOLYLINE
5
118
100
AcDbEntity
8
0
100
AcDbPolyline
90
8
70
1
43
0.0
10
-58.341446172345925
20
-15.399969863075354
10
-71.188259661990614
20
-18.842263162938643
42
-0.41421356237309959
10
-71.616920366977666
20
-18.594775789523332
10
-75.059213666840833
20
-5.7479622998790711
42
-0.41421356237307561
10
-74.811726293425536
20
-5.319301594892031
10
-61.964912803781182
20
-1.8770082950286404
42
-0.41421356237307611
10
-61.536252098794122
20
-2.1244956684439398
10
-58.093958798930643
20
-14.971309158088301
42
-0.41421356237310175
0
LWPOLYLINE
5
119
100
AcDbEntity
8
0
100
AcDbPolyline
90
8
70
1
43
0.0
10
-69.550000000000011
20
21.05000000000004
10
-82.850000000000051
20
21.050000000000033
42
-0.41421356237311363
10
-83.200000000000045
20
21.400000000000038
10
-83.200000000000045
20
34.70000000000001
42
-0.41421356237310253
10
-82.850000000000023
20
35.049999999999997
10
-69.55000000000004
20
35.049999999999997
42
-0.41421356237311363
10
-69.200000000000017
20
34.700000000000003
10
-69.200000000000017
20
21.400000000000038
42
-0.41421356237310619
0
LWPOLYLINE
5
120
100
AcDbEntity
8
0
100
AcDbPolyline
90
8
70
1
43
0.0
10
-63.799999999999962
20
56.600000000000001
10
-50.499999999999972
20
56.600000000000001
42
-0.41421356237311735
10
-50.149999999999977
20
56.25
10
-50.149999999999977
20
42.95000000000001
42
-0.4142135623730876
10
-50.499999999999979
20
42.599999999999994
10
-63.799999999999969
20
42.599999999999987
42
-0.41421356237311735
10
-64.149999999999977
20
42.95000000000001
10
-64.149999999999963
20
56.250000000000007
42
-0.41421356237304302
0
LWPOLYLINE
5
121
100
AcDbEntity
8
0
100
AcDbPolyline
90
8
70
1
43
0.0
10
-63.799999999999962
20
18.499999999999993
10
-50.499999999999972
20
18.5
42
-0.41421356237308388
10
-50.149999999999977
20
18.149999999999995
10
-50.149999999999977
20
4.8499999999999943
42
-0.41421356237310575
10
-50.499999999999979
20
4.4999999999999938
10
-63.799999999999969
20
4.4999999999999956
42
-0.41421356237308526
10
-64.149999999999977
20
4.8499999999999943
10
-64.149999999999963
20
18.149999999999991
42
-0.41421356237310619
0
LWPOLYLINE
5
122
100
AcDbEntity
8
0
100
AcDbPolyline
90
8
70
1
43
0.0
10
-6.6500000000000377
20
7.0000000000000409
10
6.650000000000114
20
7.0000000000000409
42
-0.41421356237309692
10
7.0000000000001119
20
6.6500000000000359
10
6.9999999999999716
20
-6.6499999999999648
42
-0.4142135623730932
10
6.6499999999999648
20
-6.9999999999999627
10
-6.6500000000000359
20
-6.9999999999999591
42
-0.41421356237309781
10
-7.0000000000000382
20
-6.6499999999999604
10
-7.0000000000000382
20
6.6500000000000403
42
-0.41421356237309503
0
LWPOLYLINE
5
123
100
AcDbEntity
8
0
100
AcDbPolyline
90
8
70
1
43
0.0
10
-44.750000000000007
20
25.000000000000007
10
-31.449999999999999
20
25.000000000000007
42
-0.4142135623730876
10
-31.100000000000001
20
24.650000000000013
10
-31.100000000000001
20
11.350000000000001
42
-0.41421356237310802
10
-31.449999999999996
20
11.000000000000004
10
-44.75
20
11.000000000000004
42
-0.41421356237308388
10
-45.099999999999994
20
11.35
10
-45.100000000000016
20
24.650000000000013
42
-0.41421356237309503
0
LWPOLYLINE
5
124
100
AcDbEntity
8
0
100
AcDbPolyline
90
8
70
1
43
0.0
10
-25.699999999999914
20
18.999999999999922
10
-12.399999999999913
20
18.999999999999925
42
-0.4142135623730932
10
-12.049999999999915
20
18.64999999999992
10
-12.049999999999921
20
5.3499999999999117
42
-0.41421356237309132
10
-12.399999999999913
20
4.9999999999999103
10
-25.699999999999914
20
4.999999999999913
42
-0.41421356237310064
10
-26.049999999999905
20
5.3499999999999082
10
-26.049999999999905
20
18.649999999999928
42
-0.41421356237309132
0
LWPOLYLINE
5
125
100
AcDbEntity
8
0
100
AcDbPolyline
90
8
70
1
43
0.0
10
-6.6500000000000394
20
26.050000000000054
10
6.6500000000001149
20
26.050000000000047
42
-0.41421356237308948
10
7.0000000000001119
20
25.700000000000038
10
6.9999999999999671
20
12.400000000000038
42
-0.41421356237308671
10
6.6499999999999648
20
12.050000000000045
10
-6.6500000000000341
20
12.050000000000045
42
-0.41421356237310991
10
-7.0000000000000382
20
12.400000000000038
10
-7.0000000000000409
20
25.700000000000053
42
-0.41421356237310253
0
LWPOLYLINE
5
126
100
AcDbEntity
8
0
100
AcDbPolyline
90
8
70
1
43
0.0
10
-63.799999999999962
20
37.549999999999997
10
-50.499999999999972
20
37.549999999999997
42
-0.41421356237310619
10
-50.149999999999977
20
37.200000000000003
10
-50.149999999999991
20
23.899999999999991
42
-0.41421356237306534
10
-50.499999999999979
20
23.549999999999997
10
-63.799999999999969
20
23.550000000000001
42
-0.41421356237309503
10
-64.149999999999977
20
23.899999999999991
10
-64.149999999999949
20
37.20000000000001
42
-0.414213562373069
0
LWPOLYLINE
5
127
100
AcDbEntity
8
0
100
AcDbPolyline
90
8
70
1
43
0.0
10
-82.850000000000023
20
54.100000000000001
10
-69.550000000000026
20
54.100000000000001
42
-0.4142135623730876
10
-69.200000000000017
20
53.75
10
-69.200000000000017
20
40.450000000000031
42
-0.41421356237309503
10
-69.550000000000011
20
40.100000000000037
10
-82.850000000000037
20
40.100000000000023
42
-0.41421356237311735
10
-83.200000000000045
20
40.450000000000031
10
-83.200000000000045
20
53.75
42
-0.4142135623730876
0
LWPOLYLINE
5
128
100
AcDbEntity
8
0
100
AcDbPolyline
90
8
70
1
43
0.0
10
-69.550000000000011
20
2.0000000000000311
10
-82.850000000000051
20
2.0000000000000284
42
-0.41421356237311174
10
-83.200000000000045
20
2.3500000000000321
10
-83.200000000000045
20
15.649999999999991
42
-0.41421356237308204
10
-82.850000000000023
20
15.999999999999988
10
-69.550000000000054
20
15.999999999999989
42
-0.41421356237311363
10
-69.200000000000017
20
15.649999999999984
10
-69.200000000000017
20
2.3500000000000303
42
-0.41421356237310641
0
LWPOLYLINE
5
129
100
AcDbEntity
8
0
100
AcDbPolyline
90
8
70
1
43
0.0
10
-38.735891332880968
20
-14.569827819785548
10
-52.035891332880979
20
-14.569827819785532
42
-0.4142135623730932
10
-52.385891332880981
20
-14.219827819785532
10
-52.385891332881016
20
-0.9198278197854709
42
-0.41421356237309853
10
-52.035891332881022
20
-0.56982781978546981
10
-38.735891332880961
20
-0.56982781978541475
42
-0.41421356237310136
10
-38.385891332880959
20
-0.91982781978541484
10
-38.385891332880966
20
-14.219827819785547
42
-0.41421356237309692
0
LWPOLYLINE
5
130
100
AcDbEntity
8
0
100
AcDbPolyline
90
32
70
1
43
0.0
10
-81.181986117297384
20
-12.943730864332162
10
-78.454006095375902
20
-11.368730864332017
42
-0.41421356237312729
10
-77.975897204051364
20
-11.496839755656589
10
-73.688397204051824
20
-18.923007593108466
42
-0.41421356237306639
10
-73.816506095376383
20
-19.401116484433
10
-88.582239229901646
20
-27.926116484432065
42
-0.41421356237308543
10
-89.060348121226156
20
-27.798007593107492
10
-90.054098121225877
20
-26.076782103086302
42
0.4142135623731022
10
-90.395604472172096
20
-25.985275752140183
10
-91.39153368652417
20
-26.560275752140228
42
-0.41421356237309365
10
-91.869642577848722
20
-26.432166860815652
10
-93.56964257784864
20
-23.487680487948381
42
-0.41421356237308815
10
-93.441533686524053
20
-23.00957159662385
10
-92.445604472172761
20
-22.434571596624323
42
0.41421356237307444
10
-92.354098121226684
20
-22.093065245678211
10
-101.94159812122348
20
-5.4870281281150195
42
0.41421356237324125
10
-102.2831044721697
20
-5.3955217771689448
10
-103.27903368652146
20
-5.9705217771693277
42
-0.41421356237313478
10
-103.7571425778461
20
-5.8424128858449551
10
-105.45714257784712
20
-2.8979265129784482
42
-0.41421356237313228
10
-105.32903368652272
20
-2.4198176216538387
10
-104.33310447216928
20
-1.8448176216525578
42
0.41421356237302237
10
-104.24159812122325
20
-1.5033112707065039
10
-105.23534812122305
20
0.21791421931491556
42
-0.41421356237300982
10
-105.10723922989857
20
0.69602311063939326
10
-90.341506095379259
20
9.2210231106417613
42
-0.41421356237306034
10
-89.863397204054664
20
9.0929142193173522
10
-85.575897204052055
20
1.6667463818671897
42
-0.41421356237306778
10
-85.704006095376442
20
1.1886374905426043
10
-88.431986117296987
20
-0.38636250945833683
42
0.41421356237296797
10
-88.52349246824302
20
-0.72786886040441923
10
-81.523492468243489
20
-12.852224513386034
42
0.4142135623731063
0
LWPOLYLINE
5
131
100
AcDbEntity
8
0
100
AcDbPolyline
90
24
70
1
43
0.0
10
-30.38589133288097
20
-15.969827819785509
10
-30.38589133288097
20
-14.819827819785536
42
0.41421356237309764
10
-30.635891332880973
20
-14.569827819785539
10
-32.985891332880968
20
-14.569827819785534
42
-0.41421356237309132
10
-33.335891332880976
20
-14.219827819785532
10
-33.335891332881019
20
-0.91982781978546979
42
-0.41421356237309115
10
-32.98589133288101
20
-0.56982781978546981
10
-30.63589133288097
20
-0.56982781978546115
42
0.41421356237309948
10
-30.38589133288097
20
-0.31982781978545938
10
-30.385891332880959
20
0.83017218021453987
42
-0.41421356237308588
10
-30.035891332880968
20
1.18017218021454
10
-22.63589133288097
20
1.1801721802145386
42
-0.4142135623731012
10
-22.285891332880968
20
0.83017218021453876
10
-22.285891332880968
20
-0.31982781978542474
42
0.41421356237309764
10
-22.035891332880972
20
-0.56982781978542785
10
-19.685891332880963
20
-0.56982781978541563
42
-0.41421356237309875
10
-19.335891332880966
20
-0.91982781978541484
10
-19.335891332880966
20
-14.219827819785547
42
-0.41421356237309503
10
-19.685891332880971
20
-14.569827819785548
10
-22.035891332880965
20
-14.569827819785539
42
0.41421356237312362
10
-22.285891332880968
20
-14.81982781978555
10
-22.285891332880972
20
-15.969827819785509
42
-0.41421356237309692
10
-22.63589133288097
20
-16.319827819785509
10
-30.035891332880968
20
-16.319827819785509
42
-0.41421356237310253
0
LWPOLYLINE
5
132
100
AcDbEntity
8
0
100
AcDbPolyline
90
32
70
1
43
0.0
10
-99.76209021098245
20
-24.815138538186599
10
-97.534703850243645
20
-22.587752177448817
42
-0.41421356237303464
10
-97.03972910341308
20
-22.587752177448905
10
-90.976288454739034
20
-28.651192826124028
42
-0.41421356237309503
10
-90.976288454739048
20
-29.146167572954582
10
-103.03245907397002
20
-41.202338192184918
42
-0.41421356237309503
10
-103.52743382080061
20
-41.202338192184875
10
-104.932808548412
20
-39.796963464573558
42
0.41421356237309875
10
-105.28636193900525
20
-39.796963464573494
10
-106.09953473737008
20
-40.610136262937914
42
-0.41421356237308976
10
-106.59450948420061
20
-40.610136262937779
10
-108.99867254023425
20
-38.205973206902826
42
-0.41421356237314239
10
-108.99867254023408
20
-37.71099846007219
10
-108.18549974187057
20
-36.897825661709376
42
0.41421356237321644
10
-108.1854997418705
20
-36.544272271116007
10
-121.74427227111593
20
-22.98549974186912
42
0.41421356237315027
10
-122.09782566170929
20
-22.985499741869152
10
-122.91099846007367
20
-23.798672540233895
42
-0.41421356237297152
10
-123.40597320690421
20
-23.798672540234037
10
-125.81013626293945
20
-21.394509484200572
42
-0.41421356237310819
10
-125.81013626293961
20
-20.89953473736999
10
-124.99696346457407
20
-20.086361939003851
42
0.41421356237286333
10
-124.99696346457412
20
-19.732808548410645
10
-126.4023381921821
20
-18.327433820802504
42
-0.41421356237298596
10
-126.40233819218213
20
-17.832459073971997
10
-114.34616757295656
20
-5.7762884547401407
42
-0.41421356237309898
10
-113.85119282612594
20
-5.7762884547400315
10
-107.78775217744966
20
-11.839729103413175
42
-0.4142135623730937
10
-107.78775217744956
20
-12.334703850243754
10
-110.01513853818679
20
-14.56209021098223
42
0.41421356237294049
10
-110.01513853818673
20
-14.915643601575459
10
-100.11564360157564
20
-24.815138538186549
42
0.41421356237301044
0
CIRCLE
5
133
100
AcDbEntity
8
0
100
AcDbCircle
10
14.224999999999463
20
60.020697187715662
30
0
40
1.6000000000000003
210
0
220
0
230
1
0
ENDSEC
0
SECTION
2
OBJECTS
0
DICTIONARY
5
C
100
AcDbDictionary
3
ACAD_GROUP
350
D
3
ACAD_MLINESTYLE
350
17
0
DICTIONARY
5
D
100
AcDbDictionary
0
DICTIONARY
5
1A
330
C
100
AcDbDictionary
0
DICTIONARY
5
17
100
AcDbDictionary
0
ENDSEC
0
EOF
