0
SECTION
2
HEADER
9
$INSUNITS
70
4
9
$ACADVER
1
AC1014
9
$HANDSEED
5
FFFF
0
ENDSEC
0
SECTION
2
TABLES
0
TABLE
2
VPORT
5
8
100
AcDbSymbolTable
0
ENDTAB
0
TABLE
2
LTYPE
5
5
100
AcDbSymbolTable
0
LTYPE
5
14
100
AcDbSymbolTableRecord
100
AcDbLinetypeTableRecord
2
BYBLOCK
70
0
0
LTYPE
5
15
100
AcDbSymbolTableRecord
100
AcDbLinetypeTableRecord
2
BYLAYER
70
0
0
ENDTAB
0
TABLE
2
LAYER
5
2
100
AcDbSymbolTable
70
2
0
LAYER
5
50
100
AcDbSymbolTableRecord
100
AcDbLayerTableRecord
2
0
70
0
6
CONTINUOUS
0
ENDTAB
0
TABLE
2
STYLE
5
3
100
AcDbSymbolTable
70
1
0
STYLE
5
11
100
AcDbSymbolTableRecord
100
AcDbTextStyleTableRecord
2
STANDARD
70
0
0
ENDTAB
0
TABLE
2
VIEW
5
6
100
AcDbSymbolTable
70
0
0
ENDTAB
0
TABLE
2
UCS
5
7
100
AcDbSymbolTable
70
0
0
ENDTAB
0
TABLE
2
APPID
5
9
100
AcDbSymbolTable
70
2
0
APPID
5
12
100
AcDbSymbolTableRecord
100
AcDbRegAppTableRecord
2
ACAD
70
0
0
ENDTAB
0
TABLE
2
DIMSTYLE
5
A
100
AcDbSymbolTable
70
1
0
ENDTAB
0
TABLE
2
BLOCK_RECORD
5
1
100
AcDbSymbolTable
70
1
0
BLOCK_RECORD
5
1F
100
AcDbSymbolTableRecord
100
AcDbBlockTableRecord
2
*MODEL_SPACE
0
BLOCK_RECORD
5
1B
100
AcDbSymbolTableRecord
100
AcDbBlockTableRecord
2
*PAPER_SPACE
0
ENDTAB
0
ENDSEC
0
SECTION
2
BLOCKS
0
BLOCK
5
20
100
AcDbEntity
100
AcDbBlockBegin
2
*MODEL_SPACE
0
ENDBLK
5
21
100
AcDbEntity
100
AcDbBlockEnd
0
BLOCK
5
1C
100
AcDbEntity
100
AcDbBlockBegin
2
*PAPER_SPACE
0
ENDBLK
5
1D
100
AcDbEntity
100
AcDbBlockEnd
0
ENDSEC
0
SECTION
2
ENTITIES
0
CIRCLE
5
100
100
AcDbEntity
8
0
100
AcDbCircle
10
-111.96821431508693
20
57.25283651430972
30
0
40
1.1000000000000001
210
0
220
0
230
1
0
LWPOLYLINE
5
101
100
AcDbEntity
8
0
100
AcDbPolyline
90
37
70
1
43
0.0
10
-8.5250000000000234
20
49.624999999999993
10
-8.5250000000000057
20
59.624999999999332
42
0.4142135623730937
10
-9.5250000000000021
20
60.624999999999297
10
-26.575000000000017
20
60.624999999999361
42
-0.41421356237309503
10
-27.57500000000001
20
61.624999999999361
10
-27.574999999999999
20
65.624999999999972
42
0.41421356237309503
10
-28.574999999999999
20
66.624999999999957
10
-47.62499999999995
20
66.625
42
0.41421356237309503
10
-48.624999999999936
20
65.625
10
-48.624999999999964
20
61.124999999999972
42
-0.41421356237309503
10
-49.624999999999972
20
60.124999999999964
10
-66.67499999999994
20
60.125000000000014
42
0.41421356237309503
10
-67.67499999999994
20
59.125000000000014
10
-67.674999999999955
20
58.625000000000007
42
-0.41421356237309503
10
-68.67499999999994
20
57.625
10
-85.47499999999998
20
57.625000000000014
42
0.41421356237309503
10
-86.474999999999966
20
56.625000000000014
10
-86.475000000000023
20
14.831258626823537
42
-0.30582306746952298
10
-87.100706766266967
20
13.903948228315244
42
0.10078004911468637
10
-124.19262950097757
20
-10.637647575396558
10
-130.92782159177918
20
-17.372839666198256
42
0.41421356237308399
10
-130.92782159177921
20
-18.787053228571331
10
-103.98705322857137
20
-45.727821591779119
42
0.41421356237309503
10
-102.57283966619826
20
-45.727821591779119
10
-95.837647575396616
20
-38.99262950097706
42
-0.19891236737965892
10
-45.385891332880931
20
-18.094827819785515
10
-16.810891332880942
20
-18.094827819785586
42
0.41421356237309503
10
-15.810891332880937
20
-17.094827819785582
10
-15.8108913328809
20
0.47500000000001424
42
-0.41421356237309503
10
-14.810891332880898
20
1.4750000000000141
10
-11.524999999999981
20
1.4750000000000068
42
-0.41421356237309437
10
-10.524999999999981
20
0.4750000000000032
10
-10.524999999999999
20
-9.5250099999999129
42
0.41421356237309503
10
-9.5249999999999968
20
-10.525009999999915
10
10.524999999999487
20
-10.525009999999959
10
10.524999999999626
20
48.624999999999957
10
-7.525000000000027
20
48.625
42
-0.4142135623730957
0
CIRCLE
5
102
100
AcDbEntity
8
0
100
AcDbCircle
10
-123.22499999999964
20
-4.2261046507014388
30
0
40
1.1000000000000001
210
0
220
0
230
1
0
CIRCLE
5
103
100
AcDbEntity
8
0
100
AcDbCircle
10
-103.27994644738452
20
-51.159802107118473
30
0
40
1.1000000000000001
210
0
220
0
230
1
0
LWPOLYLINE
5
104
100
AcDbEntity
8
0
100
AcDbPolyline
90
19
70
1
43
0.0
10
-8.8108913328809049
20
-21.025000000000059
42
-0.41421356237309581
10
-5.3108913328809049
20
-17.525000000000055
10
14.024999999999451
20
-17.525000000000059
42
0.41421356237309559
10
17.524999999999451
20
-14.025000000000061
10
17.52499999999727
20
59.768970132662005
42
0.30711245684821958
10
15.319709727660813
20
63.020696861819744
42
0.22397046492576747
10
-124.41040976365795
20
54.381539947079162
42
0.27363282930053129
10
-126.22500000000002
20
51.314066405454646
10
-126.22500000000002
20
-2.4354368891330398
42
-0.20687960113815423
10
-126.53986470029929
20
-3.1638527189335361
42
0.0076523332713910952
10
-129.14237696928308
20
-5.6879001070904618
10
-139.05954957542446
20
-15.605072713232051
42
0.41421356237309154
10
-139.0595495754244
20
-20.554820181537906
10
-105.75482018153735
20
-53.859549575424317
42
0.41421356237308665
10
-100.80507271323151
20
-53.859549575424268
10
-90.887900107090758
20
-43.942376969282861
42
-0.19891236737965881
10
-45.385891332880952
20
-25.094827819785515
10
-12.310891332880907
20
-25.094827819785515
42
0.41421356237309281
10
-8.8108913328809031
20
-21.594827819785507
0
CIRCLE
5
105
100
AcDbEntity
8
0
100
AcDbCircle
10
-136.35980210711904
20
-18.079946447384998
30
0
40
1.1000000000000001
210
0
220
0
230
1
0
CIRCLE
5
106
100
AcDbEntity
8
0
100
AcDbCircle
10
-123.22500000000004
20
31.5721180320648
30
0
40
1.1000000000000001
210
0
220
0
230
1
0
CIRCLE
5
107
100
AcDbEntity
8
0
100
AcDbCircle
10
-83.567215439701172
20
67.070106416105432
30
0
40
1.1000000000000001
210
0
220
0
230
1
0
CIRCLE
5
108
100
AcDbEntity
8
0
100
AcDbCircle
10
13.824999999999454
20
-13.865990257669791
30
0
40
1.1000000000000001
210
0
220
0
230
1
0
CIRCLE
5
109
100
AcDbEntity
8
0
100
AcDbCircle
10
14.224999999999463
20
60.020697187715662
30
0
40
1.1000000000000001
210
0
220
0
230
1
0
ENDSEC
0
SECTION
2
OBJECTS
0
DICTIONARY
5
C
100
AcDbDictionary
3
ACAD_GROUP
350
D
3
ACAD_MLINESTYLE
350
17
0
DICTIONARY
5
D
100
AcDbDictionary
0
DICTIONARY
5
1A
330
C
100
AcDbDictionary
0
DICTIONARY
5
17
100
AcDbDictionary
0
ENDSEC
0
EOF
