0
SECTION
2
HEADER
9
$INSUNITS
70
4
9
$ACADVER
1
AC1014
9
$HANDSEED
5
FFFF
0
ENDSEC
0
SECTION
2
TABLES
0
TABLE
2
VPORT
5
8
100
AcDbSymbolTable
0
ENDTAB
0
TABLE
2
LTYPE
5
5
100
AcDbSymbolTable
0
LTYPE
5
14
100
AcDbSymbolTableRecord
100
AcDbLinetypeTableRecord
2
BYBLOCK
70
0
0
LTYPE
5
15
100
AcDbSymbolTableRecord
100
AcDbLinetypeTableRecord
2
BYLAYER
70
0
0
ENDTAB
0
TABLE
2
LAYER
5
2
100
AcDbSymbolTable
70
2
0
LAYER
5
50
100
AcDbSymbolTableRecord
100
AcDbLayerTableRecord
2
0
70
0
6
CONTINUOUS
0
ENDTAB
0
TABLE
2
STYLE
5
3
100
AcDbSymbolTable
70
1
0
STYLE
5
11
100
AcDbSymbolTableRecord
100
AcDbTextStyleTableRecord
2
STANDARD
70
0
0
ENDTAB
0
TABLE
2
VIEW
5
6
100
AcDbSymbolTable
70
0
0
ENDTAB
0
TABLE
2
UCS
5
7
100
AcDbSymbolTable
70
0
0
ENDTAB
0
TABLE
2
APPID
5
9
100
AcDbSymbolTable
70
2
0
APPID
5
12
100
AcDbSymbolTableRecord
100
AcDbRegAppTableRecord
2
ACAD
70
0
0
ENDTAB
0
TABLE
2
DIMSTYLE
5
A
100
AcDbSymbolTable
70
1
0
ENDTAB
0
TABLE
2
BLOCK_RECORD
5
1
100
AcDbSymbolTable
70
1
0
BLOCK_RECORD
5
1F
100
AcDbSymbolTableRecord
100
AcDbBlockTableRecord
2
*MODEL_SPACE
0
BLOCK_RECORD
5
1B
100
AcDbSymbolTableRecord
100
AcDbBlockTableRecord
2
*PAPER_SPACE
0
ENDTAB
0
ENDSEC
0
SECTION
2
BLOCKS
0
BLOCK
5
20
100
AcDbEntity
100
AcDbBlockBegin
2
*MODEL_SPACE
0
ENDBLK
5
21
100
AcDbEntity
100
AcDbBlockEnd
0
BLOCK
5
1C
100
AcDbEntity
100
AcDbBlockBegin
2
*PAPER_SPACE
0
ENDBLK
5
1D
100
AcDbEntity
100
AcDbBlockEnd
0
ENDSEC
0
SECTION
2
ENTITIES
0
CIRCLE
5
100
100
AcDbEntity
8
0
100
AcDbCircle
10
9.5250000000000021
20
9.5249900000000007
30
0
40
1.2
210
0
220
-0
230
1
0
CIRCLE
5
101
100
AcDbEntity
8
0
100
AcDbCircle
10
-6.9250000000000274
20
49.775000000000027
30
0
40
1.2
210
0
220
-0
230
1
0
CIRCLE
5
102
100
AcDbEntity
8
0
100
AcDbCircle
10
-57.376142737482439
20
1.6306156756178232
30
0
40
1.2
210
0
220
-0
230
1
0
CIRCLE
5
103
100
AcDbEntity
8
0
100
AcDbCircle
10
-101.30725435658294
20
-16.566246567140126
30
0
40
1.2
210
0
220
-0
230
1
0
CIRCLE
5
104
100
AcDbEntity
8
0
100
AcDbCircle
10
-66.675000000000068
20
60.125
30
0
40
1.2
210
0
220
-0
230
1
0
CIRCLE
5
105
100
AcDbEntity
8
0
100
AcDbCircle
10
-13.160697068076896
20
0.32499999999990542
30
0
40
1.2
210
0
220
-0
230
1
0
CIRCLE
5
106
100
AcDbEntity
8
0
100
AcDbCircle
10
9.5250000000000021
20
47.624989999999997
30
0
40
1.2
210
0
220
-0
230
1
0
LWPOLYLINE
5
107
100
AcDbEntity
8
0
100
AcDbPolyline
90
27
70
1
43
0.0
10
-109.48103682443008
20
54.156639200221335
42
-0.10533913247774755
10
-109.01231358553945
20
54.256497054926747
10
-87.475000000000023
20
54.256497054926747
42
0.41421356237308282
10
-86.625000000000014
20
55.106497054926749
10
-86.625000000000114
20
61.426218290421858
42
-0.34003489811517773
10
-85.77032830383942
20
62.537650336455982
42
-0.15290575581396398
10
8.1237778617238376
20
58.427712176135444
42
-0.0059830255188779114
10
11.646740735019939
20
57.104994739249605
42
-0.030622052826735476
10
29.119854381112468
20
49.041483196518165
42
-0.27600759101213962
10
29.725000000000072
20
48.028747444516384
10
29.725000000000001
20
-9.5250000000000785
42
-0.41421356237309476
10
28.574999999999999
20
-10.675000000000079
10
-14.810891332880905
20
-10.675000000000001
42
0.41421356237309886
10
-15.660891332880915
20
-11.525000000000007
10
-15.660891332880906
20
-17.094827819785554
42
-0.4142135623730967
10
-16.810891332880917
20
-18.244827819785556
10
-45.38589133288081
20
-18.244827819785492
42
0.19891236737966977
10
-95.731581558220654
20
-39.098695518157058
10
-102.46677364901996
20
-45.833887608956985
42
-0.41421356237310619
10
-104.09311924574909
20
-45.833887608957042
10
-131.03388760895717
20
-18.893119245749375
42
-0.4142135623731007
10
-131.03388760895717
20
-17.266773649020266
10
-124.29869551815501
20
-10.531581558218077
42
-0.014297939721312044
10
-119.65929530945596
20
-6.1501915250515538
42
0.2138184145915803
10
-119.37500000000007
20
-5.5157798266282221
10
-119.37500000000007
20
48.626393365853737
42
-0.27819946292855152
10
-118.7615904433865
20
49.643531850066069
42
-0.016410359534262911
0
ENDSEC
0
SECTION
2
OBJECTS
0
DICTIONARY
5
C
100
AcDbDictionary
3
ACAD_GROUP
350
D
3
ACAD_MLINESTYLE
350
17
0
DICTIONARY
5
D
100
AcDbDictionary
0
DICTIONARY
5
1A
330
C
100
AcDbDictionary
0
DICTIONARY
5
17
100
AcDbDictionary
0
ENDSEC
0
EOF
