0
SECTION
2
HEADER
9
$INSUNITS
70
4
9
$ACADVER
1
AC1014
9
$HANDSEED
5
FFFF
0
ENDSEC
0
SECTION
2
TABLES
0
TABLE
2
VPORT
5
8
100
AcDbSymbolTable
0
ENDTAB
0
TABLE
2
LTYPE
5
5
100
AcDbSymbolTable
0
LTYPE
5
14
100
AcDbSymbolTableRecord
100
AcDbLinetypeTableRecord
2
BYBLOCK
70
0
0
LTYPE
5
15
100
AcDbSymbolTableRecord
100
AcDbLinetypeTableRecord
2
BYLAYER
70
0
0
ENDTAB
0
TABLE
2
LAYER
5
2
100
AcDbSymbolTable
70
2
0
LAYER
5
50
100
AcDbSymbolTableRecord
100
AcDbLayerTableRecord
2
0
70
0
6
CONTINUOUS
0
ENDTAB
0
TABLE
2
STYLE
5
3
100
AcDbSymbolTable
70
1
0
STYLE
5
11
100
AcDbSymbolTableRecord
100
AcDbTextStyleTableRecord
2
STANDARD
70
0
0
ENDTAB
0
TABLE
2
VIEW
5
6
100
AcDbSymbolTable
70
0
0
ENDTAB
0
TABLE
2
UCS
5
7
100
AcDbSymbolTable
70
0
0
ENDTAB
0
TABLE
2
APPID
5
9
100
AcDbSymbolTable
70
2
0
APPID
5
12
100
AcDbSymbolTableRecord
100
AcDbRegAppTableRecord
2
ACAD
70
0
0
ENDTAB
0
TABLE
2
DIMSTYLE
5
A
100
AcDbSymbolTable
70
1
0
ENDTAB
0
TABLE
2
BLOCK_RECORD
5
1
100
AcDbSymbolTable
70
1
0
BLOCK_RECORD
5
1F
100
AcDbSymbolTableRecord
100
AcDbBlockTableRecord
2
*MODEL_SPACE
0
BLOCK_RECORD
5
1B
100
AcDbSymbolTableRecord
100
AcDbBlockTableRecord
2
*PAPER_SPACE
0
ENDTAB
0
ENDSEC
0
SECTION
2
BLOCKS
0
BLOCK
5
20
100
AcDbEntity
100
AcDbBlockBegin
2
*MODEL_SPACE
0
ENDBLK
5
21
100
AcDbEntity
100
AcDbBlockEnd
0
BLOCK
5
1C
100
AcDbEntity
100
AcDbBlockBegin
2
*PAPER_SPACE
0
ENDBLK
5
1D
100
AcDbEntity
100
AcDbBlockEnd
0
ENDSEC
0
SECTION
2
ENTITIES
0
CIRCLE
5
100
100
AcDbEntity
8
0
100
AcDbCircle
10
9.5250000000000021
20
9.5249900000000007
30
0
40
1.2
210
0
220
-0
230
1
0
CIRCLE
5
101
100
AcDbEntity
8
0
100
AcDbCircle
10
-6.9250000000000274
20
49.775000000000027
30
0
40
1.2
210
0
220
-0
230
1
0
CIRCLE
5
102
100
AcDbEntity
8
0
100
AcDbCircle
10
-57.376142737482439
20
1.6306156756178232
30
0
40
1.2
210
0
220
-0
230
1
0
CIRCLE
5
103
100
AcDbEntity
8
0
100
AcDbCircle
10
-101.30725435658294
20
-16.566246567140126
30
0
40
1.2
210
0
220
-0
230
1
0
CIRCLE
5
104
100
AcDbEntity
8
0
100
AcDbCircle
10
-66.675000000000068
20
60.125
30
0
40
1.2
210
0
220
-0
230
1
0
CIRCLE
5
105
100
AcDbEntity
8
0
100
AcDbCircle
10
-13.160697068076896
20
0.32499999999990542
30
0
40
1.2
210
0
220
-0
230
1
0
CIRCLE
5
106
100
AcDbEntity
8
0
100
AcDbCircle
10
9.5250000000000021
20
47.624989999999997
30
0
40
1.2
210
0
220
-0
230
1
0
LWPOLYLINE
5
107
100
AcDbEntity
8
0
100
AcDbPolyline
90
20
70
1
43
0.0
10
14.050000000000002
20
31.174990000000008
42
-0.37796447300922553
10
15.042156741649226
20
30.299990000000008
42
0.3779644730092267
10
16.034313483298448
20
29.424990000000015
10
22.065686516701554
20
29.424990000000012
42
0.37796447300922548
10
23.057843258350772
20
30.299990000000005
42
-0.37796447300923258
10
24.049999999999994
20
31.174990000000005
10
24.975000000000005
20
31.174990000000005
42
0.4142135623730937
10
25.975000000000001
20
32.174990000000008
10
25.975000000000001
20
44.024990000000017
42
0.41421356237309503
10
24.975000000000001
20
45.02499000000001
10
24.049999999999994
20
45.02499000000001
42
-0.37796447300922908
10
23.057843258350768
20
45.899990000000003
42
0.37796447300922908
10
22.06568651670155
20
46.77499000000001
10
16.034313483298448
20
46.77499000000001
42
0.37796447300923175
10
15.042156741649215
20
45.899989999999995
42
-0.37796447300922315
10
14.050000000000002
20
45.02499000000001
10
13.124999999999996
20
45.02499000000001
42
0.41421356237309503
10
12.124999999999996
20
44.024990000000017
10
12.125000000000002
20
32.174990000000008
42
0.41421356237309437
10
13.125
20
31.174990000000005
0
LWPOLYLINE
5
108
100
AcDbEntity
8
0
100
AcDbPolyline
90
20
70
1
43
0.0
10
14.065686516701561
20
-6.9250099999999994
42
-0.37796447300922492
10
15.057843258350781
20
-7.8000099999999986
42
0.37796447300922642
10
16.050000000000001
20
-8.6750099999999986
10
22.065686516701561
20
-8.6750099999999986
42
0.37796447300922686
10
23.057843258350779
20
-7.8000099999999994
42
-0.3779644730092292
10
24.050000000000004
20
-6.9250100000000003
10
24.975000000000005
20
-6.9250099999999994
42
0.4142135623730937
10
25.975000000000001
20
-5.9250099999999994
10
25.975000000000001
20
5.9249900000000011
42
0.41421356237309503
10
24.975000000000001
20
6.924990000000002
10
24.034313483298444
20
6.9249900000000046
42
-0.37796447300922514
10
23.042156741649222
20
7.7999899999999975
42
0.37796447300922642
10
22.050000000000001
20
8.6749899999999958
10
16.034313483298448
20
8.6749899999999958
42
0.37796447300922709
10
15.042156741649224
20
7.7999899999999993
42
-0.37796447300922609
10
14.050000000000002
20
6.924990000000002
10
13.124999999999996
20
6.924990000000002
42
0.41421356237309537
10
12.124999999999996
20
5.9249900000000011
10
12.125000000000002
20
-5.9250099999999994
42
0.41421356237309437
10
13.125
20
-6.9250100000000003
0
LWPOLYLINE
5
109
100
AcDbEntity
8
0
100
AcDbPolyline
90
20
70
1
43
0.0
10
-22.328048074530166
20
-15.369827819785598
42
-0.37796447300921709
10
-23.320204816179384
20
-16.244827819785563
10
-29.351577849582515
20
-16.244827819785563
42
-0.37796447300921898
10
-30.343734591231733
20
-15.369827819785591
42
0.37796447300921776
10
-31.335891332880948
20
-14.494827819785625
10
-32.260891332880952
20
-14.49482781978562
42
-0.41421356237309437
10
-33.260891332880952
20
-13.494827819785622
10
-33.260891332880981
20
-1.6448278197855415
42
-0.41421356237309404
10
-32.260891332880981
20
-0.64482781978554038
10
-31.335891332880944
20
-0.64482781978553705
42
0.37796447300922309
10
-30.34373459123173
20
0.23017218021444857
42
-0.37796447300922231
10
-29.351577849582512
20
1.1051721802144316
10
-23.320204816179384
20
1.1051721802144319
42
-0.37796447300921732
10
-22.328048074530166
20
0.23017218021446623
42
0.37796447300921643
10
-21.335891332880944
20
-0.64482781978550063
10
-20.410891332880961
20
-0.64482781978549375
42
-0.41421356237309653
10
-19.410891332880954
20
-1.6448278197854949
10
-19.410891332880954
20
-13.49482781978563
42
-0.41421356237309503
10
-20.410891332880958
20
-14.494827819785632
10
-21.335891332880948
20
-14.49482781978563
42
0.37796447300921709
0
LWPOLYLINE
5
110
100
AcDbEntity
8
0
100
AcDbPolyline
90
28
70
1
43
0.0
10
-109.55551913041573
20
-15.481329026524639
42
-0.41421356237303436
10
-109.55551913041587
20
-14.067115464151662
10
-108.31808226333922
20
-12.829678597074608
42
0.41421356237308904
10
-108.31808226333946
20
-11.415465034701526
10
-113.39157341835374
20
-6.3419738796887462
42
0.41421356237309348
10
-114.80578698072684
20
-6.3419738796889558
10
-125.83665276723424
20
-17.372839666199617
42
0.41421356237303891
10
-125.83665276723417
20
-18.787053228572582
10
-125.42122753328671
20
-19.20247846252008
42
-0.37796447300937164
10
-125.3383852068052
20
-20.522757656078827
42
0.37796447300945957
10
-125.25554288032346
20
-21.84303684963778
10
-123.83023727561708
20
-23.268342454343383
42
0.37796447300918679
10
-122.50995808205883
20
-23.351184780825008
42
-0.37796447300927605
10
-121.18967888850035
20
-23.434027107306818
10
-108.64511914964064
20
-35.978586846167659
42
-0.37796447300905439
10
-108.56227682315844
20
-37.298866039725517
42
0.3779644730090172
10
-108.47943449667636
20
-38.619145233283305
10
-107.05412889197055
20
-40.044450837989665
42
0.37796447300926261
10
-105.73384969841213
20
-40.127293164471716
42
-0.3779644730092076
10
-104.41357050485382
20
-40.21013549095364
10
-103.98705322857161
20
-40.636652767235837
42
0.41421356237308948
10
-102.57283966619853
20
-40.636652767235837
10
-91.541973879688157
20
-29.60578698072586
42
0.41421356237307477
10
-91.541973879688101
20
-28.19157341835281
10
-96.615465034701273
20
-23.118082263338966
42
0.41421356237307205
10
-98.029678597074309
20
-23.118082263338803
10
-99.26711546415163
20
-24.355519130415715
42
-0.41421356237305551
10
-100.68132902652459
20
-24.355519130415622
0
LWPOLYLINE
5
111
100
AcDbEntity
8
0
100
AcDbPolyline
90
8
70
1
43
0.0
10
-45.025000000000013
20
23.925000000000015
10
-45.025000000000013
20
12.075000000000005
42
0.41421356237309503
10
-44.025000000000006
20
11.074999999999999
10
-32.175000000000004
20
11.075000000000001
42
0.41421356237309503
10
-31.174999999999997
20
12.075000000000003
10
-31.175000000000001
20
23.925000000000015
42
0.41421356237309503
10
-32.175000000000004
20
24.925000000000015
10
-44.02500000000002
20
24.925000000000015
42
0.41421356237309503
0
LWPOLYLINE
5
112
100
AcDbEntity
8
0
100
AcDbPolyline
90
8
70
1
43
0.0
10
-31.174999999999997
20
50.174999999999997
10
-31.174999999999997
20
62.02500000000002
42
0.41421356237309503
10
-32.175000000000004
20
63.02500000000002
10
-44.02500000000002
20
63.02500000000002
42
0.41421356237309503
10
-45.025000000000013
20
62.02500000000002
10
-45.025000000000006
20
50.174999999999997
42
0.41421356237309503
10
-44.025000000000006
20
49.175000000000004
10
-32.175000000000004
20
49.175000000000004
42
0.41421356237309503
0
LWPOLYLINE
5
113
100
AcDbEntity
8
0
100
AcDbPolyline
90
8
70
1
43
0.0
10
-83.125
20
14.925000000000015
10
-83.125
20
3.0749999999999944
42
0.41421356237309503
10
-82.125
20
2.0749999999999935
10
-70.275000000000006
20
2.0749999999999948
42
0.41421356237309492
10
-69.275000000000006
20
3.0749999999999944
10
-69.275000000000006
20
14.925000000000015
42
0.41421356237309503
10
-70.275000000000006
20
15.925000000000015
10
-82.125
20
15.925000000000015
42
0.41421356237309503
0
LWPOLYLINE
5
114
100
AcDbEntity
8
0
100
AcDbPolyline
90
8
70
1
43
0.0
10
-52.310891332880985
20
-1.6448278197855415
10
-52.310891332880956
20
-13.494827819785622
42
0.41421356237309437
10
-51.310891332880956
20
-14.49482781978562
10
-39.460891332880962
20
-14.494827819785632
42
0.41421356237309437
10
-38.460891332880962
20
-13.494827819785634
10
-38.460891332880955
20
-1.6448278197854949
42
0.41421356237309648
10
-39.460891332880962
20
-0.64482781978549519
10
-51.310891332880992
20
-0.64482781978554038
42
0.41421356237309537
0
LWPOLYLINE
5
115
100
AcDbEntity
8
0
100
AcDbPolyline
90
8
70
1
43
0.0
10
-24.974999999999909
20
43.174999999999898
10
-13.124999999999908
20
43.174999999999912
42
0.41421356237309503
10
-12.124999999999906
20
44.174999999999905
10
-12.124999999999906
20
56.024999999999913
42
0.41421356237309503
10
-13.124999999999908
20
57.024999999999906
10
-24.974999999999909
20
57.024999999999906
42
0.41421356237309503
10
-25.974999999999913
20
56.024999999999913
10
-25.974999999999909
20
44.174999999999898
42
0.41421356237309503
0
LWPOLYLINE
5
116
100
AcDbEntity
8
0
100
AcDbPolyline
90
8
70
1
43
0.0
10
5.9250000000000735
20
25.975000000000033
10
-5.9250000000000274
20
25.975000000000033
42
0.41421356237309503
10
-6.9250000000000256
20
24.97500000000003
10
-6.9250000000000274
20
13.125000000000032
42
0.4142135623730947
10
-5.9250000000000291
20
12.12500000000003
10
5.9249999999999803
20
12.12500000000003
42
0.41421356237309342
10
6.9249999999999803
20
13.125000000000025
10
6.9250000000000735
20
24.975000000000023
42
0.41421356237309764
0
LWPOLYLINE
5
117
100
AcDbEntity
8
0
100
AcDbPolyline
90
8
70
1
43
0.0
10
-6.9250000000000256
20
5.9250000000000282
10
-6.9250000000000256
20
-5.924999999999975
42
0.41421356237309437
10
-5.9250000000000291
20
-6.9249999999999741
10
5.9249999999999803
20
-6.9249999999999741
42
0.41421356237309309
10
6.9249999999999776
20
-5.9249999999999829
10
6.9250000000000735
20
5.9250000000000203
42
0.41421356237309731
10
5.9250000000000735
20
6.9250000000000274
10
-5.9250000000000274
20
6.9250000000000274
42
0.41421356237309503
0
LWPOLYLINE
5
118
100
AcDbEntity
8
0
100
AcDbPolyline
90
8
70
1
43
0.0
10
5.9250000000000735
20
45.025000000000034
10
-5.9250000000000274
20
45.025000000000034
42
0.41421356237309503
10
-6.9250000000000256
20
44.025000000000034
10
-6.9250000000000274
20
32.175000000000026
42
0.4142135623730947
10
-5.9250000000000291
20
31.175000000000033
10
5.9249999999999803
20
31.175000000000033
42
0.41421356237309276
10
6.9249999999999776
20
32.175000000000026
10
6.9250000000000735
20
44.025000000000027
42
0.41421356237309764
0
LWPOLYLINE
5
119
100
AcDbEntity
8
0
100
AcDbPolyline
90
8
70
1
43
0.0
10
-63.075000000000003
20
42.67499999999999
10
-51.224999999999987
20
42.67499999999999
42
0.41421356237309503
10
-50.224999999999994
20
43.67499999999999
10
-50.22499999999998
20
55.525000000000013
42
0.41421356237309503
10
-51.22499999999998
20
56.525000000000006
10
-63.074999999999989
20
56.525000000000006
42
0.41421356237309503
10
-64.074999999999989
20
55.525000000000013
10
-64.075000000000003
20
43.67499999999999
42
0.41421356237309503
0
LWPOLYLINE
5
120
100
AcDbEntity
8
0
100
AcDbPolyline
90
8
70
1
43
0.0
10
-63.075000000000003
20
23.625
10
-51.224999999999987
20
23.625
42
0.41421356237309503
10
-50.22499999999998
20
24.625
10
-50.22499999999998
20
36.475000000000001
42
0.41421356237309503
10
-51.22499999999998
20
37.475000000000009
10
-63.074999999999989
20
37.475000000000009
42
0.41421356237309503
10
-64.074999999999989
20
36.475000000000001
10
-64.075000000000003
20
24.625000000000004
42
0.41421356237309503
0
LWPOLYLINE
5
121
100
AcDbEntity
8
0
100
AcDbPolyline
90
8
70
1
43
0.0
10
-31.174999999999997
20
31.125000000000004
10
-31.174999999999997
20
42.975000000000009
42
0.41421356237309503
10
-32.175000000000004
20
43.975000000000009
10
-44.02500000000002
20
43.975000000000009
42
0.41421356237309503
10
-45.025000000000013
20
42.975000000000009
10
-45.025000000000006
20
31.125000000000007
42
0.41421356237309503
10
-44.025000000000006
20
30.125
10
-32.175000000000004
20
30.125
42
0.41421356237309503
0
LWPOLYLINE
5
122
100
AcDbEntity
8
0
100
AcDbPolyline
90
8
70
1
43
0.0
10
-83.125
20
33.975000000000016
10
-83.125
20
22.125
42
0.41421356237309503
10
-82.125
20
21.125
10
-70.275000000000006
20
21.125
42
0.41421356237309503
10
-69.275000000000006
20
22.125
10
-69.275000000000006
20
33.975000000000016
42
0.41421356237309503
10
-70.275000000000006
20
34.975000000000023
10
-82.125
20
34.975000000000016
42
0.41421356237309503
0
LWPOLYLINE
5
123
100
AcDbEntity
8
0
100
AcDbPolyline
90
8
70
1
43
0.0
10
-58.354047043601582
20
-14.290424362411475
10
-61.421052728066492
20
-2.8442033208861774
42
0.41421356237309176
10
-62.645797599458064
20
-2.1370965396996313
10
-74.092018640983298
20
-5.2041022241644139
42
0.4142135623730927
10
-74.799125422169851
20
-6.4288470955559918
10
-71.732119737705219
20
-17.875068137081193
42
0.4142135623730922
10
-70.50737486631364
20
-18.582174918267754
10
-59.061153824788136
20
-15.515169233803071
42
0.41421356237310075
0
LWPOLYLINE
5
124
100
AcDbEntity
8
0
100
AcDbPolyline
90
8
70
1
43
0.0
10
-24.974999999999909
20
24.124999999999904
10
-13.124999999999908
20
24.124999999999908
42
0.41421356237309503
10
-12.124999999999906
20
25.124999999999908
10
-12.124999999999906
20
36.974999999999909
42
0.41421356237309503
10
-13.124999999999908
20
37.974999999999909
10
-24.974999999999909
20
37.974999999999909
42
0.41421356237309503
10
-25.974999999999913
20
36.974999999999902
10
-25.974999999999909
20
25.124999999999904
42
0.41421356237309503
0
LWPOLYLINE
5
125
100
AcDbEntity
8
0
100
AcDbPolyline
90
8
70
1
43
0.0
10
12.124999999999996
20
24.974990000000005
10
12.125000000000002
20
13.124990000000004
42
0.41421356237309437
10
13.125
20
12.124990000000002
10
24.975000000000005
20
12.124990000000004
42
0.4142135623730937
10
25.975000000000001
20
13.124990000000006
10
25.975000000000001
20
24.974990000000005
42
0.41421356237309503
10
24.975000000000001
20
25.974990000000005
10
13.124999999999996
20
25.974990000000005
42
0.41421356237309503
0
LWPOLYLINE
5
126
100
AcDbEntity
8
0
100
AcDbPolyline
90
8
70
1
43
0.0
10
-25.974999999999913
20
17.924999999999905
10
-25.974999999999913
20
6.0749999999999016
42
0.41421356237309503
10
-24.974999999999909
20
5.0749999999999016
10
-13.124999999999908
20
5.0749999999999051
42
0.41421356237309537
10
-12.124999999999906
20
6.074999999999906
10
-12.124999999999906
20
17.924999999999905
42
0.41421356237309503
10
-13.124999999999908
20
18.924999999999905
10
-24.974999999999909
20
18.924999999999905
42
0.41421356237309503
0
LWPOLYLINE
5
127
100
AcDbEntity
8
0
100
AcDbPolyline
90
8
70
1
43
0.0
10
-83.125
20
53.025000000000027
10
-83.125
20
41.174999999999997
42
0.41421356237309503
10
-82.125
20
40.174999999999997
10
-70.275000000000006
20
40.174999999999997
42
0.41421356237309503
10
-69.275000000000006
20
41.174999999999997
10
-69.275000000000006
20
53.025000000000034
42
0.41421356237309503
10
-70.275000000000006
20
54.025000000000027
10
-82.125
20
54.025000000000027
42
0.41421356237309503
0
LWPOLYLINE
5
128
100
AcDbEntity
8
0
100
AcDbPolyline
90
8
70
1
43
0.0
10
-64.074999999999989
20
17.424999999999997
10
-64.075000000000003
20
5.5749999999999966
42
0.41421356237309537
10
-63.075000000000003
20
4.574999999999994
10
-51.224999999999987
20
4.5749999999999948
42
0.41421356237309437
10
-50.224999999999994
20
5.5749999999999922
10
-50.22499999999998
20
17.424999999999997
42
0.41421356237309503
10
-51.22499999999998
20
18.424999999999997
10
-63.074999999999989
20
18.424999999999997
42
0.41421356237309503
0
LWPOLYLINE
5
129
100
AcDbEntity
8
0
100
AcDbPolyline
90
28
70
1
43
0.0
10
-92.643802957591703
20
-21.44128174989504
42
-0.37796447300911151
10
-92.905496815078237
20
-22.738014692699039
42
0.37796447300913355
10
-93.1671906725648
20
-24.034747635503052
10
-92.159347414214011
20
-25.780383365032471
42
0.3779644730092393
10
-90.905496815077981
20
-26.202116307836718
42
-0.37796447300922592
10
-89.65164621594198
20
-26.623849250640944
10
-89.357896215942077
20
-27.13263917536414
42
0.41421356237308499
10
-87.991870812157657
20
-27.498664579148596
10
-74.481874513120118
20
-19.698664579149131
42
0.41421356237309392
10
-74.115849109335628
20
-18.332639175364712
10
-77.703349109335335
20
-12.118906903211158
42
0.41421356237310203
10
-79.069374513119783
20
-11.752881499426671
10
-80.584918969742887
20
-12.627881499426801
42
-0.41421356237309059
10
-81.950944373527292
20
-12.261856095642344
10
-88.225944373526971
20
-1.3932372781480085
42
-0.41421356237301493
10
-87.859918969742751
20
-0.027211874363689548
10
-86.344374513119973
20
0.84778812563681527
42
0.41421356237308438
10
-85.978349109335852
20
2.2138135294213246
10
-89.565849109337265
20
8.4275458015739861
42
0.41421356237307511
10
-90.931874513121727
20
8.7935712053581643
10
-104.44187081215587
20
0.99357120535711485
42
0.41421356237303558
10
-104.8078962159402
20
-0.37245419842720673
10
-104.50630295758936
20
-0.89482904511116534
42
-0.37796447300937952
10
-104.76799681507659
20
-2.1915619879156747
42
0.37796447300946412
10
-105.02969067256366
20
-3.4882949307204605
10
-104.02969067256313
20
-5.2203457382891436
42
0.37796447300918645
10
-102.77584007342716
20
-5.6420786810930483
42
-0.37796447300927383
10
-101.52198947429102
20
-6.0638116238972684
0
LWPOLYLINE
5
130
100
AcDbEntity
8
0
100
AcDbPolyline
90
21
70
1
43
0.0
10
28.574999999999999
20
-10.675000000000079
10
-14.810891332880905
20
-10.675000000000001
42
0.41421356237309737
10
-15.660891332880908
20
-11.525000000000002
10
-15.660891332880912
20
-17.094827819785554
42
-0.41421356237309453
10
-16.810891332880907
20
-18.244827819785549
10
-45.38589133288081
20
-18.244827819785492
42
0.19891236737966977
10
-95.731581558220654
20
-39.098695518157058
10
-102.46677364901996
20
-45.833887608956985
42
-0.41421356237310786
10
-104.09311924574909
20
-45.833887608957028
10
-131.03388760895717
20
-18.893119245749375
42
-0.4142135623731007
10
-131.03388760895717
20
-17.266773649020266
10
-124.298695518155
20
-10.531581558218088
42
-0.10055301137623135
10
-87.249873228225965
20
14.005449194186838
42
0.30557730297961655
10
-86.625000000000142
20
14.932422713279099
10
-86.625000000000114
20
61.426218290421858
42
-0.34003489811517773
10
-85.77032830383942
20
62.537650336455982
42
-0.15290575581396398
10
8.1237778617238376
20
58.427712176135444
42
-0.0059830255188779114
10
11.646740735019939
20
57.104994739249605
42
-0.030622052826735476
10
29.119854381112468
20
49.041483196518165
42
-0.27600759101213962
10
29.725000000000072
20
48.028747444516384
10
29.725000000000001
20
-9.5250000000000785
42
-0.41421356237309476
0
ENDSEC
0
SECTION
2
OBJECTS
0
DICTIONARY
5
C
100
AcDbDictionary
3
ACAD_GROUP
350
D
3
ACAD_MLINESTYLE
350
17
0
DICTIONARY
5
D
100
AcDbDictionary
0
DICTIONARY
5
1A
330
C
100
AcDbDictionary
0
DICTIONARY
5
17
100
AcDbDictionary
0
ENDSEC
0
EOF
