0
SECTION
2
HEADER
9
$INSUNITS
70
4
9
$ACADVER
1
AC1014
9
$HANDSEED
5
FFFF
0
ENDSEC
0
SECTION
2
TABLES
0
TABLE
2
VPORT
5
8
100
AcDbSymbolTable
0
ENDTAB
0
TABLE
2
LTYPE
5
5
100
AcDbSymbolTable
0
LTYPE
5
14
100
AcDbSymbolTableRecord
100
AcDbLinetypeTableRecord
2
BYBLOCK
70
0
0
LTYPE
5
15
100
AcDbSymbolTableRecord
100
AcDbLinetypeTableRecord
2
BYLAYER
70
0
0
ENDTAB
0
TABLE
2
LAYER
5
2
100
AcDbSymbolTable
70
2
0
LAYER
5
50
100
AcDbSymbolTableRecord
100
AcDbLayerTableRecord
2
0
70
0
6
CONTINUOUS
0
ENDTAB
0
TABLE
2
STYLE
5
3
100
AcDbSymbolTable
70
1
0
STYLE
5
11
100
AcDbSymbolTableRecord
100
AcDbTextStyleTableRecord
2
STANDARD
70
0
0
ENDTAB
0
TABLE
2
VIEW
5
6
100
AcDbSymbolTable
70
0
0
ENDTAB
0
TABLE
2
UCS
5
7
100
AcDbSymbolTable
70
0
0
ENDTAB
0
TABLE
2
APPID
5
9
100
AcDbSymbolTable
70
2
0
APPID
5
12
100
AcDbSymbolTableRecord
100
AcDbRegAppTableRecord
2
ACAD
70
0
0
ENDTAB
0
TABLE
2
DIMSTYLE
5
A
100
AcDbSymbolTable
70
1
0
ENDTAB
0
TABLE
2
BLOCK_RECORD
5
1
100
AcDbSymbolTable
70
1
0
BLOCK_RECORD
5
1F
100
AcDbSymbolTableRecord
100
AcDbBlockTableRecord
2
*MODEL_SPACE
0
BLOCK_RECORD
5
1B
100
AcDbSymbolTableRecord
100
AcDbBlockTableRecord
2
*PAPER_SPACE
0
ENDTAB
0
ENDSEC
0
SECTION
2
BLOCKS
0
BLOCK
5
20
100
AcDbEntity
100
AcDbBlockBegin
2
*MODEL_SPACE
0
ENDBLK
5
21
100
AcDbEntity
100
AcDbBlockEnd
0
BLOCK
5
1C
100
AcDbEntity
100
AcDbBlockBegin
2
*PAPER_SPACE
0
ENDBLK
5
1D
100
AcDbEntity
100
AcDbBlockEnd
0
ENDSEC
0
SECTION
2
ENTITIES
0
CIRCLE
5
100
100
AcDbEntity
8
0
100
AcDbCircle
10
9.5250000000000021
20
9.5249900000000007
30
0
40
1.2
210
0
220
-0
230
1
0
CIRCLE
5
101
100
AcDbEntity
8
0
100
AcDbCircle
10
-6.9250000000000274
20
49.775000000000027
30
0
40
1.2
210
0
220
-0
230
1
0
CIRCLE
5
102
100
AcDbEntity
8
0
100
AcDbCircle
10
-57.376142737482439
20
1.6306156756178232
30
0
40
1.2
210
0
220
-0
230
1
0
CIRCLE
5
103
100
AcDbEntity
8
0
100
AcDbCircle
10
-101.30725435658294
20
-16.566246567140126
30
0
40
1.2
210
0
220
-0
230
1
0
CIRCLE
5
104
100
AcDbEntity
8
0
100
AcDbCircle
10
-66.675000000000068
20
60.125
30
0
40
1.2
210
0
220
-0
230
1
0
CIRCLE
5
105
100
AcDbEntity
8
0
100
AcDbCircle
10
-13.160697068076896
20
0.32499999999990542
30
0
40
1.2
210
0
220
-0
230
1
0
CIRCLE
5
106
100
AcDbEntity
8
0
100
AcDbCircle
10
9.5250000000000021
20
47.624989999999997
30
0
40
1.2
210
0
220
-0
230
1
0
LWPOLYLINE
5
107
100
AcDbEntity
8
0
100
AcDbPolyline
90
21
70
1
43
0.0
10
28.574999999999999
20
-10.675000000000079
10
-14.810891332880905
20
-10.675000000000001
42
0.41421356237309737
10
-15.660891332880908
20
-11.525000000000002
10
-15.660891332880912
20
-17.094827819785554
42
-0.41421356237309453
10
-16.810891332880907
20
-18.244827819785549
10
-45.38589133288081
20
-18.244827819785492
42
0.19891236737966977
10
-95.731581558220654
20
-39.098695518157058
10
-102.46677364901996
20
-45.833887608956985
42
-0.41421356237310786
10
-104.09311924574909
20
-45.833887608957028
10
-131.03388760895717
20
-18.893119245749375
42
-0.4142135623731007
10
-131.03388760895717
20
-17.266773649020266
10
-124.298695518155
20
-10.531581558218088
42
-0.10055301137623135
10
-87.249873228225965
20
14.005449194186838
42
0.30557730297961655
10
-86.625000000000142
20
14.932422713279099
10
-86.625000000000114
20
61.426218290421858
42
-0.34003489811517773
10
-85.77032830383942
20
62.537650336455982
42
-0.15290575581396398
10
8.1237778617238376
20
58.427712176135444
42
-0.0059830255188779114
10
11.646740735019939
20
57.104994739249605
42
-0.030622052826735476
10
29.119854381112468
20
49.041483196518165
42
-0.27600759101213962
10
29.725000000000072
20
48.028747444516384
10
29.725000000000001
20
-9.5250000000000785
42
-0.41421356237309476
0
LWPOLYLINE
5
108
100
AcDbEntity
8
0
100
AcDbPolyline
90
24
70
1
43
0.0
10
23.799999999999997
20
44.424990000000008
42
-0.41421356237308815
10
23.049999999999997
20
45.174990000000008
10
23.049999999999997
20
46.02499000000001
42
0.41421356237309503
10
22.299999999999997
20
46.77499000000001
10
15.800000000000001
20
46.77499000000001
42
0.41421356237309503
10
15.050000000000001
20
46.02499000000001
10
15.050000000000006
20
45.174990000000008
42
-0.41421356237308982
10
14.299999999999999
20
44.424990000000008
10
12.124999999999996
20
44.424990000000008
42
0.4142135623730942
10
11.375000000000002
20
43.674990000000008
10
11.375
20
32.52499000000001
42
0.41421356237309503
10
12.125
20
31.77499000000001
10
14.300000000000006
20
31.77499000000001
42
-0.41421356237309337
10
15.050000000000008
20
31.024990000000003
10
15.050000000000008
20
30.174990000000008
42
0.41421356237309592
10
15.80000000000001
20
29.424990000000015
10
22.299999999999997
20
29.424990000000012
42
0.41421356237309503
10
23.049999999999997
20
30.174990000000012
10
23.049999999999994
20
31.024990000000003
42
-0.41421356237309337
10
23.800000000000004
20
31.77499000000001
10
25.974999999999998
20
31.774990000000006
42
0.41421356237309503
10
26.724999999999994
20
32.52499000000001
10
26.724999999999998
20
43.674990000000008
42
0.41421356237309681
10
25.974999999999994
20
44.424990000000008
0
LWPOLYLINE
5
109
100
AcDbEntity
8
0
100
AcDbPolyline
90
8
70
1
43
0.0
10
-75.432983126100936
20
-6.9610354185839096
10
-72.547150773207875
20
-17.731108381707031
42
0.4142135623730967
10
-71.628592119664177
20
-18.261438467596946
10
-58.250519425560547
20
-14.676794692927073
42
0.41421356237309426
10
-57.720189339670647
20
-13.758236039383384
10
-60.606021692563736
20
-2.9881630762602662
42
0.41421356237309592
10
-61.524580346107427
20
-2.4578329903703549
10
-74.902653040211035
20
-6.0424767650402238
42
0.41421356237309342
0
LWPOLYLINE
5
110
100
AcDbEntity
8
0
100
AcDbPolyline
90
8
70
1
43
0.0
10
-83.875000000000014
20
14.575000000000012
10
-83.875000000000014
20
3.4250000000000069
42
0.41421356237309503
10
-83.125000000000014
20
2.6750000000000056
10
-69.275000000000006
20
2.675000000000006
42
0.41421356237309531
10
-68.525000000000006
20
3.4250000000000069
10
-68.525000000000006
20
14.575000000000012
42
0.41421356237309503
10
-69.275000000000006
20
15.32500000000001
10
-83.125000000000014
20
15.32500000000001
42
0.41421356237309503
0
LWPOLYLINE
5
111
100
AcDbEntity
8
0
100
AcDbPolyline
90
8
70
1
43
0.0
10
-64.825000000000017
20
55.175000000000026
10
-64.825000000000017
20
44.02500000000002
42
0.41421356237309503
10
-64.075000000000017
20
43.27500000000002
10
-50.225000000000023
20
43.27500000000002
42
0.41421356237309503
10
-49.475000000000037
20
44.025000000000027
10
-49.475000000000023
20
55.17500000000004
42
0.41421356237309503
10
-50.225000000000023
20
55.925000000000026
10
-64.075000000000017
20
55.925000000000026
42
0.41421356237309503
0
LWPOLYLINE
5
112
100
AcDbEntity
8
0
100
AcDbPolyline
90
8
70
1
43
0.0
10
-26.724999999999753
20
36.624999999999844
10
-26.724999999999753
20
25.474999999999838
42
0.41421356237309503
10
-25.974999999999753
20
24.724999999999838
10
-12.124999999999755
20
24.724999999999838
42
0.41421356237309503
10
-11.37499999999976
20
25.474999999999838
10
-11.374999999999758
20
36.624999999999844
42
0.41421356237309503
10
-12.124999999999757
20
37.374999999999844
10
-25.974999999999753
20
37.374999999999844
42
0.41421356237309503
0
LWPOLYLINE
5
113
100
AcDbEntity
8
0
100
AcDbPolyline
90
8
70
1
43
0.0
10
-7.6750000000000007
20
43.675000000000004
10
-7.6750000000000007
20
32.525000000000006
42
0.41421356237309503
10
-6.9249999999999989
20
31.775000000000002
10
6.9249999999999989
20
31.775000000000002
42
0.41421356237309503
10
7.6750000000000007
20
32.525000000000006
10
7.6749999999999989
20
43.675000000000004
42
0.41421356237309503
10
6.9249999999999989
20
44.425000000000011
10
-6.9249999999999989
20
44.425000000000011
42
0.41421356237309503
0
LWPOLYLINE
5
114
100
AcDbEntity
8
0
100
AcDbPolyline
90
8
70
1
43
0.0
10
-26.724999999999753
20
17.574999999999839
10
-26.724999999999753
20
6.4249999999998337
42
0.41421356237309503
10
-25.974999999999753
20
5.6749999999998346
10
-12.124999999999755
20
5.6749999999998346
42
0.41421356237309503
10
-11.37499999999976
20
6.4249999999998337
10
-11.374999999999758
20
17.574999999999839
42
0.41421356237309503
10
-12.124999999999757
20
18.324999999999836
10
-25.974999999999753
20
18.324999999999839
42
0.41421356237309503
0
LWPOLYLINE
5
115
100
AcDbEntity
8
0
100
AcDbPolyline
90
8
70
1
43
0.0
10
-45.775000000000006
20
42.625
10
-45.775000000000006
20
31.474999999999991
42
0.41421356237309503
10
-45.025000000000006
20
30.724999999999998
10
-31.174999999999997
20
30.724999999999994
42
0.41421356237309503
10
-30.425000000000004
20
31.474999999999994
10
-30.425000000000001
20
42.625
42
0.41421356237309503
10
-31.175000000000001
20
43.375
10
-45.025000000000006
20
43.375
42
0.41421356237309503
0
LWPOLYLINE
5
116
100
AcDbEntity
8
0
100
AcDbPolyline
90
8
70
1
43
0.0
10
-83.875000000000014
20
33.625000000000014
10
-83.875000000000014
20
22.475000000000009
42
0.41421356237309503
10
-83.125000000000014
20
21.725000000000009
10
-69.275000000000006
20
21.725000000000009
42
0.41421356237309503
10
-68.525000000000006
20
22.475000000000009
10
-68.525000000000006
20
33.625000000000014
42
0.41421356237309503
10
-69.275000000000006
20
34.375000000000014
10
-83.125000000000014
20
34.375000000000014
42
0.41421356237309503
0
LWPOLYLINE
5
117
100
AcDbEntity
8
0
100
AcDbPolyline
90
8
70
1
43
0.0
10
-53.060891332880956
20
-1.994827819785554
10
-53.060891332880956
20
-13.144827819785556
42
0.41421356237309592
10
-52.310891332880949
20
-13.894827819785558
10
-38.460891332880962
20
-13.894827819785558
42
0.41421356237309503
10
-37.710891332880955
20
-13.144827819785558
10
-37.710891332880962
20
-1.994827819785554
42
0.41421356237309503
10
-38.460891332880962
20
-1.2448278197855545
10
-52.310891332880949
20
-1.2448278197855545
42
0.41421356237309481
0
LWPOLYLINE
5
118
100
AcDbEntity
8
0
100
AcDbPolyline
90
8
70
1
43
0.0
10
-64.825000000000017
20
17.075000000000017
10
-64.825000000000017
20
5.9250000000000131
42
0.41421356237309503
10
-64.075000000000017
20
5.175000000000014
10
-50.225000000000023
20
5.175000000000014
42
0.41421356237309503
10
-49.475000000000037
20
5.9250000000000131
10
-49.475000000000023
20
17.075000000000017
42
0.41421356237309503
10
-50.225000000000023
20
17.825000000000017
10
-64.075000000000017
20
17.825000000000017
42
0.41421356237309503
0
LWPOLYLINE
5
119
100
AcDbEntity
8
0
100
AcDbPolyline
90
8
70
1
43
0.0
10
-64.825000000000017
20
36.125000000000014
10
-64.825000000000017
20
24.975000000000023
42
0.41421356237309503
10
-64.075000000000017
20
24.225000000000016
10
-50.225000000000023
20
24.225000000000016
42
0.41421356237309503
10
-49.475000000000037
20
24.975000000000019
10
-49.475000000000023
20
36.125000000000014
42
0.41421356237309503
10
-50.225000000000023
20
36.875000000000014
10
-64.075000000000017
20
36.875000000000014
42
0.41421356237309503
0
LWPOLYLINE
5
120
100
AcDbEntity
8
0
100
AcDbPolyline
90
8
70
1
43
0.0
10
-26.724999999999753
20
55.674999999999848
10
-26.724999999999753
20
44.524999999999849
42
0.41421356237309503
10
-25.974999999999753
20
43.774999999999842
10
-12.124999999999755
20
43.774999999999842
42
0.41421356237309503
10
-11.37499999999976
20
44.524999999999849
10
-11.374999999999758
20
55.674999999999848
42
0.41421356237309503
10
-12.124999999999757
20
56.424999999999848
10
-25.974999999999753
20
56.424999999999848
42
0.41421356237309503
0
LWPOLYLINE
5
121
100
AcDbEntity
8
0
100
AcDbPolyline
90
8
70
1
43
0.0
10
-7.6750000000000007
20
24.625
10
-7.6750000000000007
20
13.474999999999998
42
0.41421356237309503
10
-6.9249999999999989
20
12.725
10
6.9249999999999989
20
12.725
42
0.41421356237309503
10
7.6750000000000007
20
13.475
10
7.6749999999999998
20
24.625
42
0.41421356237309503
10
6.9249999999999989
20
25.375
10
-6.9249999999999989
20
25.375
42
0.41421356237309503
0
LWPOLYLINE
5
122
100
AcDbEntity
8
0
100
AcDbPolyline
90
8
70
1
43
0.0
10
11.375000000000002
20
24.624990000000007
10
11.375000000000002
20
13.474990000000005
42
0.41421356237309503
10
12.125
20
12.724990000000002
10
25.974999999999998
20
12.724990000000002
42
0.41421356237309503
10
26.724999999999994
20
13.474990000000002
10
26.724999999999998
20
24.624990000000007
42
0.41421356237309681
10
25.974999999999994
20
25.374990000000007
10
12.124999999999996
20
25.374990000000007
42
0.4142135623730942
0
LWPOLYLINE
5
123
100
AcDbEntity
8
0
100
AcDbPolyline
90
8
70
1
43
0.0
10
-7.6750000000000007
20
5.5750000000000002
10
-7.6750000000000007
20
-5.575000000000002
42
0.41421356237309465
10
-6.9249999999999989
20
-6.3250000000000011
10
6.9249999999999989
20
-6.3250000000000011
42
0.41421356237309503
10
7.6750000000000007
20
-5.5750000000000011
10
7.6749999999999998
20
5.5750000000000011
42
0.41421356237309503
10
6.9249999999999989
20
6.3250000000000028
10
-6.9249999999999989
20
6.325000000000002
42
0.41421356237309548
0
LWPOLYLINE
5
124
100
AcDbEntity
8
0
100
AcDbPolyline
90
8
70
1
43
0.0
10
-45.775000000000006
20
61.675000000000004
10
-45.775000000000006
20
50.524999999999991
42
0.41421356237309503
10
-45.025000000000006
20
49.774999999999991
10
-31.174999999999997
20
49.774999999999991
42
0.41421356237309503
10
-30.425000000000004
20
50.524999999999991
10
-30.425000000000001
20
61.675000000000004
42
0.41421356237309503
10
-31.175000000000001
20
62.425000000000004
10
-45.025000000000006
20
62.425000000000004
42
0.41421356237309503
0
LWPOLYLINE
5
125
100
AcDbEntity
8
0
100
AcDbPolyline
90
8
70
1
43
0.0
10
-83.875000000000014
20
52.675000000000011
10
-83.875000000000014
20
41.52500000000002
42
0.41421356237309503
10
-83.125000000000014
20
40.775000000000013
10
-69.275000000000006
20
40.775000000000013
42
0.41421356237309503
10
-68.525000000000006
20
41.52500000000002
10
-68.525000000000006
20
52.675000000000011
42
0.41421356237309503
10
-69.275000000000006
20
53.425000000000011
10
-83.125000000000014
20
53.425000000000011
42
0.41421356237309503
0
LWPOLYLINE
5
126
100
AcDbEntity
8
0
100
AcDbPolyline
90
8
70
1
43
0.0
10
-45.775000000000006
20
23.574999999999999
10
-45.775000000000006
20
12.424999999999994
42
0.41421356237309503
10
-45.025000000000006
20
11.674999999999995
10
-31.174999999999997
20
11.674999999999994
42
0.41421356237309503
10
-30.425000000000004
20
12.424999999999994
10
-30.425000000000001
20
23.574999999999999
42
0.41421356237309503
10
-31.175000000000001
20
24.325000000000003
10
-45.025000000000006
20
24.325000000000003
42
0.41421356237309503
0
LWPOLYLINE
5
127
100
AcDbEntity
8
0
100
AcDbPolyline
90
38
70
1
43
0.0
10
-116.64426461181095
20
-8.1804515107730342
42
-0.26794919243109905
10
-117.36870898152767
20
-8.3745657945999579
42
0.26794919243108867
10
-118.09315335124438
20
-8.5686800784268939
10
-126.11949547971042
20
-16.59502220689312
42
0.4142135623730957
10
-126.11949547971039
20
-17.655682378672942
10
-124.82018676927828
20
-18.954991089105036
42
-0.41421356237307672
10
-124.82018676927824
20
-20.015651260884844
10
-125.42122753328744
20
-20.616692024894093
42
0.41421356237316131
10
-125.42122753328728
20
-21.677352196674047
10
-123.65346058032037
20
-23.445119149639986
42
0.41421356237302637
10
-122.59280040854067
20
-23.445119149639808
10
-121.99175964453201
20
-22.844078385631118
42
-0.41421356237312695
10
-120.93109947275218
20
-22.844078385631089
10
-108.04407838563162
20
-35.731099472751509
42
-0.41421356237308282
10
-108.04407838563159
20
-36.791759644531325
10
-108.64511914964001
20
-37.392800408539763
42
0.41421356237303864
10
-108.64511914964011
20
-38.453460580319486
10
-106.87735219667404
20
-40.221227533286211
42
0.41421356237315637
10
-105.8166920248941
20
-40.22122753328631
10
-105.21565126088568
20
-39.620186769277808
42
-0.41421356237311097
10
-104.15499108910581
20
-39.620186769277787
10
-102.85568237867287
20
-40.919495479710697
42
0.41421356237309265
10
-101.79502220689304
20
-40.91949547971069
10
-93.768680078426868
20
-32.893153351244386
42
0.26794919243107013
10
-93.574565794599934
20
-32.168708981527722
42
-0.26794919243105703
10
-93.380451510773028
20
-31.444264611811086
10
-91.365197184391391
20
-29.429010285429356
42
0.41421356237306689
10
-91.365197184391349
20
-28.368350113649583
10
-96.792241729997784
20
-22.941305568042441
42
0.41421356237313434
10
-97.85290190177767
20
-22.941305568042424
10
-99.868156228159606
20
-24.956559894424547
42
-0.41421356237310236
10
-100.92881639993945
20
-24.956559894424579
10
-110.15655989442462
20
-15.728816399939546
42
-0.41421356237308771
10
-110.15655989442462
20
-14.668156228159701
10
-108.14130556804284
20
-12.652901901777948
42
0.41421356237314721
10
-108.1413055680429
20
-11.59224172999803
10
-113.56835011365048
20
-6.1651971843920652
42
0.41421356237305917
10
-114.62901028543023
20
-6.1651971843921682
0
LWPOLYLINE
5
128
100
AcDbEntity
8
0
100
AcDbPolyline
90
38
70
1
43
0.0
10
-87.313761920832548
20
-27.97318363198756
10
-77.483540562959448
20
-22.297702684825857
42
0.2679491924311323
10
-77.108540562959448
20
-21.6481836319875
42
-0.26794919243113235
10
-76.733540562959462
20
-20.998664579149143
10
-74.265368162173942
20
-19.573664579149149
42
0.41421356237307494
10
-73.990849109335613
20
-18.549145526310863
10
-77.828349109335321
20
-11.902400552265071
42
0.41421356237311835
10
-78.852868162173678
20
-11.627881499426731
10
-81.32104056295951
20
-13.052881499426931
42
-0.41421356237310203
10
-82.345559615797853
20
-12.778362446588613
10
-88.870559615798044
20
-1.4767309272015101
42
-0.41421356237308443
10
-88.596040562959757
20
-0.45221187436318966
10
-86.127868162174096
20
0.97278812563692652
42
0.41421356237314572
10
-85.853349109335895
20
1.997307178475376
10
-89.690849109337364
20
8.6440521525201461
42
0.41421356237303997
10
-90.715368162175622
20
8.918571205358333
10
-93.183540562959664
20
7.4935712053592489
42
-0.26794919243107124
10
-93.933540562959536
20
7.4935712053591663
42
0.26794919243106236
10
-94.683540562959379
20
7.4935712053590775
10
-104.51376192083256
20
1.8180902581973002
42
0.41421356237309842
10
-104.78828097367088
20
0.79357120535896608
10
-103.86953097366953
20
-0.7977504740973016
42
-0.41421356237310991
10
-104.14405002650783
20
-1.8222695269356226
10
-104.88017161972539
20
-2.2472695269361127
42
0.41421356237316392
10
-105.15469067256359
20
-3.271788579774606
10
-103.90469067256298
20
-5.4368520892354137
42
0.41421356237303214
10
-102.88017161972471
20
-5.711371142073558
10
-102.14405002650784
20
-5.2863711420734552
42
-0.41421356237311174
10
-101.11953097366948
20
-5.5608901949117655
10
-92.007030973671164
20
-21.344203178880154
42
-0.41421356237310214
10
-92.281550026509478
20
-22.36872223171849
10
-93.017671619726457
20
-22.793722231718625
42
0.41421356237308127
10
-93.2921906725648
20
-23.818241284556944
10
-92.042190672564772
20
-25.98330479401816
42
0.41421356237309354
10
-91.017671619726457
20
-26.257823846856517
10
-90.281550026509507
20
-25.832823846856474
42
-0.41421356237309309
10
-89.257030973671206
20
-26.107342899694792
10
-88.338280973670877
20
-27.698664579149245
42
0.41421356237309054
0
LWPOLYLINE
5
129
100
AcDbEntity
8
0
100
AcDbPolyline
90
24
70
1
43
0.0
10
-30.335891332880948
20
-0.49482781978555468
42
-0.41421356237309354
10
-31.085891332880951
20
-1.2448278197855545
10
-33.260891332880952
20
-1.2448278197855545
42
0.41421356237309481
10
-34.010891332880959
20
-1.994827819785554
10
-34.010891332880952
20
-13.144827819785556
42
0.41421356237309592
10
-33.260891332880952
20
-13.894827819785558
10
-31.085891332880951
20
-13.894827819785554
42
-0.41421356237309337
10
-30.335891332880944
20
-14.644827819785554
10
-30.335891332880948
20
-15.494827819785563
42
0.41421356237309503
10
-29.585891332880948
20
-16.244827819785563
10
-23.085891332880951
20
-16.244827819785563
42
0.41421356237309503
10
-22.335891332880955
20
-15.494827819785563
10
-22.335891332880951
20
-14.644827819785554
42
-0.41421356237309337
10
-21.585891332880948
20
-13.894827819785558
10
-19.410891332880954
20
-13.894827819785558
42
0.41421356237309503
10
-18.660891332880958
20
-13.144827819785558
10
-18.660891332880954
20
-1.994827819785554
42
0.41421356237309503
10
-19.410891332880954
20
-1.2448278197855545
10
-21.585891332880948
20
-1.2448278197855576
42
-0.41421356237309365
10
-22.335891332880955
20
-0.49482781978555496
10
-22.335891332880951
20
0.35517218021443137
42
0.41421356237309509
10
-23.085891332880951
20
1.1051721802144314
10
-29.585891332880948
20
1.1051721802144316
42
0.41421356237309509
10
-30.335891332880944
20
0.35517218021443142
0
LWPOLYLINE
5
130
100
AcDbEntity
8
0
100
AcDbPolyline
90
24
70
1
43
0.0
10
15.050000000000004
20
7.0749900000000032
42
-0.41421356237309725
10
14.299999999999999
20
6.3249900000000032
10
12.124999999999996
20
6.3249900000000032
42
0.4142135623730937
10
11.375000000000002
20
5.574990000000005
10
11.375
20
-5.5750100000000016
42
0.41421356237309465
10
12.125
20
-6.3250099999999998
10
14.300000000000001
20
-6.3250100000000025
42
-0.41421356237309681
10
15.049999999999999
20
-7.0750099999999989
10
15.050000000000001
20
-7.9250099999999986
42
0.41421356237309503
10
15.800000000000001
20
-8.6750099999999986
10
22.300000000000001
20
-8.6750099999999986
42
0.41421356237309503
10
23.049999999999997
20
-7.9250099999999986
10
23.050000000000001
20
-7.0750099999999989
42
-0.4142135623730942
10
23.800000000000004
20
-6.3250099999999998
10
25.974999999999998
20
-6.3250099999999998
42
0.41421356237309503
10
26.724999999999994
20
-5.5750100000000007
10
26.724999999999998
20
5.5749900000000041
42
0.41421356237309681
10
25.974999999999994
20
6.3249900000000032
10
23.799999999999997
20
6.3249899999999961
42
-0.41421356237308682
10
23.049999999999997
20
7.0749900000000032
10
23.050000000000001
20
7.9249899999999958
42
0.41421356237309681
10
22.299999999999997
20
8.6749899999999958
10
15.800000000000002
20
8.6749899999999958
42
0.41421356237309592
10
15.049999999999999
20
7.9249899999999958
0
ENDSEC
0
SECTION
2
OBJECTS
0
DICTIONARY
5
C
100
AcDbDictionary
3
ACAD_GROUP
350
D
3
ACAD_MLINESTYLE
350
17
0
DICTIONARY
5
D
100
AcDbDictionary
0
DICTIONARY
5
1A
330
C
100
AcDbDictionary
0
DICTIONARY
5
17
100
AcDbDictionary
0
ENDSEC
0
EOF
