0
SECTION
2
HEADER
9
$INSUNITS
70
4
9
$ACADVER
1
AC1014
9
$HANDSEED
5
FFFF
0
ENDSEC
0
SECTION
2
TABLES
0
TABLE
2
VPORT
5
8
100
AcDbSymbolTable
0
ENDTAB
0
TABLE
2
LTYPE
5
5
100
AcDbSymbolTable
0
LTYPE
5
14
100
AcDbSymbolTableRecord
100
AcDbLinetypeTableRecord
2
BYBLOCK
70
0
0
LTYPE
5
15
100
AcDbSymbolTableRecord
100
AcDbLinetypeTableRecord
2
BYLAYER
70
0
0
ENDTAB
0
TABLE
2
LAYER
5
2
100
AcDbSymbolTable
70
2
0
LAYER
5
50
100
AcDbSymbolTableRecord
100
AcDbLayerTableRecord
2
0
70
0
6
CONTINUOUS
0
ENDTAB
0
TABLE
2
STYLE
5
3
100
AcDbSymbolTable
70
1
0
STYLE
5
11
100
AcDbSymbolTableRecord
100
AcDbTextStyleTableRecord
2
STANDARD
70
0
0
ENDTAB
0
TABLE
2
VIEW
5
6
100
AcDbSymbolTable
70
0
0
ENDTAB
0
TABLE
2
UCS
5
7
100
AcDbSymbolTable
70
0
0
ENDTAB
0
TABLE
2
APPID
5
9
100
AcDbSymbolTable
70
2
0
APPID
5
12
100
AcDbSymbolTableRecord
100
AcDbRegAppTableRecord
2
ACAD
70
0
0
ENDTAB
0
TABLE
2
DIMSTYLE
5
A
100
AcDbSymbolTable
70
1
0
ENDTAB
0
TABLE
2
BLOCK_RECORD
5
1
100
AcDbSymbolTable
70
1
0
BLOCK_RECORD
5
1F
100
AcDbSymbolTableRecord
100
AcDbBlockTableRecord
2
*MODEL_SPACE
0
BLOCK_RECORD
5
1B
100
AcDbSymbolTableRecord
100
AcDbBlockTableRecord
2
*PAPER_SPACE
0
ENDTAB
0
ENDSEC
0
SECTION
2
BLOCKS
0
BLOCK
5
20
100
AcDbEntity
100
AcDbBlockBegin
2
*MODEL_SPACE
0
ENDBLK
5
21
100
AcDbEntity
100
AcDbBlockEnd
0
BLOCK
5
1C
100
AcDbEntity
100
AcDbBlockBegin
2
*PAPER_SPACE
0
ENDBLK
5
1D
100
AcDbEntity
100
AcDbBlockEnd
0
ENDSEC
0
SECTION
2
ENTITIES
0
LINE
5
100
100
AcDbEntity
8
0
100
AcDbLine
10
-83.150000000000006
20
54.049999999999976
30
0
11
-69.250000000000028
21
40.150000000000034
31
0
0
LINE
5
101
100
AcDbEntity
8
0
100
AcDbLine
10
-83.150000000000006
20
40.150000000000034
30
0
11
-69.250000000000028
21
54.049999999999976
31
0
0
LINE
5
102
100
AcDbEntity
8
0
100
AcDbLine
10
-64.100000000000023
20
56.550000000000004
30
0
11
-50.200000000000017
21
42.649999999999999
31
0
0
LINE
5
103
100
AcDbEntity
8
0
100
AcDbLine
10
-50.200000000000003
20
56.550000000000004
30
0
11
-64.100000000000023
21
42.649999999999999
31
0
0
LINE
5
104
100
AcDbEntity
8
0
100
AcDbLine
10
-64.100000000000023
20
37.5
30
0
11
-50.200000000000017
21
23.599999999999998
31
0
0
LINE
5
105
100
AcDbEntity
8
0
100
AcDbLine
10
-50.200000000000003
20
37.5
30
0
11
-64.100000000000023
21
23.599999999999998
31
0
0
LINE
5
106
100
AcDbEntity
8
0
100
AcDbLine
10
-83.150000000000006
20
34.999999999999979
30
0
11
-69.250000000000028
21
21.10000000000003
31
0
0
LINE
5
107
100
AcDbEntity
8
0
100
AcDbLine
10
-83.150000000000006
20
21.10000000000003
30
0
11
-69.250000000000028
21
34.999999999999979
31
0
0
LINE
5
108
100
AcDbEntity
8
0
100
AcDbLine
10
-45.049999999999997
20
30.100000000000009
30
0
11
-31.149999999999999
21
44.000000000000014
31
0
0
LINE
5
109
100
AcDbEntity
8
0
100
AcDbLine
10
-31.149999999999999
20
30.100000000000009
30
0
11
-45.050000000000011
21
44.000000000000014
31
0
0
LINE
5
110
100
AcDbEntity
8
0
100
AcDbLine
10
-45.049999999999997
20
49.150000000000006
30
0
11
-31.149999999999999
21
63.050000000000011
31
0
0
LINE
5
111
100
AcDbEntity
8
0
100
AcDbLine
10
-31.149999999999999
20
49.150000000000006
30
0
11
-45.050000000000011
21
63.050000000000011
31
0
0
LINE
5
112
100
AcDbEntity
8
0
100
AcDbLine
10
-25.999999999999797
20
57.049999999999713
30
0
11
-12.099999999999797
21
43.149999999999707
31
0
0
LINE
5
113
100
AcDbEntity
8
0
100
AcDbLine
10
-25.999999999999797
20
43.149999999999707
30
0
11
-12.099999999999797
21
57.049999999999706
31
0
0
LINE
5
114
100
AcDbEntity
8
0
100
AcDbLine
10
-25.999999999999797
20
37.999999999999716
30
0
11
-12.099999999999797
21
24.099999999999714
31
0
0
LINE
5
115
100
AcDbEntity
8
0
100
AcDbLine
10
-25.999999999999797
20
24.09999999999971
30
0
11
-12.099999999999797
21
37.999999999999716
31
0
0
LINE
5
116
100
AcDbEntity
8
0
100
AcDbLine
10
-6.9499999999999993
20
45.050000000000011
30
0
11
6.9499999999999993
21
31.150000000000002
31
0
0
LINE
5
117
100
AcDbEntity
8
0
100
AcDbLine
10
-6.9499999999999993
20
31.150000000000002
30
0
11
6.9499999999999993
21
45.050000000000011
31
0
0
LINE
5
118
100
AcDbEntity
8
0
100
AcDbLine
10
6.9499999999999993
20
26.000000000000007
30
0
11
-6.9499999999999993
21
12.100000000000001
31
0
0
LINE
5
119
100
AcDbEntity
8
0
100
AcDbLine
10
-6.9499999999999993
20
26.000000000000007
30
0
11
6.9499999999999993
21
12.100000000000001
31
0
0
LINE
5
120
100
AcDbEntity
8
0
100
AcDbLine
10
12.099999999999998
20
12.099990000000009
30
0
11
25.999999999999996
21
25.999990000000004
31
0
0
LINE
5
121
100
AcDbEntity
8
0
100
AcDbLine
10
25.999999999999996
20
12.099990000000009
30
0
11
12.100000000000001
21
25.999990000000004
31
0
0
LINE
5
122
100
AcDbEntity
8
0
100
AcDbLine
10
12.099999999999998
20
31.149990000000013
30
0
11
25.999999999999996
21
45.049990000000008
31
0
0
LINE
5
123
100
AcDbEntity
8
0
100
AcDbLine
10
25.999999999999996
20
31.149990000000013
30
0
11
12.100000000000001
21
45.049990000000008
31
0
0
LINE
5
124
100
AcDbEntity
8
0
100
AcDbLine
10
-33.285891332880936
20
-0.61982781978551738
30
0
11
-19.385891332880913
21
-14.519827819785597
31
0
0
LINE
5
125
100
AcDbEntity
8
0
100
AcDbLine
10
-33.285891332880915
20
-14.519827819785586
30
0
11
-19.385891332880909
21
-0.61982781978547474
31
0
0
LINE
5
126
100
AcDbEntity
8
0
100
AcDbLine
10
-38.435891332880914
20
-14.519827819785597
30
0
11
-52.335891332880934
21
-0.61982781978551671
31
0
0
LINE
5
127
100
AcDbEntity
8
0
100
AcDbLine
10
-76.829293738432568
20
-21.082815214243695
30
0
11
-95.81704685103611
21
-15.995062101640352
31
0
0
LINE
5
128
100
AcDbEntity
8
0
100
AcDbLine
10
-113.10873070587805
20
-31.55033062898908
30
0
11
-93.451162188891672
21
-31.550330628988895
31
0
0
LINE
5
129
100
AcDbEntity
8
0
100
AcDbLine
10
-103.2799464473851
20
-21.721546370496014
30
0
11
-103.27994644738456
21
-41.379114887481983
31
0
0
LINE
5
130
100
AcDbEntity
8
0
100
AcDbLine
10
-126.57911488748148
20
-18.079946447384756
30
0
11
-106.92154637049592
21
-18.079946447384842
31
0
0
LINE
5
131
100
AcDbEntity
8
0
100
AcDbLine
10
-116.75033062898851
20
-8.2511621888915592
30
0
11
-116.75033062898892
21
-27.908730705877861
31
0
0
LINE
5
132
100
AcDbEntity
8
0
100
AcDbLine
10
-88.867046851036235
20
-28.032815214243755
30
0
11
-83.779293738432472
21
-9.0450621016402657
31
0
0
LINE
5
133
100
AcDbEntity
8
0
100
AcDbLine
10
-58.064609376714166
20
-15.274027858230239
30
0
11
-75.088563089057175
21
-5.4452435997372248
31
0
0
LINE
5
134
100
AcDbEntity
8
0
100
AcDbLine
10
-71.490978362132239
20
-18.871612585155166
30
0
11
-61.662194103639408
21
-1.8476588728121723
31
0
0
LINE
5
135
100
AcDbEntity
8
0
100
AcDbLine
10
-52.335891332880912
20
-14.519827819785586
30
0
11
-38.435891332880914
21
-0.61982781978547452
31
0
0
LINE
5
136
100
AcDbEntity
8
0
100
AcDbLine
10
-105.34204685103595
20
0.50272184045358737
30
0
11
-86.354293738432744
21
-4.5850312721500286
31
0
0
LINE
5
137
100
AcDbEntity
8
0
100
AcDbLine
10
-93.304293738432278
20
7.4527218404537905
30
0
11
-98.392046851036412
21
-11.535031272150057
31
0
0
LINE
5
138
100
AcDbEntity
8
0
100
AcDbLine
10
-107.22500000000002
20
4.9721180320647935
30
0
11
-119.22500000000002
21
15.472118032064795
31
0
0
LINE
5
139
100
AcDbEntity
8
0
100
AcDbLine
10
-119.22500000000002
20
4.9721180320647935
30
0
11
-107.22500000000002
21
15.472118032064795
31
0
0
LINE
5
140
100
AcDbEntity
8
0
100
AcDbLine
10
-110.72500000000002
20
16.539307543495521
30
0
11
-100.72500000000002
21
19.039307543495521
31
0
0
LINE
5
141
100
AcDbEntity
8
0
100
AcDbLine
10
-100.72500000000002
20
16.539307543495521
30
0
11
-110.72500000000002
21
19.039307543495521
31
0
0
LINE
5
142
100
AcDbEntity
8
0
100
AcDbLine
10
-112.62500000000004
20
18.972118032064795
30
0
11
-119.22500000000005
21
26.572118032064793
31
0
0
LINE
5
143
100
AcDbEntity
8
0
100
AcDbLine
10
-119.22500000000005
20
18.972118032064795
30
0
11
-112.62500000000004
21
26.572118032064793
31
0
0
LINE
5
144
100
AcDbEntity
8
0
100
AcDbLine
10
-109.22500000000002
20
20.106497054926749
30
0
11
-87.225000000000023
21
54.106497054926749
31
0
0
LINE
5
145
100
AcDbEntity
8
0
100
AcDbLine
10
-87.225000000000023
20
20.106497054926749
30
0
11
-109.22500000000002
21
54.106497054926749
31
0
0
CIRCLE
5
146
100
AcDbEntity
8
0
100
AcDbCircle
10
-90.725000000000023
20
16.18594177719104
30
0
40
2.5000000000000004
210
0
220
-0
230
1
0
CIRCLE
5
147
100
AcDbEntity
8
0
100
AcDbCircle
10
-115.72500000000004
20
1.4721180320647935
30
0
40
2.5
210
0
220
-0
230
1
0
CIRCLE
5
148
100
AcDbEntity
8
0
100
AcDbCircle
10
-66.675000000000068
20
60.125
30
0
40
3.749999999999996
210
0
220
-0
230
1
0
CIRCLE
5
149
100
AcDbEntity
8
0
100
AcDbCircle
10
-57.376142737482439
20
1.6306156756178232
30
0
40
3.749999999999996
210
0
220
-0
230
1
0
CIRCLE
5
150
100
AcDbEntity
8
0
100
AcDbCircle
10
-13.161769345940471
20
0.29999999999971494
30
0
40
3.749999999999996
210
0
220
-0
230
1
0
LINE
5
151
100
AcDbEntity
8
0
100
AcDbLine
10
-12.099999999999797
20
5.0499999999997147
30
0
11
-25.999999999999797
21
18.949999999999715
31
0
0
LINE
5
152
100
AcDbEntity
8
0
100
AcDbLine
10
-25.999999999999797
20
5.0499999999997112
30
0
11
-12.099999999999797
21
18.949999999999715
31
0
0
LINE
5
153
100
AcDbEntity
8
0
100
AcDbLine
10
-31.149999999999999
20
11.050000000000004
30
0
11
-45.050000000000011
21
24.950000000000006
31
0
0
LINE
5
154
100
AcDbEntity
8
0
100
AcDbLine
10
-45.049999999999997
20
11.050000000000004
30
0
11
-31.149999999999999
21
24.950000000000006
31
0
0
LINE
5
155
100
AcDbEntity
8
0
100
AcDbLine
10
-50.200000000000017
20
4.5499999999999954
30
0
11
-64.100000000000023
21
18.449999999999996
31
0
0
LINE
5
156
100
AcDbEntity
8
0
100
AcDbLine
10
-64.100000000000023
20
4.5499999999999954
30
0
11
-50.200000000000003
21
18.449999999999996
31
0
0
LINE
5
157
100
AcDbEntity
8
0
100
AcDbLine
10
-69.250000000000028
20
2.0500000000000269
30
0
11
-83.150000000000006
21
15.949999999999974
31
0
0
LINE
5
158
100
AcDbEntity
8
0
100
AcDbLine
10
-83.150000000000006
20
2.0500000000000265
30
0
11
-69.250000000000028
21
15.949999999999974
31
0
0
CIRCLE
5
159
100
AcDbEntity
8
0
100
AcDbCircle
10
-6.9499999999999993
20
49.800000000000004
30
0
40
3.749999999999996
210
0
220
-0
230
1
0
LINE
5
160
100
AcDbEntity
8
0
100
AcDbLine
10
6.9499999999999993
20
-6.9500000000000011
30
0
11
-6.9499999999999993
21
6.9500000000000011
31
0
0
LINE
5
161
100
AcDbEntity
8
0
100
AcDbLine
10
-6.9499999999999993
20
-6.9500000000000011
30
0
11
6.9499999999999993
21
6.9500000000000011
31
0
0
LINE
5
162
100
AcDbEntity
8
0
100
AcDbLine
10
25.999999999999996
20
-6.9500099999999936
30
0
11
12.100000000000001
21
6.9499900000000014
31
0
0
LINE
5
163
100
AcDbEntity
8
0
100
AcDbLine
10
12.099999999999998
20
-6.9500099999999936
30
0
11
25.999999999999996
21
6.9499900000000014
31
0
0
LWPOLYLINE
5
164
100
AcDbEntity
8
0
100
AcDbPolyline
90
12
70
1
43
0.0
10
10.691666666666688
20
10.829362986874859
42
-0.21342176528338438
10
10.400000000000034
20
11.481549480312289
10
10.400000000000034
20
26.199990000000007
42
0.99999999999999989
10
8.6499999999999986
20
26.199990000000007
10
8.6499999999999986
20
11.481549480312317
42
-0.21342176528338902
10
8.3583333333333325
20
10.829362986874877
42
0.44721359549995787
10
8.3583333333333325
20
8.2206170131251248
42
-0.21342176528338624
10
8.6499999999999986
20
7.5684305196876887
10
8.6500000000000004
20
2.3749900000000057
42
0.99999999999999989
10
10.400000000000025
20
2.3749900000000048
10
10.400000000000029
20
7.5684305196877126
42
-0.21342176528338369
10
10.691666666666688
20
8.2206170131251408
42
0.44721359549994805
0
LWPOLYLINE
5
165
100
AcDbEntity
8
0
100
AcDbPolyline
90
12
70
1
43
0.0
10
10.691666666666686
20
48.929362986874864
42
-0.21342176528338194
10
10.400000000000029
20
49.581549480312283
10
10.400000000000011
20
50.907095892590476
42
0.99999999999999989
10
8.6499999999999986
20
50.907095892590476
10
8.6499999999999986
20
49.581549480312304
42
-0.21342176528338264
10
8.3583333333333325
20
48.929362986874871
42
0.44721359549995393
10
8.3583333333333361
20
46.32061701312513
42
-0.21342176528338391
10
8.6499999999999986
20
45.668430519687689
10
8.6499999999999986
20
30.949990000000007
42
0.99999999999999989
10
10.400000000000034
20
30.949990000000007
10
10.400000000000038
20
45.668430519687718
42
-0.21342176528338752
10
10.691666666666691
20
46.320617013125151
42
0.44721359549994943
0
LWPOLYLINE
5
166
100
AcDbEntity
8
0
100
AcDbPolyline
90
37
70
1
43
0.0
10
8.0727372417255623
20
58.286663053095964
42
-0.31581026388319589
10
8.6500000000000075
20
57.46387660760135
10
8.6500000000000057
20
55.657095892590434
42
0.99999999999999989
10
10.400000000000006
20
55.657095892590426
10
10.399999999999975
20
56.149780718243385
42
-0.52759989943048702
10
11.592339628365549
20
56.965207330679405
42
-0.030622052873702163
10
29.048786418358652
20
48.909387228865782
42
-0.27600759101215033
10
29.575000000000081
20
48.02874744451637
10
29.575000000000003
20
-9.5250000000000803
42
-0.4142135623730937
10
28.574999999999999
20
-10.52500000000008
10
11.275000000000015
20
-10.525000000000059
42
-0.41421356237309354
10
10.400000000000018
20
-9.650000000000059
10
10.400000000000018
20
-2.3750099999999956
42
0.99999999999999989
10
8.6500000000000039
20
-2.375009999999993
10
8.6499999999999861
20
-9.6500000000000536
42
-0.41421356237309653
10
7.7749999999999826
20
-10.525000000000052
10
-14.810891332880905
20
-10.525000000000002
42
0.4142135623730957
10
-15.810891332880905
20
-11.525000000000002
10
-15.810891332880912
20
-17.09482781978555
42
-0.4142135623730957
10
-16.810891332880907
20
-18.09482781978555
10
-45.385891332880931
20
-18.094827819785493
42
0.19891236737965889
10
-95.837647575396602
20
-38.99262950097706
10
-102.57283966619798
20
-45.727821591779019
42
-0.4142135623730932
10
-103.9870532285711
20
-45.72782159177904
10
-130.92782159177921
20
-18.787053228571363
42
-0.41421356237308171
10
-130.92782159177921
20
-17.372839666198267
10
-124.19262950097766
20
-10.637647575396727
42
-0.014297939721314042
10
-119.55946506994817
20
-6.2621465306556985
42
0.21381841459160789
10
-119.22500000000002
20
-5.5157798266282221
10
-119.22500000000005
20
48.62639336585373
42
-0.27819946292852105
10
-118.69160038555404
20
49.510861612994859
42
-0.016410360796693668
10
-109.41989838027084
20
54.019664419161714
42
-0.10533895797903745
10
-109.01231358553952
20
54.106497054926749
10
-87.475000000000023
20
54.106497054926749
42
0.41421356237309503
10
-86.475000000000009
20
55.106497054926749
10
-86.475000000000065
20
61.426218290421879
42
-0.34003495951204371
10
-85.731807007978063
20
62.392680995679264
42
-0.15290575548862728
0
CIRCLE
5
167
100
AcDbEntity
8
0
100
AcDbCircle
10
-101.30725435658294
20
-16.566246567140126
30
0
40
3.749999999999996
210
0
220
-0
230
1
0
LINE
5
168
100
AcDbEntity
8
0
100
AcDbLine
10
-98.392046851036412
20
-11.535031272150057
30
0
11
-83.779293738432472
21
-9.0450621016402657
31
0
0
LINE
5
169
100
AcDbEntity
8
0
100
AcDbLine
10
-95.81704685103611
20
-15.995062101640352
30
0
11
-86.354293738432744
21
-4.5850312721500286
31
0
0
LINE
5
170
100
AcDbEntity
8
0
100
AcDbLine
10
-113.10873070587805
20
-31.55033062898908
30
0
11
-106.92154637049592
21
-18.079946447384842
31
0
0
LINE
5
171
100
AcDbEntity
8
0
100
AcDbLine
10
-103.2799464473851
20
-21.721546370496014
30
0
11
-116.75033062898892
21
-27.908730705877861
31
0
0
ENDSEC
0
SECTION
2
OBJECTS
0
DICTIONARY
5
C
100
AcDbDictionary
3
ACAD_GROUP
350
D
3
ACAD_MLINESTYLE
350
17
0
DICTIONARY
5
D
100
AcDbDictionary
0
DICTIONARY
5
1A
330
C
100
AcDbDictionary
0
DICTIONARY
5
17
100
AcDbDictionary
0
ENDSEC
0
EOF
