0
SECTION
2
HEADER
9
$INSUNITS
70
4
9
$ACADVER
1
AC1014
9
$HANDSEED
5
FFFF
0
ENDSEC
0
SECTION
2
TABLES
0
TABLE
2
VPORT
5
8
100
AcDbSymbolTable
0
ENDTAB
0
TABLE
2
LTYPE
5
5
100
AcDbSymbolTable
0
LTYPE
5
14
100
AcDbSymbolTableRecord
100
AcDbLinetypeTableRecord
2
BYBLOCK
70
0
0
LTYPE
5
15
100
AcDbSymbolTableRecord
100
AcDbLinetypeTableRecord
2
BYLAYER
70
0
0
ENDTAB
0
TABLE
2
LAYER
5
2
100
AcDbSymbolTable
70
2
0
LAYER
5
50
100
AcDbSymbolTableRecord
100
AcDbLayerTableRecord
2
0
70
0
6
CONTINUOUS
0
ENDTAB
0
TABLE
2
STYLE
5
3
100
AcDbSymbolTable
70
1
0
STYLE
5
11
100
AcDbSymbolTableRecord
100
AcDbTextStyleTableRecord
2
STANDARD
70
0
0
ENDTAB
0
TABLE
2
VIEW
5
6
100
AcDbSymbolTable
70
0
0
ENDTAB
0
TABLE
2
UCS
5
7
100
AcDbSymbolTable
70
0
0
ENDTAB
0
TABLE
2
APPID
5
9
100
AcDbSymbolTable
70
2
0
APPID
5
12
100
AcDbSymbolTableRecord
100
AcDbRegAppTableRecord
2
ACAD
70
0
0
ENDTAB
0
TABLE
2
DIMSTYLE
5
A
100
AcDbSymbolTable
70
1
0
ENDTAB
0
TABLE
2
BLOCK_RECORD
5
1
100
AcDbSymbolTable
70
1
0
BLOCK_RECORD
5
1F
100
AcDbSymbolTableRecord
100
AcDbBlockTableRecord
2
*MODEL_SPACE
0
BLOCK_RECORD
5
1B
100
AcDbSymbolTableRecord
100
AcDbBlockTableRecord
2
*PAPER_SPACE
0
ENDTAB
0
ENDSEC
0
SECTION
2
BLOCKS
0
BLOCK
5
20
100
AcDbEntity
100
AcDbBlockBegin
2
*MODEL_SPACE
0
ENDBLK
5
21
100
AcDbEntity
100
AcDbBlockEnd
0
BLOCK
5
1C
100
AcDbEntity
100
AcDbBlockBegin
2
*PAPER_SPACE
0
ENDBLK
5
1D
100
AcDbEntity
100
AcDbBlockEnd
0
ENDSEC
0
SECTION
2
ENTITIES
0
CIRCLE
5
100
100
AcDbEntity
8
0
100
AcDbCircle
10
9.5250000000000021
20
9.5249900000000007
30
0
40
1.2
210
0
220
-0
230
1
0
CIRCLE
5
101
100
AcDbEntity
8
0
100
AcDbCircle
10
-6.9500000000000375
20
49.80000000000004
30
0
40
1.2
210
0
220
-0
230
1
0
CIRCLE
5
102
100
AcDbEntity
8
0
100
AcDbCircle
10
-57.376142737482439
20
1.6306156756178232
30
0
40
1.2
210
0
220
-0
230
1
0
CIRCLE
5
103
100
AcDbEntity
8
0
100
AcDbCircle
10
-101.30725435658294
20
-16.566246567140126
30
0
40
1.2
210
0
220
-0
230
1
0
CIRCLE
5
104
100
AcDbEntity
8
0
100
AcDbCircle
10
-66.675000000000068
20
60.125
30
0
40
1.2
210
0
220
-0
230
1
0
CIRCLE
5
105
100
AcDbEntity
8
0
100
AcDbCircle
10
-13.161769345940513
20
0.29999999999991167
30
0
40
1.2
210
0
220
-0
230
1
0
CIRCLE
5
106
100
AcDbEntity
8
0
100
AcDbCircle
10
9.5250000000000021
20
47.624989999999997
30
0
40
1.2
210
0
220
-0
230
1
0
LWPOLYLINE
5
107
100
AcDbEntity
8
0
100
AcDbPolyline
90
27
70
1
43
0.0
10
-109.41989910452888
20
54.019664095894697
42
-0.10533915846113844
10
-109.01231358553945
20
54.106497054926749
10
-87.475000000000023
20
54.106497054926749
42
0.4142135623730846
10
-86.475000000000023
20
55.106497054926749
10
-86.475000000000094
20
61.426218290421858
42
-0.34003488897302003
10
-85.73180725240934
20
62.392680930729369
42
-0.15290575581396557
10
8.0727371917630144
20
58.286663071175653
42
-0.0059825183599534941
10
11.592339655845032
20
56.965207319985183
42
-0.03062205282673592
10
29.048786418358674
20
48.909387228865754
42
-0.2760075910121414
10
29.575000000000067
20
48.028747444516384
10
29.575000000000003
20
-9.5250000000000785
42
-0.4142135623730947
10
28.574999999999999
20
-10.525000000000082
10
-14.810891332880905
20
-10.525000000000002
42
0.4142135623730957
10
-15.810891332880903
20
-11.524999999999999
10
-15.810891332880912
20
-17.094827819785554
42
-0.41421356237309698
10
-16.810891332880917
20
-18.09482781978555
10
-45.38589133288081
20
-18.094827819785493
42
0.19891236737966977
10
-95.837647575398648
20
-38.992629500979078
10
-102.57283966619795
20
-45.727821591778984
42
-0.4142135623731098
10
-103.9870532285711
20
-45.727821591779033
10
-130.92782159177918
20
-18.787053228571363
42
-0.41421356237310336
10
-130.92782159177918
20
-17.372839666198274
10
-124.19262950097703
20
-10.63764757539608
42
-0.014297939721312044
10
-119.55946506994817
20
-6.2621465306556772
42
0.2138184145915826
10
-119.22500000000007
20
-5.5157798266282221
10
-119.22500000000005
20
48.626393365853744
42
-0.27819946292840475
10
-118.69160038555391
20
49.51086161299456
42
-0.016410359534263799
0
CIRCLE
5
108
100
AcDbEntity
8
0
100
AcDbCircle
10
-47.625
20
29.349999999999696
30
0
40
21.049999999999997
210
0
220
0
230
1
0
ENDSEC
0
SECTION
2
OBJECTS
0
DICTIONARY
5
C
100
AcDbDictionary
3
ACAD_GROUP
350
D
3
ACAD_MLINESTYLE
350
17
0
DICTIONARY
5
D
100
AcDbDictionary
0
DICTIONARY
5
1A
330
C
100
AcDbDictionary
0
DICTIONARY
5
17
100
AcDbDictionary
0
ENDSEC
0
EOF
