0
SECTION
2
HEADER
9
$INSUNITS
70
4
9
$ACADVER
1
AC1014
9
$HANDSEED
5
FFFF
0
ENDSEC
0
SECTION
2
TABLES
0
TABLE
2
VPORT
5
8
100
AcDbSymbolTable
0
ENDTAB
0
TABLE
2
LTYPE
5
5
100
AcDbSymbolTable
0
LTYPE
5
14
100
AcDbSymbolTableRecord
100
AcDbLinetypeTableRecord
2
BYBLOCK
70
0
0
LTYPE
5
15
100
AcDbSymbolTableRecord
100
AcDbLinetypeTableRecord
2
BYLAYER
70
0
0
ENDTAB
0
TABLE
2
LAYER
5
2
100
AcDbSymbolTable
70
2
0
LAYER
5
50
100
AcDbSymbolTableRecord
100
AcDbLayerTableRecord
2
0
70
0
6
CONTINUOUS
0
ENDTAB
0
TABLE
2
STYLE
5
3
100
AcDbSymbolTable
70
1
0
STYLE
5
11
100
AcDbSymbolTableRecord
100
AcDbTextStyleTableRecord
2
STANDARD
70
0
0
ENDTAB
0
TABLE
2
VIEW
5
6
100
AcDbSymbolTable
70
0
0
ENDTAB
0
TABLE
2
UCS
5
7
100
AcDbSymbolTable
70
0
0
ENDTAB
0
TABLE
2
APPID
5
9
100
AcDbSymbolTable
70
2
0
APPID
5
12
100
AcDbSymbolTableRecord
100
AcDbRegAppTableRecord
2
ACAD
70
0
0
ENDTAB
0
TABLE
2
DIMSTYLE
5
A
100
AcDbSymbolTable
70
1
0
ENDTAB
0
TABLE
2
BLOCK_RECORD
5
1
100
AcDbSymbolTable
70
1
0
BLOCK_RECORD
5
1F
100
AcDbSymbolTableRecord
100
AcDbBlockTableRecord
2
*MODEL_SPACE
0
BLOCK_RECORD
5
1B
100
AcDbSymbolTableRecord
100
AcDbBlockTableRecord
2
*PAPER_SPACE
0
ENDTAB
0
ENDSEC
0
SECTION
2
BLOCKS
0
BLOCK
5
20
100
AcDbEntity
100
AcDbBlockBegin
2
*MODEL_SPACE
0
ENDBLK
5
21
100
AcDbEntity
100
AcDbBlockEnd
0
BLOCK
5
1C
100
AcDbEntity
100
AcDbBlockBegin
2
*PAPER_SPACE
0
ENDBLK
5
1D
100
AcDbEntity
100
AcDbBlockEnd
0
ENDSEC
0
SECTION
2
ENTITIES
0
CIRCLE
5
100
100
AcDbEntity
8
0
100
AcDbCircle
10
-111.96821431508693
20
57.25283651430972
30
0
40
1.6000000000000003
210
0
220
-0
230
1
0
CIRCLE
5
101
100
AcDbEntity
8
0
100
AcDbCircle
10
-123.22500000000002
20
31.572118032064797
30
0
40
1.6000000000000003
210
0
220
-0
230
1
0
LWPOLYLINE
5
102
100
AcDbEntity
8
0
100
AcDbPolyline
90
12
70
1
43
0.0
10
-109.22499999999998
20
55.850492485377714
42
-0.29597983141445799
10
-109.81747848365691
20
54.937296879980124
42
0.017388600609651025
10
-119.69499554357046
20
50.110824590475652
42
0.27716475387383432
10
-120.22500000000002
20
49.22815580263736
10
-120.22500000000002
20
29.572118032064793
42
-0.41421356237309631
10
-121.22500000000002
20
28.572118032064793
10
-125.22500000000001
20
28.572118032064779
42
-0.41421356237309631
10
-126.22500000000002
20
29.572118032064797
10
-126.22500000000008
20
51.314066405454646
42
-0.27363282930052923
10
-124.41040976365792
20
54.381539947079183
42
-0.023403459918490899
10
-110.62252748605874
20
61.13766072083191
42
-0.53970424987386123
10
-109.22499999999999
20
60.220070453976469
0
CIRCLE
5
103
100
AcDbEntity
8
0
100
AcDbCircle
10
33.264438946741961
20
50.799057522432847
30
0
40
1.6000000000000003
210
0
220
-0
230
1
0
CIRCLE
5
104
100
AcDbEntity
8
0
100
AcDbCircle
10
-123.22499999999964
20
-4.2261046507014388
30
0
40
1.6000000000000003
210
0
220
-0
230
1
0
CIRCLE
5
105
100
AcDbEntity
8
0
100
AcDbCircle
10
-103.27994644738452
20
-51.159802107118473
30
0
40
1.6000000000000003
210
0
220
-0
230
1
0
CIRCLE
5
106
100
AcDbEntity
8
0
100
AcDbCircle
10
-136.35980210711904
20
-18.079946447384994
30
0
40
1.6000000000000003
210
0
220
-0
230
1
0
CIRCLE
5
107
100
AcDbEntity
8
0
100
AcDbCircle
10
-83.567215439701172
20
67.070106416105432
30
0
40
1.6000000000000003
210
0
220
-0
230
1
0
CIRCLE
5
108
100
AcDbEntity
8
0
100
AcDbCircle
10
32.915990257669733
20
-13.865990257669791
30
0
40
1.6000000000000003
210
0
220
-0
230
1
0
LWPOLYLINE
5
109
100
AcDbEntity
8
0
100
AcDbPolyline
90
23
70
1
43
0.0
10
-86.475000000000009
20
68.658184848849572
42
-0.34321389948162834
10
-85.720785651813884
20
69.627509053314924
42
-0.19199184356317836
10
34.784856172339921
20
53.745776832084509
42
-0.27148769664201206
10
36.574999999999996
20
50.691862643717229
10
36.575000000000003
20
-14.025000000000059
42
-0.4142135623730952
10
33.074999999999996
20
-17.525000000000059
10
-5.310891332880904
20
-17.525000000000055
42
0.41421356237309515
10
-8.8108913328809066
20
-21.025000000000059
10
-8.8108913328809031
20
-21.594827819785507
42
-0.41421356237309453
10
-12.310891332880907
20
-25.094827819785511
10
-45.385891332880952
20
-25.094827819785515
42
0.19891236737965884
10
-90.887900107090758
20
-43.942376969282869
10
-100.80507271323151
20
-53.859549575424268
42
-0.41421356237309037
10
-105.75482018153735
20
-53.85954957542431
10
-139.0595495754244
20
-20.554820181537909
42
-0.41421356237309126
10
-139.05954957542446
20
-15.605072713232053
10
-129.14237696928322
20
-5.687900107090595
42
-0.02086227680072418
10
-121.87071642505785
20
1.0010082958988162
42
-0.63841700195445517
10
-120.22500000000001
20
0.23743099240524757
10
-120.22499999999999
20
-4.6346627839014687
42
0.64349477258744514
10
-118.56835794617162
20
-5.3888651527282931
42
-0.083373196303120206
10
-87.100706766266967
20
13.903948228315329
42
0.3058230674695307
10
-86.475000000000009
20
14.83125862682364
0
LWPOLYLINE
5
110
100
AcDbEntity
8
0
100
AcDbPolyline
90
28
70
1
43
0.0
10
-122.54531342111972
20
-23.35118478082347
42
-0.37796447300925395
10
-121.22503422756131
20
-23.434027107305337
10
-108.6340271073058
20
-36.025034227561591
42
-0.37796447300913738
10
-108.55118478082376
20
-37.345313421119698
42
0.37796447300913077
10
-108.46834245434174
20
-38.665592614677777
10
-107.04303684963585
20
-40.09089821938381
42
0.37796447300924196
10
-105.72275765607748
20
-40.173740545865741
42
-0.37796447300921687
10
-104.40247846251914
20
-40.256582872347593
10
-103.98705322857134
20
-40.67200810629538
42
0.41421356237308948
10
-102.57283966619826
20
-40.672008106295358
10
-91.506618540628807
20
-29.605786980725881
42
0.41421356237308771
10
-91.506618540628779
20
-28.191573418352807
10
-96.580109695642193
20
-23.118082263339229
42
0.41421356237309048
10
-97.994323258015271
20
-23.11808226333919
10
-99.231760125092094
20
-24.355519130415914
42
-0.41421356237306195
10
-100.64597368746513
20
-24.355519130415892
10
-109.55551913041603
20
-15.445973687465411
42
-0.41421356237310103
10
-109.55551913041604
20
-14.031760125092262
10
-108.31808226333919
20
-12.794323258015472
42
0.41421356237309637
10
-108.31808226333916
20
-11.380109695642373
10
-113.39157341835255
20
-6.3066185406287207
42
0.41421356237308676
10
-114.80578698072563
20
-6.3066185406286701
10
-125.8720081062956
20
-17.372839666197621
42
0.41421356237310292
10
-125.87200810629565
20
-18.787053228570734
10
-125.45658287234775
20
-19.202478462518663
42
-0.37796447300927971
10
-125.37374054586601
20
-20.522757656077168
42
0.37796447300933017
10
-125.29089821938422
20
-21.84303684963578
10
-123.86559261467802
20
-23.268342454341671
42
0.37796447300921082
0
LINE
5
111
100
AcDbEntity
8
0
100
AcDbLine
10
12.099999999999998
20
32.149990000000017
30
0
11
12.1
21
44.049990000000008
31
0
0
ARC
5
112
100
AcDbEntity
8
0
100
AcDbCircle
10
13.100000000000005
20
44.049990000000008
30
0
40
0.99999999999999645
210
0
220
-0
230
1
100
AcDbArc
50
90
51
180
0
LINE
5
113
100
AcDbEntity
8
0
100
AcDbLine
10
24.034313483298444
20
45.049990000000015
30
0
11
24.999999999999996
21
45.049990000000008
31
0
0
ARC
5
114
100
AcDbEntity
8
0
100
AcDbCircle
10
24.999999999999996
20
44.049990000000008
30
0
40
1.0000000000000009
210
0
220
-0
230
1
100
AcDbArc
50
0
51
90
0
LINE
5
115
100
AcDbEntity
8
0
100
AcDbLine
10
25.999999999999996
20
44.049990000000008
30
0
11
25.999999999999996
21
32.14999000000001
31
0
0
ARC
5
116
100
AcDbEntity
8
0
100
AcDbCircle
10
24.999999999999996
20
32.14999000000001
30
0
40
1.0000000000000009
210
-0
220
0
230
1
100
AcDbArc
50
-90
51
0
0
LINE
5
117
100
AcDbEntity
8
0
100
AcDbLine
10
24.999999999999996
20
31.14999000000001
30
0
11
24.049999999999997
21
31.14999000000001
31
0
0
ARC
5
118
100
AcDbEntity
8
0
100
AcDbCircle
10
13.099999999999998
20
32.149990000000017
30
0
40
1.0000000000000009
210
0
220
0
230
1
100
AcDbArc
50
180
51
270.00000000000023
0
LWPOLYLINE
5
119
100
AcDbEntity
8
0
100
AcDbPolyline
90
8
70
1
43
0.0
10
-25.999999999999908
20
17.949999999999907
10
-25.999999999999908
20
6.0499999999999057
42
0.41421356237309503
10
-24.999999999999908
20
5.0499999999999057
10
-13.099999999999907
20
5.0499999999999083
42
0.4142135623730947
10
-12.099999999999911
20
6.0499999999999066
10
-12.099999999999909
20
17.949999999999907
42
0.41421356237309437
10
-13.099999999999909
20
18.949999999999907
10
-24.999999999999908
20
18.949999999999903
42
0.41421356237309437
0
LWPOLYLINE
5
120
100
AcDbEntity
8
0
100
AcDbPolyline
90
8
70
1
43
0.0
10
-45.050000000000018
20
23.949999999999982
10
-45.050000000000018
20
12.050000000000004
42
0.41421356237309503
10
-44.050000000000018
20
11.050000000000004
10
-32.150000000000006
20
11.050000000000004
42
0.41421356237309503
10
-31.150000000000006
20
12.050000000000004
10
-31.150000000000013
20
23.949999999999982
42
0.41421356237309503
10
-32.150000000000013
20
24.949999999999982
10
-44.050000000000026
20
24.949999999999982
42
0.41421356237309503
0
LWPOLYLINE
5
121
100
AcDbEntity
8
0
100
AcDbPolyline
90
8
70
1
43
0.0
10
-64.100000000000023
20
17.449999999999996
10
-64.100000000000023
20
5.549999999999998
42
0.41421356237309537
10
-63.10000000000003
20
4.5499999999999972
10
-51.200000000000017
20
4.5499999999999972
42
0.41421356237309437
10
-50.200000000000017
20
5.5499999999999954
10
-50.200000000000017
20
17.449999999999999
42
0.41421356237309503
10
-51.20000000000001
20
18.449999999999996
10
-63.100000000000023
20
18.449999999999999
42
0.4142135623730957
0
LWPOLYLINE
5
122
100
AcDbEntity
8
0
100
AcDbPolyline
90
8
70
1
43
0.0
10
-83.150000000000006
20
14.949999999999989
10
-83.150000000000006
20
3.0500000000000016
42
0.41421356237309503
10
-82.15000000000002
20
2.0500000000000012
10
-70.249999999999986
20
2.050000000000002
42
0.41421356237309492
10
-69.249999999999986
20
3.0500000000000016
10
-69.25
20
14.949999999999989
42
0.41421356237309503
10
-70.25
20
15.949999999999989
10
-82.15000000000002
20
15.949999999999989
42
0.41421356237309503
0
LWPOLYLINE
5
123
100
AcDbEntity
8
0
100
AcDbPolyline
90
8
70
1
43
0.0
10
-83.150000000000006
20
33.999999999999993
10
-83.150000000000006
20
22.100000000000009
42
0.41421356237309503
10
-82.15000000000002
20
21.100000000000009
10
-70.249999999999986
20
21.100000000000009
42
0.41421356237309503
10
-69.249999999999986
20
22.100000000000009
10
-69.25
20
33.999999999999993
42
0.41421356237309503
10
-70.25
20
34.999999999999993
10
-82.15000000000002
20
34.999999999999993
42
0.41421356237309503
0
LWPOLYLINE
5
124
100
AcDbEntity
8
0
100
AcDbPolyline
90
8
70
1
43
0.0
10
-63.10000000000003
20
23.599999999999998
10
-51.200000000000017
20
23.599999999999998
42
0.41421356237309503
10
-50.200000000000017
20
24.600000000000001
10
-50.200000000000017
20
36.5
42
0.4142135623730937
10
-51.20000000000001
20
37.5
10
-63.100000000000023
20
37.5
42
0.41421356237309503
10
-64.100000000000023
20
36.5
10
-64.100000000000023
20
24.600000000000001
42
0.41421356237309503
0
LWPOLYLINE
5
125
100
AcDbEntity
8
0
100
AcDbPolyline
90
8
70
1
43
0.0
10
-31.150000000000006
20
31.100000000000009
10
-31.150000000000006
20
42.999999999999979
42
0.41421356237309503
10
-32.150000000000013
20
43.999999999999979
10
-44.050000000000026
20
43.999999999999979
42
0.41421356237309503
10
-45.050000000000026
20
42.999999999999979
10
-45.050000000000018
20
31.100000000000001
42
0.41421356237309503
10
-44.050000000000018
20
30.100000000000009
10
-32.150000000000006
20
30.100000000000009
42
0.41421356237309503
0
LWPOLYLINE
5
126
100
AcDbEntity
8
0
100
AcDbPolyline
90
8
70
1
43
0.0
10
-24.999999999999908
20
24.099999999999909
10
-13.099999999999907
20
24.099999999999909
42
0.41421356237309503
10
-12.099999999999911
20
25.099999999999909
10
-12.099999999999909
20
36.999999999999901
42
0.41421356237309503
10
-13.099999999999909
20
37.999999999999908
10
-24.999999999999908
20
37.999999999999908
42
0.41421356237309503
10
-25.999999999999908
20
36.999999999999901
10
-25.999999999999908
20
25.099999999999909
42
0.41421356237309503
0
LWPOLYLINE
5
127
100
AcDbEntity
8
0
100
AcDbPolyline
90
8
70
1
43
0.0
10
-6.9500000000000117
20
5.9500000000000082
10
-6.9500000000000117
20
-5.9499999999999931
42
0.41421356237309437
10
-5.9500000000000108
20
-6.949999999999994
10
5.9499999999999931
20
-6.9499999999999931
42
0.4142135623730947
10
6.9499999999999957
20
-5.9499999999999957
10
6.9500000000000215
20
5.9500000000000064
42
0.41421356237309503
10
5.9500000000000242
20
6.9500000000000073
10
-5.9500000000000082
20
6.9500000000000082
42
0.41421356237309503
0
LWPOLYLINE
5
128
100
AcDbEntity
8
0
100
AcDbPolyline
90
8
70
1
43
0.0
10
12.099999999999998
20
24.999990000000004
10
12.099999999999993
20
13.099990000000012
42
0.4142135623730957
10
13.100000000000001
20
12.099990000000007
10
24.999999999999996
20
12.099990000000009
42
0.41421356237309503
10
25.999999999999996
20
13.099990000000011
10
25.999999999999996
20
24.999990000000004
42
0.41421356237309503
10
24.999999999999996
20
25.999990000000004
10
13.100000000000005
20
25.999990000000004
42
0.41421356237309503
0
LWPOLYLINE
5
129
100
AcDbEntity
8
0
100
AcDbPolyline
90
8
70
1
43
0.0
10
5.9500000000000242
20
45.050000000000011
10
-5.9500000000000082
20
45.050000000000011
42
0.41421356237309503
10
-6.9500000000000117
20
44.050000000000011
10
-6.9500000000000082
20
32.15000000000002
42
0.41421356237309437
10
-5.9500000000000108
20
31.150000000000013
10
5.9499999999999931
20
31.150000000000013
42
0.41421356237309404
10
6.949999999999994
20
32.150000000000006
10
6.9500000000000215
20
44.050000000000011
42
0.41421356237309437
0
LINE
5
130
100
AcDbEntity
8
0
100
AcDbLine
10
-19.385891332881027
20
-1.6198278197855185
30
0
11
-19.385891332881027
21
-13.519827819785654
31
0
0
ARC
5
131
100
AcDbEntity
8
0
100
AcDbCircle
10
-20.385891332881023
20
-13.519827819785654
30
0
40
1.0000000000000009
210
-0
220
0
230
1
100
AcDbArc
50
-90
51
0
0
LINE
5
132
100
AcDbEntity
8
0
100
AcDbLine
10
-31.33589133288103
20
-14.519827819785649
30
0
11
-32.285891332881029
21
-14.519827819785647
31
0
0
ARC
5
133
100
AcDbEntity
8
0
100
AcDbCircle
10
-32.285891332881029
20
-13.519827819785643
30
0
40
1.0000000000000009
210
0
220
0
230
1
100
AcDbArc
50
180
51
270
0
LINE
5
134
100
AcDbEntity
8
0
100
AcDbLine
10
-33.285891332881036
20
-13.519827819785647
30
0
11
-33.28589133288105
21
-1.6198278197855598
31
0
0
ARC
5
135
100
AcDbEntity
8
0
100
AcDbCircle
10
-32.28589133288105
20
-1.6198278197855585
30
0
40
1
210
0
220
0
230
1
100
AcDbArc
50
90.000000000000398
51
180
0
LINE
5
136
100
AcDbEntity
8
0
100
AcDbLine
10
-32.285891332881057
20
-0.61982781978555801
30
0
11
-31.335891332881019
21
-0.6198278197855549
31
0
0
ARC
5
137
100
AcDbEntity
8
0
100
AcDbCircle
10
-20.385891332881027
20
-1.619827819785518
30
0
40
1.0000000000000009
210
-0
220
0
230
1
100
AcDbArc
50
0
51
90.000000000000199
0
LWPOLYLINE
5
138
100
AcDbEntity
8
0
100
AcDbPolyline
90
8
70
1
43
0.0
10
-52.335891332881047
20
-1.6198278197855598
10
-52.335891332881026
20
-13.519827819785647
42
0.41421356237309437
10
-51.33589133288104
20
-14.519827819785647
10
-39.435891332881027
20
-14.519827819785656
42
0.41421356237309503
10
-38.435891332881042
20
-13.519827819785654
10
-38.435891332881027
20
-1.6198278197855187
42
0.41421356237309653
10
-39.435891332881035
20
-0.61982781978551915
10
-51.335891332881054
20
-0.61982781978555868
42
0.41421356237309548
0
LWPOLYLINE
5
139
100
AcDbEntity
8
0
100
AcDbPolyline
90
8
70
1
43
0.0
10
-58.323428421816843
20
-14.308102031941177
10
-61.403375058536973
20
-2.813584699101304
42
0.41421356237309293
10
-62.628119929928552
20
-2.1064779179147664
10
-74.122637262768208
20
-5.1864245546347476
42
0.41421356237309093
10
-74.829744043954761
20
-6.4111694260263281
10
-71.749797407234908
20
-17.905686758866096
42
0.4142135623730922
10
-70.525052535843329
20
-18.612793540052657
10
-59.030535203003389
20
-15.532846903332779
42
0.41421356237310264
0
LWPOLYLINE
5
140
100
AcDbEntity
8
0
100
AcDbPolyline
90
8
70
1
43
0.0
10
-83.150000000000006
20
53.049999999999997
10
-83.150000000000006
20
41.150000000000006
42
0.41421356237309503
10
-82.15000000000002
20
40.150000000000006
10
-70.249999999999986
20
40.150000000000006
42
0.41421356237309503
10
-69.249999999999986
20
41.150000000000006
10
-69.25
20
53.049999999999997
42
0.41421356237309503
10
-70.25
20
54.049999999999997
10
-82.15000000000002
20
54.049999999999997
42
0.41421356237309503
0
LWPOLYLINE
5
141
100
AcDbEntity
8
0
100
AcDbPolyline
90
8
70
1
43
0.0
10
-63.10000000000003
20
42.649999999999999
10
-51.200000000000017
20
42.649999999999999
42
0.41421356237309503
10
-50.200000000000024
20
43.649999999999991
10
-50.200000000000017
20
55.550000000000004
42
0.41421356237309503
10
-51.20000000000001
20
56.550000000000004
10
-63.100000000000023
20
56.550000000000004
42
0.41421356237309503
10
-64.100000000000023
20
55.550000000000004
10
-64.100000000000023
20
43.649999999999991
42
0.41421356237309503
0
LWPOLYLINE
5
142
100
AcDbEntity
8
0
100
AcDbPolyline
90
8
70
1
43
0.0
10
-31.150000000000006
20
50.149999999999999
10
-31.150000000000006
20
62.04999999999999
42
0.41421356237309503
10
-32.150000000000013
20
63.04999999999999
10
-44.050000000000026
20
63.04999999999999
42
0.41421356237309503
10
-45.050000000000026
20
62.04999999999999
10
-45.050000000000018
20
50.149999999999999
42
0.41421356237309503
10
-44.050000000000018
20
49.149999999999999
10
-32.150000000000006
20
49.149999999999999
42
0.41421356237309503
0
LWPOLYLINE
5
143
100
AcDbEntity
8
0
100
AcDbPolyline
90
8
70
1
43
0.0
10
-24.999999999999908
20
43.149999999999906
10
-13.099999999999907
20
43.149999999999906
42
0.41421356237309503
10
-12.099999999999911
20
44.149999999999906
10
-12.099999999999911
20
56.049999999999898
42
0.41421356237309503
10
-13.099999999999909
20
57.049999999999905
10
-24.999999999999908
20
57.049999999999905
42
0.41421356237309503
10
-25.999999999999908
20
56.049999999999905
10
-25.999999999999908
20
44.149999999999906
42
0.41421356237309503
0
LWPOLYLINE
5
144
100
AcDbEntity
8
0
100
AcDbPolyline
90
8
70
1
43
0.0
10
5.9500000000000242
20
26.000000000000011
10
-5.9500000000000082
20
26.000000000000011
42
0.41421356237309503
10
-6.9500000000000117
20
25.000000000000007
10
-6.9500000000000082
20
13.100000000000009
42
0.41421356237309437
10
-5.9500000000000108
20
12.100000000000009
10
5.9499999999999931
20
12.100000000000009
42
0.4142135623730947
10
6.9499999999999948
20
13.100000000000007
10
6.9500000000000215
20
25.000000000000004
42
0.4142135623730957
0
LINE
5
145
100
AcDbEntity
8
0
100
AcDbLine
10
12.099999999999998
20
-5.9500099999999909
30
0
11
12.1
21
5.9499900000000014
31
0
0
ARC
5
146
100
AcDbEntity
8
0
100
AcDbCircle
10
13.100000000000005
20
5.9499900000000014
30
0
40
0.99999999999999978
210
0
220
-0
230
1
100
AcDbArc
50
90
51
180
0
LINE
5
147
100
AcDbEntity
8
0
100
AcDbLine
10
13.100000000000005
20
6.9499900000000014
30
0
11
14.065686516701557
21
6.9499900000000014
31
0
0
ARC
5
148
100
AcDbEntity
8
0
100
AcDbCircle
10
24.999999999999996
20
5.9499900000000006
30
0
40
1.0000000000000009
210
0
220
0
230
1
100
AcDbArc
50
0
51
90
0
LINE
5
149
100
AcDbEntity
8
0
100
AcDbLine
10
25.999999999999996
20
5.9499900000000006
30
0
11
25.999999999999996
21
-5.9500099999999918
31
0
0
ARC
5
150
100
AcDbEntity
8
0
100
AcDbCircle
10
24.999999999999996
20
-5.9500099999999918
30
0
40
0.99999999999999978
210
-0
220
0
230
1
100
AcDbArc
50
-90
51
0
0
LINE
5
151
100
AcDbEntity
8
0
100
AcDbLine
10
14.049999999999997
20
-6.9500099999999918
30
0
11
13.100000000000001
21
-6.9500099999999909
31
0
0
ARC
5
152
100
AcDbEntity
8
0
100
AcDbCircle
10
13.099999999999998
20
-5.9500099999999918
30
0
40
1.0000000000000009
210
0
220
0
230
1
100
AcDbArc
50
180
51
270.00000000000023
0
LWPOLYLINE
5
153
100
AcDbEntity
8
0
100
AcDbPolyline
90
28
70
1
43
0.0
10
-80.550768334648268
20
-12.637032134521471
42
-0.41421356237310791
10
-81.916793738432716
20
-12.271006730737028
10
-88.216793738432557
20
-1.3590866430533979
42
-0.41421356237308327
10
-87.850768334648194
20
0.0069387607310089638
10
-86.335223878025232
20
0.88193876073127342
42
0.41421356237307994
10
-85.969198474240869
20
2.2479641645156958
10
-89.55669847424106
20
8.4616964366690954
42
0.41421356237308243
10
-90.922723878025465
20
8.8277218404535382
10
-104.47602144725187
20
1.0027218404542322
42
0.41421356237309442
10
-104.84204685103634
20
-0.36330356333019065
10
-104.54829685103601
20
-0.87209348805415299
42
-0.37796447300928332
10
-104.80999070852297
20
-2.1688264308584859
42
0.37796447300932851
10
-105.07168456600988
20
-3.4655593736629453
10
-104.06384130765892
20
-5.2111951031921491
42
0.37796447300920383
10
-102.80999070852296
20
-5.6329280459962447
42
-0.37796447300923874
10
-101.55614010938692
20
-6.0546609888004976
10
-92.652953592686004
20
-21.475432384989766
42
-0.37796447300914948
10
-92.914647450172637
20
-22.772165327793839
42
0.37796447300917085
10
-93.176341307659271
20
-24.068898270597934
10
-92.176341307659243
20
-25.80094907816693
42
0.37796447300923292
10
-90.922490708523242
20
-26.222682020971149
42
-0.37796447300924219
10
-89.668640109387226
20
-26.644414963775365
10
-89.367046851036477
20
-27.166789810459122
42
0.41421356237308987
10
-88.001021447252043
20
-27.532815214243552
10
-74.447723878025485
20
-19.707815214243713
42
0.41421356237309293
10
-74.081698474241023
20
-18.341789810459282
10
-77.669198474240901
20
-12.128057538305843
42
0.41421356237310114
10
-79.035223878025349
20
-11.762032134521384
0
LINE
5
154
100
AcDbEntity
8
0
100
AcDbLine
10
16.050000000000001
20
8.6999899999999961
30
0
11
22.049999999999997
21
8.6999899999999961
31
0
0
LINE
5
155
100
AcDbEntity
8
0
100
AcDbLine
10
22.065686516701554
20
-8.7000099999999936
30
0
11
16.03431348329844
21
-8.7000099999999936
31
0
0
LINE
5
156
100
AcDbEntity
8
0
100
AcDbLine
10
-23.320204816179455
20
-16.269827819785579
30
0
11
-29.351577849582597
21
-16.269827819785579
31
0
0
LINE
5
157
100
AcDbEntity
8
0
100
AcDbLine
10
-29.351577849582586
20
1.1301721802144093
30
0
11
-23.335891332881022
21
1.13017218021441
31
0
0
LINE
5
158
100
AcDbEntity
8
0
100
AcDbLine
10
16.050000000000008
20
46.799990000000008
30
0
11
22.050000000000001
21
46.799990000000008
31
0
0
LINE
5
159
100
AcDbEntity
8
0
100
AcDbLine
10
22.065686516701561
20
29.39999000000002
30
0
11
16.050000000000011
21
29.39999000000002
31
0
0
ARC
5
160
100
AcDbEntity
8
0
100
AcDbCircle
10
24.034313483298444
20
46.049990000000001
30
0
40
0.99999999999999489
210
0
220
0
230
1
100
AcDbArc
50
187.18075578145789
51
270
0
ARC
5
161
100
AcDbEntity
8
0
100
AcDbCircle
10
24.050000000000004
20
30.14999000000001
30
0
40
1.0000000000000009
210
0
220
0
230
1
100
AcDbArc
50
90.000000000000398
51
172.8192442185414
0
ARC
5
162
100
AcDbEntity
8
0
100
AcDbCircle
10
22.065686516701561
20
30.39999000000002
30
0
40
1.0000000000000009
210
-0
220
0
230
1
100
AcDbArc
50
270
51
352.81924421854148
0
ARC
5
163
100
AcDbEntity
8
0
100
AcDbCircle
10
16.050000000000011
20
30.399990000000017
30
0
40
1.0000000000000011
210
0
220
0
230
1
100
AcDbArc
50
187.18075578145866
51
270
0
ARC
5
164
100
AcDbEntity
8
0
100
AcDbCircle
10
14.06568651670157
20
30.14999000000001
30
0
40
0.99999999999999811
210
0
220
-0
230
1
100
AcDbArc
50
7.1807557814583109
51
90
0
LINE
5
165
100
AcDbEntity
8
0
100
AcDbLine
10
14.06568651670157
20
31.14999000000001
30
0
11
13.100000000000001
21
31.14999000000001
31
0
0
LINE
5
166
100
AcDbEntity
8
0
100
AcDbLine
10
13.100000000000005
20
45.049990000000008
30
0
11
14.065686516701561
21
45.049990000000008
31
0
0
ARC
5
167
100
AcDbEntity
8
0
100
AcDbCircle
10
14.065686516701552
20
46.049990000000008
30
0
40
1.0000000000000053
210
0
220
0
230
1
100
AcDbArc
50
270.00000000000051
51
352.81924421854177
0
ARC
5
168
100
AcDbEntity
8
0
100
AcDbCircle
10
16.050000000000004
20
45.799990000000008
30
0
40
0.99999999999999645
210
0
220
-0
230
1
100
AcDbArc
50
89.999999999999801
51
172.81924421854174
0
ARC
5
169
100
AcDbEntity
8
0
100
AcDbCircle
10
22.050000000000001
20
45.799990000000008
30
0
40
1.0000000000000049
210
0
220
-0
230
1
100
AcDbArc
50
7.1807557814582088
51
90
0
ARC
5
170
100
AcDbEntity
8
0
100
AcDbCircle
10
14.049999999999995
20
-7.9500099999999936
30
0
40
1.0000000000000027
210
0
220
-0
230
1
100
AcDbArc
50
7.1807557814583607
51
89.999999999999901
0
ARC
5
171
100
AcDbEntity
8
0
100
AcDbCircle
10
14.065686516701557
20
7.9499900000000023
30
0
40
1.0000000000000009
210
0
220
0
230
1
100
AcDbArc
50
270
51
352.81924421854148
0
ARC
5
172
100
AcDbEntity
8
0
100
AcDbCircle
10
16.050000000000001
20
7.6999899999999952
30
0
40
0.99999999999999978
210
0
220
-0
230
1
100
AcDbArc
50
90
51
172.81924421854157
0
ARC
5
173
100
AcDbEntity
8
0
100
AcDbCircle
10
22.049999999999997
20
7.6999899999999943
30
0
40
1.0000000000000004
210
0
220
-0
230
1
100
AcDbArc
50
7.1807557814584122
51
90
0
ARC
5
174
100
AcDbEntity
8
0
100
AcDbCircle
10
24.03431348329844
20
7.949990000000005
30
0
40
1.0000000000000011
210
0
220
0
230
1
100
AcDbArc
50
187.18075578145871
51
270
0
LINE
5
175
100
AcDbEntity
8
0
100
AcDbLine
10
24.03431348329844
20
6.9499900000000032
30
0
11
24.999999999999996
21
6.9499900000000014
31
0
0
LINE
5
176
100
AcDbEntity
8
0
100
AcDbLine
10
24.999999999999996
20
-6.9500099999999918
30
0
11
24.049999999999997
21
-6.9500099999999909
31
0
0
ARC
5
177
100
AcDbEntity
8
0
100
AcDbCircle
10
24.049999999999997
20
-7.9500099999999909
30
0
40
0.99999999999999978
210
0
220
-0
230
1
100
AcDbArc
50
90
51
172.8192442185418
0
ARC
5
178
100
AcDbEntity
8
0
100
AcDbCircle
10
22.065686516701554
20
-7.7000099999999936
30
0
40
0.99999999999999978
210
-0
220
0
230
1
100
AcDbArc
50
270
51
352.81924421854177
0
ARC
5
179
100
AcDbEntity
8
0
100
AcDbCircle
10
16.03431348329844
20
-7.7000099999999936
30
0
40
1
210
0
220
0
230
1
100
AcDbArc
50
187.18075578145823
51
270
0
ARC
5
180
100
AcDbEntity
8
0
100
AcDbCircle
10
-31.33589133288103
20
-15.519827819785647
30
0
40
1
210
0
220
-0
230
1
100
AcDbArc
50
7.1807557814601921
51
90
0
ARC
5
181
100
AcDbEntity
8
0
100
AcDbCircle
10
-31.335891332881026
20
0.38017218021444021
30
0
40
0.99999999999999512
210
0
220
0
230
1
100
AcDbArc
50
270.0000000000004
51
352.8192442185408
0
ARC
5
182
100
AcDbEntity
8
0
100
AcDbCircle
10
-29.351577849582586
20
0.13017218021440929
30
0
40
1
210
0
220
-0
230
1
100
AcDbArc
50
90
51
172.81924421854077
0
ARC
5
183
100
AcDbEntity
8
0
100
AcDbCircle
10
-23.335891332881022
20
0.13017218021440957
30
0
40
1
210
0
220
-0
230
1
100
AcDbArc
50
7.1807557814601921
51
90
0
ARC
5
184
100
AcDbEntity
8
0
100
AcDbCircle
10
-21.351577849582583
20
0.3801721802144814
30
0
40
1.0000000000000049
210
0
220
0
230
1
100
AcDbArc
50
187.18075578146048
51
270
0
LINE
5
185
100
AcDbEntity
8
0
100
AcDbLine
10
-21.351577849582583
20
-0.61982781978552359
30
0
11
-20.38589133288103
21
-0.61982781978551882
31
0
0
LINE
5
186
100
AcDbEntity
8
0
100
AcDbLine
10
-20.385891332881023
20
-14.519827819785656
30
0
11
-21.335891332881019
21
-14.519827819785656
31
0
0
ARC
5
187
100
AcDbEntity
8
0
100
AcDbCircle
10
-21.335891332881026
20
-15.51982781978565
30
0
40
0.99999999999999423
210
0
220
-0
230
1
100
AcDbArc
50
89.999999999999588
51
172.81924421853975
0
ARC
5
188
100
AcDbEntity
8
0
100
AcDbCircle
10
-23.320204816179455
20
-15.269827819785577
30
0
40
1.0000000000000009
210
-0
220
0
230
1
100
AcDbArc
50
270
51
352.81924421853944
0
ARC
5
189
100
AcDbEntity
8
0
100
AcDbCircle
10
-29.351577849582597
20
-15.269827819785577
30
0
40
1
210
0
220
0
230
1
100
AcDbArc
50
187.18075578146036
51
270
0
ENDSEC
0
SECTION
2
OBJECTS
0
DICTIONARY
5
C
100
AcDbDictionary
3
ACAD_GROUP
350
D
3
ACAD_MLINESTYLE
350
17
0
DICTIONARY
5
D
100
AcDbDictionary
0
DICTIONARY
5
1A
330
C
100
AcDbDictionary
0
DICTIONARY
5
17
100
AcDbDictionary
0
ENDSEC
0
EOF
