0
SECTION
2
HEADER
9
$INSUNITS
70
4
9
$ACADVER
1
AC1014
9
$HANDSEED
5
FFFF
0
ENDSEC
0
SECTION
2
TABLES
0
TABLE
2
VPORT
5
8
100
AcDbSymbolTable
0
ENDTAB
0
TABLE
2
LTYPE
5
5
100
AcDbSymbolTable
0
LTYPE
5
14
100
AcDbSymbolTableRecord
100
AcDbLinetypeTableRecord
2
BYBLOCK
70
0
0
LTYPE
5
15
100
AcDbSymbolTableRecord
100
AcDbLinetypeTableRecord
2
BYLAYER
70
0
0
ENDTAB
0
TABLE
2
LAYER
5
2
100
AcDbSymbolTable
70
2
0
LAYER
5
50
100
AcDbSymbolTableRecord
100
AcDbLayerTableRecord
2
0
70
0
6
CONTINUOUS
0
ENDTAB
0
TABLE
2
STYLE
5
3
100
AcDbSymbolTable
70
1
0
STYLE
5
11
100
AcDbSymbolTableRecord
100
AcDbTextStyleTableRecord
2
STANDARD
70
0
0
ENDTAB
0
TABLE
2
VIEW
5
6
100
AcDbSymbolTable
70
0
0
ENDTAB
0
TABLE
2
UCS
5
7
100
AcDbSymbolTable
70
0
0
ENDTAB
0
TABLE
2
APPID
5
9
100
AcDbSymbolTable
70
2
0
APPID
5
12
100
AcDbSymbolTableRecord
100
AcDbRegAppTableRecord
2
ACAD
70
0
0
ENDTAB
0
TABLE
2
DIMSTYLE
5
A
100
AcDbSymbolTable
70
1
0
ENDTAB
0
TABLE
2
BLOCK_RECORD
5
1
100
AcDbSymbolTable
70
1
0
BLOCK_RECORD
5
1F
100
AcDbSymbolTableRecord
100
AcDbBlockTableRecord
2
*MODEL_SPACE
0
BLOCK_RECORD
5
1B
100
AcDbSymbolTableRecord
100
AcDbBlockTableRecord
2
*PAPER_SPACE
0
ENDTAB
0
ENDSEC
0
SECTION
2
BLOCKS
0
BLOCK
5
20
100
AcDbEntity
100
AcDbBlockBegin
2
*MODEL_SPACE
0
ENDBLK
5
21
100
AcDbEntity
100
AcDbBlockEnd
0
BLOCK
5
1C
100
AcDbEntity
100
AcDbBlockBegin
2
*PAPER_SPACE
0
ENDBLK
5
1D
100
AcDbEntity
100
AcDbBlockEnd
0
ENDSEC
0
SECTION
2
ENTITIES
0
CIRCLE
5
100
100
AcDbEntity
8
0
100
AcDbCircle
10
9.5250000000000021
20
9.5249900000000007
30
0
40
1.2
210
0
220
-0
230
1
0
CIRCLE
5
101
100
AcDbEntity
8
0
100
AcDbCircle
10
-7.0000000000000115
20
49.850000000000023
30
0
40
1.2
210
0
220
-0
230
1
0
CIRCLE
5
102
100
AcDbEntity
8
0
100
AcDbCircle
10
-57.376142737482439
20
1.6306156756178232
30
0
40
1.2
210
0
220
-0
230
1
0
CIRCLE
5
103
100
AcDbEntity
8
0
100
AcDbCircle
10
-101.30725435658294
20
-16.566246567140126
30
0
40
1.2
210
0
220
-0
230
1
0
CIRCLE
5
104
100
AcDbEntity
8
0
100
AcDbCircle
10
-66.675000000000068
20
60.125
30
0
40
1.2
210
0
220
-0
230
1
0
CIRCLE
5
105
100
AcDbEntity
8
0
100
AcDbCircle
10
-13.163656554982154
20
0.24999999999991324
30
0
40
1.2
210
0
220
-0
230
1
0
CIRCLE
5
106
100
AcDbEntity
8
0
100
AcDbCircle
10
9.5250000000000021
20
47.624989999999997
30
0
40
1.2
210
0
220
-0
230
1
0
LWPOLYLINE
5
107
100
AcDbEntity
8
0
100
AcDbPolyline
90
19
70
1
43
0.0
10
28.574999999999999
20
-10.52500000000008
10
-14.810891332880905
20
-10.525000000000002
42
0.41421356237309503
10
-15.810891332880907
20
-11.525000000000002
10
-15.810891332880912
20
-17.09482781978555
42
-0.4142135623730957
10
-16.810891332880907
20
-18.09482781978555
10
-45.385891332880917
20
-18.094827819785493
42
0.19891236737965898
10
-95.837647575396616
20
-38.992629500977046
10
-102.57283966619798
20
-45.727821591779019
42
-0.41421356237309503
10
-103.9870532285711
20
-45.72782159177904
10
-130.92782159177921
20
-18.787053228571363
42
-0.41421356237308127
10
-130.92782159177921
20
-17.372839666198267
10
-124.19262950097762
20
-10.637647575396709
42
-0.10078004911468698
10
-87.100706766266825
20
13.903948228315205
42
0.3058230674695307
10
-86.474999999999909
20
14.831258626823516
10
-86.47500000000008
20
61.426218290421879
42
-0.34003495951207025
10
-85.73180700797792
20
62.392680995679314
42
-0.190584065301176
10
29.048786418358652
20
48.909387228865775
42
-0.27600759101215044
10
29.575000000000074
20
48.02874744451637
10
29.575000000000003
20
-9.5250000000000803
42
-0.4142135623730937
0
LWPOLYLINE
5
108
100
AcDbEntity
8
0
100
AcDbPolyline
90
24
70
1
43
0.0
10
23.800000000000008
20
44.499990000000018
42
-0.41421356237309337
10
23.050000000000004
20
45.249990000000018
10
23.050000000000004
20
46.099990000000005
42
0.41421356237309503
10
22.300000000000004
20
46.849990000000005
10
15.80000000000001
20
46.849990000000005
42
0.41421356237309503
10
15.05000000000001
20
46.099990000000005
10
15.050000000000004
20
45.249990000000018
42
-0.41421356237309764
10
14.300000000000013
20
44.499990000000018
10
12.049999999999999
20
44.499990000000018
42
0.41421356237309592
10
11.299999999999992
20
43.749990000000018
10
11.299999999999994
20
32.449990000000014
42
0.41421356237309503
10
12.049999999999994
20
31.699990000000007
10
14.300000000000017
20
31.699990000000014
42
-0.41421356237309337
10
15.050000000000017
20
30.94999000000001
10
15.050000000000015
20
30.099990000000034
42
0.41421356237309503
10
15.800000000000015
20
29.34999000000003
10
22.300000000000008
20
29.349990000000034
42
0.41421356237309337
10
23.050000000000004
20
30.099990000000037
10
23.050000000000011
20
30.94999000000001
42
-0.41421356237308815
10
23.800000000000008
20
31.699990000000007
10
26.049999999999986
20
31.69999000000001
42
0.41421356237309681
10
26.799999999999997
20
32.449990000000014
10
26.799999999999994
20
43.749990000000018
42
0.41421356237309337
10
26.049999999999997
20
44.499990000000018
0
LWPOLYLINE
5
109
100
AcDbEntity
8
0
100
AcDbPolyline
90
8
70
1
43
0.0
10
-75.524838991455283
20
-6.9080024099949338
10
-72.600183781796844
20
-17.822964247061414
42
0.41421356237309581
10
-71.68162512825316
20
-18.353294332951329
10
-58.158663560206193
20
-14.729827701516079
42
0.41421356237309415
10
-57.628333474316271
20
-13.811269047972385
10
-60.552988683974725
20
-2.8963072109059058
42
0.41421356237309576
10
-61.471547337518416
20
-2.3659771250159873
10
-74.994508905565382
20
-5.9894437564512435
42
0.4142135623730947
0
LWPOLYLINE
5
110
100
AcDbEntity
8
0
100
AcDbPolyline
90
8
70
1
43
0.0
10
-83.950000000000017
20
14.649999999999999
10
-83.950000000000017
20
3.3499999999999952
42
0.41421356237309503
10
-83.200000000000017
20
2.5999999999999939
10
-69.200000000000003
20
2.5999999999999943
42
0.41421356237309531
10
-68.450000000000003
20
3.3499999999999952
10
-68.450000000000003
20
14.649999999999999
42
0.41421356237309503
10
-69.200000000000003
20
15.4
10
-83.200000000000017
20
15.399999999999999
42
0.41421356237309503
0
LWPOLYLINE
5
111
100
AcDbEntity
8
0
100
AcDbPolyline
90
8
70
1
43
0.0
10
-64.900000000000006
20
55.25
10
-64.900000000000006
20
43.950000000000017
42
0.41421356237309503
10
-64.150000000000006
20
43.20000000000001
10
-50.150000000000013
20
43.20000000000001
42
0.41421356237309503
10
-49.400000000000013
20
43.950000000000017
10
-49.400000000000013
20
55.25
42
0.41421356237309503
10
-50.150000000000013
20
56.000000000000007
10
-64.150000000000006
20
56.000000000000007
42
0.41421356237309503
0
LWPOLYLINE
5
112
100
AcDbEntity
8
0
100
AcDbPolyline
90
8
70
1
43
0.0
10
-26.799999999999756
20
36.699999999999847
10
-26.799999999999756
20
25.399999999999846
42
0.41421356237309503
10
-26.049999999999756
20
24.649999999999842
10
-12.049999999999756
20
24.649999999999842
42
0.41421356237309503
10
-11.299999999999759
20
25.399999999999846
10
-11.299999999999757
20
36.699999999999847
42
0.41421356237309503
10
-12.049999999999756
20
37.449999999999847
10
-26.049999999999756
20
37.449999999999847
42
0.41421356237309503
0
LWPOLYLINE
5
113
100
AcDbEntity
8
0
100
AcDbPolyline
90
8
70
1
43
0.0
10
-7.7500000000000036
20
43.75
10
-7.7500000000000036
20
32.450000000000003
42
0.4142135623730942
10
-7.0000000000000018
20
31.699999999999999
10
7.0000000000000018
20
31.700000000000003
42
0.4142135623730942
10
7.7500000000000036
20
32.450000000000003
10
7.7499999999999991
20
43.75
42
0.4142135623730942
10
7.0000000000000018
20
44.5
10
-7
20
44.5
42
0.41421356237309503
0
LWPOLYLINE
5
114
100
AcDbEntity
8
0
100
AcDbPolyline
90
8
70
1
43
0.0
10
-26.799999999999756
20
17.649999999999846
10
-26.799999999999756
20
6.3499999999998398
42
0.41421356237309503
10
-26.049999999999756
20
5.5999999999998407
10
-12.049999999999756
20
5.5999999999998407
42
0.41421356237309503
10
-11.299999999999759
20
6.3499999999998398
10
-11.299999999999757
20
17.649999999999846
42
0.41421356237309503
10
-12.049999999999756
20
18.399999999999849
10
-26.049999999999756
20
18.399999999999846
42
0.41421356237309503
0
LWPOLYLINE
5
115
100
AcDbEntity
8
0
100
AcDbPolyline
90
8
70
1
43
0.0
10
-45.850000000000009
20
42.700000000000003
10
-45.850000000000009
20
31.399999999999999
42
0.41421356237309503
10
-45.100000000000009
20
30.649999999999995
10
-31.100000000000001
20
30.649999999999995
42
0.41421356237309503
10
-30.350000000000001
20
31.399999999999999
10
-30.350000000000001
20
42.700000000000003
42
0.41421356237309503
10
-31.100000000000001
20
43.450000000000003
10
-45.100000000000009
20
43.450000000000003
42
0.41421356237309503
0
LWPOLYLINE
5
116
100
AcDbEntity
8
0
100
AcDbPolyline
90
8
70
1
43
0.0
10
-83.950000000000017
20
33.700000000000003
10
-83.950000000000017
20
22.400000000000002
42
0.41421356237309503
10
-83.200000000000017
20
21.649999999999995
10
-69.200000000000003
20
21.649999999999995
42
0.41421356237309503
10
-68.450000000000003
20
22.399999999999999
10
-68.450000000000003
20
33.700000000000003
42
0.41421356237309503
10
-69.200000000000003
20
34.450000000000003
10
-83.200000000000017
20
34.450000000000003
42
0.41421356237309503
0
LWPOLYLINE
5
117
100
AcDbEntity
8
0
100
AcDbPolyline
90
8
70
1
43
0.0
10
-53.135891332880938
20
-1.9198278197855534
10
-53.135891332880938
20
-13.219827819785557
42
0.41421356237309503
10
-52.385891332880938
20
-13.969827819785557
10
-38.385891332880945
20
-13.969827819785557
42
0.41421356237309503
10
-37.635891332880931
20
-13.219827819785557
10
-37.635891332880938
20
-1.9198278197855534
42
0.41421356237309503
10
-38.385891332880938
20
-1.1698278197855538
10
-52.385891332880938
20
-1.1698278197855536
42
0.41421356237309498
0
LWPOLYLINE
5
118
100
AcDbEntity
8
0
100
AcDbPolyline
90
8
70
1
43
0.0
10
-64.900000000000006
20
17.150000000000006
10
-64.900000000000006
20
5.8500000000000032
42
0.41421356237309503
10
-64.150000000000006
20
5.1000000000000023
10
-50.150000000000013
20
5.1000000000000023
42
0.41421356237309503
10
-49.400000000000013
20
5.8500000000000014
10
-49.400000000000013
20
17.150000000000002
42
0.41421356237309503
10
-50.150000000000013
20
17.900000000000006
10
-64.150000000000006
20
17.900000000000006
42
0.4142135623730942
0
LWPOLYLINE
5
119
100
AcDbEntity
8
0
100
AcDbPolyline
90
8
70
1
43
0.0
10
-64.900000000000006
20
36.200000000000003
10
-64.900000000000006
20
24.900000000000002
42
0.41421356237309503
10
-64.150000000000006
20
24.150000000000006
10
-50.150000000000013
20
24.150000000000006
42
0.41421356237309503
10
-49.400000000000013
20
24.900000000000006
10
-49.400000000000013
20
36.200000000000003
42
0.41421356237309503
10
-50.150000000000013
20
36.950000000000003
10
-64.150000000000006
20
36.950000000000003
42
0.41421356237309503
0
LWPOLYLINE
5
120
100
AcDbEntity
8
0
100
AcDbPolyline
90
8
70
1
43
0.0
10
-26.799999999999756
20
55.749999999999851
10
-26.799999999999756
20
44.449999999999847
42
0.41421356237309503
10
-26.049999999999756
20
43.699999999999839
10
-12.049999999999756
20
43.699999999999839
42
0.41421356237309503
10
-11.299999999999759
20
44.449999999999847
10
-11.299999999999757
20
55.749999999999851
42
0.41421356237309503
10
-12.049999999999756
20
56.499999999999851
10
-26.049999999999756
20
56.499999999999851
42
0.41421356237309503
0
LWPOLYLINE
5
121
100
AcDbEntity
8
0
100
AcDbPolyline
90
8
70
1
43
0.0
10
-7.7500000000000036
20
24.700000000000003
10
-7.7500000000000036
20
13.400000000000002
42
0.4142135623730942
10
-7.0000000000000018
20
12.650000000000002
10
7.0000000000000018
20
12.650000000000002
42
0.4142135623730942
10
7.7500000000000036
20
13.4
10
7.75
20
24.700000000000003
42
0.4142135623730942
10
7.0000000000000018
20
25.450000000000003
10
-7
20
25.450000000000003
42
0.41421356237309503
0
LWPOLYLINE
5
122
100
AcDbEntity
8
0
100
AcDbPolyline
90
8
70
1
43
0.0
10
11.299999999999992
20
24.699990000000007
10
11.299999999999992
20
13.399990000000006
42
0.41421356237309503
10
12.049999999999994
20
12.649990000000004
10
26.049999999999986
20
12.649990000000006
42
0.41421356237309681
10
26.799999999999997
20
13.399990000000006
10
26.799999999999994
20
24.699990000000007
42
0.41421356237309337
10
26.049999999999997
20
25.449990000000007
10
12.049999999999999
20
25.449990000000007
42
0.41421356237309592
0
LWPOLYLINE
5
123
100
AcDbEntity
8
0
100
AcDbPolyline
90
8
70
1
43
0.0
10
-7.7500000000000036
20
5.6500000000000021
10
-7.7500000000000036
20
-5.6500000000000021
42
0.4142135623730942
10
-7.0000000000000018
20
-6.4000000000000012
10
7.0000000000000018
20
-6.4000000000000012
42
0.4142135623730942
10
7.7500000000000036
20
-5.6500000000000021
10
7.7499999999999991
20
5.6500000000000021
42
0.4142135623730942
10
7.0000000000000018
20
6.4000000000000012
10
-7
20
6.4000000000000012
42
0.41421356237309503
0
LWPOLYLINE
5
124
100
AcDbEntity
8
0
100
AcDbPolyline
90
8
70
1
43
0.0
10
-45.850000000000009
20
61.750000000000007
10
-45.850000000000009
20
50.450000000000003
42
0.41421356237309503
10
-45.100000000000009
20
49.699999999999996
10
-31.100000000000001
20
49.699999999999996
42
0.41421356237309503
10
-30.350000000000001
20
50.450000000000003
10
-30.350000000000001
20
61.750000000000007
42
0.41421356237309503
10
-31.100000000000001
20
62.500000000000007
10
-45.100000000000009
20
62.500000000000007
42
0.41421356237309503
0
LWPOLYLINE
5
125
100
AcDbEntity
8
0
100
AcDbPolyline
90
8
70
1
43
0.0
10
-83.950000000000017
20
52.75
10
-83.950000000000017
20
41.449999999999996
42
0.41421356237309503
10
-83.200000000000017
20
40.699999999999996
10
-69.200000000000003
20
40.699999999999996
42
0.41421356237309503
10
-68.450000000000003
20
41.449999999999996
10
-68.450000000000003
20
52.75
42
0.41421356237309503
10
-69.200000000000003
20
53.500000000000007
10
-83.200000000000017
20
53.500000000000007
42
0.41421356237309503
0
LWPOLYLINE
5
126
100
AcDbEntity
8
0
100
AcDbPolyline
90
8
70
1
43
0.0
10
-45.850000000000009
20
23.649999999999999
10
-45.850000000000009
20
12.349999999999998
42
0.41421356237309503
10
-45.100000000000009
20
11.599999999999998
10
-31.100000000000001
20
11.599999999999998
42
0.41421356237309503
10
-30.350000000000001
20
12.349999999999996
10
-30.350000000000001
20
23.649999999999999
42
0.41421356237309503
10
-31.100000000000001
20
24.399999999999999
10
-45.100000000000009
20
24.399999999999999
42
0.41421356237309503
0
LWPOLYLINE
5
127
100
AcDbEntity
8
0
100
AcDbPolyline
90
38
70
1
43
0.0
10
-116.64426461181074
20
-8.0743854935952584
42
-0.26794919243114762
10
-117.3687089815276
20
-8.2684997774221429
42
0.26794919243113408
10
-118.09315335124445
20
-8.4626140612490062
10
-126.2255614968884
20
-16.595022206893116
42
0.4142135623730957
10
-126.22556149688839
20
-17.655682378672939
10
-124.92625278645747
20
-18.954991089103835
42
-0.4142135623730871
10
-124.92625278645745
20
-20.015651260883661
10
-125.5272935504663
20
-20.616692024892529
42
0.41421356237312934
10
-125.52729355046623
20
-21.677352196672423
10
-123.75952659749956
20
-23.445119149638607
42
0.41421356237305945
10
-122.69886642571979
20
-23.445119149638526
10
-122.0978256617112
20
-22.844078385629928
42
-0.41421356237309875
10
-121.03716548993137
20
-22.844078385629896
10
-108.04407838563012
20
-35.83716548993101
42
-0.41421356237307416
10
-108.04407838563009
20
-36.897825661710812
10
-108.6451191496387
20
-37.498866425719449
42
0.41421356237306689
10
-108.64511914963873
20
-38.559526597499215
10
-106.87735219667243
20
-40.327293550465797
42
0.41421356237312451
10
-105.81669202489255
20
-40.327293550465825
10
-105.21565126088407
20
-39.726252786457323
42
-0.41421356237310236
10
-104.15499108910426
20
-39.726252786457295
10
-102.85568237867282
20
-41.025561496888692
42
0.41421356237309015
10
-101.79502220689301
20
-41.025561496888692
10
-93.804715579485091
20
-33.035254869480653
42
0.26794919243108467
10
-93.610601295658171
20
-32.310810499763946
42
-0.26794919243108622
10
-93.416487011831265
20
-31.586366130047239
10
-91.259131167213411
20
-29.429010285429289
42
0.4142135623730791
10
-91.259131167213383
20
-28.368350113649491
10
-96.686175712820017
20
-22.941305568042551
42
0.41421356237310608
10
-97.746835884599861
20
-22.941305568042555
10
-99.762090210981683
20
-24.956559894424508
42
-0.41421356237309265
10
-100.82275038276151
20
-24.956559894424529
10
-110.15655989442439
20
-15.62275038276184
42
-0.41421356237307977
10
-110.15655989442439
20
-14.562090210982001
10
-108.14130556804247
20
-12.546835884600076
42
0.41421356237309381
10
-108.1413055680425
20
-11.486175712820261
10
-113.5683501136493
20
-6.0591311672135379
42
0.41421356237309265
10
-114.62901028542913
20
-6.0591311672135495
0
LWPOLYLINE
5
128
100
AcDbEntity
8
0
100
AcDbPolyline
90
38
70
1
43
0.0
10
-87.341213826116359
20
-28.075635537271417
10
-77.555126763352234
20
-22.425635537271347
42
0.2679491924311414
10
-77.18012676335222
20
-21.776116484432976
42
-0.2679491924311308
10
-76.805126763352234
20
-21.1265974315946
10
-74.162916256890043
20
-19.601116484432968
42
0.41421356237308382
10
-73.888397204051699
20
-18.576597431594656
10
-77.725897204051535
20
-11.929852457548968
42
0.41421356237311052
10
-78.750416256889906
20
-11.655333404710621
10
-81.218588657675667
20
-13.08033340471075
42
-0.41421356237310275
10
-82.24310771051401
20
-12.805814351872428
10
-88.843107710514062
20
-1.3742790219179466
42
-0.41421356237309231
10
-88.568588657675747
20
-0.3497599690796005
10
-86.100416256889986
20
1.0752400309205195
42
0.41421356237310736
10
-85.825897204051699
20
2.0997590837588733
10
-89.663397204052131
20
8.7465040578042483
42
0.4142135623730786
10
-90.687916256890432
20
9.0210231106425312
10
-93.156088657675653
20
7.5960231106427587
42
-0.26794919243116211
10
-93.906088657675738
20
7.5960231106427889
42
0.26794919243115961
10
-94.656088657675809
20
7.59602311064282
10
-104.61621382611648
20
1.8455421634811358
42
0.4142135623730962
10
-104.89073287895482
20
0.82102311064279787
10
-103.97198287895441
20
-0.77029856881173242
42
-0.41421356237311313
10
-104.24650193179274
20
-1.7948176216500755
10
-104.98262352500984
20
-2.2198176216502836
42
0.41421356237312934
10
-105.25714257784811
20
-3.2443366744887028
10
-104.00714257784776
20
-5.4094001839497015
42
0.41421356237305762
10
-102.98262352500947
20
-5.6839192367879301
10
-102.24650193179269
20
-5.2589192367879098
42
-0.41421356237308571
10
-101.22198287895436
20
-5.5334382896262273
10
-92.034482878954833
20
-21.446655084164288
42
-0.41421356237310986
10
-92.309001931793162
20
-22.471174137002627
10
-93.045123525010084
20
-22.89617413700271
42
0.41421356237308943
10
-93.319642577848441
20
-23.920693189841028
10
-92.069642577848413
20
-26.085756699302248
42
0.41421356237310125
10
-91.045123525010069
20
-26.360275752140598
10
-90.309001931793233
20
-25.935275752140537
42
-0.41421356237307982
10
-89.28448287895489
20
-26.209794804978877
10
-88.365732878954688
20
-27.801116484433095
42
0.41421356237309204
0
LWPOLYLINE
5
129
100
AcDbEntity
8
0
100
AcDbPolyline
90
24
70
1
43
0.0
10
-30.335891332880955
20
-0.41982781978555295
42
-0.41421356237309365
10
-31.085891332880955
20
-1.1698278197855536
10
-33.335891332880927
20
-1.1698278197855536
42
0.41421356237309498
10
-34.085891332880927
20
-1.9198278197855534
10
-34.085891332880934
20
-13.219827819785557
42
0.41421356237309503
10
-33.335891332880927
20
-13.969827819785557
10
-31.085891332880959
20
-13.969827819785552
42
-0.4142135623730942
10
-30.335891332880948
20
-14.719827819785555
10
-30.335891332880955
20
-15.569827819785543
42
0.41421356237309503
10
-29.585891332880951
20
-16.319827819785541
10
-23.085891332880955
20
-16.319827819785541
42
0.41421356237309503
10
-22.335891332880955
20
-15.569827819785543
10
-22.335891332880955
20
-14.719827819785555
42
-0.4142135623730942
10
-21.585891332880955
20
-13.969827819785557
10
-19.335891332880934
20
-13.969827819785557
42
0.41421356237309503
10
-18.585891332880937
20
-13.219827819785557
10
-18.585891332880934
20
-1.9198278197855534
42
0.41421356237309503
10
-19.335891332880934
20
-1.1698278197855538
10
-21.585891332880955
20
-1.1698278197855514
42
-0.41421356237309365
10
-22.335891332880955
20
-0.41982781978555317
10
-22.335891332880955
20
0.43017218021443193
42
0.41421356237309509
10
-23.085891332880955
20
1.1801721802144316
10
-29.585891332880951
20
1.1801721802144318
42
0.41421356237309492
10
-30.335891332880948
20
0.43017218021443204
0
LWPOLYLINE
5
130
100
AcDbEntity
8
0
100
AcDbPolyline
90
24
70
1
43
0.0
10
15.050000000000011
20
7.1499900000000061
42
-0.41421356237309548
10
14.300000000000013
20
6.3999900000000061
10
12.049999999999999
20
6.3999900000000061
42
0.41421356237309548
10
11.299999999999992
20
5.6499900000000078
10
11.299999999999994
20
-5.6500099999999955
42
0.41421356237309548
10
12.049999999999994
20
-6.4000099999999964
10
14.300000000000006
20
-6.4000099999999991
42
-0.41421356237309809
10
15.050000000000008
20
-7.1500099999999955
10
15.050000000000008
20
-8.0000099999999836
42
0.41421356237309592
10
15.80000000000001
20
-8.7500099999999836
10
22.300000000000004
20
-8.7500099999999854
42
0.41421356237309681
10
23.050000000000015
20
-8.0000099999999836
10
23.050000000000015
20
-7.1500099999999955
42
-0.41421356237308682
10
23.800000000000008
20
-6.4000099999999964
10
26.049999999999986
20
-6.4000099999999973
42
0.41421356237309681
10
26.799999999999997
20
-5.6500099999999964
10
26.799999999999994
20
5.649990000000007
42
0.41421356237309337
10
26.049999999999997
20
6.3999900000000061
10
23.800000000000018
20
6.3999900000000132
42
-0.41421356237309853
10
23.050000000000015
20
7.1499900000000061
10
23.050000000000011
20
7.9999899999999879
42
0.41421356237309337
10
22.300000000000011
20
8.7499899999999897
10
15.800000000000008
20
8.7499899999999879
42
0.41421356237309592
10
15.050000000000008
20
7.9999899999999879
0
ENDSEC
0
SECTION
2
OBJECTS
0
DICTIONARY
5
C
100
AcDbDictionary
3
ACAD_GROUP
350
D
3
ACAD_MLINESTYLE
350
17
0
DICTIONARY
5
D
100
AcDbDictionary
0
DICTIONARY
5
1A
330
C
100
AcDbDictionary
0
DICTIONARY
5
17
100
AcDbDictionary
0
ENDSEC
0
EOF
