0
SECTION
2
HEADER
9
$INSUNITS
70
4
9
$ACADVER
1
AC1014
9
$HANDSEED
5
FFFF
0
ENDSEC
0
SECTION
2
TABLES
0
TABLE
2
VPORT
5
8
100
AcDbSymbolTable
0
ENDTAB
0
TABLE
2
LTYPE
5
5
100
AcDbSymbolTable
0
LTYPE
5
14
100
AcDbSymbolTableRecord
100
AcDbLinetypeTableRecord
2
BYBLOCK
70
0
0
LTYPE
5
15
100
AcDbSymbolTableRecord
100
AcDbLinetypeTableRecord
2
BYLAYER
70
0
0
ENDTAB
0
TABLE
2
LAYER
5
2
100
AcDbSymbolTable
70
2
0
LAYER
5
50
100
AcDbSymbolTableRecord
100
AcDbLayerTableRecord
2
0
70
0
6
CONTINUOUS
0
ENDTAB
0
TABLE
2
STYLE
5
3
100
AcDbSymbolTable
70
1
0
STYLE
5
11
100
AcDbSymbolTableRecord
100
AcDbTextStyleTableRecord
2
STANDARD
70
0
0
ENDTAB
0
TABLE
2
VIEW
5
6
100
AcDbSymbolTable
70
0
0
ENDTAB
0
TABLE
2
UCS
5
7
100
AcDbSymbolTable
70
0
0
ENDTAB
0
TABLE
2
APPID
5
9
100
AcDbSymbolTable
70
2
0
APPID
5
12
100
AcDbSymbolTableRecord
100
AcDbRegAppTableRecord
2
ACAD
70
0
0
ENDTAB
0
TABLE
2
DIMSTYLE
5
A
100
AcDbSymbolTable
70
1
0
ENDTAB
0
TABLE
2
BLOCK_RECORD
5
1
100
AcDbSymbolTable
70
1
0
BLOCK_RECORD
5
1F
100
AcDbSymbolTableRecord
100
AcDbBlockTableRecord
2
*MODEL_SPACE
0
BLOCK_RECORD
5
1B
100
AcDbSymbolTableRecord
100
AcDbBlockTableRecord
2
*PAPER_SPACE
0
ENDTAB
0
ENDSEC
0
SECTION
2
BLOCKS
0
BLOCK
5
20
100
AcDbEntity
100
AcDbBlockBegin
2
*MODEL_SPACE
0
ENDBLK
5
21
100
AcDbEntity
100
AcDbBlockEnd
0
BLOCK
5
1C
100
AcDbEntity
100
AcDbBlockBegin
2
*PAPER_SPACE
0
ENDBLK
5
1D
100
AcDbEntity
100
AcDbBlockEnd
0
ENDSEC
0
SECTION
2
ENTITIES
0
CIRCLE
5
100
100
AcDbEntity
8
0
100
AcDbCircle
10
9.5250000000000021
20
9.5249900000000007
30
0
40
1.2
210
0
220
-0
230
1
0
CIRCLE
5
101
100
AcDbEntity
8
0
100
AcDbCircle
10
-7.0000000000000115
20
49.850000000000023
30
0
40
1.2
210
0
220
-0
230
1
0
CIRCLE
5
102
100
AcDbEntity
8
0
100
AcDbCircle
10
-57.376142737482439
20
1.6306156756178232
30
0
40
1.2
210
0
220
-0
230
1
0
CIRCLE
5
103
100
AcDbEntity
8
0
100
AcDbCircle
10
-101.30725435658294
20
-16.566246567140126
30
0
40
1.2
210
0
220
-0
230
1
0
CIRCLE
5
104
100
AcDbEntity
8
0
100
AcDbCircle
10
-66.675000000000068
20
60.125
30
0
40
1.2
210
0
220
-0
230
1
0
CIRCLE
5
105
100
AcDbEntity
8
0
100
AcDbCircle
10
-13.163656554982154
20
0.24999999999991324
30
0
40
1.2
210
0
220
-0
230
1
0
CIRCLE
5
106
100
AcDbEntity
8
0
100
AcDbCircle
10
9.5250000000000021
20
47.624989999999997
30
0
40
1.2
210
0
220
-0
230
1
0
LWPOLYLINE
5
107
100
AcDbEntity
8
0
100
AcDbPolyline
90
19
70
1
43
0.0
10
28.574999999999999
20
-10.52500000000008
10
-14.810891332880905
20
-10.525000000000002
42
0.41421356237309503
10
-15.810891332880907
20
-11.525000000000002
10
-15.810891332880912
20
-17.09482781978555
42
-0.4142135623730957
10
-16.810891332880907
20
-18.09482781978555
10
-45.385891332880917
20
-18.094827819785493
42
0.19891236737965898
10
-95.837647575396616
20
-38.992629500977046
10
-102.57283966619798
20
-45.727821591779019
42
-0.41421356237309503
10
-103.9870532285711
20
-45.72782159177904
10
-130.92782159177921
20
-18.787053228571363
42
-0.41421356237308127
10
-130.92782159177921
20
-17.372839666198267
10
-124.19262950097762
20
-10.637647575396709
42
-0.10078004911468698
10
-87.100706766266825
20
13.903948228315205
42
0.3058230674695307
10
-86.474999999999909
20
14.831258626823516
10
-86.47500000000008
20
61.426218290421879
42
-0.34003495951207025
10
-85.73180700797792
20
62.392680995679314
42
-0.190584065301176
10
29.048786418358652
20
48.909387228865775
42
-0.27600759101215044
10
29.575000000000074
20
48.02874744451637
10
29.575000000000003
20
-9.5250000000000803
42
-0.4142135623730937
0
LWPOLYLINE
5
108
100
AcDbEntity
8
0
100
AcDbPolyline
90
20
70
1
43
0.0
10
14.050000000000011
20
31.099990000000012
42
-0.37796447300922237
10
15.042156741649233
20
30.22499000000002
42
0.37796447300922292
10
16.034313483298455
20
29.34999000000003
10
22.065686516701568
20
29.349990000000034
42
0.37796447300922403
10
23.057843258350779
20
30.224990000000027
42
-0.37796447300922059
10
24.050000000000011
20
31.099990000000012
10
25.050000000000008
20
31.099990000000012
42
0.4142135623730937
10
26.050000000000004
20
32.099990000000012
10
26.050000000000004
20
44.099990000000005
42
0.41421356237309503
10
25.050000000000004
20
45.099990000000005
10
24.050000000000011
20
45.099990000000005
42
-0.37796447300923525
10
23.057843258350786
20
45.974990000000005
42
0.37796447300922653
10
22.065686516701568
20
46.849990000000005
10
16.034313483298451
20
46.849990000000005
42
0.37796447300922859
10
15.042156741649222
20
45.974989999999998
42
-0.37796447300922442
10
14.050000000000011
20
45.099990000000005
10
13.050000000000006
20
45.099990000000005
42
0.41421356237309503
10
12.050000000000001
20
44.099990000000005
10
12.050000000000002
20
32.09999000000002
42
0.4142135623730957
10
13.050000000000006
20
31.099990000000012
0
LWPOLYLINE
5
109
100
AcDbEntity
8
0
100
AcDbPolyline
90
20
70
1
43
0.0
10
14.06568651670157
20
-7.0000099999999952
42
-0.37796447300922592
10
15.057843258350786
20
-7.8750099999999881
42
0.37796447300922581
10
16.050000000000008
20
-8.7500099999999836
10
22.065686516701568
20
-8.7500099999999836
42
0.37796447300922548
10
23.05784325835079
20
-7.8750099999999899
42
-0.37796447300922814
10
24.050000000000011
20
-7.0000099999999943
10
25.050000000000008
20
-7.0000099999999943
42
0.41421356237309342
10
26.050000000000004
20
-6.0000099999999961
10
26.050000000000004
20
5.9999899999999968
42
0.41421356237309503
10
25.050000000000004
20
6.9999899999999959
10
24.034313483298455
20
6.9999899999999986
42
-0.37796447300922548
10
23.042156741649229
20
7.8749899999999933
42
0.37796447300922609
10
22.050000000000011
20
8.7499899999999897
10
16.034313483298451
20
8.7499899999999879
42
0.3779644730092267
10
15.042156741649233
20
7.8749899999999933
42
-0.37796447300922487
10
14.050000000000011
20
6.9999899999999959
10
13.050000000000006
20
6.9999899999999968
42
0.41421356237309503
10
12.050000000000002
20
5.9999899999999968
10
12.050000000000002
20
-6.0000099999999934
42
0.4142135623730957
10
13.050000000000006
20
-7.0000099999999943
0
LWPOLYLINE
5
110
100
AcDbEntity
8
0
100
AcDbPolyline
90
20
70
1
43
0.0
10
-22.328048074530173
20
-15.444827819785584
42
-0.37796447300921526
10
-23.320204816179388
20
-16.319827819785541
10
-29.351577849582519
20
-16.319827819785541
42
-0.37796447300921654
10
-30.343734591231737
20
-15.444827819785578
42
0.37796447300921887
10
-31.335891332880955
20
-14.569827819785615
10
-32.335891332880962
20
-14.569827819785612
42
-0.41421356237309437
10
-33.335891332880962
20
-13.569827819785614
10
-33.335891332880983
20
-1.5698278197855231
42
-0.41421356237309431
10
-32.335891332880983
20
-0.56982781978552111
10
-31.335891332880948
20
-0.56982781978551844
42
0.37796447300921954
10
-30.343734591231733
20
0.30517218021445702
42
-0.37796447300921987
10
-29.351577849582515
20
1.1801721802144318
10
-23.320204816179388
20
1.1801721802144329
42
-0.37796447300921515
10
-22.328048074530173
20
0.30517218021447379
42
0.37796447300921793
10
-21.335891332880948
20
-0.5698278197854818
10
-20.335891332880966
20
-0.56982781978547947
42
-0.41421356237309653
10
-19.335891332880962
20
-1.5698278197854809
10
-19.335891332880962
20
-13.569827819785623
42
-0.41421356237309503
10
-20.335891332880962
20
-14.569827819785623
10
-21.335891332880955
20
-14.569827819785621
42
0.37796447300921177
0
LWPOLYLINE
5
111
100
AcDbEntity
8
0
100
AcDbPolyline
90
28
70
1
43
0.0
10
-109.55551913041592
20
-15.375263009346734
42
-0.4142135623730886
10
-109.55551913041596
20
-13.961049446973636
10
-108.31808226333911
20
-12.723612579896724
42
0.41421356237309048
10
-108.31808226333912
20
-11.309399017523635
10
-113.39157341835268
20
-6.2359078625101745
42
0.41421356237309004
10
-114.80578698072577
20
-6.2359078625101594
10
-125.94271878441377
20
-17.372839666197983
42
0.41421356237308538
10
-125.94271878441378
20
-18.787053228571047
10
-125.52729355046594
20
-19.202478462518926
42
-0.37796447300928332
10
-125.44445122398426
20
-20.522757656077474
42
0.37796447300934927
10
-125.36160889750246
20
-21.843036849636146
10
-123.93630329279624
20
-23.268342454341962
42
0.37796447300920599
10
-122.61602409923795
20
-23.351184780823733
42
-0.37796447300925029
10
-121.29574490567953
20
-23.434027107305585
10
-108.64511914963897
20
-36.084652863346911
42
-0.37796447300913533
10
-108.56227682315694
20
-37.404932056905004
42
0.37796447300911906
10
-108.47943449667491
20
-38.725211250463062
10
-107.054128891969
20
-40.150516855169194
42
0.37796447300924363
10
-105.73384969841061
20
-40.233359181651153
42
-0.37796447300921648
10
-104.4135705048523
20
-40.316201508133027
10
-103.98705322857134
20
-40.742718784413967
42
0.41421356237308771
10
-102.57283966619826
20
-40.742718784413945
10
-91.435907862510106
20
-29.60578698072586
42
0.41421356237308676
10
-91.435907862510092
20
-28.191573418352789
10
-96.509399017523435
20
-23.118082263339158
42
0.41421356237308488
10
-97.923612579896513
20
-23.11808226333909
10
-99.161049446973394
20
-24.355519130415853
42
-0.41421356237307022
10
-100.57526300934647
20
-24.355519130415825
0
LWPOLYLINE
5
112
100
AcDbEntity
8
0
100
AcDbPolyline
90
8
70
1
43
0.0
10
-45.100000000000016
20
23.999999999999993
10
-45.100000000000016
20
11.999999999999996
42
0.41421356237309503
10
-44.100000000000009
20
10.999999999999996
10
-32.100000000000009
20
10.999999999999995
42
0.41421356237309503
10
-31.100000000000012
20
11.999999999999995
10
-31.100000000000009
20
23.999999999999993
42
0.41421356237309503
10
-32.100000000000009
20
24.999999999999996
10
-44.100000000000023
20
24.999999999999996
42
0.41421356237309503
0
LWPOLYLINE
5
113
100
AcDbEntity
8
0
100
AcDbPolyline
90
8
70
1
43
0.0
10
-31.100000000000012
20
50.099999999999994
10
-31.100000000000012
20
62.100000000000009
42
0.41421356237309503
10
-32.100000000000009
20
63.100000000000009
10
-44.100000000000023
20
63.100000000000009
42
0.41421356237309503
10
-45.100000000000016
20
62.100000000000009
10
-45.100000000000009
20
50.099999999999994
42
0.41421356237309503
10
-44.100000000000009
20
49.100000000000001
10
-32.100000000000009
20
49.100000000000001
42
0.41421356237309503
0
LWPOLYLINE
5
114
100
AcDbEntity
8
0
100
AcDbPolyline
90
8
70
1
43
0.0
10
-83.200000000000003
20
15.00000000000002
10
-83.200000000000003
20
2.9999999999999827
42
0.41421356237309503
10
-82.200000000000003
20
1.999999999999984
10
-70.199999999999989
20
1.9999999999999842
42
0.4142135623730952
10
-69.200000000000003
20
2.9999999999999849
10
-69.200000000000003
20
15.00000000000002
42
0.41421356237309503
10
-70.200000000000003
20
16.000000000000021
10
-82.200000000000003
20
16.000000000000021
42
0.41421356237309503
0
LWPOLYLINE
5
115
100
AcDbEntity
8
0
100
AcDbPolyline
90
8
70
1
43
0.0
10
-52.385891332881002
20
-1.5698278197855231
10
-52.385891332880973
20
-13.569827819785614
42
0.41421356237309437
10
-51.385891332880966
20
-14.56982781978561
10
-39.385891332880959
20
-14.569827819785623
42
0.41421356237309503
10
-38.385891332880959
20
-13.569827819785623
10
-38.385891332880966
20
-1.5698278197854807
42
0.41421356237309648
10
-39.385891332880966
20
-0.56982781978548125
10
-51.385891332880995
20
-0.56982781978552099
42
0.41421356237309559
0
LWPOLYLINE
5
116
100
AcDbEntity
8
0
100
AcDbPolyline
90
8
70
1
43
0.0
10
-25.049999999999915
20
43.099999999999909
10
-13.049999999999917
20
43.099999999999909
42
0.41421356237309503
10
-12.049999999999914
20
44.099999999999902
10
-12.049999999999915
20
56.099999999999916
42
0.41421356237309503
10
-13.049999999999917
20
57.099999999999909
10
-25.049999999999915
20
57.099999999999909
42
0.41421356237309503
10
-26.049999999999915
20
56.099999999999916
10
-26.049999999999915
20
44.099999999999902
42
0.41421356237309503
0
LWPOLYLINE
5
117
100
AcDbEntity
8
0
100
AcDbPolyline
90
8
70
1
43
0.0
10
6.000000000000032
20
26.050000000000011
10
-6.0000000000000124
20
26.050000000000011
42
0.41421356237309503
10
-7.0000000000000107
20
25.050000000000011
10
-7.0000000000000115
20
13.050000000000015
42
0.41421356237309437
10
-6.0000000000000142
20
12.05000000000001
10
5.9999999999999964
20
12.050000000000011
42
0.4142135623730937
10
6.9999999999999982
20
13.050000000000011
10
7.0000000000000329
20
25.050000000000008
42
0.41421356237309664
0
LWPOLYLINE
5
118
100
AcDbEntity
8
0
100
AcDbPolyline
90
8
70
1
43
0.0
10
-7.0000000000000107
20
6.0000000000000124
10
-7.0000000000000107
20
-5.9999999999999893
42
0.41421356237309437
10
-6.0000000000000142
20
-6.9999999999999885
10
5.9999999999999964
20
-6.9999999999999893
42
0.41421356237309342
10
6.9999999999999973
20
-5.9999999999999929
10
7.0000000000000329
20
6.0000000000000089
42
0.41421356237309631
10
6.000000000000032
20
7.0000000000000107
10
-6.0000000000000124
20
7.0000000000000115
42
0.41421356237309503
0
LWPOLYLINE
5
119
100
AcDbEntity
8
0
100
AcDbPolyline
90
8
70
1
43
0.0
10
6.000000000000032
20
45.100000000000023
10
-6.0000000000000124
20
45.100000000000023
42
0.41421356237309503
10
-7.0000000000000107
20
44.10000000000003
10
-7.0000000000000115
20
32.100000000000016
42
0.41421356237309437
10
-6.0000000000000142
20
31.100000000000012
10
5.9999999999999964
20
31.100000000000016
42
0.41421356237309309
10
6.9999999999999938
20
32.100000000000016
10
7.0000000000000329
20
44.10000000000003
42
0.41421356237309537
0
LWPOLYLINE
5
120
100
AcDbEntity
8
0
100
AcDbPolyline
90
8
70
1
43
0.0
10
-63.150000000000034
20
42.600000000000009
10
-51.15000000000002
20
42.600000000000009
42
0.41421356237309503
10
-50.15000000000002
20
43.600000000000001
10
-50.150000000000013
20
55.600000000000009
42
0.41421356237309503
10
-51.150000000000013
20
56.600000000000001
10
-63.15000000000002
20
56.600000000000001
42
0.41421356237309503
10
-64.150000000000006
20
55.600000000000009
10
-64.150000000000034
20
43.599999999999994
42
0.41421356237309503
0
LWPOLYLINE
5
121
100
AcDbEntity
8
0
100
AcDbPolyline
90
8
70
1
43
0.0
10
-63.150000000000034
20
23.549999999999997
10
-51.15000000000002
20
23.549999999999997
42
0.41421356237309503
10
-50.150000000000013
20
24.549999999999997
10
-50.150000000000013
20
36.549999999999997
42
0.41421356237309503
10
-51.150000000000013
20
37.54999999999999
10
-63.15000000000002
20
37.549999999999997
42
0.41421356237309503
10
-64.15000000000002
20
36.549999999999997
10
-64.150000000000034
20
24.549999999999997
42
0.41421356237309503
0
LWPOLYLINE
5
122
100
AcDbEntity
8
0
100
AcDbPolyline
90
8
70
1
43
0.0
10
-31.100000000000012
20
31.050000000000001
10
-31.100000000000012
20
43.050000000000004
42
0.41421356237309503
10
-32.100000000000009
20
44.050000000000004
10
-44.100000000000023
20
44.050000000000004
42
0.41421356237309503
10
-45.100000000000016
20
43.050000000000004
10
-45.100000000000009
20
31.049999999999997
42
0.41421356237309503
10
-44.100000000000009
20
30.049999999999997
10
-32.100000000000009
20
30.049999999999997
42
0.41421356237309503
0
LWPOLYLINE
5
123
100
AcDbEntity
8
0
100
AcDbPolyline
90
8
70
1
43
0.0
10
-83.200000000000003
20
34.050000000000026
10
-83.200000000000003
20
22.049999999999983
42
0.41421356237309503
10
-82.200000000000003
20
21.049999999999986
10
-70.199999999999989
20
21.049999999999986
42
0.41421356237309503
10
-69.200000000000003
20
22.049999999999986
10
-69.200000000000003
20
34.050000000000026
42
0.41421356237309503
10
-70.200000000000003
20
35.050000000000026
10
-82.200000000000003
20
35.050000000000026
42
0.41421356237309503
0
LWPOLYLINE
5
124
100
AcDbEntity
8
0
100
AcDbPolyline
90
8
70
1
43
0.0
10
-58.262191178247193
20
-14.3434573710005
10
-61.368019719477559
20
-2.7523474555317451
42
0.41421356237309276
10
-62.592764590869152
20
-2.0452406743452087
10
-74.183874506337702
20
-5.1510692155754239
42
0.41421356237309076
10
-74.890981287524241
20
-6.3758140869670026
10
-71.785152746294159
20
-17.966924002435643
42
0.41421356237309492
10
-70.56040787490258
20
-18.674030783622211
10
-58.969297959433746
20
-15.568202242392102
42
0.41421356237310197
0
LWPOLYLINE
5
125
100
AcDbEntity
8
0
100
AcDbPolyline
90
8
70
1
43
0.0
10
-25.049999999999915
20
24.049999999999908
10
-13.049999999999917
20
24.049999999999912
42
0.41421356237309503
10
-12.049999999999914
20
25.049999999999915
10
-12.049999999999915
20
37.049999999999905
42
0.41421356237309503
10
-13.049999999999917
20
38.049999999999912
10
-25.049999999999915
20
38.049999999999912
42
0.41421356237309503
10
-26.049999999999915
20
37.049999999999905
10
-26.049999999999915
20
25.049999999999912
42
0.41421356237309503
0
LWPOLYLINE
5
126
100
AcDbEntity
8
0
100
AcDbPolyline
90
8
70
1
43
0.0
10
12.050000000000002
20
25.049989999999998
10
12.050000000000002
20
13.049990000000008
42
0.4142135623730957
10
13.050000000000006
20
12.049990000000008
10
25.050000000000008
20
12.049990000000008
42
0.4142135623730937
10
26.050000000000004
20
13.049990000000008
10
26.050000000000004
20
25.049989999999998
42
0.41421356237309503
10
25.050000000000004
20
26.049989999999998
10
13.050000000000006
20
26.049989999999998
42
0.41421356237309503
0
LWPOLYLINE
5
127
100
AcDbEntity
8
0
100
AcDbPolyline
90
8
70
1
43
0.0
10
-26.049999999999915
20
17.999999999999908
10
-26.049999999999915
20
5.9999999999999094
42
0.41421356237309503
10
-25.049999999999915
20
4.9999999999999094
10
-13.049999999999917
20
4.9999999999999121
42
0.41421356237309503
10
-12.049999999999914
20
5.9999999999999121
10
-12.049999999999915
20
17.999999999999904
42
0.4142135623730957
10
-13.049999999999917
20
18.999999999999908
10
-25.049999999999915
20
18.999999999999908
42
0.41421356237309503
0
LWPOLYLINE
5
128
100
AcDbEntity
8
0
100
AcDbPolyline
90
8
70
1
43
0.0
10
-83.200000000000003
20
53.10000000000003
10
-83.200000000000003
20
41.099999999999987
42
0.41421356237309503
10
-82.200000000000003
20
40.099999999999987
10
-70.199999999999989
20
40.099999999999987
42
0.41421356237309503
10
-69.200000000000003
20
41.099999999999987
10
-69.200000000000003
20
53.10000000000003
42
0.41421356237309503
10
-70.200000000000003
20
54.10000000000003
10
-82.200000000000003
20
54.10000000000003
42
0.41421356237309503
0
LWPOLYLINE
5
129
100
AcDbEntity
8
0
100
AcDbPolyline
90
8
70
1
43
0.0
10
-64.15000000000002
20
17.499999999999996
10
-64.150000000000034
20
5.4999999999999947
42
0.41421356237309537
10
-63.150000000000034
20
4.4999999999999938
10
-51.15000000000002
20
4.4999999999999938
42
0.41421356237309503
10
-50.15000000000002
20
5.4999999999999938
10
-50.150000000000013
20
17.499999999999996
42
0.41421356237309503
10
-51.150000000000013
20
18.499999999999996
10
-63.15000000000002
20
18.499999999999996
42
0.41421356237309503
0
LWPOLYLINE
5
130
100
AcDbEntity
8
0
100
AcDbPolyline
90
28
70
1
43
0.0
10
-92.671254862875259
20
-21.543733655179039
42
-0.37796447300915653
10
-92.93294872036185
20
-22.840466597983088
42
0.37796447300915292
10
-93.194642577848427
20
-24.137199540787144
10
-92.186799319497638
20
-25.882835270316562
42
0.37796447300923564
10
-90.932948720361608
20
-26.304568213120842
42
-0.37796447300922015
10
-89.679098121225636
20
-26.726301155925025
10
-89.38534812122569
20
-27.235091080648267
42
0.41421356237309037
10
-88.01932271744127
20
-27.601116484432708
10
-74.379422607836176
20
-19.726116484432946
42
0.41421356237309159
10
-74.013397204051714
20
-18.36009108064852
10
-77.600897204051563
20
-12.146358808495057
42
0.41421356237309986
10
-78.966922607836011
20
-11.780333404710596
10
-80.482467064458973
20
-12.655333404710678
42
-0.41421356237307694
10
-81.848492468243407
20
-12.289308000926248
10
-88.198492468243202
20
-1.2907853728642114
42
-0.41421356237305618
10
-87.832467064458868
20
0.07524003092017395
10
-86.316922607835977
20
0.95024003092046294
42
0.41421356237307966
10
-85.950897204051671
20
2.3162654347049005
10
-89.538397204052117
20
8.5299977068581505
42
0.41421356237308149
10
-90.904422607836537
20
8.8960231106425383
10
-104.54432271744074
20
1.0210231106429171
42
0.41421356237308399
10
-104.91034812122518
20
-0.34500229314149089
10
-104.60875486287418
20
-0.86737713982573794
42
-0.37796447300929431
10
-104.87044872036121
20
-2.1641100826301209
42
0.37796447300935898
10
-105.13214257784816
20
-3.4608430254346576
10
-104.13214257784787
20
-5.1928938330034615
42
0.37796447300920072
10
-102.8782919787119
20
-5.6146267758075519
42
-0.37796447300925712
10
-101.62444137957581
20
-6.0363597186117657
0
ENDSEC
0
SECTION
2
OBJECTS
0
DICTIONARY
5
C
100
AcDbDictionary
3
ACAD_GROUP
350
D
3
ACAD_MLINESTYLE
350
17
0
DICTIONARY
5
D
100
AcDbDictionary
0
DICTIONARY
5
1A
330
C
100
AcDbDictionary
0
DICTIONARY
5
17
100
AcDbDictionary
0
ENDSEC
0
EOF
