0
SECTION
2
HEADER
9
$INSUNITS
70
4
9
$ACADVER
1
AC1014
9
$HANDSEED
5
FFFF
0
ENDSEC
0
SECTION
2
TABLES
0
TABLE
2
VPORT
5
8
100
AcDbSymbolTable
0
ENDTAB
0
TABLE
2
LTYPE
5
5
100
AcDbSymbolTable
0
LTYPE
5
14
100
AcDbSymbolTableRecord
100
AcDbLinetypeTableRecord
2
BYBLOCK
70
0
0
LTYPE
5
15
100
AcDbSymbolTableRecord
100
AcDbLinetypeTableRecord
2
BYLAYER
70
0
0
ENDTAB
0
TABLE
2
LAYER
5
2
100
AcDbSymbolTable
70
2
0
LAYER
5
50
100
AcDbSymbolTableRecord
100
AcDbLayerTableRecord
2
0
70
0
6
CONTINUOUS
0
ENDTAB
0
TABLE
2
STYLE
5
3
100
AcDbSymbolTable
70
1
0
STYLE
5
11
100
AcDbSymbolTableRecord
100
AcDbTextStyleTableRecord
2
STANDARD
70
0
0
ENDTAB
0
TABLE
2
VIEW
5
6
100
AcDbSymbolTable
70
0
0
ENDTAB
0
TABLE
2
UCS
5
7
100
AcDbSymbolTable
70
0
0
ENDTAB
0
TABLE
2
APPID
5
9
100
AcDbSymbolTable
70
2
0
APPID
5
12
100
AcDbSymbolTableRecord
100
AcDbRegAppTableRecord
2
ACAD
70
0
0
ENDTAB
0
TABLE
2
DIMSTYLE
5
A
100
AcDbSymbolTable
70
1
0
ENDTAB
0
TABLE
2
BLOCK_RECORD
5
1
100
AcDbSymbolTable
70
1
0
BLOCK_RECORD
5
1F
100
AcDbSymbolTableRecord
100
AcDbBlockTableRecord
2
*MODEL_SPACE
0
BLOCK_RECORD
5
1B
100
AcDbSymbolTableRecord
100
AcDbBlockTableRecord
2
*PAPER_SPACE
0
ENDTAB
0
ENDSEC
0
SECTION
2
BLOCKS
0
BLOCK
5
20
100
AcDbEntity
100
AcDbBlockBegin
2
*MODEL_SPACE
0
ENDBLK
5
21
100
AcDbEntity
100
AcDbBlockEnd
0
BLOCK
5
1C
100
AcDbEntity
100
AcDbBlockBegin
2
*PAPER_SPACE
0
ENDBLK
5
1D
100
AcDbEntity
100
AcDbBlockEnd
0
ENDSEC
0
SECTION
2
ENTITIES
0
CIRCLE
5
100
100
AcDbEntity
8
0
100
AcDbCircle
10
32.915990257669733
20
-13.865990257669791
30
0
40
1.1000000000000001
210
0
220
-0
230
1
0
CIRCLE
5
101
100
AcDbEntity
8
0
100
AcDbCircle
10
-83.567215439701172
20
67.070106416105432
30
0
40
1.1000000000000001
210
0
220
-0
230
1
0
CIRCLE
5
102
100
AcDbEntity
8
0
100
AcDbCircle
10
-123.22500000000002
20
31.572118032064797
30
0
40
1.1000000000000001
210
0
220
-0
230
1
0
CIRCLE
5
103
100
AcDbEntity
8
0
100
AcDbCircle
10
-136.35980210711904
20
-18.079946447384994
30
0
40
1.1000000000000001
210
0
220
-0
230
1
0
CIRCLE
5
104
100
AcDbEntity
8
0
100
AcDbCircle
10
-123.22499999999964
20
-4.2261046507014388
30
0
40
1.1000000000000001
210
0
220
-0
230
1
0
CIRCLE
5
105
100
AcDbEntity
8
0
100
AcDbCircle
10
-111.96821431508693
20
57.25283651430972
30
0
40
1.1000000000000001
210
0
220
-0
230
1
0
CIRCLE
5
106
100
AcDbEntity
8
0
100
AcDbCircle
10
33.264438946741961
20
50.799057522432847
30
0
40
1.1000000000000001
210
0
220
-0
230
1
0
CIRCLE
5
107
100
AcDbEntity
8
0
100
AcDbCircle
10
-103.27994644738452
20
-51.159802107118473
30
0
40
1.1000000000000001
210
0
220
-0
230
1
0
ARC
5
108
100
AcDbEntity
8
0
100
AcDbCircle
10
-14.810891332880898
20
0.4750000000000143
30
0
40
0.99999999999999956
210
0
220
-0
230
1
100
AcDbArc
50
90
51
180
0
LINE
5
109
100
AcDbEntity
8
0
100
AcDbLine
10
-15.810891332880896
20
0.47500000000001591
30
0
11
-15.810891332880937
21
-17.094827819785582
31
0
0
ARC
5
110
100
AcDbEntity
8
0
100
AcDbCircle
10
-16.810891332880939
20
-17.094827819785582
30
0
40
1.0000000000000009
210
-0
220
0
230
1
100
AcDbArc
50
-90
51
0
0
LINE
5
111
100
AcDbEntity
8
0
100
AcDbLine
10
-16.810891332880939
20
-18.094827819785582
30
0
11
-45.385891332880931
21
-18.094827819785504
31
0
0
ARC
5
112
100
AcDbEntity
8
0
100
AcDbCircle
10
-45.385891332880945
20
-89.444385743492376
30
0
40
71.349557923706882
210
0
220
-0
230
1
100
AcDbArc
50
89.999999999999986
51
135.0000000000002
0
LINE
5
113
100
AcDbEntity
8
0
100
AcDbLine
10
-95.837647575396616
20
-38.99262950097706
30
0
11
-102.57283966619826
21
-45.727821591779119
31
0
0
ARC
5
114
100
AcDbEntity
8
0
100
AcDbCircle
10
-103.27994644738482
20
-45.020714810592573
30
0
40
0.999999999999998
210
0
220
0
230
1
100
AcDbArc
50
224.99999999999972
51
315.00000000000028
0
LINE
5
115
100
AcDbEntity
8
0
100
AcDbLine
10
-103.98705322857137
20
-45.727821591779119
30
0
11
-130.92782159177918
21
-18.787053228571331
31
0
0
ARC
5
116
100
AcDbEntity
8
0
100
AcDbCircle
10
-130.22071481059263
20
-18.079946447384796
30
0
40
0.99999999999999967
210
0
220
0
230
1
100
AcDbArc
50
135.00000000000017
51
224.99999999999926
0
LINE
5
117
100
AcDbEntity
8
0
100
AcDbLine
10
-130.92782159177918
20
-17.372839666198246
30
0
11
-124.19262950097752
21
-10.637647575396567
31
0
0
LINE
5
118
100
AcDbEntity
8
0
100
AcDbLine
10
-85.474999999999994
20
57.624999999999993
30
0
11
-68.67499999999994
21
57.625
31
0
0
ARC
5
119
100
AcDbEntity
8
0
100
AcDbCircle
10
-68.67499999999994
20
58.625
30
0
40
0.99999999999999645
210
0
220
0
230
1
100
AcDbArc
50
-90
51
0
0
LINE
5
120
100
AcDbEntity
8
0
100
AcDbLine
10
-67.67499999999994
20
58.625
30
0
11
-67.674999999999926
21
59.125000000000007
31
0
0
ARC
5
121
100
AcDbEntity
8
0
100
AcDbCircle
10
-66.67499999999994
20
59.125000000000007
30
0
40
0.99999999999999645
210
0
220
-0
230
1
100
AcDbArc
50
90
51
180
0
LINE
5
122
100
AcDbEntity
8
0
100
AcDbLine
10
-66.67499999999994
20
60.125
30
0
11
-49.624999999999957
21
60.124999999999957
31
0
0
ARC
5
123
100
AcDbEntity
8
0
100
AcDbCircle
10
-49.624999999999957
20
61.124999999999964
30
0
40
1.0000000000000053
210
0
220
0
230
1
100
AcDbArc
50
-90
51
0
0
LINE
5
124
100
AcDbEntity
8
0
100
AcDbLine
10
-48.624999999999964
20
61.124999999999964
30
0
11
-48.624999999999943
21
65.625
31
0
0
ARC
5
125
100
AcDbEntity
8
0
100
AcDbCircle
10
-47.62499999999995
20
65.625
30
0
40
0.99999999999999645
210
0
220
-0
230
1
100
AcDbArc
50
90
51
180
0
LINE
5
126
100
AcDbEntity
8
0
100
AcDbLine
10
-47.62499999999995
20
66.625
30
0
11
-28.574999999999999
21
66.624999999999957
31
0
0
ARC
5
127
100
AcDbEntity
8
0
100
AcDbCircle
10
-28.574999999999999
20
65.624999999999957
30
0
40
1.0000000000000009
210
0
220
-0
230
1
100
AcDbArc
50
0
51
90
0
LINE
5
128
100
AcDbEntity
8
0
100
AcDbLine
10
-27.574999999999999
20
65.624999999999957
30
0
11
-27.57500000000001
21
61.624999999999346
31
0
0
ARC
5
129
100
AcDbEntity
8
0
100
AcDbCircle
10
-26.575000000000017
20
61.624999999999346
30
0
40
0.99999999999999645
210
0
220
0
230
1
100
AcDbArc
50
180
51
270
0
LINE
5
130
100
AcDbEntity
8
0
100
AcDbLine
10
-26.575000000000017
20
60.624999999999353
30
0
11
-9.5250000000000021
21
60.624999999999304
31
0
0
ARC
5
131
100
AcDbEntity
8
0
100
AcDbCircle
10
-9.5250000000000039
20
59.624999999999318
30
0
40
0.99999999999999978
210
0
220
-0
230
1
100
AcDbArc
50
0
51
89.999999999999901
0
LINE
5
132
100
AcDbEntity
8
0
100
AcDbLine
10
-8.5250000000000039
20
59.624999999999318
30
0
11
-8.5250000000000234
21
49.624999999999993
31
0
0
ARC
5
133
100
AcDbEntity
8
0
100
AcDbCircle
10
-7.5250000000000288
20
49.624999999999993
30
0
40
0.99999999999999534
210
0
220
0
230
1
100
AcDbArc
50
180
51
270.00000000000017
0
LINE
5
134
100
AcDbEntity
8
0
100
AcDbLine
10
-7.5250000000000261
20
48.625
30
0
11
28.574999999999999
21
48.624999999999915
31
0
0
ARC
5
135
100
AcDbEntity
8
0
100
AcDbCircle
10
28.574999999999999
20
47.624999999999929
30
0
40
1.0000000000000009
210
0
220
-0
230
1
100
AcDbArc
50
0
51
90
0
LINE
5
136
100
AcDbEntity
8
0
100
AcDbLine
10
29.574999999999999
20
47.624999999999943
30
0
11
29.574999999999875
21
-9.5250099999999982
31
0
0
ARC
5
137
100
AcDbEntity
8
0
100
AcDbCircle
10
28.574999999999871
20
-9.52501
30
0
40
1.0000000000000009
210
0
220
0
230
1
100
AcDbArc
50
-90.000000000000199
51
0
0
LINE
5
138
100
AcDbEntity
8
0
100
AcDbLine
10
28.574999999999868
20
-10.525010000000002
30
0
11
-9.5249999999999968
21
-10.525009999999915
31
0
0
ARC
5
139
100
AcDbEntity
8
0
100
AcDbCircle
10
-9.5249999999999968
20
-9.5250099999999129
30
0
40
1.0000000000000009
210
0
220
0
230
1
100
AcDbArc
50
180
51
270
0
LINE
5
140
100
AcDbEntity
8
0
100
AcDbLine
10
-10.524999999999999
20
-9.5250099999999112
30
0
11
-10.524999999999981
21
0.47500000000000542
31
0
0
ARC
5
141
100
AcDbEntity
8
0
100
AcDbCircle
10
-11.524999999999983
20
0.47500000000000375
30
0
40
1.0000000000000031
210
0
220
-0
230
1
100
AcDbArc
50
0
51
89.999999999999801
0
LINE
5
142
100
AcDbEntity
8
0
100
AcDbLine
10
-11.524999999999979
20
1.4750000000000068
30
0
11
-14.810891332880898
21
1.4750000000000139
31
0
0
LWPOLYLINE
5
143
100
AcDbEntity
8
0
100
AcDbPolyline
90
19
70
1
43
0.0
10
-126.22500000000002
20
51.314066405454646
42
-0.27363282930053029
10
-124.41040976365797
20
54.381539947079162
42
-0.25875924482366225
10
34.784856172339921
20
53.745776832084509
42
-0.27148769664201206
10
36.574999999999996
20
50.691862643717229
10
36.575000000000003
20
-14.025000000000059
42
-0.4142135623730952
10
33.074999999999996
20
-17.525000000000059
10
-5.310891332880904
20
-17.525000000000055
42
0.41421356237309515
10
-8.8108913328809066
20
-21.025000000000059
10
-8.8108913328809031
20
-21.594827819785507
42
-0.41421356237309453
10
-12.310891332880907
20
-25.094827819785511
10
-45.385891332880952
20
-25.094827819785515
42
0.19891236737965884
10
-90.887900107090758
20
-43.942376969282869
10
-100.80507271323154
20
-53.859549575424268
42
-0.41421356237309037
10
-105.75482018153735
20
-53.85954957542431
10
-139.0595495754244
20
-20.554820181537909
42
-0.41421356237309126
10
-139.05954957542446
20
-15.605072713232053
10
-129.14237696928308
20
-5.6879001070904618
42
-0.0076523332713991999
10
-126.5398647002998
20
-3.1638527189340371
42
0.2068796011381725
10
-126.22500000000002
20
-2.4354368891330402
0
ARC
5
144
100
AcDbEntity
8
0
100
AcDbCircle
10
-45.385891332880981
20
-89.444385743492376
30
0
40
111.44955792370708
210
0
220
0
230
1
100
AcDbArc
50
111.98063710675245
51
135.00000000000028
0
ARC
5
145
100
AcDbEntity
8
0
100
AcDbCircle
10
-87.475000000000037
20
14.831258626823542
30
0
40
1.000000000000026
210
0
220
0
230
1
100
AcDbArc
50
291.98063710675166
51
360
0
LINE
5
146
100
AcDbEntity
8
0
100
AcDbLine
10
-86.475000000000023
20
14.831258626823534
30
0
11
-86.475000000000009
21
56.625000000000007
31
0
0
ARC
5
147
100
AcDbEntity
8
0
100
AcDbCircle
10
-85.474999999999994
20
56.625000000000007
30
0
40
0.99999999999999645
210
0
220
-0
230
1
100
AcDbArc
50
90
51
180
0
ENDSEC
0
SECTION
2
OBJECTS
0
DICTIONARY
5
C
100
AcDbDictionary
3
ACAD_GROUP
350
D
3
ACAD_MLINESTYLE
350
17
0
DICTIONARY
5
D
100
AcDbDictionary
0
DICTIONARY
5
1A
330
C
100
AcDbDictionary
0
DICTIONARY
5
17
100
AcDbDictionary
0
ENDSEC
0
EOF
