0
SECTION
2
HEADER
9
$INSUNITS
70
4
9
$ACADVER
1
AC1014
9
$HANDSEED
5
FFFF
0
ENDSEC
0
SECTION
2
TABLES
0
TABLE
2
VPORT
5
8
100
AcDbSymbolTable
0
ENDTAB
0
TABLE
2
LTYPE
5
5
100
AcDbSymbolTable
0
LTYPE
5
14
100
AcDbSymbolTableRecord
100
AcDbLinetypeTableRecord
2
BYBLOCK
70
0
0
LTYPE
5
15
100
AcDbSymbolTableRecord
100
AcDbLinetypeTableRecord
2
BYLAYER
70
0
0
ENDTAB
0
TABLE
2
LAYER
5
2
100
AcDbSymbolTable
70
2
0
LAYER
5
50
100
AcDbSymbolTableRecord
100
AcDbLayerTableRecord
2
0
70
0
6
CONTINUOUS
0
ENDTAB
0
TABLE
2
STYLE
5
3
100
AcDbSymbolTable
70
1
0
STYLE
5
11
100
AcDbSymbolTableRecord
100
AcDbTextStyleTableRecord
2
STANDARD
70
0
0
ENDTAB
0
TABLE
2
VIEW
5
6
100
AcDbSymbolTable
70
0
0
ENDTAB
0
TABLE
2
UCS
5
7
100
AcDbSymbolTable
70
0
0
ENDTAB
0
TABLE
2
APPID
5
9
100
AcDbSymbolTable
70
2
0
APPID
5
12
100
AcDbSymbolTableRecord
100
AcDbRegAppTableRecord
2
ACAD
70
0
0
ENDTAB
0
TABLE
2
DIMSTYLE
5
A
100
AcDbSymbolTable
70
1
0
ENDTAB
0
TABLE
2
BLOCK_RECORD
5
1
100
AcDbSymbolTable
70
1
0
BLOCK_RECORD
5
1F
100
AcDbSymbolTableRecord
100
AcDbBlockTableRecord
2
*MODEL_SPACE
0
BLOCK_RECORD
5
1B
100
AcDbSymbolTableRecord
100
AcDbBlockTableRecord
2
*PAPER_SPACE
0
ENDTAB
0
ENDSEC
0
SECTION
2
BLOCKS
0
BLOCK
5
20
100
AcDbEntity
100
AcDbBlockBegin
2
*MODEL_SPACE
0
ENDBLK
5
21
100
AcDbEntity
100
AcDbBlockEnd
0
BLOCK
5
1C
100
AcDbEntity
100
AcDbBlockBegin
2
*PAPER_SPACE
0
ENDBLK
5
1D
100
AcDbEntity
100
AcDbBlockEnd
0
ENDSEC
0
SECTION
2
ENTITIES
0
LINE
5
100
100
AcDbEntity
8
0
100
AcDbLine
10
-86.475000000000009
20
68.658184848849572
30
0
11
-86.475000000000009
21
55.106497054926749
31
0
0
ARC
5
101
100
AcDbEntity
8
0
100
AcDbCircle
10
-87.475000000000023
20
55.106497054926749
30
0
40
0.99999999999999645
210
-0
220
0
230
1
100
AcDbArc
50
-90
51
0
0
LINE
5
102
100
AcDbEntity
8
0
100
AcDbLine
10
-87.475000000000023
20
54.106497054926749
30
0
11
-108.22499999999998
21
54.106497054926749
31
0
0
ARC
5
103
100
AcDbEntity
8
0
100
AcDbCircle
10
-108.22499999999998
20
55.106497054926749
30
0
40
0.99999999999999645
210
0
220
0
230
1
100
AcDbArc
50
180
51
270
0
LINE
5
104
100
AcDbEntity
8
0
100
AcDbLine
10
-109.22499999999998
20
55.106497054926749
30
0
11
-109.22499999999999
21
60.220070453976469
31
0
0
LINE
5
105
100
AcDbEntity
8
0
100
AcDbLine
10
-125.22500000000001
20
28.572118032064793
30
0
11
-120.22500000000005
21
28.572118032064793
31
0
0
ARC
5
106
100
AcDbEntity
8
0
100
AcDbCircle
10
-120.22500000000005
20
27.5721180320648
30
0
40
0.99999999999999645
210
0
220
0
230
1
100
AcDbArc
50
0
51
90
0
LINE
5
107
100
AcDbEntity
8
0
100
AcDbLine
10
-119.22500000000005
20
27.5721180320648
30
0
11
-119.22500000000002
21
3.6539746184398147
31
0
0
ARC
5
108
100
AcDbEntity
8
0
100
AcDbCircle
10
-120.22500000000005
20
3.6539746184398147
30
0
40
0.99999999999999967
210
-0
220
0
230
1
100
AcDbArc
50
-51.205194191578236
51
0
0
ARC
5
109
100
AcDbEntity
8
0
100
AcDbCircle
10
-45.385891332880945
20
-89.444385743492376
30
0
40
118.44955792370706
210
0
220
0
230
1
100
AcDbArc
50
128.79480580842193
51
135.0000000000002
0
LINE
5
110
100
AcDbEntity
8
0
100
AcDbLine
10
-139.0595495754244
20
-20.554820181537895
30
0
11
-105.75482018153735
21
-53.85954957542431
31
0
0
ARC
5
111
100
AcDbEntity
8
0
100
AcDbCircle
10
-103.27994644738446
20
-51.384675841271338
30
0
40
3.5000000000000249
210
0
220
0
230
1
100
AcDbArc
50
225.00000000000091
51
314.99999999999994
0
LINE
5
112
100
AcDbEntity
8
0
100
AcDbLine
10
-100.80507271323154
20
-53.859549575424268
30
0
11
-90.887900107090758
21
-43.942376969282869
31
0
0
ARC
5
113
100
AcDbEntity
8
0
100
AcDbCircle
10
-45.385891332880945
20
-89.444385743492376
30
0
40
64.349557923706868
210
0
220
0
230
1
100
AcDbArc
50
90.000000000000014
51
135.0000000000002
0
LINE
5
114
100
AcDbEntity
8
0
100
AcDbLine
10
-45.385891332880952
20
-25.094827819785515
30
0
11
-12.310891332880907
21
-25.094827819785511
31
0
0
LINE
5
115
100
AcDbEntity
8
0
100
AcDbLine
10
36.575000000000003
20
-14.025000000000059
30
0
11
36.574999999999996
21
50.691862643717229
31
0
0
ARC
5
116
100
AcDbEntity
8
0
100
AcDbCircle
10
-45.385891332880945
20
-89.444385743492376
30
0
40
164.10597616773754
210
0
220
-0
230
1
100
AcDbArc
50
60.755969550855049
51
104.22826805170804
0
ARC
5
117
100
AcDbEntity
8
0
100
AcDbCircle
10
-85.475000000000009
20
68.658184848849587
30
0
40
0.99999999999997968
210
0
220
0
230
1
100
AcDbArc
50
104.22826805170487
51
180
0
ARC
5
118
100
AcDbEntity
8
0
100
AcDbCircle
10
-110.22500000000002
20
60.22007045397644
30
0
40
1.000000000000032
210
0
220
-0
230
1
100
AcDbArc
50
0
51
113.42370041237685
0
ARC
5
119
100
AcDbEntity
8
0
100
AcDbCircle
10
-45.385891332880945
20
-89.444385743492376
30
0
40
164.10597616773748
210
0
220
0
230
1
100
AcDbArc
50
113.42370041237939
51
118.78639938338803
0
LINE
5
120
100
AcDbEntity
8
0
100
AcDbLine
10
-129.14237696928328
20
-5.6879001070906554
30
0
11
-139.05954957542446
21
-15.605072713232053
31
0
0
ARC
5
121
100
AcDbEntity
8
0
100
AcDbCircle
10
-136.58467584127146
20
-18.079946447384955
30
0
40
3.5000000000000369
210
0
220
0
230
1
100
AcDbArc
50
135.00000000000105
51
225.00000000000006
0
CIRCLE
5
122
100
AcDbEntity
8
0
100
AcDbCircle
10
32.915990257669733
20
-13.865990257669791
30
0
40
1.1000000000000001
210
0
220
-0
230
1
0
CIRCLE
5
123
100
AcDbEntity
8
0
100
AcDbCircle
10
-83.567215439701172
20
67.070106416105432
30
0
40
1.1000000000000001
210
0
220
-0
230
1
0
CIRCLE
5
124
100
AcDbEntity
8
0
100
AcDbCircle
10
-123.22500000000002
20
31.572118032064797
30
0
40
1.1000000000000001
210
0
220
-0
230
1
0
CIRCLE
5
125
100
AcDbEntity
8
0
100
AcDbCircle
10
-136.35980210711904
20
-18.079946447384994
30
0
40
1.1000000000000001
210
0
220
-0
230
1
0
CIRCLE
5
126
100
AcDbEntity
8
0
100
AcDbCircle
10
-123.22499999999964
20
-4.2261046507014388
30
0
40
1.1000000000000001
210
0
220
-0
230
1
0
CIRCLE
5
127
100
AcDbEntity
8
0
100
AcDbCircle
10
-111.96821431508693
20
57.25283651430972
30
0
40
1.1000000000000001
210
0
220
-0
230
1
0
CIRCLE
5
128
100
AcDbEntity
8
0
100
AcDbCircle
10
33.264438946741961
20
50.799057522432847
30
0
40
1.1000000000000001
210
0
220
-0
230
1
0
CIRCLE
5
129
100
AcDbEntity
8
0
100
AcDbCircle
10
-103.27994644738452
20
-51.159802107118473
30
0
40
1.1000000000000001
210
0
220
-0
230
1
0
ARC
5
130
100
AcDbEntity
8
0
100
AcDbCircle
10
-122.72500000000007
20
51.314066405454668
30
0
40
3.5000000000000107
210
0
220
0
230
1
100
AcDbArc
50
118.78639938338779
51
180
0
LINE
5
131
100
AcDbEntity
8
0
100
AcDbLine
10
-126.22500000000002
20
51.314066405454646
30
0
11
-126.22500000000002
21
29.572118032064797
31
0
0
ARC
5
132
100
AcDbEntity
8
0
100
AcDbCircle
10
-125.22500000000001
20
29.572118032064793
30
0
40
1.0000000000000142
210
0
220
0
230
1
100
AcDbArc
50
180
51
270
0
ARC
5
133
100
AcDbEntity
8
0
100
AcDbCircle
10
-12.310891332880908
20
-21.594827819785504
30
0
40
3.5000000000000053
210
0
220
0
230
1
100
AcDbArc
50
270
51
360
0
LINE
5
134
100
AcDbEntity
8
0
100
AcDbLine
10
-8.8108913328809031
20
-21.594827819785507
30
0
11
-8.8108913328809066
21
-21.025000000000059
31
0
0
ARC
5
135
100
AcDbEntity
8
0
100
AcDbCircle
10
-5.3108913328809049
20
-21.025000000000059
30
0
40
3.5000000000000009
210
0
220
-0
230
1
100
AcDbArc
50
89.999999999999986
51
180
0
LINE
5
136
100
AcDbEntity
8
0
100
AcDbLine
10
-5.310891332880904
20
-17.525000000000055
30
0
11
33.074999999999996
21
-17.525000000000059
31
0
0
ARC
5
137
100
AcDbEntity
8
0
100
AcDbCircle
10
33.075000000000003
20
-14.025000000000055
30
0
40
3.5000000000000031
210
0
220
0
230
1
100
AcDbArc
50
269.99999999999989
51
360
0
ARC
5
138
100
AcDbEntity
8
0
100
AcDbCircle
10
33.074999999999996
20
50.691862643717222
30
0
40
3.5000000000000009
210
0
220
-0
230
1
100
AcDbArc
50
0
51
60.755969550854459
0
CIRCLE
5
139
100
AcDbEntity
8
0
100
AcDbCircle
10
-47.625
20
29.349999999999696
30
0
40
21.049999999999997
210
0
220
0
230
1
0
ENDSEC
0
SECTION
2
OBJECTS
0
DICTIONARY
5
C
100
AcDbDictionary
3
ACAD_GROUP
350
D
3
ACAD_MLINESTYLE
350
17
0
DICTIONARY
5
D
100
AcDbDictionary
0
DICTIONARY
5
1A
330
C
100
AcDbDictionary
0
DICTIONARY
5
17
100
AcDbDictionary
0
ENDSEC
0
EOF
