0
SECTION
2
HEADER
9
$INSUNITS
70
4
9
$ACADVER
1
AC1014
9
$HANDSEED
5
FFFF
0
ENDSEC
0
SECTION
2
TABLES
0
TABLE
2
VPORT
5
8
100
AcDbSymbolTable
0
ENDTAB
0
TABLE
2
LTYPE
5
5
100
AcDbSymbolTable
0
LTYPE
5
14
100
AcDbSymbolTableRecord
100
AcDbLinetypeTableRecord
2
BYBLOCK
70
0
0
LTYPE
5
15
100
AcDbSymbolTableRecord
100
AcDbLinetypeTableRecord
2
BYLAYER
70
0
0
ENDTAB
0
TABLE
2
LAYER
5
2
100
AcDbSymbolTable
70
2
0
LAYER
5
50
100
AcDbSymbolTableRecord
100
AcDbLayerTableRecord
2
0
70
0
6
CONTINUOUS
0
ENDTAB
0
TABLE
2
STYLE
5
3
100
AcDbSymbolTable
70
1
0
STYLE
5
11
100
AcDbSymbolTableRecord
100
AcDbTextStyleTableRecord
2
STANDARD
70
0
0
ENDTAB
0
TABLE
2
VIEW
5
6
100
AcDbSymbolTable
70
0
0
ENDTAB
0
TABLE
2
UCS
5
7
100
AcDbSymbolTable
70
0
0
ENDTAB
0
TABLE
2
APPID
5
9
100
AcDbSymbolTable
70
2
0
APPID
5
12
100
AcDbSymbolTableRecord
100
AcDbRegAppTableRecord
2
ACAD
70
0
0
ENDTAB
0
TABLE
2
DIMSTYLE
5
A
100
AcDbSymbolTable
70
1
0
ENDTAB
0
TABLE
2
BLOCK_RECORD
5
1
100
AcDbSymbolTable
70
1
0
BLOCK_RECORD
5
1F
100
AcDbSymbolTableRecord
100
AcDbBlockTableRecord
2
*MODEL_SPACE
0
BLOCK_RECORD
5
1B
100
AcDbSymbolTableRecord
100
AcDbBlockTableRecord
2
*PAPER_SPACE
0
ENDTAB
0
ENDSEC
0
SECTION
2
BLOCKS
0
BLOCK
5
20
100
AcDbEntity
100
AcDbBlockBegin
2
*MODEL_SPACE
0
ENDBLK
5
21
100
AcDbEntity
100
AcDbBlockEnd
0
BLOCK
5
1C
100
AcDbEntity
100
AcDbBlockBegin
2
*PAPER_SPACE
0
ENDBLK
5
1D
100
AcDbEntity
100
AcDbBlockEnd
0
ENDSEC
0
SECTION
2
ENTITIES
0
CIRCLE
5
100
100
AcDbEntity
8
0
100
AcDbCircle
10
32.915990257669733
20
-13.865990257669791
30
0
40
1.1000000000000001
210
0
220
-0
230
1
0
CIRCLE
5
101
100
AcDbEntity
8
0
100
AcDbCircle
10
-83.567215439701172
20
67.070106416105432
30
0
40
1.1000000000000001
210
0
220
-0
230
1
0
CIRCLE
5
102
100
AcDbEntity
8
0
100
AcDbCircle
10
-123.22500000000002
20
31.572118032064797
30
0
40
1.1000000000000001
210
0
220
-0
230
1
0
CIRCLE
5
103
100
AcDbEntity
8
0
100
AcDbCircle
10
-136.35980210711904
20
-18.079946447384994
30
0
40
1.1000000000000001
210
0
220
-0
230
1
0
CIRCLE
5
104
100
AcDbEntity
8
0
100
AcDbCircle
10
-123.22499999999964
20
-4.2261046507014388
30
0
40
1.1000000000000001
210
0
220
-0
230
1
0
CIRCLE
5
105
100
AcDbEntity
8
0
100
AcDbCircle
10
-111.96821431508693
20
57.25283651430972
30
0
40
1.1000000000000001
210
0
220
-0
230
1
0
CIRCLE
5
106
100
AcDbEntity
8
0
100
AcDbCircle
10
33.264438946741961
20
50.799057522432847
30
0
40
1.1000000000000001
210
0
220
-0
230
1
0
CIRCLE
5
107
100
AcDbEntity
8
0
100
AcDbCircle
10
-103.27994644738452
20
-51.159802107118473
30
0
40
1.1000000000000001
210
0
220
-0
230
1
0
LWPOLYLINE
5
108
100
AcDbEntity
8
0
100
AcDbPolyline
90
31
70
1
43
0.0
10
-86.475000000000009
20
68.658184848849572
42
-0.34321389948162834
10
-85.720785651813884
20
69.627509053314924
42
-0.19199184356317836
10
34.784856172339921
20
53.745776832084509
42
-0.27148769664201206
10
36.574999999999996
20
50.691862643717229
10
36.575000000000003
20
-14.025000000000059
42
-0.4142135623730952
10
33.074999999999996
20
-17.525000000000059
10
-5.310891332880904
20
-17.525000000000055
42
0.41421356237309515
10
-8.8108913328809066
20
-21.025000000000059
10
-8.8108913328809031
20
-21.594827819785507
42
-0.41421356237309453
10
-12.310891332880907
20
-25.094827819785511
10
-45.385891332880952
20
-25.094827819785515
42
0.19891236737965884
10
-90.887900107090758
20
-43.942376969282869
10
-100.80507271323151
20
-53.859549575424268
42
-0.41421356237309037
10
-105.75482018153735
20
-53.85954957542431
10
-139.0595495754244
20
-20.554820181537909
42
-0.41421356237309126
10
-139.05954957542446
20
-15.605072713232053
10
-129.14237696928311
20
-5.6879001070904831
42
-0.027081885305740204
10
-119.59846684267418
20
2.8745798514755445
42
0.2272182597090851
10
-119.22500000000002
20
3.6539746184398147
10
-119.22500000000005
20
27.5721180320648
42
0.41421356237309503
10
-120.22500000000005
20
28.572118032064793
10
-125.22500000000001
20
28.572118032064779
42
-0.41421356237309631
10
-126.22500000000002
20
29.572118032064797
10
-126.22500000000008
20
51.314066405454646
42
-0.27363282930052923
10
-124.41040976365792
20
54.381539947079183
42
-0.023403459918490899
10
-110.62252748605874
20
61.13766072083191
42
-0.53970424987386123
10
-109.22499999999999
20
60.220070453976469
10
-109.22499999999998
20
55.106497054926749
42
0.41421356237309503
10
-108.22499999999998
20
54.106497054926749
10
-87.475000000000023
20
54.106497054926749
42
0.41421356237309503
10
-86.475000000000009
20
55.106497054926749
0
ENDSEC
0
SECTION
2
OBJECTS
0
DICTIONARY
5
C
100
AcDbDictionary
3
ACAD_GROUP
350
D
3
ACAD_MLINESTYLE
350
17
0
DICTIONARY
5
D
100
AcDbDictionary
0
DICTIONARY
5
1A
330
C
100
AcDbDictionary
0
DICTIONARY
5
17
100
AcDbDictionary
0
ENDSEC
0
EOF
