0
SECTION
2
HEADER
9
$INSUNITS
70
4
9
$ACADVER
1
AC1014
9
$HANDSEED
5
FFFF
0
ENDSEC
0
SECTION
2
TABLES
0
TABLE
2
VPORT
5
8
100
AcDbSymbolTable
0
ENDTAB
0
TABLE
2
LTYPE
5
5
100
AcDbSymbolTable
0
LTYPE
5
14
100
AcDbSymbolTableRecord
100
AcDbLinetypeTableRecord
2
BYBLOCK
70
0
0
LTYPE
5
15
100
AcDbSymbolTableRecord
100
AcDbLinetypeTableRecord
2
BYLAYER
70
0
0
ENDTAB
0
TABLE
2
LAYER
5
2
100
AcDbSymbolTable
70
2
0
LAYER
5
50
100
AcDbSymbolTableRecord
100
AcDbLayerTableRecord
2
0
70
0
6
CONTINUOUS
0
ENDTAB
0
TABLE
2
STYLE
5
3
100
AcDbSymbolTable
70
1
0
STYLE
5
11
100
AcDbSymbolTableRecord
100
AcDbTextStyleTableRecord
2
STANDARD
70
0
0
ENDTAB
0
TABLE
2
VIEW
5
6
100
AcDbSymbolTable
70
0
0
ENDTAB
0
TABLE
2
UCS
5
7
100
AcDbSymbolTable
70
0
0
ENDTAB
0
TABLE
2
APPID
5
9
100
AcDbSymbolTable
70
2
0
APPID
5
12
100
AcDbSymbolTableRecord
100
AcDbRegAppTableRecord
2
ACAD
70
0
0
ENDTAB
0
TABLE
2
DIMSTYLE
5
A
100
AcDbSymbolTable
70
1
0
ENDTAB
0
TABLE
2
BLOCK_RECORD
5
1
100
AcDbSymbolTable
70
1
0
BLOCK_RECORD
5
1F
100
AcDbSymbolTableRecord
100
AcDbBlockTableRecord
2
*MODEL_SPACE
0
BLOCK_RECORD
5
1B
100
AcDbSymbolTableRecord
100
AcDbBlockTableRecord
2
*PAPER_SPACE
0
ENDTAB
0
ENDSEC
0
SECTION
2
BLOCKS
0
BLOCK
5
20
100
AcDbEntity
100
AcDbBlockBegin
2
*MODEL_SPACE
0
ENDBLK
5
21
100
AcDbEntity
100
AcDbBlockEnd
0
BLOCK
5
1C
100
AcDbEntity
100
AcDbBlockBegin
2
*PAPER_SPACE
0
ENDBLK
5
1D
100
AcDbEntity
100
AcDbBlockEnd
0
ENDSEC
0
SECTION
2
ENTITIES
0
CIRCLE
5
100
100
AcDbEntity
8
0
100
AcDbCircle
10
-111.96821431508693
20
57.25283651430972
30
0
40
1.6000000000000003
210
0
220
-0
230
1
0
CIRCLE
5
101
100
AcDbEntity
8
0
100
AcDbCircle
10
-123.22500000000002
20
31.572118032064797
30
0
40
1.6000000000000003
210
0
220
-0
230
1
0
LWPOLYLINE
5
102
100
AcDbEntity
8
0
100
AcDbPolyline
90
12
70
1
43
0.0
10
-109.22499999999998
20
55.850492485377714
42
-0.29597983141445799
10
-109.81747848365691
20
54.937296879980124
42
0.017388600609651025
10
-119.69499554357046
20
50.110824590475652
42
0.27716475387383432
10
-120.22500000000002
20
49.22815580263736
10
-120.22500000000002
20
29.572118032064793
42
-0.41421356237309631
10
-121.22500000000002
20
28.572118032064793
10
-125.22500000000001
20
28.572118032064779
42
-0.41421356237309631
10
-126.22500000000002
20
29.572118032064797
10
-126.22500000000008
20
51.314066405454646
42
-0.27363282930052923
10
-124.41040976365792
20
54.381539947079183
42
-0.023403459918490899
10
-110.62252748605874
20
61.13766072083191
42
-0.53970424987386123
10
-109.22499999999999
20
60.220070453976469
0
CIRCLE
5
103
100
AcDbEntity
8
0
100
AcDbCircle
10
33.264438946741961
20
50.799057522432847
30
0
40
1.6000000000000003
210
0
220
-0
230
1
0
CIRCLE
5
104
100
AcDbEntity
8
0
100
AcDbCircle
10
-123.22499999999964
20
-4.2261046507014388
30
0
40
1.6000000000000003
210
0
220
-0
230
1
0
CIRCLE
5
105
100
AcDbEntity
8
0
100
AcDbCircle
10
-103.27994644738452
20
-51.159802107118473
30
0
40
1.6000000000000003
210
0
220
-0
230
1
0
CIRCLE
5
106
100
AcDbEntity
8
0
100
AcDbCircle
10
-136.35980210711904
20
-18.079946447384994
30
0
40
1.6000000000000003
210
0
220
-0
230
1
0
CIRCLE
5
107
100
AcDbEntity
8
0
100
AcDbCircle
10
-83.567215439701172
20
67.070106416105432
30
0
40
1.6000000000000003
210
0
220
-0
230
1
0
CIRCLE
5
108
100
AcDbEntity
8
0
100
AcDbCircle
10
32.915990257669733
20
-13.865990257669791
30
0
40
1.6000000000000003
210
0
220
-0
230
1
0
LWPOLYLINE
5
109
100
AcDbEntity
8
0
100
AcDbPolyline
90
23
70
1
43
0.0
10
-86.475000000000009
20
68.658184848849572
42
-0.34321389948162834
10
-85.720785651813884
20
69.627509053314924
42
-0.19199184356317836
10
34.784856172339921
20
53.745776832084509
42
-0.27148769664201206
10
36.574999999999996
20
50.691862643717229
10
36.575000000000003
20
-14.025000000000059
42
-0.4142135623730952
10
33.074999999999996
20
-17.525000000000059
10
-5.310891332880904
20
-17.525000000000055
42
0.41421356237309515
10
-8.8108913328809066
20
-21.025000000000059
10
-8.8108913328809031
20
-21.594827819785507
42
-0.41421356237309453
10
-12.310891332880907
20
-25.094827819785511
10
-45.385891332880952
20
-25.094827819785515
42
0.19891236737965884
10
-90.887900107090758
20
-43.942376969282869
10
-100.80507271323151
20
-53.859549575424268
42
-0.41421356237309037
10
-105.75482018153735
20
-53.85954957542431
10
-139.0595495754244
20
-20.554820181537909
42
-0.41421356237309126
10
-139.05954957542446
20
-15.605072713232053
10
-129.14237696928322
20
-5.687900107090595
42
-0.02086227680072418
10
-121.87071642505785
20
1.0010082958988162
42
-0.63841700195445517
10
-120.22500000000001
20
0.23743099240524757
10
-120.22499999999999
20
-4.6346627839014687
42
0.64349477258744514
10
-118.56835794617162
20
-5.3888651527282931
42
-0.083373196303120206
10
-87.100706766266967
20
13.903948228315329
42
0.3058230674695307
10
-86.475000000000009
20
14.83125862682364
0
LWPOLYLINE
5
110
100
AcDbEntity
8
0
100
AcDbPolyline
90
28
70
1
43
0.0
10
-122.61602409923853
20
-23.351184780823079
42
-0.37796447300924385
10
-121.29574490568017
20
-23.434027107304978
10
-108.63402710730537
20
-36.095744905680519
42
-0.37796447300915836
10
-108.55118478082338
20
-37.416024099238662
42
0.37796447300915681
10
-108.46834245434135
20
-38.736303292796798
10
-107.04303684963541
20
-40.161608897502816
42
0.37796447300923935
10
-105.72275765607705
20
-40.244451223984697
42
-0.37796447300922897
10
-104.40247846251872
20
-40.327293550466578
10
-103.98705322857124
20
-40.742718784414016
42
0.41421356237308771
10
-102.57283966619816
20
-40.742718784414002
10
-91.435907862510106
20
-29.605786980725828
42
0.41421356237309415
10
-91.435907862510106
20
-28.191573418352739
10
-96.509399017523535
20
-23.118082263339215
42
0.41421356237309137
10
-97.923612579896627
20
-23.118082263339197
10
-99.161049446973351
20
-24.35551913041586
42
-0.41421356237308493
10
-100.57526300934641
20
-24.355519130415875
10
-109.55551913041602
20
-15.375263009346741
42
-0.41421356237311852
10
-109.555519130416
20
-13.961049446973583
10
-108.31808226333902
20
-12.723612579896759
42
0.41421356237309137
10
-108.31808226333894
20
-11.309399017523685
10
-113.39157341835217
20
-6.235907862509845
42
0.4142135623730856
10
-114.80578698072523
20
-6.2359078625097464
10
-125.94271878441438
20
-17.372839666197276
42
0.41421356237311019
10
-125.94271878441445
20
-18.787053228570404
10
-125.52729355046657
20
-19.202478462518322
42
-0.37796447300926406
10
-125.4444512239848
20
-20.522757656076784
42
0.37796447300929659
10
-125.36160889750298
20
-21.843036849635308
10
-123.93630329279685
20
-23.268342454341244
42
0.37796447300921088
0
LINE
5
111
100
AcDbEntity
8
0
100
AcDbLine
10
12.050000000000008
20
32.099989999999998
30
0
11
12.05000000000001
21
44.099990000000005
31
0
0
ARC
5
112
100
AcDbEntity
8
0
100
AcDbCircle
10
13.050000000000011
20
44.099990000000005
30
0
40
0.99999999999999645
210
0
220
0
230
1
100
AcDbArc
50
90.000000000000199
51
180
0
LINE
5
113
100
AcDbEntity
8
0
100
AcDbLine
10
24.034313483298444
20
45.099990000000005
30
0
11
25.050000000000008
21
45.099990000000005
31
0
0
ARC
5
114
100
AcDbEntity
8
0
100
AcDbCircle
10
25.050000000000008
20
44.099990000000005
30
0
40
1.0000000000000009
210
0
220
-0
230
1
100
AcDbArc
50
0
51
90
0
LINE
5
115
100
AcDbEntity
8
0
100
AcDbLine
10
26.050000000000008
20
44.099990000000005
30
0
11
26.050000000000004
21
32.099990000000005
31
0
0
ARC
5
116
100
AcDbEntity
8
0
100
AcDbCircle
10
25.050000000000008
20
32.099990000000005
30
0
40
1.0000000000000009
210
-0
220
0
230
1
100
AcDbArc
50
-90
51
0
0
LINE
5
117
100
AcDbEntity
8
0
100
AcDbLine
10
25.050000000000008
20
31.099990000000002
30
0
11
24.050000000000004
21
31.099990000000002
31
0
0
ARC
5
118
100
AcDbEntity
8
0
100
AcDbCircle
10
13.050000000000006
20
32.099989999999998
30
0
40
0.99999999999999867
210
0
220
0
230
1
100
AcDbArc
50
180
51
270
0
LWPOLYLINE
5
119
100
AcDbEntity
8
0
100
AcDbPolyline
90
8
70
1
43
0.0
10
-26.049999999999915
20
17.999999999999915
10
-26.049999999999915
20
5.9999999999999112
42
0.41421356237309503
10
-25.049999999999912
20
4.9999999999999121
10
-13.049999999999912
20
4.9999999999999156
42
0.41421356237309537
10
-12.049999999999912
20
5.9999999999999165
10
-12.049999999999914
20
17.999999999999915
42
0.41421356237309503
10
-13.049999999999915
20
18.999999999999915
10
-25.049999999999912
20
18.999999999999911
42
0.41421356237309437
0
LWPOLYLINE
5
120
100
AcDbEntity
8
0
100
AcDbPolyline
90
8
70
1
43
0.0
10
-45.100000000000023
20
23.999999999999979
10
-45.100000000000023
20
12.000000000000002
42
0.41421356237309503
10
-44.100000000000023
20
11
10
-32.100000000000009
20
11
42
0.41421356237309503
10
-31.100000000000012
20
12.000000000000002
10
-31.100000000000012
20
23.999999999999979
42
0.41421356237309503
10
-32.100000000000016
20
24.999999999999979
10
-44.10000000000003
20
24.999999999999979
42
0.41421356237309503
0
LWPOLYLINE
5
121
100
AcDbEntity
8
0
100
AcDbPolyline
90
8
70
1
43
0.0
10
-64.150000000000006
20
17.499999999999986
10
-64.15000000000002
20
5.4999999999999858
42
0.41421356237309537
10
-63.150000000000013
20
4.4999999999999858
10
-51.150000000000006
20
4.4999999999999858
42
0.4142135623730947
10
-50.150000000000006
20
5.4999999999999849
10
-50.149999999999999
20
17.499999999999986
42
0.41421356237309503
10
-51.149999999999991
20
18.499999999999986
10
-63.150000000000006
20
18.499999999999986
42
0.41421356237309503
0
LWPOLYLINE
5
122
100
AcDbEntity
8
0
100
AcDbPolyline
90
8
70
1
43
0.0
10
-83.200000000000003
20
14.999999999999996
10
-83.200000000000003
20
2.999999999999996
42
0.41421356237309503
10
-82.200000000000003
20
1.9999999999999951
10
-70.199999999999989
20
1.9999999999999956
42
0.41421356237309503
10
-69.200000000000003
20
2.999999999999996
10
-69.200000000000003
20
14.999999999999996
42
0.41421356237309503
10
-70.199999999999989
20
15.999999999999996
10
-82.200000000000003
20
15.999999999999996
42
0.41421356237309503
0
LWPOLYLINE
5
123
100
AcDbEntity
8
0
100
AcDbPolyline
90
8
70
1
43
0.0
10
-83.200000000000003
20
34.049999999999997
10
-83.200000000000003
20
22.050000000000001
42
0.41421356237309503
10
-82.200000000000003
20
21.050000000000001
10
-70.199999999999989
20
21.050000000000001
42
0.41421356237309503
10
-69.200000000000003
20
22.050000000000001
10
-69.200000000000003
20
34.049999999999997
42
0.41421356237309503
10
-70.199999999999989
20
35.049999999999997
10
-82.200000000000003
20
35.049999999999997
42
0.41421356237309503
0
LWPOLYLINE
5
124
100
AcDbEntity
8
0
100
AcDbPolyline
90
8
70
1
43
0.0
10
-63.150000000000013
20
23.54999999999999
10
-51.150000000000006
20
23.54999999999999
42
0.41421356237309503
10
-50.150000000000006
20
24.54999999999999
10
-50.149999999999999
20
36.549999999999997
42
0.4142135623730937
10
-51.149999999999991
20
37.54999999999999
10
-63.150000000000006
20
37.54999999999999
42
0.41421356237309503
10
-64.150000000000006
20
36.54999999999999
10
-64.150000000000006
20
24.54999999999999
42
0.41421356237309503
0
LWPOLYLINE
5
125
100
AcDbEntity
8
0
100
AcDbPolyline
90
8
70
1
43
0.0
10
-31.100000000000012
20
31.050000000000004
10
-31.100000000000012
20
43.049999999999983
42
0.41421356237309503
10
-32.100000000000016
20
44.049999999999976
10
-44.10000000000003
20
44.049999999999976
42
0.41421356237309503
10
-45.100000000000023
20
43.049999999999983
10
-45.100000000000016
20
31.050000000000004
42
0.41421356237309503
10
-44.100000000000023
20
30.050000000000004
10
-32.100000000000009
20
30.050000000000004
42
0.41421356237309503
0
LWPOLYLINE
5
126
100
AcDbEntity
8
0
100
AcDbPolyline
90
8
70
1
43
0.0
10
-25.049999999999912
20
24.049999999999912
10
-13.049999999999912
20
24.049999999999919
42
0.41421356237309503
10
-12.049999999999912
20
25.049999999999919
10
-12.049999999999914
20
37.049999999999912
42
0.41421356237309503
10
-13.049999999999915
20
38.049999999999919
10
-25.049999999999912
20
38.049999999999912
42
0.41421356237309503
10
-26.049999999999915
20
37.049999999999912
10
-26.049999999999912
20
25.049999999999915
42
0.41421356237309503
0
LWPOLYLINE
5
127
100
AcDbEntity
8
0
100
AcDbPolyline
90
8
70
1
43
0.0
10
-7.0000000000000018
20
6.0000000000000044
10
-7.0000000000000018
20
-6
42
0.4142135623730947
10
-6.0000000000000053
20
-6.9999999999999973
10
6.0000000000000009
20
-6.9999999999999973
42
0.41421356237309437
10
6.9999999999999929
20
-5.9999999999999982
10
7.0000000000000115
20
6.0000000000000036
42
0.4142135623730947
10
6.0000000000000142
20
7.0000000000000036
10
-6.0000000000000053
20
7.0000000000000036
42
0.41421356237309503
0
LWPOLYLINE
5
128
100
AcDbEntity
8
0
100
AcDbPolyline
90
8
70
1
43
0.0
10
12.050000000000008
20
25.049990000000008
10
12.050000000000002
20
13.049990000000001
42
0.41421356237309503
10
13.050000000000006
20
12.049989999999999
10
25.050000000000008
20
12.049990000000001
42
0.41421356237309503
10
26.050000000000004
20
13.049990000000003
10
26.050000000000008
20
25.049990000000008
42
0.41421356237309503
10
25.050000000000008
20
26.049990000000008
10
13.050000000000008
20
26.049990000000008
42
0.41421356237309437
0
LWPOLYLINE
5
129
100
AcDbEntity
8
0
100
AcDbPolyline
90
8
70
1
43
0.0
10
6.0000000000000142
20
45.100000000000016
10
-6.0000000000000053
20
45.100000000000016
42
0.41421356237309503
10
-7.0000000000000018
20
44.100000000000023
10
-7.0000000000000053
20
32.100000000000009
42
0.41421356237309503
10
-6.0000000000000053
20
31.100000000000001
10
6.0000000000000009
20
31.100000000000009
42
0.4142135623730947
10
6.9999999999999938
20
32.100000000000009
10
7.0000000000000115
20
44.100000000000023
42
0.41421356237309437
0
LINE
5
130
100
AcDbEntity
8
0
100
AcDbLine
10
-19.335891332880955
20
-1.569827819785484
30
0
11
-19.335891332880955
21
-13.569827819785637
31
0
0
ARC
5
131
100
AcDbEntity
8
0
100
AcDbCircle
10
-20.335891332880959
20
-13.569827819785637
30
0
40
1.0000000000000009
210
-0
220
0
230
1
100
AcDbArc
50
-90
51
0
0
LINE
5
132
100
AcDbEntity
8
0
100
AcDbLine
10
-31.335891332880962
20
-14.569827819785628
30
0
11
-32.335891332880962
21
-14.569827819785628
31
0
0
ARC
5
133
100
AcDbEntity
8
0
100
AcDbCircle
10
-32.335891332880962
20
-13.569827819785624
30
0
40
1.0000000000000009
210
0
220
0
230
1
100
AcDbArc
50
180
51
270
0
LINE
5
134
100
AcDbEntity
8
0
100
AcDbLine
10
-33.335891332880962
20
-13.569827819785626
30
0
11
-33.33589133288099
21
-1.5698278197855231
31
0
0
ARC
5
135
100
AcDbEntity
8
0
100
AcDbCircle
10
-32.335891332880983
20
-1.569827819785522
30
0
40
1
210
0
220
0
230
1
100
AcDbArc
50
90
51
180
0
LINE
5
136
100
AcDbEntity
8
0
100
AcDbLine
10
-32.335891332880983
20
-0.56982781978552133
30
0
11
-31.335891332880959
21
-0.56982781978551822
31
0
0
ARC
5
137
100
AcDbEntity
8
0
100
AcDbCircle
10
-20.335891332880959
20
-1.5698278197854836
30
0
40
1.0000000000000031
210
-0
220
0
230
1
100
AcDbArc
50
0
51
90.000000000000199
0
LWPOLYLINE
5
138
100
AcDbEntity
8
0
100
AcDbPolyline
90
8
70
1
43
0.0
10
-52.385891332880988
20
-1.5698278197855231
10
-52.385891332880973
20
-13.569827819785626
42
0.41421356237309437
10
-51.385891332880973
20
-14.569827819785628
10
-39.385891332880966
20
-14.569827819785637
42
0.41421356237309503
10
-38.385891332880959
20
-13.569827819785637
10
-38.385891332880959
20
-1.569827819785484
42
0.41421356237309648
10
-39.385891332880966
20
-0.56982781978548303
10
-51.385891332880995
20
-0.56982781978552222
42
0.41421356237309537
0
LWPOLYLINE
5
139
100
AcDbEntity
8
0
100
AcDbPolyline
90
8
70
1
43
0.0
10
-58.262191178247178
20
-14.343457371000499
10
-61.36801971947758
20
-2.752347455531694
42
0.41421356237309287
10
-62.592764590869159
20
-2.0452406743451581
10
-74.183874506337716
20
-5.1510692155753999
42
0.4142135623730912
10
-74.890981287524284
20
-6.3758140869669822
10
-71.785152746294145
20
-17.966924002435679
42
0.41421356237309337
10
-70.560407874902566
20
-18.674030783622232
10
-58.969297959433725
20
-15.568202242392097
42
0.41421356237310203
0
LWPOLYLINE
5
140
100
AcDbEntity
8
0
100
AcDbPolyline
90
8
70
1
43
0.0
10
-83.200000000000003
20
53.099999999999994
10
-83.200000000000003
20
41.099999999999994
42
0.41421356237309503
10
-82.200000000000003
20
40.099999999999994
10
-70.199999999999989
20
40.099999999999994
42
0.41421356237309503
10
-69.200000000000003
20
41.099999999999994
10
-69.200000000000003
20
53.100000000000009
42
0.41421356237309503
10
-70.199999999999989
20
54.099999999999994
10
-82.200000000000003
20
54.099999999999994
42
0.41421356237309503
0
LWPOLYLINE
5
141
100
AcDbEntity
8
0
100
AcDbPolyline
90
8
70
1
43
0.0
10
-63.150000000000013
20
42.599999999999987
10
-51.150000000000006
20
42.599999999999987
42
0.41421356237309503
10
-50.150000000000006
20
43.599999999999987
10
-50.149999999999999
20
55.599999999999994
42
0.41421356237309503
10
-51.149999999999991
20
56.599999999999994
10
-63.150000000000006
20
56.599999999999994
42
0.41421356237309503
10
-64.150000000000006
20
55.599999999999994
10
-64.150000000000006
20
43.599999999999987
42
0.41421356237309503
0
LWPOLYLINE
5
142
100
AcDbEntity
8
0
100
AcDbPolyline
90
8
70
1
43
0.0
10
-31.100000000000012
20
50.099999999999994
10
-31.100000000000012
20
62.099999999999994
42
0.41421356237309503
10
-32.100000000000016
20
63.099999999999987
10
-44.10000000000003
20
63.099999999999987
42
0.41421356237309503
10
-45.100000000000037
20
62.099999999999994
10
-45.100000000000016
20
50.099999999999994
42
0.41421356237309503
10
-44.100000000000023
20
49.100000000000001
10
-32.100000000000009
20
49.100000000000001
42
0.41421356237309503
0
LWPOLYLINE
5
143
100
AcDbEntity
8
0
100
AcDbPolyline
90
8
70
1
43
0.0
10
-25.049999999999912
20
43.099999999999909
10
-13.049999999999912
20
43.099999999999909
42
0.41421356237309503
10
-12.049999999999912
20
44.099999999999902
10
-12.049999999999914
20
56.099999999999916
42
0.41421356237309503
10
-13.049999999999915
20
57.099999999999909
10
-25.049999999999912
20
57.099999999999909
42
0.41421356237309503
10
-26.049999999999915
20
56.099999999999916
10
-26.049999999999912
20
44.099999999999902
42
0.41421356237309503
0
LWPOLYLINE
5
144
100
AcDbEntity
8
0
100
AcDbPolyline
90
8
70
1
43
0.0
10
6.0000000000000142
20
26.050000000000008
10
-6.0000000000000053
20
26.050000000000008
42
0.41421356237309503
10
-7.0000000000000018
20
25.050000000000008
10
-7.0000000000000053
20
13.050000000000006
42
0.41421356237309503
10
-6.0000000000000053
20
12.050000000000004
10
6.0000000000000009
20
12.050000000000004
42
0.41421356237309404
10
6.9999999999999964
20
13.050000000000004
10
7.0000000000000115
20
25.050000000000008
42
0.41421356237309437
0
LINE
5
145
100
AcDbEntity
8
0
100
AcDbLine
10
12.050000000000004
20
-6.0000100000000014
30
0
11
12.05000000000001
21
5.9999900000000048
31
0
0
ARC
5
146
100
AcDbEntity
8
0
100
AcDbCircle
10
13.050000000000011
20
5.9999900000000048
30
0
40
0.99999999999999978
210
0
220
0
230
1
100
AcDbArc
50
90.000000000000199
51
180
0
LINE
5
147
100
AcDbEntity
8
0
100
AcDbLine
10
13.050000000000008
20
6.9999900000000048
30
0
11
14.065686516701568
21
6.9999900000000048
31
0
0
ARC
5
148
100
AcDbEntity
8
0
100
AcDbCircle
10
25.050000000000008
20
5.9999900000000057
30
0
40
1.0000000000000009
210
0
220
0
230
1
100
AcDbArc
50
0
51
90
0
LINE
5
149
100
AcDbEntity
8
0
100
AcDbLine
10
26.050000000000008
20
5.9999900000000057
30
0
11
26.050000000000004
21
-6.0000099999999996
31
0
0
ARC
5
150
100
AcDbEntity
8
0
100
AcDbCircle
10
25.050000000000008
20
-6.0000100000000014
30
0
40
0.99999999999999978
210
-0
220
0
230
1
100
AcDbArc
50
-90
51
0
0
LINE
5
151
100
AcDbEntity
8
0
100
AcDbLine
10
14.050000000000008
20
-7.0000100000000014
30
0
11
13.050000000000006
21
-7.0000100000000014
31
0
0
ARC
5
152
100
AcDbEntity
8
0
100
AcDbCircle
10
13.050000000000006
20
-6.0000100000000023
30
0
40
1.0000000000000009
210
0
220
0
230
1
100
AcDbArc
50
180
51
270
0
LWPOLYLINE
5
153
100
AcDbEntity
8
0
100
AcDbPolyline
90
28
70
1
43
0.0
10
-80.482467064458973
20
-12.655333404710687
42
-0.41421356237310408
10
-81.848492468243421
20
-12.289308000926248
10
-88.198492468243217
20
-1.290785372864232
42
-0.41421356237309037
10
-87.832467064458854
20
0.075240030920186163
10
-86.316922607835863
20
0.9502400309204122
42
0.41421356237307527
10
-85.950897204051444
20
2.3162654347048131
10
-89.538397204051421
20
8.5299977068583406
42
0.41421356237307866
10
-90.904422607835812
20
8.8960231106428349
10
-104.54432271744123
20
1.0210231106438679
42
0.41421356237310686
10
-104.91034812122575
20
-0.34500229314057718
10
-104.61659812122541
20
-0.85379221786455628
42
-0.37796447300928182
10
-104.87829197871234
20
-2.1505251606688374
42
0.37796447300928826
10
-105.13998583619922
20
-3.4472581034732386
10
-104.13214257784831
20
-5.1928938330024774
42
0.37796447300921354
10
-102.87829197871234
20
-5.6146267758066459
42
-0.37796447300924974
10
-101.6244413795763
20
-6.0363597186108819
10
-92.671254862875116
20
-21.543733655179011
42
-0.3779644730091602
10
-92.932948720361736
20
-22.840466597983085
42
0.37796447300917446
10
-93.19464257784837
20
-24.137199540787186
10
-92.194642577848342
20
-25.869250348356168
42
0.37796447300923242
10
-90.940791978712326
20
-26.290983291160416
42
-0.37796447300922076
10
-89.686941379576353
20
-26.712716233964635
10
-89.385348121225576
20
-27.235091080648395
42
0.41421356237309165
10
-88.019322717441156
20
-27.601116484432829
10
-74.379422607836204
20
-19.726116484432907
42
0.41421356237309337
10
-74.013397204051742
20
-18.36009108064848
10
-77.600897204051648
20
-12.146358808495057
42
0.41421356237309859
10
-78.966922607836096
20
-11.780333404710612
0
LINE
5
154
100
AcDbEntity
8
0
100
AcDbLine
10
16.050000000000011
20
8.7499899999999933
30
0
11
22.050000000000011
21
8.7499899999999933
31
0
0
LINE
5
155
100
AcDbEntity
8
0
100
AcDbLine
10
22.065686516701568
20
-8.7500099999999961
30
0
11
16.034313483298451
21
-8.7500099999999961
31
0
0
LINE
5
156
100
AcDbEntity
8
0
100
AcDbLine
10
-23.320204816179391
20
-16.319827819785552
30
0
11
-29.351577849582529
21
-16.319827819785552
31
0
0
LINE
5
157
100
AcDbEntity
8
0
100
AcDbLine
10
-29.351577849582526
20
1.1801721802144405
30
0
11
-23.335891332880962
21
1.1801721802144405
31
0
0
LINE
5
158
100
AcDbEntity
8
0
100
AcDbLine
10
16.050000000000008
20
46.849990000000005
30
0
11
22.050000000000001
21
46.849990000000005
31
0
0
LINE
5
159
100
AcDbEntity
8
0
100
AcDbLine
10
22.065686516701561
20
29.349990000000009
30
0
11
16.050000000000011
21
29.349990000000009
31
0
0
ARC
5
160
100
AcDbEntity
8
0
100
AcDbCircle
10
24.034313483298444
20
46.099990000000005
30
0
40
0.99999999999999489
210
0
220
0
230
1
100
AcDbArc
50
187.18075578145829
51
270
0
ARC
5
161
100
AcDbEntity
8
0
100
AcDbCircle
10
24.049999999999997
20
30.099990000000002
30
0
40
1.0000000000000009
210
0
220
-0
230
1
100
AcDbArc
50
89.999999999999588
51
172.81924421854168
0
ARC
5
162
100
AcDbEntity
8
0
100
AcDbCircle
10
22.065686516701561
20
30.349990000000009
30
0
40
1.0000000000000009
210
-0
220
0
230
1
100
AcDbArc
50
270
51
352.81924421854126
0
ARC
5
163
100
AcDbEntity
8
0
100
AcDbCircle
10
16.050000000000011
20
30.349990000000009
30
0
40
1.0000000000000011
210
0
220
0
230
1
100
AcDbArc
50
187.18075578145866
51
270
0
ARC
5
164
100
AcDbEntity
8
0
100
AcDbCircle
10
14.06568651670157
20
30.099990000000002
30
0
40
0.99999999999999811
210
0
220
-0
230
1
100
AcDbArc
50
7.1807557814583109
51
90
0
LINE
5
165
100
AcDbEntity
8
0
100
AcDbLine
10
14.06568651670157
20
31.099990000000002
30
0
11
13.050000000000006
21
31.099989999999998
31
0
0
LINE
5
166
100
AcDbEntity
8
0
100
AcDbLine
10
13.050000000000008
20
45.099990000000005
30
0
11
14.065686516701563
21
45.099990000000005
31
0
0
ARC
5
167
100
AcDbEntity
8
0
100
AcDbCircle
10
14.065686516701561
20
46.099990000000005
30
0
40
0.99999999999999645
210
0
220
0
230
1
100
AcDbArc
50
270.00000000000011
51
352.81924421854171
0
ARC
5
168
100
AcDbEntity
8
0
100
AcDbCircle
10
16.050000000000004
20
45.849990000000005
30
0
40
0.99999999999999645
210
0
220
-0
230
1
100
AcDbArc
50
89.999999999999801
51
172.81924421854174
0
ARC
5
169
100
AcDbEntity
8
0
100
AcDbCircle
10
22.050000000000001
20
45.849990000000005
30
0
40
1.0000000000000049
210
0
220
-0
230
1
100
AcDbArc
50
7.1807557814582088
51
90
0
ARC
5
170
100
AcDbEntity
8
0
100
AcDbCircle
10
14.050000000000008
20
-8.0000100000000014
30
0
40
1.0000000000000004
210
0
220
-0
230
1
100
AcDbArc
50
7.1807557814584122
51
90
0
ARC
5
171
100
AcDbEntity
8
0
100
AcDbCircle
10
14.065686516701565
20
7.9999900000000075
30
0
40
1.0000000000000031
210
0
220
0
230
1
100
AcDbArc
50
270.00000000000023
51
352.81924421854126
0
ARC
5
172
100
AcDbEntity
8
0
100
AcDbCircle
10
16.050000000000008
20
7.7499899999999942
30
0
40
0.99999999999999978
210
0
220
-0
230
1
100
AcDbArc
50
89.999999999999801
51
172.8192442185414
0
ARC
5
173
100
AcDbEntity
8
0
100
AcDbCircle
10
22.050000000000011
20
7.7499899999999933
30
0
40
1.0000000000000007
210
0
220
-0
230
1
100
AcDbArc
50
7.1807557814586165
51
90
0
ARC
5
174
100
AcDbEntity
8
0
100
AcDbCircle
10
24.034313483298455
20
7.9999900000000048
30
0
40
1.0000000000000011
210
0
220
0
230
1
100
AcDbArc
50
187.18075578145863
51
270
0
LINE
5
175
100
AcDbEntity
8
0
100
AcDbLine
10
24.034313483298455
20
6.9999900000000039
30
0
11
25.050000000000008
21
6.9999900000000057
31
0
0
LINE
5
176
100
AcDbEntity
8
0
100
AcDbLine
10
25.050000000000008
20
-7.0000100000000014
30
0
11
24.050000000000011
21
-7.0000100000000014
31
0
0
ARC
5
177
100
AcDbEntity
8
0
100
AcDbCircle
10
24.050000000000015
20
-8.0000100000000067
30
0
40
1.0000000000000053
210
0
220
0
230
1
100
AcDbArc
50
90.000000000000199
51
172.81924421854129
0
ARC
5
178
100
AcDbEntity
8
0
100
AcDbCircle
10
22.065686516701568
20
-7.7500099999999961
30
0
40
1.0000000000000009
210
-0
220
0
230
1
100
AcDbArc
50
270
51
352.81924421854154
0
ARC
5
179
100
AcDbEntity
8
0
100
AcDbCircle
10
16.034313483298451
20
-7.7500099999999961
30
0
40
1.0000000000000004
210
0
220
0
230
1
100
AcDbArc
50
187.1807557814584
51
270
0
ARC
5
180
100
AcDbEntity
8
0
100
AcDbCircle
10
-31.335891332880973
20
-15.569827819785635
30
0
40
1.0000000000000102
210
0
220
-0
230
1
100
AcDbArc
50
7.1807557814608032
51
89.999999999999389
0
ARC
5
181
100
AcDbEntity
8
0
100
AcDbCircle
10
-31.335891332880962
20
0.43017218021448156
30
0
40
0.99999999999999978
210
0
220
0
230
1
100
AcDbArc
50
270.00000000000023
51
352.81924421854052
0
ARC
5
182
100
AcDbEntity
8
0
100
AcDbCircle
10
-29.351577849582526
20
0.18017218021443987
30
0
40
1.0000000000000007
210
0
220
-0
230
1
100
AcDbArc
50
90
51
172.81924421854055
0
ARC
5
183
100
AcDbEntity
8
0
100
AcDbCircle
10
-23.335891332880962
20
0.18017218021443959
30
0
40
1.0000000000000004
210
0
220
-0
230
1
100
AcDbArc
50
7.1807557814603467
51
90
0
ARC
5
184
100
AcDbEntity
8
0
100
AcDbCircle
10
-21.351577849582526
20
0.43017218021451448
30
0
40
1.0000000000000004
210
0
220
0
230
1
100
AcDbArc
50
187.18075578146048
51
270.00000000000023
0
LINE
5
185
100
AcDbEntity
8
0
100
AcDbLine
10
-21.351577849582522
20
-0.56982781978548602
30
0
11
-20.335891332880962
21
-0.56982781978548347
31
0
0
LINE
5
186
100
AcDbEntity
8
0
100
AcDbLine
10
-20.335891332880959
20
-14.569827819785637
30
0
11
-21.335891332880959
21
-14.569827819785637
31
0
0
ARC
5
187
100
AcDbEntity
8
0
100
AcDbCircle
10
-21.335891332880955
20
-15.569827819785642
30
0
40
1.0000000000000053
210
0
220
0
230
1
100
AcDbArc
50
90.000000000000199
51
172.81924421853901
0
ARC
5
188
100
AcDbEntity
8
0
100
AcDbCircle
10
-23.320204816179391
20
-15.31982781978555
30
0
40
1.0000000000000009
210
-0
220
0
230
1
100
AcDbArc
50
270
51
352.81924421853915
0
ARC
5
189
100
AcDbEntity
8
0
100
AcDbCircle
10
-29.351577849582529
20
-15.31982781978555
30
0
40
1.0000000000000007
210
0
220
0
230
1
100
AcDbArc
50
187.18075578146053
51
270
0
ENDSEC
0
SECTION
2
OBJECTS
0
DICTIONARY
5
C
100
AcDbDictionary
3
ACAD_GROUP
350
D
3
ACAD_MLINESTYLE
350
17
0
DICTIONARY
5
D
100
AcDbDictionary
0
DICTIONARY
5
1A
330
C
100
AcDbDictionary
0
DICTIONARY
5
17
100
AcDbDictionary
0
ENDSEC
0
EOF
