  0
SECTION
  2
HEADER
  9
$ACADVER
  1
AC1024
  9
$ACADMAINTVER
 70
     6
  9
$DWGCODEPAGE
  3
UNDEFINED
  9
$INSBASE
 10
0.0
 20
0.0
 30
0.0
  9
$EXTMIN
 10
1.000000000000000E+20
 20
1.000000000000000E+20
 30
1.000000000000000E+20
  9
$EXTMAX
 10
-1.000000000000000E+20
 20
-1.000000000000000E+20
 30
-1.000000000000000E+20
  9
$LIMMIN
 10
0.0
 20
0.0
  9
$LIMMAX
 10
12.0
 20
9.0
  9
$ORTHOMODE
 70
     0
  9
$REGENMODE
 70
     1
  9
$FILLMODE
 70
     1
  9
$QTEXTMODE
 70
     0
  9
$MIRRTEXT
 70
     1
  9
$LTSCALE
 40
1.0
  9
$ATTMODE
 70
     1
  9
$TEXTSIZE
 40
0.2
  9
$TRACEWID
 40
0.05
  9
$TEXTSTYLE
  7
Standard
  9
$CLAYER
  8
0
  9
$CELTYPE
  6
ByLayer
  9
$CECOLOR
 62
   256
  9
$CELTSCALE
 40
1.0
  9
$DISPSILH
 70
     0
  9
$DIMSCALE
 40
1.0
  9
$DIMASZ
 40
0.18
  9
$DIMEXO
 40
0.0625
  9
$DIMDLI
 40
0.38
  9
$DIMRND
 40
0.0
  9
$DIMDLE
 40
0.0
  9
$DIMEXE
 40
0.18
  9
$DIMTP
 40
0.0
  9
$DIMTM
 40
0.0
  9
$DIMTXT
 40
0.18
  9
$DIMCEN
 40
0.09
  9
$DIMTSZ
 40
0.0
  9
$DIMTOL
 70
     0
  9
$DIMLIM
 70
     0
  9
$DIMTIH
 70
     1
  9
$DIMTOH
 70
     1
  9
$DIMSE1
 70
     0
  9
$DIMSE2
 70
     0
  9
$DIMTAD
 70
     0
  9
$DIMZIN
 70
     0
  9
$DIMBLK
  1

  9
$DIMASO
 70
     1
  9
$DIMSHO
 70
     1
  9
$DIMPOST
  1

  9
$DIMAPOST
  1

  9
$DIMALT
 70
     0
  9
$DIMALTD
 70
     2
  9
$DIMALTF
 40
25.4
  9
$DIMLFAC
 40
1.0
  9
$DIMTOFL
 70
     0
  9
$DIMTVP
 40
0.0
  9
$DIMTIX
 70
     0
  9
$DIMSOXD
 70
     0
  9
$DIMSAH
 70
     0
  9
$DIMBLK1
  1

  9
$DIMBLK2
  1

  9
$DIMSTYLE
  2
Standard
  9
$DIMCLRD
 70
     0
  9
$DIMCLRE
 70
     0
  9
$DIMCLRT
 70
     0
  9
$DIMTFAC
 40
1.0
  9
$DIMGAP
 40
0.09
  9
$DIMJUST
 70
     0
  9
$DIMSD1
 70
     0
  9
$DIMSD2
 70
     0
  9
$DIMTOLJ
 70
     1
  9
$DIMTZIN
 70
     0
  9
$DIMALTZ
 70
     0
  9
$DIMALTTZ
 70
     0
  9
$DIMUPT
 70
     0
  9
$DIMDEC
 70
     4
  9
$DIMTDEC
 70
     4
  9
$DIMALTU
 70
     2
  9
$DIMALTTD
 70
     2
  9
$DIMTXSTY
  7
Standard
  9
$DIMAUNIT
 70
     0
  9
$DIMADEC
 70
     0
  9
$DIMALTRND
 40
0.0
  9
$DIMAZIN
 70
     0
  9
$DIMDSEP
 70
    46
  9
$DIMATFIT
 70
     3
  9
$DIMFRAC
 70
     0
  9
$DIMLDRBLK
  1

  9
$DIMLUNIT
 70
     2
  9
$DIMLWD
 70
    -2
  9
$DIMLWE
 70
    -2
  9
$DIMTMOVE
 70
     0
  9
$DIMFXL
 40
1.0
  9
$DIMFXLON
 70
     0
  9
$DIMJOGANG
 40
0.7853981633974483
  9
$DIMTFILL
 70
     0
  9
$DIMTFILLCLR
 70
     0
  9
$DIMARCSYM
 70
     0
  9
$DIMLTYPE
  6

  9
$DIMLTEX1
  6

  9
$DIMLTEX2
  6

  9
$DIMTXTDIRECTION
 70
     0
  9
$LUNITS
 70
     2
  9
$LUPREC
 70
     4
  9
$SKETCHINC
 40
0.1
  9
$FILLETRAD
 40
0.5
  9
$AUNITS
 70
     0
  9
$AUPREC
 70
     0
  9
$MENU
  1
.
  9
$ELEVATION
 40
0.0
  9
$PELEVATION
 40
0.0
  9
$THICKNESS
 40
0.0
  9
$LIMCHECK
 70
     0
  9
$CHAMFERA
 40
0.5
  9
$CHAMFERB
 40
0.5
  9
$CHAMFERC
 40
1.0
  9
$CHAMFERD
 40
0.0
  9
$SKPOLY
 70
     0
  9
$TDCREATE
 40
2458998.553425914
  9
$TDUCREATE
 40
2458998.761759259
  9
$TDUPDATE
 40
2458998.553425914
  9
$TDUUPDATE
 40
2458998.761759259
  9
$TDINDWG
 40
0.0000000116
  9
$TDUSRTIMER
 40
0.0000000116
  9
$USRTIMER
 70
     1
  9
$ANGBASE
 50
0.0
  9
$ANGDIR
 70
     0
  9
$PDMODE
 70
     0
  9
$PDSIZE
 40
0.0
  9
$PLINEWID
 40
0.0
  9
$SPLFRAME
 70
     0
  9
$SPLINETYPE
 70
     6
  9
$SPLINESEGS
 70
     8
  9
$HANDSEED
  5
DD
  9
$SURFTAB1
 70
     6
  9
$SURFTAB2
 70
     6
  9
$SURFTYPE
 70
     6
  9
$SURFU
 70
     6
  9
$SURFV
 70
     6
  9
$UCSBASE
  2

  9
$UCSNAME
  2

  9
$UCSORG
 10
0.0
 20
0.0
 30
0.0
  9
$UCSXDIR
 10
1.0
 20
0.0
 30
0.0
  9
$UCSYDIR
 10
0.0
 20
1.0
 30
0.0
  9
$UCSORTHOREF
  2

  9
$UCSORTHOVIEW
 70
     0
  9
$UCSORGTOP
 10
0.0
 20
0.0
 30
0.0
  9
$UCSORGBOTTOM
 10
0.0
 20
0.0
 30
0.0
  9
$UCSORGLEFT
 10
0.0
 20
0.0
 30
0.0
  9
$UCSORGRIGHT
 10
0.0
 20
0.0
 30
0.0
  9
$UCSORGFRONT
 10
0.0
 20
0.0
 30
0.0
  9
$UCSORGBACK
 10
0.0
 20
0.0
 30
0.0
  9
$PUCSBASE
  2

  9
$PUCSNAME
  2

  9
$PUCSORG
 10
0.0
 20
0.0
 30
0.0
  9
$PUCSXDIR
 10
1.0
 20
0.0
 30
0.0
  9
$PUCSYDIR
 10
0.0
 20
1.0
 30
0.0
  9
$PUCSORTHOREF
  2

  9
$PUCSORTHOVIEW
 70
     0
  9
$PUCSORGTOP
 10
0.0
 20
0.0
 30
0.0
  9
$PUCSORGBOTTOM
 10
0.0
 20
0.0
 30
0.0
  9
$PUCSORGLEFT
 10
0.0
 20
0.0
 30
0.0
  9
$PUCSORGRIGHT
 10
0.0
 20
0.0
 30
0.0
  9
$PUCSORGFRONT
 10
0.0
 20
0.0
 30
0.0
  9
$PUCSORGBACK
 10
0.0
 20
0.0
 30
0.0
  9
$USERI1
 70
     0
  9
$USERI2
 70
     0
  9
$USERI3
 70
     0
  9
$USERI4
 70
     0
  9
$USERI5
 70
     0
  9
$USERR1
 40
0.0
  9
$USERR2
 40
0.0
  9
$USERR3
 40
0.0
  9
$USERR4
 40
0.0
  9
$USERR5
 40
0.0
  9
$WORLDVIEW
 70
     1
  9
$SHADEDGE
 70
     3
  9
$SHADEDIF
 70
    70
  9
$TILEMODE
 70
     1
  9
$MAXACTVP
 70
    64
  9
$PINSBASE
 10
0.0
 20
0.0
 30
0.0
  9
$PLIMCHECK
 70
     0
  9
$PEXTMIN
 10
1.000000000000000E+20
 20
1.000000000000000E+20
 30
1.000000000000000E+20
  9
$PEXTMAX
 10
-1.000000000000000E+20
 20
-1.000000000000000E+20
 30
-1.000000000000000E+20
  9
$PLIMMIN
 10
0.0
 20
0.0
  9
$PLIMMAX
 10
12.0
 20
9.0
  9
$UNITMODE
 70
     0
  9
$VISRETAIN
 70
     1
  9
$PLINEGEN
 70
     0
  9
$PSLTSCALE
 70
     1
  9
$TREEDEPTH
 70
  3020
  9
$CMLSTYLE
  2
Standard
  9
$CMLJUST
 70
     0
  9
$CMLSCALE
 40
1.0
  9
$PROXYGRAPHICS
 70
     1
  9
$MEASUREMENT
 70
     0
  9
$CELWEIGHT
370
    -1
  9
$ENDCAPS
280
     0
  9
$JOINSTYLE
280
     0
  9
$LWDISPLAY
290
     1
  9
$INSUNITS
 70
     0
  9
$HYPERLINKBASE
  1

  9
$STYLESHEET
  1

  9
$XEDIT
290
     1
  9
$CEPSNTYPE
380
     0
  9
$PSTYLEMODE
290
     1
  9
$FINGERPRINTGUID
  2
{CC5BB892-3062-5388-CFE6-F9D6BFFA8904}
  9
$VERSIONGUID
  2
{FAEB1C32-E019-11D5-929B-00C0DF256EC4}
  9
$EXTNAMES
290
     1
  9
$PSVPSCALE
 40
0.0
  9
$OLESTARTUP
290
     0
  9
$SORTENTS
280
   127
  9
$INDEXCTL
280
     0
  9
$HIDETEXT
280
     1
  9
$XCLIPFRAME
280
     2
  9
$HALOGAP
280
     0
  9
$OBSCOLOR
 70
   257
  9
$OBSLTYPE
280
     0
  9
$INTERSECTIONDISPLAY
280
     0
  9
$INTERSECTIONCOLOR
 70
   257
  9
$DIMASSOC
280
     2
  9
$PROJECTNAME
  1

  9
$CAMERADISPLAY
290
     0
  9
$LENSLENGTH
 40
50.0
  9
$CAMERAHEIGHT
 40
0.0
  9
$STEPSPERSEC
 40
2.0
  9
$STEPSIZE
 40
6.0
  9
$3DDWFPREC
 40
2.0
  9
$PSOLWIDTH
 40
0.25
  9
$PSOLHEIGHT
 40
4.0
  9
$LOFTANG1
 40
1.570796326794897
  9
$LOFTANG2
 40
1.570796326794897
  9
$LOFTMAG1
 40
0.0
  9
$LOFTMAG2
 40
0.0
  9
$LOFTPARAM
 70
     7
  9
$LOFTNORMALS
280
     1
  9
$LATITUDE
 40
37.795
  9
$LONGITUDE
 40
-122.394
  9
$NORTHDIRECTION
 40
0.0
  9
$TIMEZONE
 70
 -8000
  9
$LIGHTGLYPHDISPLAY
280
     1
  9
$TILEMODELIGHTSYNCH
280
     1
  9
$CMATERIAL
347
3C
  9
$SOLIDHIST
280
     1
  9
$SHOWHIST
280
     1
  9
$DWFFRAME
280
     2
  9
$DGNFRAME
280
     2
  9
$REALWORLDSCALE
290
     1
  9
$INTERFERECOLOR
 62
   256
  9
$CSHADOW
280
     0
  9
$SHADOWPLANELOCATION
 40
0.0
  0
ENDSEC
  0
SECTION
  2
CLASSES
  0
CLASS
  1
ACDBDICTIONARYWDFLT
  2
AcDbDictionaryWithDefault
  3
ObjectDBX Classes
 90
        0
 91
        4
280
     0
281
     0
  0
CLASS
  1
VISUALSTYLE
  2
AcDbVisualStyle
  3
ObjectDBX Classes
 90
     4095
 91
        4
280
     0
281
     0
  0
CLASS
  1
MATERIAL
  2
AcDbMaterial
  3
ObjectDBX Classes
 90
     1153
 91
        4
280
     0
281
     0
  0
CLASS
  1
SUN
  2
AcDbSun
  3
SCENEOE
 90
     1024
 91
        4
280
     0
281
     0
  0
ENDSEC
  0
SECTION
  2
TABLES
  0
TABLE
  2
VPORT
  5
8
330
0
100
AcDbSymbolTable
 70
     1
  0
VPORT
  5
29
330
8
100
AcDbSymbolTableRecord
100
AcDbViewportTableRecord
  2
*Active
 70
     0
 10
0.0
 20
0.0
 11
1.0
 21
1.0
 12
0.0
 22
0.0
 13
0.0
 23
0.0
 14
0.5
 24
0.5
 15
0.5
 25
0.5
 16
0.0
 26
0.0
 36
1.0
 17
299.5
 27
392.5
 37
0.0
 40
155.0
 41
1.270967741935484
 42
50.0
 43
0.0
 44
0.0
 50
0.0
 51
0.0
 71
     0
 72
   100
 73
     1
 74
     3
 75
     0
 76
     0
 77
     0
 78
     0
281
     0
 65
     1
110
0.0
120
0.0
130
0.0
111
1.0
121
0.0
131
0.0
112
0.0
122
1.0
132
0.0
 79
     0
146
0.0
 60
     3
 61
     5
292
     1
282
     1
141
0.0
142
0.0
 63
   250
361
3F
  0
ENDTAB
  0
TABLE
  2
LTYPE
  5
5
330
0
100
AcDbSymbolTable
 70
     1
  0
LTYPE
  5
14
330
5
100
AcDbSymbolTableRecord
100
AcDbLinetypeTableRecord
  2
ByBlock
 70
     0
  3

 72
    65
 73
     0
 40
0.0
  0
LTYPE
  5
15
330
5
100
AcDbSymbolTableRecord
100
AcDbLinetypeTableRecord
  2
ByLayer
 70
     0
  3

 72
    65
 73
     0
 40
0.0
  0
LTYPE
  5
16
330
5
100
AcDbSymbolTableRecord
100
AcDbLinetypeTableRecord
  2
Continuous
 70
     0
  3
Solid line
 72
    65
 73
     0
 40
0.0
  0
ENDTAB
  0
TABLE
  2
LAYER
  5
2
330
0
100
AcDbSymbolTable
 70
     1
  0
LAYER
  5
10
330
2
100
AcDbSymbolTableRecord
100
AcDbLayerTableRecord
  2
0
 70
     0
 62
     7
  6
Continuous
370
    -3
390
F
347
3E
  0
ENDTAB
  0
TABLE
  2
STYLE
  5
3
330
0
100
AcDbSymbolTable
 70
     1
  0
STYLE
  5
11
330
3
100
AcDbSymbolTableRecord
100
AcDbTextStyleTableRecord
  2
Standard
 70
     0
 40
0.0
 41
1.0
 50
0.0
 71
     0
 42
0.2
  3
txt
  4

  0
ENDTAB
  0
TABLE
  2
VIEW
  5
6
330
0
100
AcDbSymbolTable
 70
     0
  0
ENDTAB
  0
TABLE
  2
UCS
  5
7
330
0
100
AcDbSymbolTable
 70
     0
  0
ENDTAB
  0
TABLE
  2
APPID
  5
9
330
0
100
AcDbSymbolTable
 70
     1
  0
APPID
  5
12
330
9
100
AcDbSymbolTableRecord
100
AcDbRegAppTableRecord
  2
ACAD
 70
     0
  0
ENDTAB
  0
TABLE
  2
DIMSTYLE
  5
A
330
0
100
AcDbSymbolTable
 70
     1
100
AcDbDimStyleTable
  0
DIMSTYLE
105
27
330
A
100
AcDbSymbolTableRecord
100
AcDbDimStyleTableRecord
  2
Standard
 70
     0
178
     0
340
11
  0
ENDTAB
  0
TABLE
  2
BLOCK_RECORD
  5
1
330
0
100
AcDbSymbolTable
 70
    32
  0
BLOCK_RECORD
  5
1F
330
1
100
AcDbSymbolTableRecord
100
AcDbBlockTableRecord
  2
*Model_Space
340
22
 70
     0
280
     1
281
     0
  0
BLOCK_RECORD
  5
1B
330
1
100
AcDbSymbolTableRecord
100
AcDbBlockTableRecord
  2
*Paper_Space
340
1E
 70
     0
280
     1
281
     0
  0
BLOCK_RECORD
  5
23
330
1
100
AcDbSymbolTableRecord
100
AcDbBlockTableRecord
  2
*Paper_Space0
340
26
 70
     0
280
     1
281
     0
  0
BLOCK_RECORD
  5
40
330
1
100
AcDbSymbolTableRecord
100
AcDbBlockTableRecord
  2
block 2
340
0
102
{BLKREFS
331
41
102
}
 70
     0
280
     1
281
     0
  0
BLOCK_RECORD
  5
45
330
1
100
AcDbSymbolTableRecord
100
AcDbBlockTableRecord
  2
block 3
340
0
102
{BLKREFS
331
46
102
}
 70
     0
280
     1
281
     0
  0
BLOCK_RECORD
  5
4A
330
1
100
AcDbSymbolTableRecord
100
AcDbBlockTableRecord
  2
block 4
340
0
102
{BLKREFS
331
4B
102
}
 70
     0
280
     1
281
     0
  0
BLOCK_RECORD
  5
4F
330
1
100
AcDbSymbolTableRecord
100
AcDbBlockTableRecord
  2
block 5
340
0
102
{BLKREFS
331
50
102
}
 70
     0
280
     1
281
     0
  0
BLOCK_RECORD
  5
54
330
1
100
AcDbSymbolTableRecord
100
AcDbBlockTableRecord
  2
block 6
340
0
102
{BLKREFS
331
55
102
}
 70
     0
280
     1
281
     0
  0
BLOCK_RECORD
  5
59
330
1
100
AcDbSymbolTableRecord
100
AcDbBlockTableRecord
  2
block 7
340
0
102
{BLKREFS
331
5A
102
}
 70
     0
280
     1
281
     0
  0
BLOCK_RECORD
  5
5E
330
1
100
AcDbSymbolTableRecord
100
AcDbBlockTableRecord
  2
block 8
340
0
102
{BLKREFS
331
5F
102
}
 70
     0
280
     1
281
     0
  0
BLOCK_RECORD
  5
63
330
1
100
AcDbSymbolTableRecord
100
AcDbBlockTableRecord
  2
block 9
340
0
102
{BLKREFS
331
64
102
}
 70
     0
280
     1
281
     0
  0
BLOCK_RECORD
  5
68
330
1
100
AcDbSymbolTableRecord
100
AcDbBlockTableRecord
  2
block 10
340
0
102
{BLKREFS
331
69
102
}
 70
     0
280
     1
281
     0
  0
BLOCK_RECORD
  5
6D
330
1
100
AcDbSymbolTableRecord
100
AcDbBlockTableRecord
  2
block 11
340
0
102
{BLKREFS
331
6E
102
}
 70
     0
280
     1
281
     0
  0
BLOCK_RECORD
  5
72
330
1
100
AcDbSymbolTableRecord
100
AcDbBlockTableRecord
  2
block 12
340
0
102
{BLKREFS
331
73
102
}
 70
     0
280
     1
281
     0
  0
BLOCK_RECORD
  5
77
330
1
100
AcDbSymbolTableRecord
100
AcDbBlockTableRecord
  2
block 13
340
0
102
{BLKREFS
331
78
102
}
 70
     0
280
     1
281
     0
  0
BLOCK_RECORD
  5
7C
330
1
100
AcDbSymbolTableRecord
100
AcDbBlockTableRecord
  2
block 14
340
0
102
{BLKREFS
331
7D
102
}
 70
     0
280
     1
281
     0
  0
BLOCK_RECORD
  5
81
330
1
100
AcDbSymbolTableRecord
100
AcDbBlockTableRecord
  2
block 15
340
0
102
{BLKREFS
331
82
102
}
 70
     0
280
     1
281
     0
  0
BLOCK_RECORD
  5
86
330
1
100
AcDbSymbolTableRecord
100
AcDbBlockTableRecord
  2
block 16
340
0
102
{BLKREFS
331
87
102
}
 70
     0
280
     1
281
     0
  0
BLOCK_RECORD
  5
8B
330
1
100
AcDbSymbolTableRecord
100
AcDbBlockTableRecord
  2
block 17
340
0
102
{BLKREFS
331
8C
102
}
 70
     0
280
     1
281
     0
  0
BLOCK_RECORD
  5
90
330
1
100
AcDbSymbolTableRecord
100
AcDbBlockTableRecord
  2
block 18
340
0
102
{BLKREFS
331
91
102
}
 70
     0
280
     1
281
     0
  0
BLOCK_RECORD
  5
95
330
1
100
AcDbSymbolTableRecord
100
AcDbBlockTableRecord
  2
block 19
340
0
102
{BLKREFS
331
96
102
}
 70
     0
280
     1
281
     0
  0
BLOCK_RECORD
  5
9A
330
1
100
AcDbSymbolTableRecord
100
AcDbBlockTableRecord
  2
block 20
340
0
102
{BLKREFS
331
9B
102
}
 70
     0
280
     1
281
     0
  0
BLOCK_RECORD
  5
9F
330
1
100
AcDbSymbolTableRecord
100
AcDbBlockTableRecord
  2
block 21
340
0
102
{BLKREFS
331
A0
102
}
 70
     0
280
     1
281
     0
  0
BLOCK_RECORD
  5
A4
330
1
100
AcDbSymbolTableRecord
100
AcDbBlockTableRecord
  2
block 22
340
0
102
{BLKREFS
331
A5
102
}
 70
     0
280
     1
281
     0
  0
BLOCK_RECORD
  5
A9
330
1
100
AcDbSymbolTableRecord
100
AcDbBlockTableRecord
  2
block 23
340
0
102
{BLKREFS
331
AA
102
}
 70
     0
280
     1
281
     0
  0
BLOCK_RECORD
  5
AE
330
1
100
AcDbSymbolTableRecord
100
AcDbBlockTableRecord
  2
block 24
340
0
102
{BLKREFS
331
AF
102
}
 70
     0
280
     1
281
     0
  0
BLOCK_RECORD
  5
B3
330
1
100
AcDbSymbolTableRecord
100
AcDbBlockTableRecord
  2
block 25
340
0
102
{BLKREFS
331
B4
102
}
 70
     0
280
     1
281
     0
  0
BLOCK_RECORD
  5
B8
330
1
100
AcDbSymbolTableRecord
100
AcDbBlockTableRecord
  2
block 26
340
0
102
{BLKREFS
331
B9
102
}
 70
     0
280
     1
281
     0
  0
BLOCK_RECORD
  5
BD
330
1
100
AcDbSymbolTableRecord
100
AcDbBlockTableRecord
  2
block 27
340
0
102
{BLKREFS
331
BE
102
}
 70
     0
280
     1
281
     0
  0
BLOCK_RECORD
  5
C2
330
1
100
AcDbSymbolTableRecord
100
AcDbBlockTableRecord
  2
block 28
340
0
102
{BLKREFS
331
C3
102
}
 70
     0
280
     1
281
     0
  0
BLOCK_RECORD
  5
C7
330
1
100
AcDbSymbolTableRecord
100
AcDbBlockTableRecord
  2
block 29
340
0
102
{BLKREFS
331
C8
102
}
 70
     0
280
     1
281
     0
  0
BLOCK_RECORD
  5
CC
330
1
100
AcDbSymbolTableRecord
100
AcDbBlockTableRecord
  2
block 30
340
0
102
{BLKREFS
331
CD
102
}
 70
     0
280
     1
281
     0
  0
BLOCK_RECORD
  5
D1
330
1
100
AcDbSymbolTableRecord
100
AcDbBlockTableRecord
  2
block 31
340
0
102
{BLKREFS
331
D2
102
}
 70
     0
280
     1
281
     0
  0
BLOCK_RECORD
  5
D6
330
1
100
AcDbSymbolTableRecord
100
AcDbBlockTableRecord
  2
block 32
340
0
102
{BLKREFS
331
D7
102
}
 70
     0
280
     1
281
     0
  0
ENDTAB
  0
ENDSEC
  0
SECTION
  2
BLOCKS
  0
BLOCK
  5
20
330
1F
100
AcDbEntity
  8
0
100
AcDbBlockBegin
  2
*Model_Space
 70
     0
 10
0.0
 20
0.0
 30
0.0
  3
*Model_Space
  1

  0
ENDBLK
  5
21
330
1F
100
AcDbEntity
  8
0
100
AcDbBlockEnd
  0
BLOCK
  5
1C
330
1B
100
AcDbEntity
 67
     1
  8
0
100
AcDbBlockBegin
  2
*Paper_Space
 70
     0
 10
0.0
 20
0.0
 30
0.0
  3
*Paper_Space
  1

  0
ENDBLK
  5
1D
330
1B
100
AcDbEntity
 67
     1
  8
0
100
AcDbBlockEnd
  0
BLOCK
  5
24
330
23
100
AcDbEntity
  8
0
100
AcDbBlockBegin
  2
*Paper_Space0
 70
     0
 10
0.0
 20
0.0
 30
0.0
  3
*Paper_Space0
  1

  0
ENDBLK
  5
25
330
23
100
AcDbEntity
  8
0
100
AcDbBlockEnd
  0
BLOCK
  5
42
330
40
100
AcDbEntity
  8
0
100
AcDbBlockBegin
  2
block 2
 70
     0
 10
0.0
 20
0.0
 30
0.0
  3
block 2
  1

  0
SPLINE
  5
44
330
40
100
AcDbEntity
  8
0
 62
     7
420
 16777215
370
    25
100
AcDbSpline
210
0.0
220
0.0
230
1.0
 70
    11
 71
     3
 72
    62
 73
    58
 74
     0
 42
0.0000000001
 43
0.0000000001
 12
1.0
 22
0.0
 32
0.0
 13
1.0
 23
0.0
 33
0.0
 40
0.0
 40
0.0
 40
0.0
 40
0.0
 40
1.0
 40
1.0
 40
1.0
 40
2.0
 40
2.0
 40
2.0
 40
3.0
 40
3.0
 40
3.0
 40
4.0
 40
4.0
 40
4.0
 40
5.0
 40
5.0
 40
5.0
 40
6.0
 40
6.0
 40
6.0
 40
7.0
 40
7.0
 40
7.0
 40
8.0
 40
8.0
 40
8.0
 40
9.0
 40
9.0
 40
9.0
 40
10.0
 40
10.0
 40
10.0
 40
11.0
 40
11.0
 40
11.0
 40
12.0
 40
12.0
 40
12.0
 40
13.0
 40
13.0
 40
13.0
 40
14.0
 40
14.0
 40
14.0
 40
15.0
 40
15.0
 40
15.0
 40
16.0
 40
16.0
 40
16.0
 40
17.0
 40
17.0
 40
17.0
 40
18.0
 40
18.0
 40
18.0
 40
19.0
 40
19.0
 40
19.0
 40
19.0
 10
377.8978574069642
 20
428.0098376390397
 30
0.0
 10
377.8978574069642
 20
428.0098376390397
 30
0.0
 10
377.8978574043795
 20
370.4560901945224
 30
0.0
 10
377.8978574043795
 20
370.4560901945224
 30
0.0
 10
377.8978574043558
 20
369.9038054446919
 30
0.0
 10
377.4501421541663
 20
369.4560901945424
 30
0.0
 10
376.8978574043358
 20
369.4560901945679
 30
0.0
 10
376.8978574043358
 20
369.4560901945679
 30
0.0
 10
333.5119660714554
 20
369.456090196516
 30
0.0
 10
333.5119660714554
 20
369.456090196516
 30
0.0
 10
332.9596813216231
 20
369.4560901965397
 30
0.0
 10
332.5119660714354
 20
369.0083749463902
 30
0.0
 10
332.5119660714117
 20
368.4560901965597
 30
0.0
 10
332.5119660714117
 20
368.4560901965597
 30
0.0
 10
332.5119660711607
 20
362.8862623767745
 30
0.0
 10
332.5119660711607
 20
362.8862623767745
 30
0.0
 10
332.5119660711352
 20
362.333977626944
 30
0.0
 10
332.0642508209457
 20
361.8862623767945
 30
0.0
 10
331.5119660711134
 20
361.88626237682
 30
0.0
 10
331.5119660711152
 20
361.88626237682
 30
0.0
 10
302.9369660711145
 20
361.8862623781024
 30
0.0
 10
302.9369660711145
 20
361.8862623781024
 30
0.0
 10
284.0138867669866
 20
361.8862623789519
 30
0.0
 10
265.8658475251432
 20
354.3690983954548
 30
0.0
 10
252.4852098276606
 20
340.9884606991782
 30
0.0
 10
252.4852098276606
 20
340.9884606991782
 30
0.0
 10
245.7500177365564
 20
334.2532686086761
 30
0.0
 10
245.7500177365564
 20
334.2532686086761
 30
0.0
 10
245.3594934447883
 20
333.8627443169444
 30
0.0
 10
244.7263284659166
 20
333.8627443169717
 30
0.0
 10
244.3358041741831
 20
334.2532686087397
 30
0.0
 10
244.3358041741849
 20
334.2532686087397
 30
0.0
 10
217.3950358121856
 20
361.1940369731583
 30
0.0
 10
217.3950358121856
 20
361.1940369731583
 30
0.0
 10
217.0045115204521
 20
361.5845612649246
 30
0.0
 10
217.0045115204794
 20
362.2177262437963
 30
0.0
 10
217.3950358122493
 20
362.6082505355316
 30
0.0
 10
217.3950358122493
 20
362.6082505355316
 30
0.0
 10
224.1302279033534
 20
369.3434426260301
 30
0.0
 10
224.1302279033534
 20
369.3434426260301
 30
0.0
 10
234.7197571613615
 20
379.9329718830868
 30
0.0
 10
247.3348837407812
 20
388.279676897786
 30
0.0
 10
261.2221506391652
 20
393.8850384280759
 30
0.0
 10
261.6002745199312
 20
394.0376617678921
 30
0.0
 10
261.847857405457
 20
394.404584736596
 30
0.0
 10
261.8478574054752
 20
394.8123488265555
 30
0.0
 10
261.8478574054752
 20
394.8123488265555
 30
0.0
 10
261.8478574075671
 20
441.4073084901547
 30
0.0
 10
261.8478574075671
 20
441.4073084901547
 30
0.0
 10
261.8478574075871
 20
441.8606884361716
 30
0.0
 10
262.152875590491
 20
442.2573400479851
 30
0.0
 10
262.5910503996329
 20
442.3737711953781
 30
0.0
 10
301.1746843235014
 20
452.6261560305247
 30
0.0
 10
342.2142778224406
 20
447.8052287386108
 30
0.0
 10
377.3716438253632
 20
428.8904774234124
 30
0.0
 10
377.6957281792584
 20
428.7161192260828
 30
0.0
 10
377.8978574069806
 20
428.3778477603882
 30
0.0
 10
377.8978574069642
 20
428.0098376390397
 30
0.0
  0
ENDBLK
  5
43
330
40
100
AcDbEntity
  8
0
100
AcDbBlockEnd
  0
BLOCK
  5
47
330
45
100
AcDbEntity
  8
0
100
AcDbBlockBegin
  2
block 3
 70
     0
 10
0.0
 20
0.0
 30
0.0
  3
block 3
  1

  0
SPLINE
  5
49
330
45
100
AcDbEntity
  8
0
 62
     7
420
 16777215
370
    25
100
AcDbSpline
210
0.0
220
0.0
230
1.0
 70
    11
 71
     3
 72
    29
 73
    25
 74
     0
 42
0.0000000001
 43
0.0000000001
 12
1.0
 22
0.0
 32
0.0
 13
1.0
 23
0.0
 33
0.0
 40
0.0
 40
0.0
 40
0.0
 40
0.0
 40
1.0
 40
1.0
 40
1.0
 40
2.0
 40
2.0
 40
2.0
 40
3.0
 40
3.0
 40
3.0
 40
4.0
 40
4.0
 40
4.0
 40
5.0
 40
5.0
 40
5.0
 40
6.0
 40
6.0
 40
6.0
 40
7.0
 40
7.0
 40
7.0
 40
8.0
 40
8.0
 40
8.0
 40
8.0
 10
284.1728574055942
 20
397.4810901987303
 30
0.0
 10
284.1728574056178
 20
398.0333749485608
 30
0.0
 10
284.6205726558073
 20
398.4810901987103
 30
0.0
 10
285.1728574056378
 20
398.4810901986857
 30
0.0
 10
285.1728574056378
 20
398.4810901986857
 30
0.0
 10
297.1728574056378
 20
398.4810901981464
 30
0.0
 10
297.1728574056378
 20
398.4810901981464
 30
0.0
 10
297.7251421554683
 20
398.4810901981218
 30
0.0
 10
298.1728574056178
 20
398.0333749479323
 30
0.0
 10
298.1728574055924
 20
397.4810901981018
 30
0.0
 10
298.1728574055924
 20
397.4810901981018
 30
0.0
 10
298.1728574050539
 20
385.4810901981018
 30
0.0
 10
298.1728574050539
 20
385.4810901981018
 30
0.0
 10
298.1728574050303
 20
384.9288054482713
 30
0.0
 10
297.7251421548408
 20
384.4810901981218
 30
0.0
 10
297.1728574050103
 20
384.4810901981473
 30
0.0
 10
297.1728574050103
 20
384.4810901981473
 30
0.0
 10
285.1728574050103
 20
384.4810901986857
 30
0.0
 10
285.1728574050103
 20
384.4810901986857
 30
0.0
 10
284.6205726551798
 20
384.4810901987112
 30
0.0
 10
284.1728574050303
 20
384.9288054489007
 30
0.0
 10
284.1728574050558
 20
385.4810901987312
 30
0.0
 10
284.1728574050558
 20
385.4810901987312
 30
0.0
 10
284.1728574055942
 20
397.4810901987303
 30
0.0
 10
284.1728574055942
 20
397.4810901987303
 30
0.0
  0
ENDBLK
  5
48
330
45
100
AcDbEntity
  8
0
100
AcDbBlockEnd
  0
BLOCK
  5
4C
330
4A
100
AcDbEntity
  8
0
100
AcDbBlockBegin
  2
block 4
 70
     0
 10
0.0
 20
0.0
 30
0.0
  3
block 4
  1

  0
SPLINE
  5
4E
330
4A
100
AcDbEntity
  8
0
 62
     7
420
 16777215
370
    25
100
AcDbSpline
210
0.0
220
0.0
230
1.0
 70
    11
 71
     3
 72
    29
 73
    25
 74
     0
 42
0.0000000001
 43
0.0000000001
 12
1.0
 22
0.0
 32
0.0
 13
1.0
 23
0.0
 33
0.0
 40
0.0
 40
0.0
 40
0.0
 40
0.0
 40
1.0
 40
1.0
 40
1.0
 40
2.0
 40
2.0
 40
2.0
 40
3.0
 40
3.0
 40
3.0
 40
4.0
 40
4.0
 40
4.0
 40
5.0
 40
5.0
 40
5.0
 40
6.0
 40
6.0
 40
6.0
 40
7.0
 40
7.0
 40
7.0
 40
8.0
 40
8.0
 40
8.0
 40
8.0
 10
277.7624495290675
 20
361.307059415396
 30
0.0
 10
277.7624495290675
 20
361.307059415396
 30
0.0
 10
289.3535594446748
 20
364.4128879561067
 30
0.0
 10
289.3535594446748
 20
364.4128879561067
 30
0.0
 10
289.8870255480088
 20
364.555829767658
 30
0.0
 10
290.2036080374692
 20
365.1041667241334
 30
0.0
 10
290.0606662259179
 20
365.6376328274655
 30
0.0
 10
290.0606662259179
 20
365.6376328274655
 30
0.0
 10
286.9548376852072
 20
377.2287427430747
 30
0.0
 10
286.9548376852072
 20
377.2287427430747
 30
0.0
 10
286.8118958736559
 20
377.7622088464068
 30
0.0
 10
286.2635589171805
 20
378.0787913358672
 30
0.0
 10
285.7300928138466
 20
377.9358495243159
 30
0.0
 10
285.7300928138466
 20
377.9358495243159
 30
0.0
 10
274.1389828982392
 20
374.8300209836052
 30
0.0
 10
274.1389828982392
 20
374.8300209836052
 30
0.0
 10
273.6055167949053
 20
374.6870791720539
 30
0.0
 10
273.2889343054467
 20
374.1387422155804
 30
0.0
 10
273.431876116998
 20
373.6052761122464
 30
0.0
 10
273.431876116998
 20
373.6052761122464
 30
0.0
 10
276.5377046577069
 20
362.0141661966391
 30
0.0
 10
276.5377046577069
 20
362.0141661966391
 30
0.0
 10
276.68064646926
 20
361.4807000933033
 30
0.0
 10
277.2289834257335
 20
361.1641176038447
 30
0.0
 10
277.7624495290675
 20
361.307059415396
 30
0.0
  0
ENDBLK
  5
4D
330
4A
100
AcDbEntity
  8
0
100
AcDbBlockEnd
  0
BLOCK
  5
51
330
4F
100
AcDbEntity
  8
0
100
AcDbBlockBegin
  2
block 5
 70
     0
 10
0.0
 20
0.0
 30
0.0
  3
block 5
  1

  0
SPLINE
  5
53
330
4F
100
AcDbEntity
  8
0
 62
     7
420
 16777215
370
    25
100
AcDbSpline
210
0.0
220
0.0
230
1.0
 70
    11
 71
     3
 72
    29
 73
    25
 74
     0
 42
0.0000000001
 43
0.0000000001
 12
1.0
 22
0.0
 32
0.0
 13
1.0
 23
0.0
 33
0.0
 40
0.0
 40
0.0
 40
0.0
 40
0.0
 40
1.0
 40
1.0
 40
1.0
 40
2.0
 40
2.0
 40
2.0
 40
3.0
 40
3.0
 40
3.0
 40
4.0
 40
4.0
 40
4.0
 40
5.0
 40
5.0
 40
5.0
 40
6.0
 40
6.0
 40
6.0
 40
7.0
 40
7.0
 40
7.0
 40
8.0
 40
8.0
 40
8.0
 40
8.0
 10
316.2228574076398
 20
443.0810901972918
 30
0.0
 10
316.7751421574721
 20
443.0810901972673
 30
0.0
 10
317.2228574076216
 20
442.6333749470778
 30
0.0
 10
317.2228574075962
 20
442.0810901972472
 30
0.0
 10
317.2228574075962
 20
442.0810901972472
 30
0.0
 10
317.2228574070577
 20
430.0810901972472
 30
0.0
 10
317.2228574070577
 20
430.0810901972472
 30
0.0
 10
317.2228574070323
 20
429.5288054474167
 30
0.0
 10
316.7751421568428
 20
429.0810901972673
 30
0.0
 10
316.2228574070123
 20
429.0810901972918
 30
0.0
 10
316.2228574070123
 20
429.0810901972918
 30
0.0
 10
304.2228574070123
 20
429.0810901978302
 30
0.0
 10
304.2228574070123
 20
429.0810901978302
 30
0.0
 10
303.6705726571818
 20
429.0810901978557
 30
0.0
 10
303.2228574070323
 20
429.5288054480452
 30
0.0
 10
303.2228574070577
 20
430.0810901978757
 30
0.0
 10
303.2228574070577
 20
430.0810901978757
 30
0.0
 10
303.2228574075962
 20
442.0810901978757
 30
0.0
 10
303.2228574075962
 20
442.0810901978757
 30
0.0
 10
303.2228574076216
 20
442.6333749477062
 30
0.0
 10
303.6705726578111
 20
443.0810901978557
 30
0.0
 10
304.2228574076398
 20
443.0810901978302
 30
0.0
 10
304.2228574076398
 20
443.0810901978302
 30
0.0
 10
316.2228574076398
 20
443.0810901972918
 30
0.0
 10
316.2228574076398
 20
443.0810901972918
 30
0.0
  0
ENDBLK
  5
52
330
4F
100
AcDbEntity
  8
0
100
AcDbBlockEnd
  0
BLOCK
  5
56
330
54
100
AcDbEntity
  8
0
100
AcDbBlockBegin
  2
block 6
 70
     0
 10
0.0
 20
0.0
 30
0.0
  3
block 6
  1

  0
SPLINE
  5
58
330
54
100
AcDbEntity
  8
0
 62
     7
420
 16777215
370
    25
100
AcDbSpline
210
0.0
220
0.0
230
1.0
 70
    11
 71
     3
 72
    29
 73
    25
 74
     0
 42
0.0000000001
 43
0.0000000001
 12
1.0
 22
0.0
 32
0.0
 13
1.0
 23
0.0
 33
0.0
 40
0.0
 40
0.0
 40
0.0
 40
0.0
 40
1.0
 40
1.0
 40
1.0
 40
2.0
 40
2.0
 40
2.0
 40
3.0
 40
3.0
 40
3.0
 40
4.0
 40
4.0
 40
4.0
 40
5.0
 40
5.0
 40
5.0
 40
6.0
 40
6.0
 40
6.0
 40
7.0
 40
7.0
 40
7.0
 40
8.0
 40
8.0
 40
8.0
 40
8.0
 10
279.1228574049437
 20
382.9810901989567
 30
0.0
 10
279.1228574049437
 20
382.9810901989567
 30
0.0
 10
279.1228574054821
 20
394.9810901989567
 30
0.0
 10
279.1228574054821
 20
394.9810901989567
 30
0.0
 10
279.1228574055076
 20
395.5333749487872
 30
0.0
 10
278.6751421553581
 20
395.9810901989767
 30
0.0
 10
278.1228574055276
 20
395.9810901990022
 30
0.0
 10
278.1228574055276
 20
395.9810901990022
 30
0.0
 10
266.1228574055276
 20
395.9810901995406
 30
0.0
 10
266.1228574055276
 20
395.9810901995406
 30
0.0
 10
265.5705726556971
 20
395.9810901995661
 30
0.0
 10
265.1228574055076
 20
395.5333749494166
 30
0.0
 10
265.1228574054821
 20
394.9810901995861
 30
0.0
 10
265.1228574054821
 20
394.9810901995861
 30
0.0
 10
265.1228574049437
 20
382.9810901995861
 30
0.0
 10
265.1228574049437
 20
382.9810901995861
 30
0.0
 10
265.1228574049182
 20
382.4288054497556
 30
0.0
 10
265.5705726550677
 20
381.9810901995661
 30
0.0
 10
266.1228574048982
 20
381.9810901995406
 30
0.0
 10
266.1228574048982
 20
381.9810901995406
 30
0.0
 10
278.1228574048982
 20
381.9810901990022
 30
0.0
 10
278.1228574048982
 20
381.9810901990022
 30
0.0
 10
278.6751421547287
 20
381.9810901989767
 30
0.0
 10
279.1228574049182
 20
382.4288054491262
 30
0.0
 10
279.1228574049437
 20
382.9810901989567
 30
0.0
  0
ENDBLK
  5
57
330
54
100
AcDbEntity
  8
0
100
AcDbBlockEnd
  0
BLOCK
  5
5B
330
59
100
AcDbEntity
  8
0
100
AcDbBlockBegin
  2
block 7
 70
     0
 10
0.0
 20
0.0
 30
0.0
  3
block 7
  1

  0
SPLINE
  5
5D
330
59
100
AcDbEntity
  8
0
 62
     7
420
 16777215
370
    25
100
AcDbSpline
210
0.0
220
0.0
230
1.0
 70
    11
 71
     3
 72
    29
 73
    25
 74
     0
 42
0.0000000001
 43
0.0000000001
 12
1.0
 22
0.0
 32
0.0
 13
1.0
 23
0.0
 33
0.0
 40
0.0
 40
0.0
 40
0.0
 40
0.0
 40
1.0
 40
1.0
 40
1.0
 40
2.0
 40
2.0
 40
2.0
 40
3.0
 40
3.0
 40
3.0
 40
4.0
 40
4.0
 40
4.0
 40
5.0
 40
5.0
 40
5.0
 40
6.0
 40
6.0
 40
6.0
 40
7.0
 40
7.0
 40
7.0
 40
8.0
 40
8.0
 40
8.0
 40
8.0
 10
309.9369660713182
 20
366.4112623777892
 30
0.0
 10
309.9369660713182
 20
366.4112623777892
 30
0.0
 10
309.9369660718567
 20
378.4112623777892
 30
0.0
 10
309.9369660718567
 20
378.4112623777892
 30
0.0
 10
309.9369660718803
 20
378.9635471276215
 30
0.0
 10
309.4892508217326
 20
379.4112623778092
 30
0.0
 10
308.9369660719021
 20
379.4112623778328
 30
0.0
 10
308.9369660719021
 20
379.4112623778328
 30
0.0
 10
296.9369660719021
 20
379.4112623783731
 30
0.0
 10
296.9369660719021
 20
379.4112623783731
 30
0.0
 10
296.3846813220716
 20
379.4112623783967
 30
0.0
 10
295.9369660718821
 20
378.9635471282472
 30
0.0
 10
295.9369660718567
 20
378.4112623784167
 30
0.0
 10
295.9369660718567
 20
378.4112623784167
 30
0.0
 10
295.9369660713182
 20
366.4112623784167
 30
0.0
 10
295.9369660713182
 20
366.4112623784167
 30
0.0
 10
295.9369660712928
 20
365.8589776285862
 30
0.0
 10
296.3846813214423
 20
365.4112623783967
 30
0.0
 10
296.9369660712728
 20
365.4112623783731
 30
0.0
 10
296.9369660712728
 20
365.4112623783731
 30
0.0
 10
308.9369660712728
 20
365.4112623778328
 30
0.0
 10
308.9369660712728
 20
365.4112623778328
 30
0.0
 10
309.4892508211051
 20
365.4112623778092
 30
0.0
 10
309.9369660712928
 20
365.8589776279587
 30
0.0
 10
309.9369660713182
 20
366.4112623777892
 30
0.0
  0
ENDBLK
  5
5C
330
59
100
AcDbEntity
  8
0
100
AcDbBlockEnd
  0
BLOCK
  5
60
330
5E
100
AcDbEntity
  8
0
100
AcDbBlockBegin
  2
block 8
 70
     0
 10
0.0
 20
0.0
 30
0.0
  3
block 8
  1

  0
SPLINE
  5
62
330
5E
100
AcDbEntity
  8
0
 62
     7
420
 16777215
370
    25
100
AcDbSpline
210
0.0
220
0.0
230
1.0
 70
    11
 71
     3
 72
    29
 73
    25
 74
     0
 42
0.0000000001
 43
0.0000000001
 12
1.0
 22
0.0
 32
0.0
 13
1.0
 23
0.0
 33
0.0
 40
0.0
 40
0.0
 40
0.0
 40
0.0
 40
1.0
 40
1.0
 40
1.0
 40
2.0
 40
2.0
 40
2.0
 40
3.0
 40
3.0
 40
3.0
 40
4.0
 40
4.0
 40
4.0
 40
5.0
 40
5.0
 40
5.0
 40
6.0
 40
6.0
 40
6.0
 40
7.0
 40
7.0
 40
7.0
 40
8.0
 40
8.0
 40
8.0
 40
8.0
 10
279.1228574057986
 20
402.0310901989578
 30
0.0
 10
279.1228574057986
 20
402.0310901989578
 30
0.0
 10
279.1228574063371
 20
414.0310901989578
 30
0.0
 10
279.1228574063371
 20
414.0310901989578
 30
0.0
 10
279.1228574063625
 20
414.5833749487883
 30
0.0
 10
278.675142156213
 20
415.0310901989787
 30
0.0
 10
278.1228574063825
 20
415.0310901990033
 30
0.0
 10
278.1228574063825
 20
415.0310901990033
 30
0.0
 10
266.1228574063825
 20
415.0310901995417
 30
0.0
 10
266.1228574063825
 20
415.0310901995417
 30
0.0
 10
265.570572656552
 20
415.0310901995663
 30
0.0
 10
265.1228574063625
 20
414.5833749494177
 30
0.0
 10
265.1228574063371
 20
414.0310901995872
 30
0.0
 10
265.1228574063371
 20
414.0310901995872
 30
0.0
 10
265.1228574057986
 20
402.0310901995872
 30
0.0
 10
265.1228574057986
 20
402.0310901995872
 30
0.0
 10
265.1228574057732
 20
401.4788054497567
 30
0.0
 10
265.5705726559227
 20
401.0310901995663
 30
0.0
 10
266.1228574057532
 20
401.0310901995417
 30
0.0
 10
266.1228574057532
 20
401.0310901995417
 30
0.0
 10
278.1228574057532
 20
401.0310901990033
 30
0.0
 10
278.1228574057532
 20
401.0310901990033
 30
0.0
 10
278.6751421555837
 20
401.0310901989787
 30
0.0
 10
279.1228574057732
 20
401.4788054491273
 30
0.0
 10
279.1228574057986
 20
402.0310901989578
 30
0.0
  0
ENDBLK
  5
61
330
5E
100
AcDbEntity
  8
0
100
AcDbBlockEnd
  0
BLOCK
  5
65
330
63
100
AcDbEntity
  8
0
100
AcDbBlockBegin
  2
block 9
 70
     0
 10
0.0
 20
0.0
 30
0.0
  3
block 9
  1

  0
SPLINE
  5
67
330
63
100
AcDbEntity
  8
0
 62
     7
420
 16777215
370
    25
100
AcDbSpline
210
0.0
220
0.0
230
1.0
 70
    11
 71
     3
 72
    89
 73
    85
 74
     0
 42
0.0000000001
 43
0.0000000001
 12
1.0
 22
0.0
 32
0.0
 13
1.0
 23
0.0
 33
0.0
 40
0.0
 40
0.0
 40
0.0
 40
0.0
 40
1.0
 40
1.0
 40
1.0
 40
2.0
 40
2.0
 40
2.0
 40
3.0
 40
3.0
 40
3.0
 40
4.0
 40
4.0
 40
4.0
 40
5.0
 40
5.0
 40
5.0
 40
6.0
 40
6.0
 40
6.0
 40
7.0
 40
7.0
 40
7.0
 40
8.0
 40
8.0
 40
8.0
 40
9.0
 40
9.0
 40
9.0
 40
10.0
 40
10.0
 40
10.0
 40
11.0
 40
11.0
 40
11.0
 40
12.0
 40
12.0
 40
12.0
 40
13.0
 40
13.0
 40
13.0
 40
14.0
 40
14.0
 40
14.0
 40
15.0
 40
15.0
 40
15.0
 40
16.0
 40
16.0
 40
16.0
 40
17.0
 40
17.0
 40
17.0
 40
18.0
 40
18.0
 40
18.0
 40
19.0
 40
19.0
 40
19.0
 40
20.0
 40
20.0
 40
20.0
 40
21.0
 40
21.0
 40
21.0
 40
22.0
 40
22.0
 40
22.0
 40
23.0
 40
23.0
 40
23.0
 40
24.0
 40
24.0
 40
24.0
 40
25.0
 40
25.0
 40
25.0
 40
26.0
 40
26.0
 40
26.0
 40
27.0
 40
27.0
 40
27.0
 40
28.0
 40
28.0
 40
28.0
 40
28.0
 10
267.8403903397812
 20
367.3257567947549
 30
0.0
 10
267.3620977162936
 20
367.0496144198587
 30
0.0
 10
266.7505073109078
 20
367.2134895751115
 30
0.0
 10
266.4743649360116
 20
367.691782198599
 30
0.0
 10
266.4743649360116
 20
367.691782198599
 30
0.0
 10
260.1243649365078
 20
378.6903048269451
 30
0.0
 10
260.1243649365078
 20
378.6903048269451
 30
0.0
 10
259.8482225616135
 20
379.1685974504344
 30
0.0
 10
260.0120977168644
 20
379.7801878558203
 30
0.0
 10
260.4903903403538
 20
380.0563302307146
 30
0.0
 10
260.4903903403538
 20
380.0563302307146
 30
0.0
 10
262.0059347970146
 20
380.9313302306473
 30
0.0
 10
262.0059347970146
 20
380.9313302306473
 30
0.0
 10
262.4842274205039
 20
381.2074726055398
 30
0.0
 10
262.6481025757548
 20
381.8190630109275
 30
0.0
 10
262.3719602008605
 20
382.297355634415
 30
0.0
 10
262.3719602008605
 20
382.297355634415
 30
0.0
 10
258.7844602011392
 20
388.5110879067288
 30
0.0
 10
258.7844602011392
 20
388.5110879067288
 30
0.0
 10
258.5083178262448
 20
388.9893805302163
 30
0.0
 10
257.896727420859
 20
389.1532556854672
 30
0.0
 10
257.4184347973696
 20
388.8771133105747
 30
0.0
 10
257.4184347973714
 20
388.8771133105747
 30
0.0
 10
243.7785346874134
 20
381.0021133111877
 30
0.0
 10
243.7785346874134
 20
381.0021133111877
 30
0.0
 10
243.3002420639241
 20
380.7259709362934
 30
0.0
 10
243.1363669086732
 20
380.1143805309075
 30
0.0
 10
243.4125092835675
 20
379.63608790742
 30
0.0
 10
243.4125092835675
 20
379.63608790742
 30
0.0
 10
243.714102541895
 20
379.1137130607221
 30
0.0
 10
243.714102541895
 20
379.1137130607221
 30
0.0
 10
243.9660788572164
 20
378.6772772802378
 30
0.0
 10
243.8539243468385
 20
378.1215345904711
 30
0.0
 10
243.4524086843485
 20
377.8169801179301
 30
0.0
 10
243.0508930218621
 20
377.5124256453892
 30
0.0
 10
242.9387385114842
 20
376.9566829556188
 30
0.0
 10
243.1907148268037
 20
376.5202471751363
 30
0.0
 10
243.1907148268037
 20
376.5202471751363
 30
0.0
 10
244.1907148267273
 20
374.7881963675227
 30
0.0
 10
244.1907148267273
 20
374.7881963675227
 30
0.0
 10
244.4426911420469
 20
374.3517605870384
 30
0.0
 10
244.9800556845257
 20
374.1710178972426
 30
0.0
 10
245.4445654258434
 20
374.3664634246616
 30
0.0
 10
245.9090751671629
 20
374.5619089520824
 30
0.0
 10
246.4464397096417
 20
374.3811662622866
 30
0.0
 10
246.6984160249613
 20
373.9447304818023
 30
0.0
 10
246.6984160249613
 20
373.9447304818023
 30
0.0
 10
255.6516025409655
 20
358.4373565448332
 30
0.0
 10
255.6516025409655
 20
358.4373565448332
 30
0.0
 10
255.9035788562851
 20
358.0009207643488
 30
0.0
 10
255.7914243459109
 20
357.4451780745821
 30
0.0
 10
255.3899086834208
 20
357.1406236020393
 30
0.0
 10
254.9883930209326
 20
356.8360691295002
 30
0.0
 10
254.8762385105565
 20
356.2803264397317
 30
0.0
 10
255.1282148258761
 20
355.8438906592473
 30
0.0
 10
255.1282148258761
 20
355.8438906592473
 30
0.0
 10
256.1360580841483
 20
354.0982549296732
 30
0.0
 10
256.1360580841483
 20
354.0982549296732
 30
0.0
 10
256.3880343994679
 20
353.6618191491889
 30
0.0
 10
256.9253989419485
 20
353.4810764593913
 30
0.0
 10
257.3899086832662
 20
353.6765219868139
 30
0.0
 10
257.8544184245839
 20
353.8719675142329
 30
0.0
 10
258.3917829670627
 20
353.6912248244353
 30
0.0
 10
258.6437592823822
 20
353.2547890439528
 30
0.0
 10
258.6437592823822
 20
353.2547890439528
 30
0.0
 10
258.9375092823611
 20
352.7459991192136
 30
0.0
 10
258.9375092823611
 20
352.7459991192136
 30
0.0
 10
259.2136516572536
 20
352.2677064957279
 30
0.0
 10
259.8252420626395
 20
352.103831340477
 30
0.0
 10
260.303534686127
 20
352.3799737153713
 30
0.0
 10
260.303534686127
 20
352.3799737153713
 30
0.0
 10
273.9434347960869
 20
360.2549737147583
 30
0.0
 10
273.9434347960869
 20
360.2549737147583
 30
0.0
 10
274.4217274195762
 20
360.5311160896508
 30
0.0
 10
274.5856025748271
 20
361.1427064950367
 30
0.0
 10
274.3094601999328
 20
361.6209991185242
 30
0.0
 10
274.3094601999328
 20
361.6209991185242
 30
0.0
 10
270.7219602002115
 20
367.8347313908398
 30
0.0
 10
270.7219602002115
 20
367.8347313908398
 30
0.0
 10
270.4458178253171
 20
368.3130240143273
 30
0.0
 10
269.8342274199331
 20
368.4768991695782
 30
0.0
 10
269.3559347964438
 20
368.2007567946857
 30
0.0
 10
269.3559347964438
 20
368.2007567946857
 30
0.0
 10
267.8403903397812
 20
367.3257567947549
 30
0.0
 10
267.8403903397812
 20
367.3257567947549
 30
0.0
  0
ENDBLK
  5
66
330
63
100
AcDbEntity
  8
0
100
AcDbBlockEnd
  0
BLOCK
  5
6A
330
68
100
AcDbEntity
  8
0
100
AcDbBlockBegin
  2
block 10
 70
     0
 10
0.0
 20
0.0
 30
0.0
  3
block 10
  1

  0
SPLINE
  5
6C
330
68
100
AcDbEntity
  8
0
 62
     7
420
 16777215
370
    25
100
AcDbSpline
210
0.0
220
0.0
230
1.0
 70
    11
 71
     3
 72
    65
 73
    61
 74
     0
 42
0.0000000001
 43
0.0000000001
 12
1.0
 22
0.0
 32
0.0
 13
1.0
 23
0.0
 33
0.0
 40
0.0
 40
0.0
 40
0.0
 40
0.0
 40
1.0
 40
1.0
 40
1.0
 40
2.0
 40
2.0
 40
2.0
 40
3.0
 40
3.0
 40
3.0
 40
4.0
 40
4.0
 40
4.0
 40
5.0
 40
5.0
 40
5.0
 40
6.0
 40
6.0
 40
6.0
 40
7.0
 40
7.0
 40
7.0
 40
8.0
 40
8.0
 40
8.0
 40
9.0
 40
9.0
 40
9.0
 40
10.0
 40
10.0
 40
10.0
 40
11.0
 40
11.0
 40
11.0
 40
12.0
 40
12.0
 40
12.0
 40
13.0
 40
13.0
 40
13.0
 40
14.0
 40
14.0
 40
14.0
 40
15.0
 40
15.0
 40
15.0
 40
16.0
 40
16.0
 40
16.0
 40
17.0
 40
17.0
 40
17.0
 40
18.0
 40
18.0
 40
18.0
 40
19.0
 40
19.0
 40
19.0
 40
20.0
 40
20.0
 40
20.0
 40
20.0
 10
374.3728574045381
 20
373.9810801946805
 30
0.0
 10
374.3728574045381
 20
373.9810801946805
 30
0.0
 10
374.3728574050783
 20
385.9810801946805
 30
0.0
 10
374.3728574050783
 20
385.9810801946805
 30
0.0
 10
374.372857405102
 20
386.5333649445129
 30
0.0
 10
373.9251421549525
 20
386.9810801947006
 30
0.0
 10
373.3728574051238
 20
386.981080194726
 30
0.0
 10
373.3728574051238
 20
386.981080194726
 30
0.0
 10
372.357170888421
 20
386.9810801947715
 30
0.0
 10
372.357170888421
 20
386.9810801947715
 30
0.0
 10
371.8532182577419
 20
386.9810801947933
 30
0.0
 10
371.4280082256228
 20
387.3560801948133
 30
0.0
 10
371.3650141468097
 20
387.8560801948151
 30
0.0
 10
371.3020200679985
 20
388.3560801948188
 30
0.0
 10
370.8768100358793
 20
388.7310801948388
 30
0.0
 10
370.3728574052002
 20
388.7310801948606
 30
0.0
 10
370.3728574052002
 20
388.7310801948606
 30
0.0
 10
364.3571708884992
 20
388.7310801951298
 30
0.0
 10
364.3571708884992
 20
388.7310801951298
 30
0.0
 10
363.8532182578201
 20
388.7310801951535
 30
0.0
 10
363.4280082256682
 20
388.3560801951717
 30
0.0
 10
363.3650141468097
 20
387.8560801951753
 30
0.0
 10
363.302020067953
 20
387.3560801951771
 30
0.0
 10
362.8768100358029
 20
386.9810801951971
 30
0.0
 10
362.3728574051238
 20
386.981080195219
 30
0.0
 10
362.3728574051238
 20
386.981080195219
 30
0.0
 10
361.3728574051238
 20
386.9810801952644
 30
0.0
 10
361.3728574051238
 20
386.9810801952644
 30
0.0
 10
360.8205726552915
 20
386.9810801952899
 30
0.0
 10
360.372857405102
 20
386.5333649451422
 30
0.0
 10
360.3728574050783
 20
385.9810801953099
 30
0.0
 10
360.3728574050783
 20
385.9810801953099
 30
0.0
 10
360.3728574045381
 20
373.9810801953099
 30
0.0
 10
360.3728574045381
 20
373.9810801953099
 30
0.0
 10
360.3728574045144
 20
373.4287954454794
 30
0.0
 10
360.8205726546621
 20
372.9810801952899
 30
0.0
 10
361.3728574044944
 20
372.9810801952644
 30
0.0
 10
361.3728574044944
 20
372.9810801952644
 30
0.0
 10
362.3885439211954
 20
372.981080195219
 30
0.0
 10
362.3885439211954
 20
372.981080195219
 30
0.0
 10
362.8924965518745
 20
372.9810801951971
 30
0.0
 10
363.3177065839918
 20
372.6060801951771
 30
0.0
 10
363.3807006628049
 20
372.1060801951753
 30
0.0
 10
363.4436947416179
 20
371.6060801951717
 30
0.0
 10
363.8689047737371
 20
371.2310801951517
 30
0.0
 10
364.3728574044162
 20
371.2310801951298
 30
0.0
 10
364.3728574044162
 20
371.2310801951298
 30
0.0
 10
370.3885439211172
 20
371.2310801948606
 30
0.0
 10
370.3885439211172
 20
371.2310801948606
 30
0.0
 10
370.8924965517963
 20
371.231080194837
 30
0.0
 10
371.3177065839482
 20
371.6060801948188
 30
0.0
 10
371.3807006628049
 20
372.1060801948151
 30
0.0
 10
371.4436947416616
 20
372.6060801948133
 30
0.0
 10
371.8689047738153
 20
372.9810801947933
 30
0.0
 10
372.3728574044944
 20
372.9810801947715
 30
0.0
 10
372.3728574044944
 20
372.9810801947715
 30
0.0
 10
373.3728574044944
 20
372.981080194726
 30
0.0
 10
373.3728574044944
 20
372.981080194726
 30
0.0
 10
373.9251421543249
 20
372.9810801947006
 30
0.0
 10
374.3728574045144
 20
373.42879544485
 30
0.0
 10
374.3728574045381
 20
373.9810801946805
 30
0.0
  0
ENDBLK
  5
6B
330
68
100
AcDbEntity
  8
0
100
AcDbBlockEnd
  0
BLOCK
  5
6F
330
6D
100
AcDbEntity
  8
0
100
AcDbBlockBegin
  2
block 11
 70
     0
 10
0.0
 20
0.0
 30
0.0
  3
block 11
  1

  0
SPLINE
  5
71
330
6D
100
AcDbEntity
  8
0
 62
     7
420
 16777215
370
    25
100
AcDbSpline
210
0.0
220
0.0
230
1.0
 70
    11
 71
     3
 72
    29
 73
    25
 74
     0
 42
0.0000000001
 43
0.0000000001
 12
1.0
 22
0.0
 32
0.0
 13
1.0
 23
0.0
 33
0.0
 40
0.0
 40
0.0
 40
0.0
 40
0.0
 40
1.0
 40
1.0
 40
1.0
 40
2.0
 40
2.0
 40
2.0
 40
3.0
 40
3.0
 40
3.0
 40
4.0
 40
4.0
 40
4.0
 40
5.0
 40
5.0
 40
5.0
 40
6.0
 40
6.0
 40
6.0
 40
7.0
 40
7.0
 40
7.0
 40
8.0
 40
8.0
 40
8.0
 40
8.0
 10
297.1728574064946
 20
417.5310901981475
 30
0.0
 10
297.1728574064946
 20
417.5310901981475
 30
0.0
 10
285.1728574064946
 20
417.5310901986868
 30
0.0
 10
285.1728574064946
 20
417.5310901986868
 30
0.0
 10
284.6205726566641
 20
417.5310901987114
 30
0.0
 10
284.1728574064746
 20
417.0833749485619
 30
0.0
 10
284.1728574064491
 20
416.5310901987314
 30
0.0
 10
284.1728574064491
 20
416.5310901987314
 30
0.0
 10
284.1728574059107
 20
404.5310901987314
 30
0.0
 10
284.1728574059107
 20
404.5310901987314
 30
0.0
 10
284.1728574058852
 20
403.9788054489009
 30
0.0
 10
284.6205726560347
 20
403.5310901987114
 30
0.0
 10
285.1728574058652
 20
403.5310901986868
 30
0.0
 10
285.1728574058652
 20
403.5310901986868
 30
0.0
 10
297.1728574058652
 20
403.5310901981475
 30
0.0
 10
297.1728574058652
 20
403.5310901981475
 30
0.0
 10
297.7251421556957
 20
403.5310901981229
 30
0.0
 10
298.1728574058852
 20
403.9788054482724
 30
0.0
 10
298.1728574059089
 20
404.5310901981029
 30
0.0
 10
298.1728574059089
 20
404.5310901981029
 30
0.0
 10
298.1728574064491
 20
416.5310901981029
 30
0.0
 10
298.1728574064491
 20
416.5310901981029
 30
0.0
 10
298.1728574064728
 20
417.0833749479334
 30
0.0
 10
297.7251421563251
 20
417.5310901981229
 30
0.0
 10
297.1728574064946
 20
417.5310901981475
 30
0.0
  0
ENDBLK
  5
70
330
6D
100
AcDbEntity
  8
0
100
AcDbBlockEnd
  0
BLOCK
  5
74
330
72
100
AcDbEntity
  8
0
100
AcDbBlockBegin
  2
block 12
 70
     0
 10
0.0
 20
0.0
 30
0.0
  3
block 12
  1

  0
SPLINE
  5
76
330
72
100
AcDbEntity
  8
0
 62
     7
420
 16777215
370
    25
100
AcDbSpline
210
0.0
220
0.0
230
1.0
 70
    11
 71
     3
 72
    29
 73
    25
 74
     0
 42
0.0000000001
 43
0.0000000001
 12
1.0
 22
0.0
 32
0.0
 13
1.0
 23
0.0
 33
0.0
 40
0.0
 40
0.0
 40
0.0
 40
0.0
 40
1.0
 40
1.0
 40
1.0
 40
2.0
 40
2.0
 40
2.0
 40
3.0
 40
3.0
 40
3.0
 40
4.0
 40
4.0
 40
4.0
 40
5.0
 40
5.0
 40
5.0
 40
6.0
 40
6.0
 40
6.0
 40
7.0
 40
7.0
 40
7.0
 40
8.0
 40
8.0
 40
8.0
 40
8.0
 10
278.1228574072375
 20
434.0810901990026
 30
0.0
 10
278.1228574072375
 20
434.0810901990026
 30
0.0
 10
266.1228574072375
 20
434.081090199541
 30
0.0
 10
266.1228574072375
 20
434.081090199541
 30
0.0
 10
265.570572657407
 20
434.0810901995656
 30
0.0
 10
265.1228574072175
 20
433.633374949417
 30
0.0
 10
265.122857407192
 20
433.0810901995865
 30
0.0
 10
265.122857407192
 20
433.0810901995865
 30
0.0
 10
265.1228574066536
 20
421.0810901995865
 30
0.0
 10
265.1228574066536
 20
421.0810901995865
 30
0.0
 10
265.1228574066299
 20
420.528805449756
 30
0.0
 10
265.5705726567794
 20
420.0810901995656
 30
0.0
 10
266.1228574066099
 20
420.081090199541
 30
0.0
 10
266.1228574066099
 20
420.081090199541
 30
0.0
 10
278.1228574066099
 20
420.0810901990026
 30
0.0
 10
278.1228574066099
 20
420.0810901990026
 30
0.0
 10
278.6751421564404
 20
420.081090198978
 30
0.0
 10
279.1228574066299
 20
420.5288054491266
 30
0.0
 10
279.1228574066536
 20
421.0810901989571
 30
0.0
 10
279.1228574066536
 20
421.0810901989571
 30
0.0
 10
279.122857407192
 20
433.0810901989571
 30
0.0
 10
279.122857407192
 20
433.0810901989571
 30
0.0
 10
279.1228574072175
 20
433.6333749487876
 30
0.0
 10
278.675142157068
 20
434.081090198978
 30
0.0
 10
278.1228574072375
 20
434.0810901990026
 30
0.0
  0
ENDBLK
  5
75
330
72
100
AcDbEntity
  8
0
100
AcDbBlockEnd
  0
BLOCK
  5
79
330
77
100
AcDbEntity
  8
0
100
AcDbBlockBegin
  2
block 13
 70
     0
 10
0.0
 20
0.0
 30
0.0
  3
block 13
  1

  0
SPLINE
  5
7B
330
77
100
AcDbEntity
  8
0
 62
     7
420
 16777215
370
    25
100
AcDbSpline
210
0.0
220
0.0
230
1.0
 70
    11
 71
     3
 72
    29
 73
    25
 74
     0
 42
0.0000000001
 43
0.0000000001
 12
1.0
 22
0.0
 32
0.0
 13
1.0
 23
0.0
 33
0.0
 40
0.0
 40
0.0
 40
0.0
 40
0.0
 40
1.0
 40
1.0
 40
1.0
 40
2.0
 40
2.0
 40
2.0
 40
3.0
 40
3.0
 40
3.0
 40
4.0
 40
4.0
 40
4.0
 40
5.0
 40
5.0
 40
5.0
 40
6.0
 40
6.0
 40
6.0
 40
7.0
 40
7.0
 40
7.0
 40
8.0
 40
8.0
 40
8.0
 40
8.0
 10
317.2228574062028
 20
411.031090197248
 30
0.0
 10
317.2228574061774
 20
410.4788054474175
 30
0.0
 10
316.7751421559879
 20
410.031090197268
 30
0.0
 10
316.2228574061573
 20
410.0310901972925
 30
0.0
 10
316.2228574061573
 20
410.0310901972925
 30
0.0
 10
304.2228574061573
 20
410.031090197831
 30
0.0
 10
304.2228574061573
 20
410.031090197831
 30
0.0
 10
303.6705726563268
 20
410.0310901978564
 30
0.0
 10
303.2228574061774
 20
410.4788054480459
 30
0.0
 10
303.2228574062028
 20
411.0310901978764
 30
0.0
 10
303.2228574062028
 20
411.0310901978764
 30
0.0
 10
303.2228574067412
 20
423.0310901978764
 30
0.0
 10
303.2228574067412
 20
423.0310901978764
 30
0.0
 10
303.2228574067667
 20
423.5833749477069
 30
0.0
 10
303.6705726569562
 20
424.0310901978564
 30
0.0
 10
304.2228574067849
 20
424.031090197831
 30
0.0
 10
304.2228574067849
 20
424.031090197831
 30
0.0
 10
316.2228574067849
 20
424.0310901972925
 30
0.0
 10
316.2228574067849
 20
424.0310901972925
 30
0.0
 10
316.7751421566172
 20
424.031090197268
 30
0.0
 10
317.2228574067667
 20
423.5833749470785
 30
0.0
 10
317.2228574067412
 20
423.031090197248
 30
0.0
 10
317.2228574067412
 20
423.031090197248
 30
0.0
 10
317.2228574062028
 20
411.031090197248
 30
0.0
 10
317.2228574062028
 20
411.031090197248
 30
0.0
  0
ENDBLK
  5
7A
330
77
100
AcDbEntity
  8
0
100
AcDbBlockEnd
  0
BLOCK
  5
7E
330
7C
100
AcDbEntity
  8
0
100
AcDbBlockBegin
  2
block 14
 70
     0
 10
0.0
 20
0.0
 30
0.0
  3
block 14
  1

  0
SPLINE
  5
80
330
7C
100
AcDbEntity
  8
0
 62
     7
420
 16777215
370
    25
100
AcDbSpline
210
0.0
220
0.0
230
1.0
 70
    11
 71
     3
 72
    29
 73
    25
 74
     0
 42
0.0000000001
 43
0.0000000001
 12
1.0
 22
0.0
 32
0.0
 13
1.0
 23
0.0
 33
0.0
 40
0.0
 40
0.0
 40
0.0
 40
0.0
 40
1.0
 40
1.0
 40
1.0
 40
2.0
 40
2.0
 40
2.0
 40
3.0
 40
3.0
 40
3.0
 40
4.0
 40
4.0
 40
4.0
 40
5.0
 40
5.0
 40
5.0
 40
6.0
 40
6.0
 40
6.0
 40
7.0
 40
7.0
 40
7.0
 40
8.0
 40
8.0
 40
8.0
 40
8.0
 10
285.1728574067201
 20
422.5810901986861
 30
0.0
 10
285.1728574067201
 20
422.5810901986861
 30
0.0
 10
297.1728574067201
 20
422.5810901981467
 30
0.0
 10
297.1728574067201
 20
422.5810901981467
 30
0.0
 10
297.7251421565506
 20
422.5810901981222
 30
0.0
 10
298.172857406742
 20
423.0288054482717
 30
0.0
 10
298.1728574067656
 20
423.5810901981022
 30
0.0
 10
298.1728574067656
 20
423.5810901981022
 30
0.0
 10
298.172857407304
 20
435.5810901981022
 30
0.0
 10
298.172857407304
 20
435.5810901981022
 30
0.0
 10
298.1728574073277
 20
436.1333749479327
 30
0.0
 10
297.72514215718
 20
436.5810901981222
 30
0.0
 10
297.1728574073495
 20
436.5810901981467
 30
0.0
 10
297.1728574073495
 20
436.5810901981467
 30
0.0
 10
285.1728574073495
 20
436.5810901986861
 30
0.0
 10
285.1728574073495
 20
436.5810901986861
 30
0.0
 10
284.620572657519
 20
436.5810901987106
 30
0.0
 10
284.1728574073295
 20
436.1333749485611
 30
0.0
 10
284.172857407304
 20
435.5810901987306
 30
0.0
 10
284.172857407304
 20
435.5810901987306
 30
0.0
 10
284.1728574067656
 20
423.5810901987306
 30
0.0
 10
284.1728574067656
 20
423.5810901987306
 30
0.0
 10
284.1728574067401
 20
423.0288054489001
 30
0.0
 10
284.6205726568896
 20
422.5810901987106
 30
0.0
 10
285.1728574067201
 20
422.5810901986861
 30
0.0
  0
ENDBLK
  5
7F
330
7C
100
AcDbEntity
  8
0
100
AcDbBlockEnd
  0
BLOCK
  5
83
330
81
100
AcDbEntity
  8
0
100
AcDbBlockBegin
  2
block 15
 70
     0
 10
0.0
 20
0.0
 30
0.0
  3
block 15
  1

  0
SPLINE
  5
85
330
81
100
AcDbEntity
  8
0
 62
     7
420
 16777215
370
    25
100
AcDbSpline
210
0.0
220
0.0
230
1.0
 70
    11
 71
     3
 72
    89
 73
    85
 74
     0
 42
0.0000000001
 43
0.0000000001
 12
1.0
 22
0.0
 32
0.0
 13
1.0
 23
0.0
 33
0.0
 40
0.0
 40
0.0
 40
0.0
 40
0.0
 40
1.0
 40
1.0
 40
1.0
 40
2.0
 40
2.0
 40
2.0
 40
3.0
 40
3.0
 40
3.0
 40
4.0
 40
4.0
 40
4.0
 40
5.0
 40
5.0
 40
5.0
 40
6.0
 40
6.0
 40
6.0
 40
7.0
 40
7.0
 40
7.0
 40
8.0
 40
8.0
 40
8.0
 40
9.0
 40
9.0
 40
9.0
 40
10.0
 40
10.0
 40
10.0
 40
11.0
 40
11.0
 40
11.0
 40
12.0
 40
12.0
 40
12.0
 40
13.0
 40
13.0
 40
13.0
 40
14.0
 40
14.0
 40
14.0
 40
15.0
 40
15.0
 40
15.0
 40
16.0
 40
16.0
 40
16.0
 40
17.0
 40
17.0
 40
17.0
 40
18.0
 40
18.0
 40
18.0
 40
19.0
 40
19.0
 40
19.0
 40
20.0
 40
20.0
 40
20.0
 40
21.0
 40
21.0
 40
21.0
 40
22.0
 40
22.0
 40
22.0
 40
23.0
 40
23.0
 40
23.0
 40
24.0
 40
24.0
 40
24.0
 40
25.0
 40
25.0
 40
25.0
 40
26.0
 40
26.0
 40
26.0
 40
27.0
 40
27.0
 40
27.0
 40
28.0
 40
28.0
 40
28.0
 40
28.0
 10
222.7955638534804
 20
360.7786117389678
 30
0.0
 10
223.1519121760139
 20
360.4222634164016
 30
0.0
 10
223.1874160301959
 20
359.8564294763037
 30
0.0
 10
222.8784061799015
 20
359.4583325454059
 30
0.0
 10
222.5693963296089
 20
359.0602356145082
 30
0.0
 10
222.604900183791
 20
358.4944016744084
 30
0.0
 10
222.9612485063262
 20
358.1380533518422
 30
0.0
 10
222.9612485063262
 20
358.1380533518422
 30
0.0
 10
224.3865541109662
 20
356.7127477470731
 30
0.0
 10
224.3865541109662
 20
356.7127477470731
 30
0.0
 10
224.7429024335015
 20
356.3563994245069
 30
0.0
 10
225.3087363735958
 20
356.3208955702739
 30
0.0
 10
225.7068333045208
 20
356.6299054205338
 30
0.0
 10
226.1049302354477
 20
356.9389152707881
 30
0.0
 10
226.670764175542
 20
356.903411416557
 30
0.0
 10
227.0271124980754
 20
356.5470630939908
 30
0.0
 10
227.0271124980754
 20
356.5470630939908
 30
0.0
 10
239.6777382535493
 20
343.8964373373819
 30
0.0
 10
239.6777382535493
 20
343.8964373373819
 30
0.0
 10
240.0340865760827
 20
343.5400890148157
 30
0.0
 10
240.0695904302629
 20
342.9742550747178
 30
0.0
 10
239.7605805799722
 20
342.5761581438201
 30
0.0
 10
239.4515707296796
 20
342.1780612129223
 30
0.0
 10
239.4870745838616
 20
341.6122272728244
 30
0.0
 10
239.8434229063951
 20
341.2558789502582
 30
0.0
 10
239.8434229063951
 20
341.2558789502582
 30
0.0
 10
241.2687285110369
 20
339.830573345489
 30
0.0
 10
241.2687285110369
 20
339.830573345489
 30
0.0
 10
241.6250768335703
 20
339.4742250229228
 30
0.0
 10
242.1909107736647
 20
339.4387211686899
 30
0.0
 10
242.5890077045915
 20
339.7477310189479
 30
0.0
 10
242.9871046355165
 20
340.0567408692023
 30
0.0
 10
243.5529385756108
 20
340.0212370149711
 30
0.0
 10
243.9092868981461
 20
339.6648886924049
 30
0.0
 10
243.9092868981461
 20
339.6648886924049
 30
0.0
 10
244.3358041744068
 20
339.238371416106
 30
0.0
 10
244.3358041744068
 20
339.238371416106
 30
0.0
 10
244.7263284661403
 20
338.8478471243361
 30
0.0
 10
245.359493445012
 20
338.8478471243088
 30
0.0
 10
245.7500177367801
 20
339.2383714160424
 30
0.0
 10
245.7500177367801
 20
339.2383714160424
 30
0.0
 10
256.886949540969
 20
350.375303219229
 30
0.0
 10
256.886949540969
 20
350.375303219229
 30
0.0
 10
257.2774738327389
 20
350.7658275109643
 30
0.0
 10
257.2774738327662
 20
351.3989924898342
 30
0.0
 10
256.8869495410327
 20
351.7895167816023
 30
0.0
 10
256.8869495410327
 20
351.7895167816023
 30
0.0
 10
251.8134583862466
 20
356.8630079368431
 30
0.0
 10
251.8134583862466
 20
356.8630079368431
 30
0.0
 10
251.422934094513
 20
357.2535322286149
 30
0.0
 10
250.7897691156431
 20
357.253532228644
 30
0.0
 10
250.3992448238732
 20
356.8630079369068
 30
0.0
 10
250.3992448238732
 20
356.8630079369068
 30
0.0
 10
249.1618079567415
 20
355.6255710698879
 30
0.0
 10
249.1618079567415
 20
355.6255710698879
 30
0.0
 10
248.7712836649735
 20
355.2350467781525
 30
0.0
 10
248.1381186861017
 20
355.2350467781816
 30
0.0
 10
247.7475943943682
 20
355.6255710699515
 30
0.0
 10
247.7475943943682
 20
355.6255710699515
 30
0.0
 10
238.7673382737012
 20
364.6058271914226
 30
0.0
 10
238.7673382737012
 20
364.6058271914226
 30
0.0
 10
238.3768139819695
 20
364.9963514831925
 30
0.0
 10
238.3768139819967
 20
365.6295164620624
 30
0.0
 10
238.7673382737648
 20
366.0200407537959
 30
0.0
 10
238.7673382737648
 20
366.0200407537941
 30
0.0
 10
240.0047751408983
 20
367.2574776208185
 30
0.0
 10
240.0047751408983
 20
367.2574776208185
 30
0.0
 10
240.3952994326664
 20
367.6480019125502
 30
0.0
 10
240.3952994326955
 20
368.2811668914201
 30
0.0
 10
240.004775140962
 20
368.6716911831918
 30
0.0
 10
240.004775140962
 20
368.6716911831918
 30
0.0
 10
234.9312839861759
 20
373.7451823384326
 30
0.0
 10
234.9312839861759
 20
373.7451823384326
 30
0.0
 10
234.5407596944406
 20
374.1357066302007
 30
0.0
 10
233.9075947155707
 20
374.135706630228
 30
0.0
 10
233.5170704238026
 20
373.7451823384963
 30
0.0
 10
233.5170704238026
 20
373.7451823384963
 30
0.0
 10
222.3801386196155
 20
362.6082505353079
 30
0.0
 10
222.3801386196155
 20
362.6082505353079
 30
0.0
 10
221.9896143278456
 20
362.2177262435725
 30
0.0
 10
221.9896143278183
 20
361.5845612647026
 30
0.0
 10
222.3801386195519
 20
361.1940369729346
 30
0.0
 10
222.3801386195519
 20
361.1940369729346
 30
0.0
 10
222.7955638534804
 20
360.7786117389678
 30
0.0
 10
222.7955638534804
 20
360.7786117389678
 30
0.0
  0
ENDBLK
  5
84
330
81
100
AcDbEntity
  8
0
100
AcDbBlockEnd
  0
BLOCK
  5
88
330
86
100
AcDbEntity
  8
0
100
AcDbBlockBegin
  2
block 16
 70
     0
 10
0.0
 20
0.0
 30
0.0
  3
block 16
  1

  0
SPLINE
  5
8A
330
86
100
AcDbEntity
  8
0
 62
     7
420
 16777215
370
    25
100
AcDbSpline
210
0.0
220
0.0
230
1.0
 70
    11
 71
     3
 72
    29
 73
    25
 74
     0
 42
0.0000000001
 43
0.0000000001
 12
1.0
 22
0.0
 32
0.0
 13
1.0
 23
0.0
 33
0.0
 40
0.0
 40
0.0
 40
0.0
 40
0.0
 40
1.0
 40
1.0
 40
1.0
 40
2.0
 40
2.0
 40
2.0
 40
3.0
 40
3.0
 40
3.0
 40
4.0
 40
4.0
 40
4.0
 40
5.0
 40
5.0
 40
5.0
 40
6.0
 40
6.0
 40
6.0
 40
7.0
 40
7.0
 40
7.0
 40
8.0
 40
8.0
 40
8.0
 40
8.0
 10
323.2728574058892
 20
404.031090196976
 30
0.0
 10
323.2728574058892
 20
404.031090196976
 30
0.0
 10
335.2728574058892
 20
404.0310901964376
 30
0.0
 10
335.2728574058892
 20
404.0310901964376
 30
0.0
 10
335.8251421557179
 20
404.0310901964122
 30
0.0
 10
336.2728574059074
 20
404.4788054465616
 30
0.0
 10
336.2728574059329
 20
405.0310901963921
 30
0.0
 10
336.2728574059329
 20
405.0310901963921
 30
0.0
 10
336.2728574064713
 20
417.0310901963921
 30
0.0
 10
336.2728574064713
 20
417.0310901963921
 30
0.0
 10
336.2728574064968
 20
417.5833749462226
 30
0.0
 10
335.8251421563473
 20
418.0310901964122
 30
0.0
 10
335.2728574065168
 20
418.0310901964376
 30
0.0
 10
335.2728574065168
 20
418.0310901964376
 30
0.0
 10
323.2728574065168
 20
418.031090196976
 30
0.0
 10
323.2728574065168
 20
418.031090196976
 30
0.0
 10
322.7205726566863
 20
418.0310901970006
 30
0.0
 10
322.2728574064968
 20
417.5833749468511
 30
0.0
 10
322.2728574064713
 20
417.0310901970206
 30
0.0
 10
322.2728574064713
 20
417.0310901970206
 30
0.0
 10
322.2728574059329
 20
405.0310901970206
 30
0.0
 10
322.2728574059329
 20
405.0310901970206
 30
0.0
 10
322.2728574059074
 20
404.4788054471901
 30
0.0
 10
322.7205726560569
 20
404.0310901970006
 30
0.0
 10
323.2728574058892
 20
404.031090196976
 30
0.0
  0
ENDBLK
  5
89
330
86
100
AcDbEntity
  8
0
100
AcDbBlockEnd
  0
BLOCK
  5
8D
330
8B
100
AcDbEntity
  8
0
100
AcDbBlockBegin
  2
block 17
 70
     0
 10
0.0
 20
0.0
 30
0.0
  3
block 17
  1

  0
SPLINE
  5
8F
330
8B
100
AcDbEntity
  8
0
 62
     7
420
 16777215
370
    25
100
AcDbSpline
210
0.0
220
0.0
230
1.0
 70
    11
 71
     3
 72
    29
 73
    25
 74
     0
 42
0.0000000001
 43
0.0000000001
 12
1.0
 22
0.0
 32
0.0
 13
1.0
 23
0.0
 33
0.0
 40
0.0
 40
0.0
 40
0.0
 40
0.0
 40
1.0
 40
1.0
 40
1.0
 40
2.0
 40
2.0
 40
2.0
 40
3.0
 40
3.0
 40
3.0
 40
4.0
 40
4.0
 40
4.0
 40
5.0
 40
5.0
 40
5.0
 40
6.0
 40
6.0
 40
6.0
 40
7.0
 40
7.0
 40
7.0
 40
8.0
 40
8.0
 40
8.0
 40
8.0
 10
341.3228574050772
 20
385.9810901961646
 30
0.0
 10
341.3228574050772
 20
385.9810901961646
 30
0.0
 10
341.3228574045388
 20
373.9810901961646
 30
0.0
 10
341.3228574045388
 20
373.9810901961646
 30
0.0
 10
341.3228574045133
 20
373.4288054463341
 30
0.0
 10
341.7705726546628
 20
372.9810901961446
 30
0.0
 10
342.3228574044952
 20
372.9810901961191
 30
0.0
 10
342.3228574044952
 20
372.9810901961191
 30
0.0
 10
354.3228574044952
 20
372.9810901955807
 30
0.0
 10
354.3228574044952
 20
372.9810901955807
 30
0.0
 10
354.8751421543238
 20
372.9810901955552
 30
0.0
 10
355.3228574045133
 20
373.4288054457047
 30
0.0
 10
355.3228574045388
 20
373.9810901955352
 30
0.0
 10
355.3228574045388
 20
373.9810901955352
 30
0.0
 10
355.3228574050772
 20
385.9810901955352
 30
0.0
 10
355.3228574050772
 20
385.9810901955352
 30
0.0
 10
355.3228574051027
 20
386.5333749453675
 30
0.0
 10
354.8751421549532
 20
386.9810901955552
 30
0.0
 10
354.3228574051227
 20
386.9810901955807
 30
0.0
 10
354.3228574051227
 20
386.9810901955807
 30
0.0
 10
342.3228574051227
 20
386.9810901961191
 30
0.0
 10
342.3228574051227
 20
386.9810901961191
 30
0.0
 10
341.7705726552922
 20
386.9810901961446
 30
0.0
 10
341.3228574051027
 20
386.5333749459969
 30
0.0
 10
341.3228574050772
 20
385.9810901961646
 30
0.0
  0
ENDBLK
  5
8E
330
8B
100
AcDbEntity
  8
0
100
AcDbBlockEnd
  0
BLOCK
  5
92
330
90
100
AcDbEntity
  8
0
100
AcDbBlockBegin
  2
block 18
 70
     0
 10
0.0
 20
0.0
 30
0.0
  3
block 18
  1

  0
SPLINE
  5
94
330
90
100
AcDbEntity
  8
0
 62
     7
420
 16777215
370
    25
100
AcDbSpline
210
0.0
220
0.0
230
1.0
 70
    11
 71
     3
 72
    29
 73
    25
 74
     0
 42
0.0000000001
 43
0.0000000001
 12
1.0
 22
0.0
 32
0.0
 13
1.0
 23
0.0
 33
0.0
 40
0.0
 40
0.0
 40
0.0
 40
0.0
 40
1.0
 40
1.0
 40
1.0
 40
2.0
 40
2.0
 40
2.0
 40
3.0
 40
3.0
 40
3.0
 40
4.0
 40
4.0
 40
4.0
 40
5.0
 40
5.0
 40
5.0
 40
6.0
 40
6.0
 40
6.0
 40
7.0
 40
7.0
 40
7.0
 40
8.0
 40
8.0
 40
8.0
 40
8.0
 10
323.2728574067442
 20
423.0810901969753
 30
0.0
 10
322.7205726569118
 20
423.0810901969999
 30
0.0
 10
322.2728574067623
 20
423.5288054471894
 30
0.0
 10
322.2728574067878
 20
424.0810901970199
 30
0.0
 10
322.2728574067878
 20
424.0810901970199
 30
0.0
 10
322.2728574073262
 20
436.0810901970199
 30
0.0
 10
322.2728574073262
 20
436.0810901970199
 30
0.0
 10
322.2728574073517
 20
436.6333749468504
 30
0.0
 10
322.7205726575412
 20
437.0810901969999
 30
0.0
 10
323.2728574073717
 20
437.0810901969753
 30
0.0
 10
323.2728574073717
 20
437.0810901969753
 30
0.0
 10
335.2728574073717
 20
437.0810901964369
 30
0.0
 10
335.2728574073717
 20
437.0810901964369
 30
0.0
 10
335.8251421572022
 20
437.0810901964114
 30
0.0
 10
336.2728574073517
 20
436.6333749462219
 30
0.0
 10
336.2728574073262
 20
436.0810901963914
 30
0.0
 10
336.2728574073262
 20
436.0810901963914
 30
0.0
 10
336.2728574067878
 20
424.0810901963914
 30
0.0
 10
336.2728574067878
 20
424.0810901963914
 30
0.0
 10
336.2728574067623
 20
423.5288054465609
 30
0.0
 10
335.8251421565728
 20
423.0810901964114
 30
0.0
 10
335.2728574067442
 20
423.0810901964369
 30
0.0
 10
335.2728574067442
 20
423.0810901964369
 30
0.0
 10
323.2728574067442
 20
423.0810901969753
 30
0.0
 10
323.2728574067442
 20
423.0810901969753
 30
0.0
  0
ENDBLK
  5
93
330
90
100
AcDbEntity
  8
0
100
AcDbBlockEnd
  0
BLOCK
  5
97
330
95
100
AcDbEntity
  8
0
100
AcDbBlockBegin
  2
block 19
 70
     0
 10
0.0
 20
0.0
 30
0.0
  3
block 19
  1

  0
SPLINE
  5
99
330
95
100
AcDbEntity
  8
0
 62
     7
420
 16777215
370
    25
100
AcDbSpline
210
0.0
220
0.0
230
1.0
 70
    11
 71
     3
 72
    29
 73
    25
 74
     0
 42
0.0000000001
 43
0.0000000001
 12
1.0
 22
0.0
 32
0.0
 13
1.0
 23
0.0
 33
0.0
 40
0.0
 40
0.0
 40
0.0
 40
0.0
 40
1.0
 40
1.0
 40
1.0
 40
2.0
 40
2.0
 40
2.0
 40
3.0
 40
3.0
 40
3.0
 40
4.0
 40
4.0
 40
4.0
 40
5.0
 40
5.0
 40
5.0
 40
6.0
 40
6.0
 40
6.0
 40
7.0
 40
7.0
 40
7.0
 40
8.0
 40
8.0
 40
8.0
 40
8.0
 10
336.272857405078
 20
385.981090196392
 30
0.0
 10
336.2728574050525
 20
385.4288054465615
 30
0.0
 10
335.825142154863
 20
384.981090196412
 30
0.0
 10
335.2728574050325
 20
384.9810901964356
 30
0.0
 10
335.2728574050325
 20
384.9810901964356
 30
0.0
 10
323.2728574050325
 20
384.981090196974
 30
0.0
 10
323.2728574050325
 20
384.981090196974
 30
0.0
 10
322.720572655202
 20
384.9810901969995
 30
0.0
 10
322.2728574050525
 20
385.428805447189
 30
0.0
 10
322.272857405078
 20
385.9810901970195
 30
0.0
 10
322.272857405078
 20
385.9810901970195
 30
0.0
 10
322.2728574056164
 20
397.9810901970195
 30
0.0
 10
322.2728574056164
 20
397.9810901970195
 30
0.0
 10
322.2728574056418
 20
398.53337494685
 30
0.0
 10
322.7205726558313
 20
398.9810901969995
 30
0.0
 10
323.27285740566
 20
398.9810901969749
 30
0.0
 10
323.27285740566
 20
398.9810901969749
 30
0.0
 10
335.27285740566
 20
398.9810901964365
 30
0.0
 10
335.27285740566
 20
398.9810901964365
 30
0.0
 10
335.8251421554924
 20
398.9810901964111
 30
0.0
 10
336.2728574056418
 20
398.5333749462216
 30
0.0
 10
336.2728574056164
 20
397.9810901963911
 30
0.0
 10
336.2728574056164
 20
397.9810901963911
 30
0.0
 10
336.272857405078
 20
385.981090196392
 30
0.0
 10
336.272857405078
 20
385.981090196392
 30
0.0
  0
ENDBLK
  5
98
330
95
100
AcDbEntity
  8
0
100
AcDbBlockEnd
  0
BLOCK
  5
9C
330
9A
100
AcDbEntity
  8
0
100
AcDbBlockBegin
  2
block 20
 70
     0
 10
0.0
 20
0.0
 30
0.0
  3
block 20
  1

  0
SPLINE
  5
9E
330
9A
100
AcDbEntity
  8
0
 62
     7
420
 16777215
370
    25
100
AcDbSpline
210
0.0
220
0.0
230
1.0
 70
    11
 71
     3
 72
    29
 73
    25
 74
     0
 42
0.0000000001
 43
0.0000000001
 12
1.0
 22
0.0
 32
0.0
 13
1.0
 23
0.0
 33
0.0
 40
0.0
 40
0.0
 40
0.0
 40
0.0
 40
1.0
 40
1.0
 40
1.0
 40
2.0
 40
2.0
 40
2.0
 40
3.0
 40
3.0
 40
3.0
 40
4.0
 40
4.0
 40
4.0
 40
5.0
 40
5.0
 40
5.0
 40
6.0
 40
6.0
 40
6.0
 40
7.0
 40
7.0
 40
7.0
 40
8.0
 40
8.0
 40
8.0
 40
8.0
 10
374.3728574053948
 20
393.0310801946816
 30
0.0
 10
374.3728574053694
 20
392.4787954448493
 30
0.0
 10
373.9251421551799
 20
392.0310801947016
 30
0.0
 10
373.3728574053494
 20
392.0310801947271
 30
0.0
 10
373.3728574053494
 20
392.0310801947271
 30
0.0
 10
361.3728574053494
 20
392.0310801952655
 30
0.0
 10
361.3728574053494
 20
392.0310801952655
 30
0.0
 10
360.820572655517
 20
392.031080195291
 30
0.0
 10
360.3728574053694
 20
392.4787954454787
 30
0.0
 10
360.3728574053948
 20
393.031080195311
 30
0.0
 10
360.3728574053948
 20
393.031080195311
 30
0.0
 10
360.3728574059332
 20
405.031080195311
 30
0.0
 10
360.3728574059332
 20
405.031080195311
 30
0.0
 10
360.3728574059569
 20
405.5833649451415
 30
0.0
 10
360.8205726561464
 20
406.0310801952901
 30
0.0
 10
361.3728574059787
 20
406.0310801952655
 30
0.0
 10
361.3728574059787
 20
406.0310801952655
 30
0.0
 10
373.3728574059787
 20
406.0310801947271
 30
0.0
 10
373.3728574059787
 20
406.0310801947271
 30
0.0
 10
373.9251421558074
 20
406.0310801947026
 30
0.0
 10
374.3728574059569
 20
405.5833649445121
 30
0.0
 10
374.3728574059332
 20
405.0310801946816
 30
0.0
 10
374.3728574059332
 20
405.0310801946816
 30
0.0
 10
374.3728574053948
 20
393.0310801946816
 30
0.0
 10
374.3728574053948
 20
393.0310801946816
 30
0.0
  0
ENDBLK
  5
9D
330
9A
100
AcDbEntity
  8
0
100
AcDbBlockEnd
  0
BLOCK
  5
A1
330
9F
100
AcDbEntity
  8
0
100
AcDbBlockBegin
  2
block 21
 70
     0
 10
0.0
 20
0.0
 30
0.0
  3
block 21
  1

  0
SPLINE
  5
A3
330
9F
100
AcDbEntity
  8
0
 62
     7
420
 16777215
370
    25
100
AcDbSpline
210
0.0
220
0.0
230
1.0
 70
    11
 71
     3
 72
    65
 73
    61
 74
     0
 42
0.0000000001
 43
0.0000000001
 12
1.0
 22
0.0
 32
0.0
 13
1.0
 23
0.0
 33
0.0
 40
0.0
 40
0.0
 40
0.0
 40
0.0
 40
1.0
 40
1.0
 40
1.0
 40
2.0
 40
2.0
 40
2.0
 40
3.0
 40
3.0
 40
3.0
 40
4.0
 40
4.0
 40
4.0
 40
5.0
 40
5.0
 40
5.0
 40
6.0
 40
6.0
 40
6.0
 40
7.0
 40
7.0
 40
7.0
 40
8.0
 40
8.0
 40
8.0
 40
9.0
 40
9.0
 40
9.0
 40
10.0
 40
10.0
 40
10.0
 40
11.0
 40
11.0
 40
11.0
 40
12.0
 40
12.0
 40
12.0
 40
13.0
 40
13.0
 40
13.0
 40
14.0
 40
14.0
 40
14.0
 40
15.0
 40
15.0
 40
15.0
 40
16.0
 40
16.0
 40
16.0
 40
17.0
 40
17.0
 40
17.0
 40
18.0
 40
18.0
 40
18.0
 40
19.0
 40
19.0
 40
19.0
 40
20.0
 40
20.0
 40
20.0
 40
20.0
 10
364.3571708894233
 20
409.3310801951311
 30
0.0
 10
364.3571708894233
 20
409.3310801951311
 30
0.0
 10
370.388543922827
 20
409.3310801948601
 30
0.0
 10
370.388543922827
 20
409.3310801948601
 30
0.0
 10
370.8924965535061
 20
409.3310801948373
 30
0.0
 10
371.317706585658
 20
409.7060801948182
 30
0.0
 10
371.3807006645166
 20
410.2060801948155
 30
0.0
 10
371.4436947433733
 20
410.7060801948128
 30
0.0
 10
371.8689047755252
 20
411.0810801947937
 30
0.0
 10
372.3728574062043
 20
411.0810801947709
 30
0.0
 10
372.3728574062043
 20
411.0810801947709
 30
0.0
 10
373.3728574062043
 20
411.0810801947264
 30
0.0
 10
373.3728574062043
 20
411.0810801947264
 30
0.0
 10
373.9251421560366
 20
411.0810801947018
 30
0.0
 10
374.3728574062261
 20
411.5287954448504
 30
0.0
 10
374.3728574062498
 20
412.0810801946809
 30
0.0
 10
374.3728574062498
 20
412.0810801946809
 30
0.0
 10
374.3728574067882
 20
424.0810801946809
 30
0.0
 10
374.3728574067882
 20
424.0810801946809
 30
0.0
 10
374.3728574068136
 20
424.6333649445114
 30
0.0
 10
373.9251421566642
 20
425.0810801947018
 30
0.0
 10
373.3728574068336
 20
425.0810801947264
 30
0.0
 10
373.3728574068336
 20
425.0810801947264
 30
0.0
 10
372.3728574068336
 20
425.0810801947709
 30
0.0
 10
372.3728574068336
 20
425.0810801947709
 30
0.0
 10
371.8689047761545
 20
425.0810801947937
 30
0.0
 10
371.4436947440354
 20
425.4560801948128
 30
0.0
 10
371.3807006652241
 20
425.9560801948155
 30
0.0
 10
371.3177065864111
 20
426.4560801948182
 30
0.0
 10
370.8924965542919
 20
426.8310801948373
 30
0.0
 10
370.3885439236128
 20
426.8310801948601
 30
0.0
 10
370.3885439236128
 20
426.8310801948601
 30
0.0
 10
364.3571708902091
 20
426.8310801951311
 30
0.0
 10
364.3571708902091
 20
426.8310801951311
 30
0.0
 10
363.85321825953
 20
426.8310801951538
 30
0.0
 10
363.4280082273799
 20
426.4560801951729
 30
0.0
 10
363.3650141485214
 20
425.9560801951757
 30
0.0
 10
363.3020200696628
 20
425.4560801951784
 30
0.0
 10
362.8768100375128
 20
425.0810801951975
 30
0.0
 10
362.3728574068336
 20
425.0810801952202
 30
0.0
 10
362.3728574068336
 20
425.0810801952202
 30
0.0
 10
361.3728574068336
 20
425.0810801952648
 30
0.0
 10
361.3728574068336
 20
425.0810801952648
 30
0.0
 10
360.8205726570013
 20
425.0810801952894
 30
0.0
 10
360.3728574068136
 20
424.6333649451408
 30
0.0
 10
360.3728574067882
 20
424.0810801953103
 30
0.0
 10
360.3728574067882
 20
424.0810801953103
 30
0.0
 10
360.3728574062498
 20
412.0810801953103
 30
0.0
 10
360.3728574062498
 20
412.0810801953103
 30
0.0
 10
360.3728574062261
 20
411.5287954454798
 30
0.0
 10
360.8205726563738
 20
411.0810801952894
 30
0.0
 10
361.3728574062043
 20
411.0810801952648
 30
0.0
 10
361.3728574062043
 20
411.0810801952648
 30
0.0
 10
362.3728574062043
 20
411.0810801952202
 30
0.0
 10
362.3728574062043
 20
411.0810801952202
 30
0.0
 10
362.8768100368834
 20
411.0810801951975
 30
0.0
 10
363.3020200690007
 20
410.7060801951784
 30
0.0
 10
363.3650141478138
 20
410.2060801951757
 30
0.0
 10
363.4280082266268
 20
409.7060801951729
 30
0.0
 10
363.8532182587442
 20
409.3310801951538
 30
0.0
 10
364.3571708894233
 20
409.3310801951311
 30
0.0
  0
ENDBLK
  5
A2
330
9F
100
AcDbEntity
  8
0
100
AcDbBlockEnd
  0
BLOCK
  5
A6
330
A4
100
AcDbEntity
  8
0
100
AcDbBlockBegin
  2
block 22
 70
     0
 10
0.0
 20
0.0
 30
0.0
  3
block 22
  1

  0
SPLINE
  5
A8
330
A4
100
AcDbEntity
  8
0
 62
     7
420
 16777215
370
    25
100
AcDbSpline
210
0.0
220
0.0
230
1.0
 70
    11
 71
     3
 72
    29
 73
    25
 74
     0
 42
0.0000000001
 43
0.0000000001
 12
1.0
 22
0.0
 32
0.0
 13
1.0
 23
0.0
 33
0.0
 40
0.0
 40
0.0
 40
0.0
 40
0.0
 40
1.0
 40
1.0
 40
1.0
 40
2.0
 40
2.0
 40
2.0
 40
3.0
 40
3.0
 40
3.0
 40
4.0
 40
4.0
 40
4.0
 40
5.0
 40
5.0
 40
5.0
 40
6.0
 40
6.0
 40
6.0
 40
7.0
 40
7.0
 40
7.0
 40
8.0
 40
8.0
 40
8.0
 40
8.0
 10
341.3228574067871
 20
424.081090196165
 30
0.0
 10
341.3228574068125
 20
424.6333749459955
 30
0.0
 10
341.770572657002
 20
425.0810901961449
 30
0.0
 10
342.3228574068344
 20
425.0810901961204
 30
0.0
 10
342.3228574068344
 20
425.0810901961204
 30
0.0
 10
354.3228574068344
 20
425.0810901955811
 30
0.0
 10
354.3228574068344
 20
425.0810901955811
 30
0.0
 10
354.8751421566631
 20
425.0810901955565
 30
0.0
 10
355.3228574068125
 20
424.633374945367
 30
0.0
 10
355.3228574067871
 20
424.0810901955365
 30
0.0
 10
355.3228574067871
 20
424.0810901955365
 30
0.0
 10
355.3228574062487
 20
412.0810901955365
 30
0.0
 10
355.3228574062487
 20
412.0810901955365
 30
0.0
 10
355.322857406225
 20
411.528805445706
 30
0.0
 10
354.8751421560355
 20
411.0810901955565
 30
0.0
 10
354.322857406205
 20
411.0810901955811
 30
0.0
 10
354.322857406205
 20
411.0810901955811
 30
0.0
 10
342.322857406205
 20
411.0810901961204
 30
0.0
 10
342.322857406205
 20
411.0810901961204
 30
0.0
 10
341.7705726563727
 20
411.0810901961449
 30
0.0
 10
341.322857406225
 20
411.5288054463344
 30
0.0
 10
341.3228574062487
 20
412.081090196165
 30
0.0
 10
341.3228574062487
 20
412.081090196165
 30
0.0
 10
341.3228574067871
 20
424.081090196165
 30
0.0
 10
341.3228574067871
 20
424.081090196165
 30
0.0
  0
ENDBLK
  5
A7
330
A4
100
AcDbEntity
  8
0
100
AcDbBlockEnd
  0
BLOCK
  5
AB
330
A9
100
AcDbEntity
  8
0
100
AcDbBlockBegin
  2
block 23
 70
     0
 10
0.0
 20
0.0
 30
0.0
  3
block 23
  1

  0
SPLINE
  5
AD
330
A9
100
AcDbEntity
  8
0
 62
     7
420
 16777215
370
    25
100
AcDbSpline
210
0.0
220
0.0
230
1.0
 70
    11
 71
     3
 72
    29
 73
    25
 74
     0
 42
0.0000000001
 43
0.0000000001
 12
1.0
 22
0.0
 32
0.0
 13
1.0
 23
0.0
 33
0.0
 40
0.0
 40
0.0
 40
0.0
 40
0.0
 40
1.0
 40
1.0
 40
1.0
 40
2.0
 40
2.0
 40
2.0
 40
3.0
 40
3.0
 40
3.0
 40
4.0
 40
4.0
 40
4.0
 40
5.0
 40
5.0
 40
5.0
 40
6.0
 40
6.0
 40
6.0
 40
7.0
 40
7.0
 40
7.0
 40
8.0
 40
8.0
 40
8.0
 40
8.0
 10
341.3228574059322
 20
405.0310901961657
 30
0.0
 10
341.3228574059576
 20
405.5833749459962
 30
0.0
 10
341.7705726561471
 20
406.0310901961457
 30
0.0
 10
342.3228574059776
 20
406.0310901961211
 30
0.0
 10
342.3228574059776
 20
406.0310901961211
 30
0.0
 10
354.3228574059776
 20
406.0310901955818
 30
0.0
 10
354.3228574059776
 20
406.0310901955818
 30
0.0
 10
354.8751421558081
 20
406.0310901955572
 30
0.0
 10
355.3228574059576
 20
405.5833749453677
 30
0.0
 10
355.3228574059322
 20
405.0310901955372
 30
0.0
 10
355.3228574059322
 20
405.0310901955372
 30
0.0
 10
355.3228574053937
 20
393.0310901955381
 30
0.0
 10
355.3228574053937
 20
393.0310901955381
 30
0.0
 10
355.3228574053683
 20
392.4788054457058
 30
0.0
 10
354.8751421551788
 20
392.0310901955563
 30
0.0
 10
354.3228574053501
 20
392.0310901955818
 30
0.0
 10
354.3228574053501
 20
392.0310901955818
 30
0.0
 10
342.3228574053501
 20
392.0310901961202
 30
0.0
 10
342.3228574053501
 20
392.0310901961202
 30
0.0
 10
341.7705726555178
 20
392.0310901961457
 30
0.0
 10
341.3228574053683
 20
392.4788054463352
 30
0.0
 10
341.3228574053937
 20
393.0310901961657
 30
0.0
 10
341.3228574053937
 20
393.0310901961657
 30
0.0
 10
341.3228574059322
 20
405.0310901961657
 30
0.0
 10
341.3228574059322
 20
405.0310901961657
 30
0.0
  0
ENDBLK
  5
AC
330
A9
100
AcDbEntity
  8
0
100
AcDbBlockEnd
  0
BLOCK
  5
B0
330
AE
100
AcDbEntity
  8
0
100
AcDbBlockBegin
  2
block 24
 70
     0
 10
0.0
 20
0.0
 30
0.0
  3
block 24
  1

  0
SPLINE
  5
B2
330
AE
100
AcDbEntity
  8
0
 62
     7
420
 16777215
370
    25
100
AcDbSpline
210
0.0
220
0.0
230
1.0
 70
    11
 71
     3
 72
    65
 73
    61
 74
     0
 42
0.0000000001
 43
0.0000000001
 12
1.0
 22
0.0
 32
0.0
 13
1.0
 23
0.0
 33
0.0
 40
0.0
 40
0.0
 40
0.0
 40
0.0
 40
1.0
 40
1.0
 40
1.0
 40
2.0
 40
2.0
 40
2.0
 40
3.0
 40
3.0
 40
3.0
 40
4.0
 40
4.0
 40
4.0
 40
5.0
 40
5.0
 40
5.0
 40
6.0
 40
6.0
 40
6.0
 40
7.0
 40
7.0
 40
7.0
 40
8.0
 40
8.0
 40
8.0
 40
9.0
 40
9.0
 40
9.0
 40
10.0
 40
10.0
 40
10.0
 40
11.0
 40
11.0
 40
11.0
 40
12.0
 40
12.0
 40
12.0
 40
13.0
 40
13.0
 40
13.0
 40
14.0
 40
14.0
 40
14.0
 40
15.0
 40
15.0
 40
15.0
 40
16.0
 40
16.0
 40
16.0
 40
17.0
 40
17.0
 40
17.0
 40
18.0
 40
18.0
 40
18.0
 40
19.0
 40
19.0
 40
19.0
 40
20.0
 40
20.0
 40
20.0
 40
20.0
 10
314.9869660718578
 20
378.4112623775618
 30
0.0
 10
314.9869660718814
 20
378.9635471273923
 30
0.0
 10
315.4346813220709
 20
379.4112623775418
 30
0.0
 10
315.9869660719014
 20
379.4112623775163
 30
0.0
 10
315.9869660719014
 20
379.4112623775163
 30
0.0
 10
316.9869660719014
 20
379.4112623774727
 30
0.0
 10
316.9869660719014
 20
379.4112623774727
 30
0.0
 10
317.4909187025805
 20
379.411262377449
 30
0.0
 10
317.9161287347342
 20
379.7862623774308
 30
0.0
 10
317.9791228135909
 20
380.2862623774272
 30
0.0
 10
318.0421168924477
 20
380.7862623774254
 30
0.0
 10
318.4673269245995
 20
381.1612623774054
 30
0.0
 10
318.9712795552787
 20
381.1612623773835
 30
0.0
 10
318.9712795552787
 20
381.1612623773835
 30
0.0
 10
325.0026525886824
 20
381.1612623771125
 30
0.0
 10
325.0026525886824
 20
381.1612623771125
 30
0.0
 10
325.5066052193615
 20
381.1612623770889
 30
0.0
 10
325.9318152514788
 20
380.7862623770707
 30
0.0
 10
325.9948093302919
 20
380.286262377067
 30
0.0
 10
326.057803409105
 20
379.7862623770652
 30
0.0
 10
326.4830134412223
 20
379.4112623770452
 30
0.0
 10
326.9869660719014
 20
379.4112623770234
 30
0.0
 10
326.9869660719014
 20
379.4112623770234
 30
0.0
 10
327.9869660719014
 20
379.4112623769779
 30
0.0
 10
327.9869660719014
 20
379.4112623769779
 30
0.0
 10
328.5392508217319
 20
379.4112623769543
 30
0.0
 10
328.9869660718814
 20
378.9635471267648
 30
0.0
 10
328.9869660718578
 20
378.4112623769324
 30
0.0
 10
328.9869660718578
 20
378.4112623769324
 30
0.0
 10
328.9869660713193
 20
366.4112623769324
 30
0.0
 10
328.9869660713193
 20
366.4112623769324
 30
0.0
 10
328.9869660712939
 20
365.8589776271019
 30
0.0
 10
328.5392508211044
 20
365.4112623769543
 30
0.0
 10
327.986966071272
 20
365.4112623769779
 30
0.0
 10
327.986966071272
 20
365.4112623769779
 30
0.0
 10
326.986966071272
 20
365.4112623770234
 30
0.0
 10
326.986966071272
 20
365.4112623770234
 30
0.0
 10
326.4830134405929
 20
365.4112623770452
 30
0.0
 10
326.0578034084429
 20
365.0362623770652
 30
0.0
 10
325.9948093295843
 20
364.536262377067
 30
0.0
 10
325.9318152507258
 20
364.0362623770707
 30
0.0
 10
325.5066052185757
 20
363.6612623770889
 30
0.0
 10
325.0026525878966
 20
363.6612623771125
 30
0.0
 10
325.0026525878966
 20
363.6612623771125
 30
0.0
 10
318.9712795544929
 20
363.6612623773835
 30
0.0
 10
318.9712795544929
 20
363.6612623773835
 30
0.0
 10
318.4673269238156
 20
363.6612623774054
 30
0.0
 10
318.0421168916946
 20
364.0362623774254
 30
0.0
 10
317.9791228128834
 20
364.5362623774272
 30
0.0
 10
317.9161287340721
 20
365.0362623774308
 30
0.0
 10
317.4909187019512
 20
365.411262377449
 30
0.0
 10
316.986966071272
 20
365.4112623774727
 30
0.0
 10
316.986966071272
 20
365.4112623774727
 30
0.0
 10
315.986966071272
 20
365.4112623775163
 30
0.0
 10
315.986966071272
 20
365.4112623775163
 30
0.0
 10
315.4346813214433
 20
365.4112623775418
 30
0.0
 10
314.9869660712939
 20
365.8589776277313
 30
0.0
 10
314.9869660713193
 20
366.4112623775618
 30
0.0
 10
314.9869660713193
 20
366.4112623775618
 30
0.0
 10
314.9869660718578
 20
378.4112623775618
 30
0.0
 10
314.9869660718578
 20
378.4112623775618
 30
0.0
  0
ENDBLK
  5
B1
330
AE
100
AcDbEntity
  8
0
100
AcDbBlockEnd
  0
BLOCK
  5
B5
330
B3
100
AcDbEntity
  8
0
100
AcDbBlockBegin
  2
block 25
 70
     0
 10
0.0
 20
0.0
 30
0.0
  3
block 25
  1

  0
SPLINE
  5
B7
330
B3
100
AcDbEntity
  8
0
 62
     7
420
 16777215
370
    25
100
AcDbSpline
210
0.0
220
0.0
230
1.0
 70
    11
 71
     3
 72
    29
 73
    25
 74
     0
 42
0.0000000001
 43
0.0000000001
 12
1.0
 22
0.0
 32
0.0
 13
1.0
 23
0.0
 33
0.0
 40
0.0
 40
0.0
 40
0.0
 40
0.0
 40
1.0
 40
1.0
 40
1.0
 40
2.0
 40
2.0
 40
2.0
 40
3.0
 40
3.0
 40
3.0
 40
4.0
 40
4.0
 40
4.0
 40
5.0
 40
5.0
 40
5.0
 40
6.0
 40
6.0
 40
6.0
 40
7.0
 40
7.0
 40
7.0
 40
8.0
 40
8.0
 40
8.0
 40
8.0
 10
304.2228574053024
 20
390.9810901978308
 30
0.0
 10
303.6705726554719
 20
390.9810901978544
 30
0.0
 10
303.2228574053224
 20
391.4288054480458
 30
0.0
 10
303.2228574053479
 20
391.9810901978744
 30
0.0
 10
303.2228574053479
 20
391.9810901978744
 30
0.0
 10
303.2228574058863
 20
403.9810901978753
 30
0.0
 10
303.2228574058863
 20
403.9810901978753
 30
0.0
 10
303.2228574059118
 20
404.5333749477059
 30
0.0
 10
303.6705726561013
 20
404.9810901978553
 30
0.0
 10
304.22285740593
 20
404.9810901978299
 30
0.0
 10
304.22285740593
 20
404.9810901978299
 30
0.0
 10
316.22285740593
 20
404.9810901972915
 30
0.0
 10
316.22285740593
 20
404.9810901972915
 30
0.0
 10
316.7751421557623
 20
404.9810901972669
 30
0.0
 10
317.2228574059118
 20
404.5333749470774
 30
0.0
 10
317.2228574058863
 20
403.9810901972469
 30
0.0
 10
317.2228574058863
 20
403.9810901972469
 30
0.0
 10
317.2228574053479
 20
391.9810901972469
 30
0.0
 10
317.2228574053479
 20
391.9810901972469
 30
0.0
 10
317.2228574053224
 20
391.4288054474164
 30
0.0
 10
316.7751421551329
 20
390.9810901972669
 30
0.0
 10
316.2228574053024
 20
390.9810901972905
 30
0.0
 10
316.2228574053024
 20
390.9810901972905
 30
0.0
 10
304.2228574053024
 20
390.9810901978308
 30
0.0
 10
304.2228574053024
 20
390.9810901978308
 30
0.0
  0
ENDBLK
  5
B6
330
B3
100
AcDbEntity
  8
0
100
AcDbBlockEnd
  0
BLOCK
  5
BA
330
B8
100
AcDbEntity
  8
0
100
AcDbBlockBegin
  2
block 26
 70
     0
 10
0.0
 20
0.0
 30
0.0
  3
block 26
  1

  0
SPLINE
  5
BC
330
B8
100
AcDbEntity
  8
0
 62
     7
420
 16777215
370
    25
100
AcDbSpline
210
0.0
220
0.0
230
1.0
 70
    11
 71
     3
 72
    20
 73
    16
 74
     0
 42
0.0000000001
 43
0.0000000001
 12
1.0
 22
0.0
 32
0.0
 13
1.0
 23
0.0
 33
0.0
 40
0.0
 40
0.0
 40
0.0
 40
0.0
 40
1.0
 40
1.0
 40
1.0
 40
2.0
 40
2.0
 40
2.0
 40
3.0
 40
3.0
 40
3.0
 40
4.0
 40
4.0
 40
4.0
 40
5.0
 40
5.0
 40
5.0
 40
5.0
 10
283.0978574075089
 20
440.1060901987785
 30
0.0
 10
283.0978574074725
 20
439.3052773115251
 30
0.0
 10
282.4486702946979
 20
438.6560901988087
 30
0.0
 10
281.6478574074426
 20
438.656090198845
 30
0.0
 10
280.8470445201874
 20
438.6560901988805
 30
0.0
 10
280.197857407471
 20
439.3052773116551
 30
0.0
 10
280.1978574075074
 20
440.1060901989085
 30
0.0
 10
280.1978574075438
 20
440.9069030861638
 30
0.0
 10
280.8470445203184
 20
441.5560901988802
 30
0.0
 10
281.6478574075736
 20
441.5560901988447
 30
0.0
 10
282.4486702948288
 20
441.5560901988083
 30
0.0
 10
283.0978574075452
 20
440.9069030860337
 30
0.0
 10
283.0978574075089
 20
440.1060901987785
 30
0.0
 10
283.0978574075089
 20
440.1060901987785
 30
0.0
 10
283.0978574075089
 20
440.1060901987785
 30
0.0
 10
283.0978574075089
 20
440.1060901987785
 30
0.0
  0
ENDBLK
  5
BB
330
B8
100
AcDbEntity
  8
0
100
AcDbBlockEnd
  0
BLOCK
  5
BF
330
BD
100
AcDbEntity
  8
0
100
AcDbBlockBegin
  2
block 27
 70
     0
 10
0.0
 20
0.0
 30
0.0
  3
block 27
  1

  0
SPLINE
  5
C1
330
BD
100
AcDbEntity
  8
0
 62
     7
420
 16777215
370
    25
100
AcDbSpline
210
0.0
220
0.0
230
1.0
 70
    11
 71
     3
 72
    20
 73
    16
 74
     0
 42
0.0000000001
 43
0.0000000001
 12
1.0
 22
0.0
 32
0.0
 13
1.0
 23
0.0
 33
0.0
 40
0.0
 40
0.0
 40
0.0
 40
0.0
 40
1.0
 40
1.0
 40
1.0
 40
2.0
 40
2.0
 40
2.0
 40
3.0
 40
3.0
 40
3.0
 40
4.0
 40
4.0
 40
4.0
 40
5.0
 40
5.0
 40
5.0
 40
5.0
 10
342.7728574070461
 20
429.8310901960995
 30
0.0
 10
342.7728574070097
 20
429.0302773088442
 30
0.0
 10
342.1236702942369
 20
428.3810901961297
 30
0.0
 10
341.3228574069817
 20
428.381090196166
 30
0.0
 10
340.5220445197265
 20
428.3810901962015
 30
0.0
 10
339.8728574070119
 20
429.0302773089752
 30
0.0
 10
339.8728574070465
 20
429.8310901962304
 30
0.0
 10
339.8728574070828
 20
430.6319030834857
 30
0.0
 10
340.5220445198574
 20
431.2810901962011
 30
0.0
 10
341.3228574071109
 20
431.2810901961657
 30
0.0
 10
342.1236702943661
 20
431.2810901961293
 30
0.0
 10
342.7728574070825
 20
430.6319030833547
 30
0.0
 10
342.7728574070461
 20
429.8310901960995
 30
0.0
 10
342.7728574070461
 20
429.8310901960995
 30
0.0
 10
342.7728574070461
 20
429.8310901960995
 30
0.0
 10
342.7728574070461
 20
429.8310901960995
 30
0.0
  0
ENDBLK
  5
C0
330
BD
100
AcDbEntity
  8
0
100
AcDbBlockEnd
  0
BLOCK
  5
C4
330
C2
100
AcDbEntity
  8
0
100
AcDbBlockBegin
  2
block 28
 70
     0
 10
0.0
 20
0.0
 30
0.0
  3
block 28
  1

  0
SPLINE
  5
C6
330
C2
100
AcDbEntity
  8
0
 62
     7
420
 16777215
370
    25
100
AcDbSpline
210
0.0
220
0.0
230
1.0
 70
    11
 71
     3
 72
    20
 73
    16
 74
     0
 42
0.0000000001
 43
0.0000000001
 12
1.0
 22
0.0
 32
0.0
 13
1.0
 23
0.0
 33
0.0
 40
0.0
 40
0.0
 40
0.0
 40
0.0
 40
1.0
 40
1.0
 40
1.0
 40
2.0
 40
2.0
 40
2.0
 40
3.0
 40
3.0
 40
3.0
 40
4.0
 40
4.0
 40
4.0
 40
5.0
 40
5.0
 40
5.0
 40
5.0
 10
359.2978574069457
 20
427.6060801953581
 30
0.0
 10
359.2978574069093
 20
426.8052673081029
 30
0.0
 10
358.6486702941365
 20
426.1560801953883
 30
0.0
 10
357.8478574068813
 20
426.1560801954238
 30
0.0
 10
357.0470445196261
 20
426.1560801954602
 30
0.0
 10
356.3978574069115
 20
426.8052673082329
 30
0.0
 10
356.3978574069461
 20
427.6060801954882
 30
0.0
 10
356.3978574069824
 20
428.4068930827434
 30
0.0
 10
357.047044519757
 20
429.0560801954598
 30
0.0
 10
357.8478574070105
 20
429.0560801954234
 30
0.0
 10
358.6486702942675
 20
429.0560801953879
 30
0.0
 10
359.2978574069821
 20
428.4068930826134
 30
0.0
 10
359.2978574069457
 20
427.6060801953581
 30
0.0
 10
359.2978574069457
 20
427.6060801953581
 30
0.0
 10
359.2978574069457
 20
427.6060801953581
 30
0.0
 10
359.2978574069457
 20
427.6060801953581
 30
0.0
  0
ENDBLK
  5
C5
330
C2
100
AcDbEntity
  8
0
100
AcDbBlockEnd
  0
BLOCK
  5
C9
330
C7
100
AcDbEntity
  8
0
100
AcDbBlockBegin
  2
block 29
 70
     0
 10
0.0
 20
0.0
 30
0.0
  3
block 29
  1

  0
SPLINE
  5
CB
330
C7
100
AcDbEntity
  8
0
 62
     7
420
 16777215
370
    25
100
AcDbSpline
210
0.0
220
0.0
230
1.0
 70
    11
 71
     3
 72
    20
 73
    16
 74
     0
 42
0.0000000001
 43
0.0000000001
 12
1.0
 22
0.0
 32
0.0
 13
1.0
 23
0.0
 33
0.0
 40
0.0
 40
0.0
 40
0.0
 40
0.0
 40
1.0
 40
1.0
 40
1.0
 40
2.0
 40
2.0
 40
2.0
 40
3.0
 40
3.0
 40
3.0
 40
4.0
 40
4.0
 40
4.0
 40
5.0
 40
5.0
 40
5.0
 40
5.0
 10
359.2978574052358
 20
389.5060801953587
 30
0.0
 10
359.2978574051995
 20
388.7052673081016
 30
0.0
 10
358.6486702924267
 20
388.056080195387
 30
0.0
 10
357.8478574051696
 20
388.0560801954234
 30
0.0
 10
357.0470445179162
 20
388.0560801954598
 30
0.0
 10
356.3978574051998
 20
388.7052673082326
 30
0.0
 10
356.3978574052362
 20
389.5060801954896
 30
0.0
 10
356.3978574052708
 20
390.306893082743
 30
0.0
 10
357.0470445180472
 20
390.9560801954594
 30
0.0
 10
357.8478574053006
 20
390.9560801954231
 30
0.0
 10
358.6486702925558
 20
390.9560801953867
 30
0.0
 10
359.2978574052722
 20
390.3068930826121
 30
0.0
 10
359.2978574052358
 20
389.5060801953587
 30
0.0
 10
359.2978574052358
 20
389.5060801953587
 30
0.0
 10
359.2978574052358
 20
389.5060801953587
 30
0.0
 10
359.2978574052358
 20
389.5060801953587
 30
0.0
  0
ENDBLK
  5
CA
330
C7
100
AcDbEntity
  8
0
100
AcDbBlockEnd
  0
BLOCK
  5
CE
330
CC
100
AcDbEntity
  8
0
100
AcDbBlockBegin
  2
block 30
 70
     0
 10
0.0
 20
0.0
 30
0.0
  3
block 30
  1

  0
SPLINE
  5
D0
330
CC
100
AcDbEntity
  8
0
 62
     7
420
 16777215
370
    25
100
AcDbSpline
210
0.0
220
0.0
230
1.0
 70
    11
 71
     3
 72
    20
 73
    16
 74
     0
 42
0.0000000001
 43
0.0000000001
 12
1.0
 22
0.0
 32
0.0
 13
1.0
 23
0.0
 33
0.0
 40
0.0
 40
0.0
 40
0.0
 40
0.0
 40
1.0
 40
1.0
 40
1.0
 40
2.0
 40
2.0
 40
2.0
 40
3.0
 40
3.0
 40
3.0
 40
4.0
 40
4.0
 40
4.0
 40
5.0
 40
5.0
 40
5.0
 40
5.0
 10
336.6092008498381
 20
380.2310901963756
 30
0.0
 10
336.6092008498017
 20
379.4302773091222
 30
0.0
 10
335.9600137370271
 20
378.781090196404
 30
0.0
 10
335.1592008497719
 20
378.7810901964403
 30
0.0
 10
334.3583879625185
 20
378.7810901964767
 30
0.0
 10
333.7092008498003
 20
379.4302773092531
 30
0.0
 10
333.7092008498366
 20
380.2310901965066
 30
0.0
 10
333.709200849873
 20
381.0319030837618
 30
0.0
 10
334.3583879626476
 20
381.6810901964782
 30
0.0
 10
335.1592008499028
 20
381.6810901964418
 30
0.0
 10
335.9600137371563
 20
381.6810901964054
 30
0.0
 10
336.6092008498726
 20
381.0319030836308
 30
0.0
 10
336.6092008498381
 20
380.2310901963756
 30
0.0
 10
336.6092008498381
 20
380.2310901963756
 30
0.0
 10
336.6092008498381
 20
380.2310901963756
 30
0.0
 10
336.6092008498381
 20
380.2310901963756
 30
0.0
  0
ENDBLK
  5
CF
330
CC
100
AcDbEntity
  8
0
100
AcDbBlockEnd
  0
BLOCK
  5
D3
330
D1
100
AcDbEntity
  8
0
100
AcDbBlockBegin
  2
block 31
 70
     0
 10
0.0
 20
0.0
 30
0.0
  3
block 31
  1

  0
SPLINE
  5
D5
330
D1
100
AcDbEntity
  8
0
 62
     7
420
 16777215
370
    25
100
AcDbSpline
210
0.0
220
0.0
230
1.0
 70
    11
 71
     3
 72
    20
 73
    16
 74
     0
 42
0.0000000001
 43
0.0000000001
 12
1.0
 22
0.0
 32
0.0
 13
1.0
 23
0.0
 33
0.0
 40
0.0
 40
0.0
 40
0.0
 40
0.0
 40
1.0
 40
1.0
 40
1.0
 40
2.0
 40
2.0
 40
2.0
 40
3.0
 40
3.0
 40
3.0
 40
4.0
 40
4.0
 40
4.0
 40
5.0
 40
5.0
 40
5.0
 40
5.0
 10
292.3967146673986
 20
381.6117058739801
 30
0.0
 10
292.3967146673622
 20
380.8108929867267
 30
0.0
 10
291.7475275545876
 20
380.1617058740085
 30
0.0
 10
290.9467146673342
 20
380.161705874043
 30
0.0
 10
290.1459017800789
 20
380.1617058740794
 30
0.0
 10
289.4967146673625
 20
380.8108929868558
 30
0.0
 10
289.4967146673989
 20
381.6117058741092
 30
0.0
 10
289.4967146674353
 20
382.4125187613645
 30
0.0
 10
290.1459017802099
 20
383.0617058740809
 30
0.0
 10
290.9467146674651
 20
383.0617058740445
 30
0.0
 10
291.7475275547185
 20
383.0617058740099
 30
0.0
 10
292.3967146674349
 20
382.4125187612353
 30
0.0
 10
292.3967146673986
 20
381.6117058739801
 30
0.0
 10
292.3967146673986
 20
381.6117058739801
 30
0.0
 10
292.3967146673986
 20
381.6117058739801
 30
0.0
 10
292.3967146673986
 20
381.6117058739801
 30
0.0
  0
ENDBLK
  5
D4
330
D1
100
AcDbEntity
  8
0
100
AcDbBlockEnd
  0
BLOCK
  5
D8
330
D6
100
AcDbEntity
  8
0
100
AcDbBlockBegin
  2
block 32
 70
     0
 10
0.0
 20
0.0
 30
0.0
  3
block 32
  1

  0
SPLINE
  5
DA
330
D6
100
AcDbEntity
  8
0
 62
     7
420
 16777215
370
    25
100
AcDbSpline
210
0.0
220
0.0
230
1.0
 70
    11
 71
     3
 72
    20
 73
    16
 74
     0
 42
0.0000000001
 43
0.0000000001
 12
1.0
 22
0.0
 32
0.0
 13
1.0
 23
0.0
 33
0.0
 40
0.0
 40
0.0
 40
0.0
 40
0.0
 40
1.0
 40
1.0
 40
1.0
 40
2.0
 40
2.0
 40
2.0
 40
3.0
 40
3.0
 40
3.0
 40
4.0
 40
4.0
 40
4.0
 40
5.0
 40
5.0
 40
5.0
 40
5.0
 10
248.4656030474816
 20
363.4148436331943
 30
0.0
 10
248.4656030474453
 20
362.6140307459391
 30
0.0
 10
247.8164159346707
 20
361.9648436332245
 30
0.0
 10
247.0156030474172
 20
361.9648436332609
 30
0.0
 10
246.214790160162
 20
361.9648436332955
 30
0.0
 10
245.5656030474456
 20
362.6140307460682
 30
0.0
 10
245.565603047482
 20
363.4148436333235
 30
0.0
 10
245.5656030475184
 20
364.2156565205787
 30
0.0
 10
246.214790160293
 20
364.8648436332933
 30
0.0
 10
247.0156030475482
 20
364.8648436332587
 30
0.0
 10
247.8164159348016
 20
364.8648436332223
 30
0.0
 10
248.465603047518
 20
364.2156565204496
 30
0.0
 10
248.4656030474816
 20
363.4148436331943
 30
0.0
 10
248.4656030474816
 20
363.4148436331943
 30
0.0
 10
248.4656030474816
 20
363.4148436331943
 30
0.0
 10
248.4656030474816
 20
363.4148436331943
 30
0.0
  0
ENDBLK
  5
D9
330
D6
100
AcDbEntity
  8
0
100
AcDbBlockEnd
  0
ENDSEC
  0
SECTION
  2
ENTITIES
  0
INSERT
  5
41
330
1F
100
AcDbEntity
  8
0
100
AcDbBlockReference
  2
block 2
 10
0.0
 20
0.0
 30
0.0
  0
INSERT
  5
46
330
1F
100
AcDbEntity
  8
0
100
AcDbBlockReference
  2
block 3
 10
0.0
 20
0.0
 30
0.0
  0
INSERT
  5
4B
330
1F
100
AcDbEntity
  8
0
100
AcDbBlockReference
  2
block 4
 10
0.0
 20
0.0
 30
0.0
  0
INSERT
  5
50
330
1F
100
AcDbEntity
  8
0
100
AcDbBlockReference
  2
block 5
 10
0.0
 20
0.0
 30
0.0
  0
INSERT
  5
55
330
1F
100
AcDbEntity
  8
0
100
AcDbBlockReference
  2
block 6
 10
0.0
 20
0.0
 30
0.0
  0
INSERT
  5
5A
330
1F
100
AcDbEntity
  8
0
100
AcDbBlockReference
  2
block 7
 10
0.0
 20
0.0
 30
0.0
  0
INSERT
  5
5F
330
1F
100
AcDbEntity
  8
0
100
AcDbBlockReference
  2
block 8
 10
0.0
 20
0.0
 30
0.0
  0
INSERT
  5
64
330
1F
100
AcDbEntity
  8
0
100
AcDbBlockReference
  2
block 9
 10
0.0
 20
0.0
 30
0.0
  0
INSERT
  5
69
330
1F
100
AcDbEntity
  8
0
100
AcDbBlockReference
  2
block 10
 10
0.0
 20
0.0
 30
0.0
  0
INSERT
  5
6E
330
1F
100
AcDbEntity
  8
0
100
AcDbBlockReference
  2
block 11
 10
0.0
 20
0.0
 30
0.0
  0
INSERT
  5
73
330
1F
100
AcDbEntity
  8
0
100
AcDbBlockReference
  2
block 12
 10
0.0
 20
0.0
 30
0.0
  0
INSERT
  5
78
330
1F
100
AcDbEntity
  8
0
100
AcDbBlockReference
  2
block 13
 10
0.0
 20
0.0
 30
0.0
  0
INSERT
  5
7D
330
1F
100
AcDbEntity
  8
0
100
AcDbBlockReference
  2
block 14
 10
0.0
 20
0.0
 30
0.0
  0
INSERT
  5
82
330
1F
100
AcDbEntity
  8
0
100
AcDbBlockReference
  2
block 15
 10
0.0
 20
0.0
 30
0.0
  0
INSERT
  5
87
330
1F
100
AcDbEntity
  8
0
100
AcDbBlockReference
  2
block 16
 10
0.0
 20
0.0
 30
0.0
  0
INSERT
  5
8C
330
1F
100
AcDbEntity
  8
0
100
AcDbBlockReference
  2
block 17
 10
0.0
 20
0.0
 30
0.0
  0
INSERT
  5
91
330
1F
100
AcDbEntity
  8
0
100
AcDbBlockReference
  2
block 18
 10
0.0
 20
0.0
 30
0.0
  0
INSERT
  5
96
330
1F
100
AcDbEntity
  8
0
100
AcDbBlockReference
  2
block 19
 10
0.0
 20
0.0
 30
0.0
  0
INSERT
  5
9B
330
1F
100
AcDbEntity
  8
0
100
AcDbBlockReference
  2
block 20
 10
0.0
 20
0.0
 30
0.0
  0
INSERT
  5
A0
330
1F
100
AcDbEntity
  8
0
100
AcDbBlockReference
  2
block 21
 10
0.0
 20
0.0
 30
0.0
  0
INSERT
  5
A5
330
1F
100
AcDbEntity
  8
0
100
AcDbBlockReference
  2
block 22
 10
0.0
 20
0.0
 30
0.0
  0
INSERT
  5
AA
330
1F
100
AcDbEntity
  8
0
100
AcDbBlockReference
  2
block 23
 10
0.0
 20
0.0
 30
0.0
  0
INSERT
  5
AF
330
1F
100
AcDbEntity
  8
0
100
AcDbBlockReference
  2
block 24
 10
0.0
 20
0.0
 30
0.0
  0
INSERT
  5
B4
330
1F
100
AcDbEntity
  8
0
100
AcDbBlockReference
  2
block 25
 10
0.0
 20
0.0
 30
0.0
  0
INSERT
  5
B9
330
1F
100
AcDbEntity
  8
0
100
AcDbBlockReference
  2
block 26
 10
0.0
 20
0.0
 30
0.0
  0
INSERT
  5
BE
330
1F
100
AcDbEntity
  8
0
100
AcDbBlockReference
  2
block 27
 10
0.0
 20
0.0
 30
0.0
  0
INSERT
  5
C3
330
1F
100
AcDbEntity
  8
0
100
AcDbBlockReference
  2
block 28
 10
0.0
 20
0.0
 30
0.0
  0
INSERT
  5
C8
330
1F
100
AcDbEntity
  8
0
100
AcDbBlockReference
  2
block 29
 10
0.0
 20
0.0
 30
0.0
  0
INSERT
  5
CD
330
1F
100
AcDbEntity
  8
0
100
AcDbBlockReference
  2
block 30
 10
0.0
 20
0.0
 30
0.0
  0
INSERT
  5
D2
330
1F
100
AcDbEntity
  8
0
100
AcDbBlockReference
  2
block 31
 10
0.0
 20
0.0
 30
0.0
  0
INSERT
  5
D7
330
1F
100
AcDbEntity
  8
0
100
AcDbBlockReference
  2
block 32
 10
0.0
 20
0.0
 30
0.0
  0
ENDSEC
  0
SECTION
  2
OBJECTS
  0
DICTIONARY
  5
C
330
0
100
AcDbDictionary
281
     1
  3
ACAD_GROUP
350
D
  3
ACAD_LAYOUT
350
1A
  3
ACAD_MATERIAL
350
3B
  3
ACAD_MLEADERSTYLE
350
DC
  3
ACAD_MLINESTYLE
350
17
  3
ACAD_PLOTSETTINGS
350
19
  3
ACAD_PLOTSTYLENAME
350
E
  3
ACAD_TABLESTYLE
350
DB
  3
ACAD_VISUALSTYLE
350
2A
  0
SUN
  5
3F
330
29
100
AcDbSun
 90
        1
290
     0
 63
     7
421
 16777215
 40
1.0
291
     1
 91
  2455826
 92
 54000000
292
     0
 70
     2
 71
   256
280
     1
  0
DICTIONARY
  5
D
102
{ACAD_REACTORS
330
C
102
}
330
C
100
AcDbDictionary
281
     1
  0
DICTIONARY
  5
1A
102
{ACAD_REACTORS
330
C
102
}
330
C
100
AcDbDictionary
281
     1
  3
Layout1
350
1E
  3
Layout2
350
26
  3
Model
350
22
  0
DICTIONARY
  5
3B
102
{ACAD_REACTORS
330
C
102
}
330
C
100
AcDbDictionary
281
     1
  3
ByBlock
350
3D
  3
ByLayer
350
3C
  3
Global
350
3E
  0
DICTIONARY
  5
DC
102
{ACAD_REACTORS
330
C
102
}
330
C
100
AcDbDictionary
281
     1
  0
DICTIONARY
  5
17
102
{ACAD_REACTORS
330
C
102
}
330
C
100
AcDbDictionary
281
     1
  3
Standard
350
18
  0
DICTIONARY
  5
19
102
{ACAD_REACTORS
330
C
102
}
330
C
100
AcDbDictionary
281
     1
  0
ACDBDICTIONARYWDFLT
  5
E
102
{ACAD_REACTORS
330
C
102
}
330
C
100
AcDbDictionary
281
     1
  3
Normal
350
F
100
AcDbDictionaryWithDefault
340
F
  0
DICTIONARY
  5
DB
102
{ACAD_REACTORS
330
C
102
}
330
C
100
AcDbDictionary
281
     1
  0
DICTIONARY
  5
2A
102
{ACAD_REACTORS
330
C
102
}
330
C
100
AcDbDictionary
281
     1
  3
2dWireframe
350
2F
  3
3D Hidden
350
31
  3
3dWireframe
350
30
  3
Basic
350
32
  3
Brighten
350
36
  3
ColorChange
350
3A
  3
Conceptual
350
34
  3
Dim
350
35
  3
Facepattern
350
39
  3
Flat
350
2B
  3
FlatWithEdges
350
2C
  3
Gouraud
350
2D
  3
GouraudWithEdges
350
2E
  3
Linepattern
350
38
  3
Realistic
350
33
  3
Thicken
350
37
  0
LAYOUT
  5
1E
102
{ACAD_REACTORS
330
1A
102
}
330
1A
100
AcDbPlotSettings
  1

  2
none_device
  4

  6

 40
0.0
 41
0.0
 42
0.0
 43
0.0
 44
0.0
 45
0.0
 46
0.0
 47
0.0
 48
0.0
 49
0.0
140
0.0
141
0.0
142
1.0
143
1.0
 70
   688
 72
     0
 73
     0
 74
     5
  7

 75
    16
 76
     0
 77
     2
 78
   300
147
1.0
148
0.0
149
0.0
100
AcDbLayout
  1
Layout1
 70
     1
 71
     1
 10
0.0
 20
0.0
 11
12.0
 21
9.0
 12
0.0
 22
0.0
 32
0.0
 14
1.000000000000000E+20
 24
1.000000000000000E+20
 34
1.000000000000000E+20
 15
-1.000000000000000E+20
 25
-1.000000000000000E+20
 35
-1.000000000000000E+20
146
0.0
 13
0.0
 23
0.0
 33
0.0
 16
1.0
 26
0.0
 36
0.0
 17
0.0
 27
1.0
 37
0.0
 76
     0
330
1B
  0
LAYOUT
  5
26
102
{ACAD_REACTORS
330
1A
102
}
330
1A
100
AcDbPlotSettings
  1

  2
none_device
  4

  6

 40
0.0
 41
0.0
 42
0.0
 43
0.0
 44
0.0
 45
0.0
 46
0.0
 47
0.0
 48
0.0
 49
0.0
140
0.0
141
0.0
142
1.0
143
1.0
 70
   688
 72
     0
 73
     0
 74
     5
  7

 75
    16
 76
     0
 77
     2
 78
   300
147
1.0
148
0.0
149
0.0
100
AcDbLayout
  1
Layout2
 70
     1
 71
     2
 10
0.0
 20
0.0
 11
0.0
 21
0.0
 12
0.0
 22
0.0
 32
0.0
 14
0.0
 24
0.0
 34
0.0
 15
0.0
 25
0.0
 35
0.0
146
0.0
 13
0.0
 23
0.0
 33
0.0
 16
1.0
 26
0.0
 36
0.0
 17
0.0
 27
1.0
 37
0.0
 76
     0
330
23
  0
LAYOUT
  5
22
102
{ACAD_REACTORS
330
1A
102
}
330
1A
100
AcDbPlotSettings
  1

  2
none_device
  4

  6

 40
0.0
 41
0.0
 42
0.0
 43
0.0
 44
0.0
 45
0.0
 46
0.0
 47
0.0
 48
0.0
 49
0.0
140
0.0
141
0.0
142
1.0
143
1.0
 70
  1712
 72
     0
 73
     0
 74
     0
  7

 75
     0
 76
     0
 77
     2
 78
   300
147
1.0
148
0.0
149
0.0
100
AcDbLayout
  1
Model
 70
     1
 71
     0
 10
0.0
 20
0.0
 11
12.0
 21
9.0
 12
0.0
 22
0.0
 32
0.0
 14
1.000000000000000E+20
 24
1.000000000000000E+20
 34
1.000000000000000E+20
 15
-1.000000000000000E+20
 25
-1.000000000000000E+20
 35
-1.000000000000000E+20
146
0.0
 13
0.0
 23
0.0
 33
0.0
 16
1.0
 26
0.0
 36
0.0
 17
0.0
 27
1.0
 37
0.0
 76
     0
330
1F
331
29
  0
MATERIAL
  5
3D
102
{ACAD_REACTORS
330
3B
102
}
330
3B
100
AcDbMaterial
  1
ByBlock
 72
     1
 94
      127
  0
MATERIAL
  5
3C
102
{ACAD_REACTORS
330
3B
102
}
330
3B
100
AcDbMaterial
  1
ByLayer
 72
     1
 94
      127
  0
MATERIAL
  5
3E
102
{ACAD_REACTORS
330
3B
102
}
330
3B
100
AcDbMaterial
  1
Global
 72
     1
 94
      127
  0
MLINESTYLE
  5
18
102
{ACAD_REACTORS
330
17
102
}
330
17
100
AcDbMlineStyle
  2
Standard
 70
     0
  3

 62
   256
 51
90.0
 52
90.0
 71
     2
 49
0.5
 62
   256
  6
BYLAYER
 49
-0.5
 62
   256
  6
BYLAYER
  0
ACDBPLACEHOLDER
  5
F
102
{ACAD_REACTORS
330
E
102
}
330
E
  0
VISUALSTYLE
  5
2F
102
{ACAD_REACTORS
330
2A
102
}
330
2A
100
AcDbVisualStyle
  2
2dWireframe
 70
     4
177
     2
291
     0
 71
     0
176
     1
 72
     2
176
     1
 73
     0
176
     1
 90
        0
176
     1
 40
-0.6
176
     1
 41
-30.0
176
     1
 62
     5
 63
     7
421
 16777215
176
     1
 74
     1
176
     1
 91
        4
176
     1
 64
     7
176
     1
 65
   257
176
     1
 75
     1
176
     1
175
     1
176
     1
 42
1.0
176
     1
 92
        0
176
     1
 66
   257
176
     1
 43
1.0
176
     1
 76
     1
176
     1
 77
     6
176
     1
 78
     2
176
     1
 67
     7
176
     1
 79
     5
176
     1
170
     0
176
     1
171
     0
176
     1
290
     0
176
     1
 93
        1
176
     1
 44
0.0
176
     1
173
     0
176
     1
  0
VISUALSTYLE
  5
31
102
{ACAD_REACTORS
330
2A
102
}
330
2A
100
AcDbVisualStyle
  2
3D Hidden
 70
     6
177
     2
291
     0
 71
     1
176
     1
 72
     2
176
     1
 73
     2
176
     1
 90
        0
176
     1
 40
-0.6
176
     1
 41
-30.0
176
     1
 62
     5
 63
     7
421
 16777215
176
     1
 74
     2
176
     1
 91
        2
176
     1
 64
     7
176
     1
 65
   257
176
     1
 75
     2
176
     1
175
     1
176
     1
 42
40.0
176
     1
 92
        0
176
     1
 66
   257
176
     1
 43
1.0
176
     1
 76
     1
176
     1
 77
     6
176
     1
 78
     2
176
     1
 67
     7
176
     1
 79
     3
176
     1
170
     0
176
     1
171
     0
176
     1
290
     0
176
     1
 93
        1
176
     1
 44
0.0
176
     1
173
     0
176
     1
  0
VISUALSTYLE
  5
30
102
{ACAD_REACTORS
330
2A
102
}
330
2A
100
AcDbVisualStyle
  2
3dWireframe
 70
     5
177
     2
291
     0
 71
     0
176
     1
 72
     2
176
     1
 73
     0
176
     1
 90
        0
176
     1
 40
-0.6
176
     1
 41
-30.0
176
     1
 62
     5
 63
     7
421
 16777215
176
     1
 74
     1
176
     1
 91
        4
176
     1
 64
     7
176
     1
 65
   257
176
     1
 75
     1
176
     1
175
     1
176
     1
 42
1.0
176
     1
 92
        0
176
     1
 66
   257
176
     1
 43
1.0
176
     1
 76
     1
176
     1
 77
     6
176
     1
 78
     2
176
     1
 67
     7
176
     1
 79
     5
176
     1
170
     0
176
     1
171
     0
176
     1
290
     0
176
     1
 93
        1
176
     1
 44
0.0
176
     1
173
     0
176
     1
  0
VISUALSTYLE
  5
32
102
{ACAD_REACTORS
330
2A
102
}
330
2A
100
AcDbVisualStyle
  2
Basic
 70
     7
177
     2
291
     1
 71
     1
176
     1
 72
     0
176
     1
 73
     1
176
     1
 90
        0
176
     1
 40
-0.6
176
     1
 41
-30.0
176
     1
 62
     5
 63
     7
421
 16777215
176
     1
 74
     0
176
     1
 91
        4
176
     1
 64
     7
176
     1
 65
   257
176
     1
 75
     1
176
     1
175
     1
176
     1
 42
1.0
176
     1
 92
        8
176
     1
 66
     7
176
     1
 43
1.0
176
     1
 76
     1
176
     1
 77
     6
176
     1
 78
     2
176
     1
 67
     7
176
     1
 79
     5
176
     1
170
     0
176
     1
171
     0
176
     1
290
     0
176
     1
 93
        1
176
     1
 44
0.0
176
     1
173
     0
176
     1
  0
VISUALSTYLE
  5
36
102
{ACAD_REACTORS
330
2A
102
}
330
2A
100
AcDbVisualStyle
  2
Brighten
 70
    12
177
     2
291
     1
 71
     2
176
     1
 72
     2
176
     1
 73
     0
176
     1
 90
        0
176
     1
 40
-0.6
176
     1
 41
-30.0
176
     1
 62
     5
 63
     7
421
 16777215
176
     1
 74
     1
176
     1
 91
        4
176
     1
 64
     7
176
     1
 65
   257
176
     1
 75
     1
176
     1
175
     1
176
     1
 42
1.0
176
     1
 92
        8
176
     1
 66
     7
176
     1
 43
1.0
176
     1
 76
     1
176
     1
 77
     6
176
     1
 78
     2
176
     1
 67
     7
176
     1
 79
     5
176
     1
170
     0
176
     1
171
     0
176
     1
290
     0
176
     1
 93
        1
176
     1
 44
50.0
176
     1
173
     0
176
     1
  0
VISUALSTYLE
  5
3A
102
{ACAD_REACTORS
330
2A
102
}
330
2A
100
AcDbVisualStyle
  2
ColorChange
 70
    16
177
     2
291
     1
 71
     2
176
     1
 72
     2
176
     1
 73
     3
176
     1
 90
        0
176
     1
 40
-0.6
176
     1
 41
-30.0
176
     1
 62
     5
 63
     8
421
  8421504
176
     1
 74
     1
176
     1
 91
        4
176
     1
 64
     7
176
     1
 65
   257
176
     1
 75
     1
176
     1
175
     1
176
     1
 42
1.0
176
     1
 92
        8
176
     1
 66
     8
424
  8421504
176
     1
 43
1.0
176
     1
 76
     1
176
     1
 77
     6
176
     1
 78
     2
176
     1
 67
     7
176
     1
 79
     5
176
     1
170
     0
176
     1
171
     0
176
     1
290
     0
176
     1
 93
        1
176
     1
 44
0.0
176
     1
173
     0
176
     1
  0
VISUALSTYLE
  5
34
102
{ACAD_REACTORS
330
2A
102
}
330
2A
100
AcDbVisualStyle
  2
Conceptual
 70
     9
177
     2
291
     0
 71
     3
176
     1
 72
     2
176
     1
 73
     0
176
     1
 90
        0
176
     1
 40
-0.6
176
     1
 41
-30.0
176
     1
 62
     5
 63
     7
421
 16777215
176
     1
 74
     2
176
     1
 91
        2
176
     1
 64
     7
176
     1
 65
   257
176
     1
 75
     1
176
     1
175
     1
176
     1
 42
40.0
176
     1
 92
        8
176
     1
 66
     7
176
     1
 43
1.0
176
     1
 76
     1
176
     1
 77
     6
176
     1
 78
     2
176
     1
 67
     7
176
     1
 79
     3
176
     1
170
     0
176
     1
171
     0
176
     1
290
     0
176
     1
 93
        1
176
     1
 44
0.0
176
     1
173
     0
176
     1
  0
VISUALSTYLE
  5
35
102
{ACAD_REACTORS
330
2A
102
}
330
2A
100
AcDbVisualStyle
  2
Dim
 70
    11
177
     2
291
     1
 71
     2
176
     1
 72
     2
176
     1
 73
     0
176
     1
 90
        0
176
     1
 40
-0.6
176
     1
 41
-30.0
176
     1
 62
     5
 63
     7
421
 16777215
176
     1
 74
     1
176
     1
 91
        4
176
     1
 64
     7
176
     1
 65
   257
176
     1
 75
     1
176
     1
175
     1
176
     1
 42
1.0
176
     1
 92
        8
176
     1
 66
     7
176
     1
 43
1.0
176
     1
 76
     1
176
     1
 77
     6
176
     1
 78
     2
176
     1
 67
     7
176
     1
 79
     5
176
     1
170
     0
176
     1
171
     0
176
     1
290
     0
176
     1
 93
        1
176
     1
 44
-50.0
176
     1
173
     0
176
     1
  0
VISUALSTYLE
  5
39
102
{ACAD_REACTORS
330
2A
102
}
330
2A
100
AcDbVisualStyle
  2
Facepattern
 70
    15
177
     2
291
     1
 71
     2
176
     1
 72
     2
176
     1
 73
     0
176
     1
 90
        0
176
     1
 40
-0.6
176
     1
 41
-30.0
176
     1
 62
     5
 63
     7
421
 16777215
176
     1
 74
     1
176
     1
 91
        4
176
     1
 64
     7
176
     1
 65
   257
176
     1
 75
     1
176
     1
175
     1
176
     1
 42
1.0
176
     1
 92
        8
176
     1
 66
     7
176
     1
 43
1.0
176
     1
 76
     1
176
     1
 77
     6
176
     1
 78
     2
176
     1
 67
     7
176
     1
 79
     5
176
     1
170
     0
176
     1
171
     0
176
     1
290
     0
176
     1
 93
        1
176
     1
 44
0.0
176
     1
173
     0
176
     1
  0
VISUALSTYLE
  5
2B
102
{ACAD_REACTORS
330
2A
102
}
330
2A
100
AcDbVisualStyle
  2
Flat
 70
     0
177
     2
291
     1
 71
     2
176
     1
 72
     1
176
     1
 73
     1
176
     1
 90
        2
176
     1
 40
-0.6
176
     1
 41
30.0
176
     1
 62
     5
 63
     7
421
 16777215
176
     1
 74
     0
176
     1
 91
        4
176
     1
 64
     7
176
     1
 65
   257
176
     1
 75
     1
176
     1
175
     1
176
     1
 42
1.0
176
     1
 92
        8
176
     1
 66
     7
176
     1
 43
1.0
176
     1
 76
     1
176
     1
 77
     6
176
     1
 78
     2
176
     1
 67
     7
176
     1
 79
     5
176
     1
170
     0
176
     1
171
     0
176
     1
290
     0
176
     1
 93
       13
176
     1
 44
0.0
176
     1
173
     0
176
     1
  0
VISUALSTYLE
  5
2C
102
{ACAD_REACTORS
330
2A
102
}
330
2A
100
AcDbVisualStyle
  2
FlatWithEdges
 70
     1
177
     2
291
     1
 71
     2
176
     1
 72
     1
176
     1
 73
     1
176
     1
 90
        2
176
     1
 40
-0.6
176
     1
 41
30.0
176
     1
 62
     5
 63
     7
421
 16777215
176
     1
 74
     1
176
     1
 91
        4
176
     1
 64
     7
176
     1
 65
   257
176
     1
 75
     1
176
     1
175
     1
176
     1
 42
1.0
176
     1
 92
        0
176
     1
 66
   257
176
     1
 43
1.0
176
     1
 76
     1
176
     1
 77
     6
176
     1
 78
     2
176
     1
 67
     7
176
     1
 79
     5
176
     1
170
     0
176
     1
171
     0
176
     1
290
     0
176
     1
 93
       13
176
     1
 44
0.0
176
     1
173
     0
176
     1
  0
VISUALSTYLE
  5
2D
102
{ACAD_REACTORS
330
2A
102
}
330
2A
100
AcDbVisualStyle
  2
Gouraud
 70
     2
177
     2
291
     1
 71
     2
176
     1
 72
     2
176
     1
 73
     1
176
     1
 90
        2
176
     1
 40
-0.6
176
     1
 41
30.0
176
     1
 62
     5
 63
     7
421
 16777215
176
     1
 74
     0
176
     1
 91
        4
176
     1
 64
     7
176
     1
 65
   257
176
     1
 75
     1
176
     1
175
     1
176
     1
 42
1.0
176
     1
 92
        0
176
     1
 66
     7
176
     1
 43
1.0
176
     1
 76
     1
176
     1
 77
     6
176
     1
 78
     2
176
     1
 67
     7
176
     1
 79
     5
176
     1
170
     0
176
     1
171
     0
176
     1
290
     0
176
     1
 93
       13
176
     1
 44
0.0
176
     1
173
     0
176
     1
  0
VISUALSTYLE
  5
2E
102
{ACAD_REACTORS
330
2A
102
}
330
2A
100
AcDbVisualStyle
  2
GouraudWithEdges
 70
     3
177
     2
291
     1
 71
     2
176
     1
 72
     2
176
     1
 73
     1
176
     1
 90
        2
176
     1
 40
-0.6
176
     1
 41
30.0
176
     1
 62
     5
 63
     7
421
 16777215
176
     1
 74
     1
176
     1
 91
        4
176
     1
 64
     7
176
     1
 65
   257
176
     1
 75
     1
176
     1
175
     1
176
     1
 42
1.0
176
     1
 92
        0
176
     1
 66
   257
176
     1
 43
1.0
176
     1
 76
     1
176
     1
 77
     6
176
     1
 78
     2
176
     1
 67
     7
176
     1
 79
     5
176
     1
170
     0
176
     1
171
     0
176
     1
290
     0
176
     1
 93
       13
176
     1
 44
0.0
176
     1
173
     0
176
     1
  0
VISUALSTYLE
  5
38
102
{ACAD_REACTORS
330
2A
102
}
330
2A
100
AcDbVisualStyle
  2
Linepattern
 70
    14
177
     2
291
     1
 71
     2
176
     1
 72
     2
176
     1
 73
     0
176
     1
 90
        0
176
     1
 40
-0.6
176
     1
 41
-30.0
176
     1
 62
     5
 63
     7
421
 16777215
176
     1
 74
     1
176
     1
 91
        4
176
     1
 64
     7
176
     1
 65
   257
176
     1
 75
     7
176
     1
175
     7
176
     1
 42
1.0
176
     1
 92
        8
176
     1
 66
     7
176
     1
 43
1.0
176
     1
 76
     1
176
     1
 77
     6
176
     1
 78
     2
176
     1
 67
     7
176
     1
 79
     5
176
     1
170
     0
176
     1
171
     0
176
     1
290
     0
176
     1
 93
        1
176
     1
 44
0.0
176
     1
173
     0
176
     1
  0
VISUALSTYLE
  5
33
102
{ACAD_REACTORS
330
2A
102
}
330
2A
100
AcDbVisualStyle
  2
Realistic
 70
     8
177
     2
291
     0
 71
     2
176
     1
 72
     2
176
     1
 73
     0
176
     1
 90
        0
176
     1
 40
-0.6
176
     1
 41
-30.0
176
     1
 62
     5
 63
     7
421
 16777215
176
     1
 74
     1
176
     1
 91
        0
176
     1
 64
     7
176
     1
 65
   257
176
     1
 75
     1
176
     1
175
     1
176
     1
 42
1.0
176
     1
 92
        8
176
     1
 66
     8
424
  7895160
176
     1
 43
1.0
176
     1
 76
     1
176
     1
 77
     6
176
     1
 78
     2
176
     1
 67
     7
176
     1
 79
     5
176
     1
170
     0
176
     1
171
     0
176
     1
290
     0
176
     1
 93
       13
176
     1
 44
0.0
176
     1
173
     0
176
     1
  0
VISUALSTYLE
  5
37
102
{ACAD_REACTORS
330
2A
102
}
330
2A
100
AcDbVisualStyle
  2
Thicken
 70
    13
177
     2
291
     1
 71
     2
176
     1
 72
     2
176
     1
 73
     0
176
     1
 90
        0
176
     1
 40
-0.6
176
     1
 41
-30.0
176
     1
 62
     5
 63
     7
421
 16777215
176
     1
 74
     1
176
     1
 91
        4
176
     1
 64
     7
176
     1
 65
   257
176
     1
 75
     1
176
     1
175
     1
176
     1
 42
1.0
176
     1
 92
       12
176
     1
 66
     7
176
     1
 43
1.0
176
     1
 76
     1
176
     1
 77
     6
176
     1
 78
     2
176
     1
 67
     7
176
     1
 79
     5
176
     1
170
     0
176
     1
171
     0
176
     1
290
     0
176
     1
 93
        1
176
     1
 44
0.0
176
     1
173
     0
176
     1
  0
ENDSEC
  0
EOF
